<svg width="162" height="114" viewBox="0 0 162 114" fill="none" xmlns="http://www.w3.org/2000/svg">
<g opacity="0.2">
<path d="M154.726 63.2414V57.8471H149.333V56.1874H154.726V50.7931H156.385V56.1874H161.778V57.8471H156.385V63.2414H154.726Z" fill="#538DF7"/>
<path d="M104.948 63.2414V57.8471H99.5556V56.1873H104.948V50.7931H106.607V56.1873H112V57.8471H106.607V63.2414H104.948Z" fill="#538DF7"/>
<path d="M55.1704 63.2414V57.8471H49.7778V56.1873H55.1704V50.7931H56.8297V56.1873H62.2222V57.8471H56.8297V63.2414H55.1704Z" fill="#538DF7"/>
<path d="M5.39264 63.2414L5.39264 57.8471H4.35305e-06L4.49815e-06 56.1873H5.39264L5.39264 50.7931H7.05188L7.05188 56.1873H12.4445V57.8471H7.05188L7.05188 63.2414H5.39264Z" fill="#538DF7"/>
<path d="M104.948 13.4483V8.05402L99.5556 8.05402V6.39426L104.948 6.39426V1L106.607 1V6.39426L112 6.39426V8.05402L106.607 8.05402V13.4483H104.948Z" fill="#538DF7"/>
<path d="M154.726 107.64V113.034H156.385V107.64H161.778V105.98H156.385V100.586H154.726V105.98H149.333V107.64H154.726Z" fill="#538DF7"/>
<path d="M55.1704 107.64V113.034H56.8297V107.64L62.2222 107.64V105.98L56.8297 105.98V100.586H55.1704V105.98H49.7778V107.64H55.1704Z" fill="#538DF7"/>
<path d="M5.39264 107.64L5.39264 113.034H7.05188L7.05188 107.64H12.4445V105.98H7.05188L7.05188 100.586H5.39264L5.39264 105.98H1.45101e-07L0 107.64H5.39264Z" fill="#538DF7"/>
</g>
<path fill-rule="evenodd" clip-rule="evenodd" d="M56.5 0C57.0523 0 57.5 0.447715 57.5 1V11.2965C57.5 11.8488 57.0523 12.2965 56.5 12.2965C55.9477 12.2965 55.5 11.8488 55.5 11.2965V1C55.5 0.447715 55.9477 0 56.5 0ZM62 3.7437C62.5523 3.7437 63 4.19142 63 4.7437V11.2965C63 11.8488 62.5523 12.2965 62 12.2965C61.4477 12.2965 61 11.8488 61 11.2965V4.7437C61 4.19142 61.4477 3.7437 62 3.7437ZM52 7.55214C52 6.99986 51.5523 6.55214 51 6.55214C50.4477 6.55214 50 6.99986 50 7.55214V11.2965C50 11.8488 50.4477 12.2965 51 12.2965C51.5523 12.2965 52 11.8488 52 11.2965V7.55214Z" fill="#538DF7"/>
</svg>
