<svg width="112" height="65" viewBox="0 0 112 65" fill="none" xmlns="http://www.w3.org/2000/svg">
<g opacity="0.2">
<path d="M7.05185 0.793213V6.27411H12.4445V7.96056H7.05185V13.4415H5.39261V7.96056H0V6.27411H5.39261V0.793213H7.05185Z" fill="white"/>
<path d="M56.8296 0.793213V6.27411H62.2222V7.96056H56.8296V13.4415H55.1704V7.96056H49.7778V6.27411H55.1704V0.793213H56.8296Z" fill="white"/>
<path d="M106.607 0.793213V6.27411H112V7.96056H106.607V13.4415H104.948V7.96056H99.5555V6.27411H104.948V0.793213H106.607Z" fill="white"/>
<path d="M56.8296 51.3863V56.8672H62.2222V58.5536H56.8296V64.0346H55.1704V58.5536H49.7778V56.8672H55.1704V51.3863H56.8296Z" fill="white"/>
<path d="M106.607 51.3863V56.8672H112V58.5536H106.607V64.0346H104.948V58.5536H99.5555V56.8672H104.948V51.3863H106.607Z" fill="white"/>
</g>
</svg>
