<svg width="112" height="162" viewBox="0 0 112 162" fill="none" xmlns="http://www.w3.org/2000/svg">
<g opacity="0.2">
<path d="M7.05185 99.7586V105.153H12.4445V106.813H7.05185V112.207H5.39261V106.813H0V105.153H5.39261V99.7586H7.05185Z" fill="#538DF7"/>
<path d="M56.8297 99.7586V105.153H62.2222V106.813H56.8297V112.207H55.1704V106.813H49.7778V105.153H55.1704V99.7586H56.8297Z" fill="#538DF7"/>
<path d="M106.607 99.7586V105.153H112V106.813H106.607V112.207H104.948V106.813H99.5556V105.153H104.948V99.7586H106.607Z" fill="#538DF7"/>
<path d="M106.607 5.56662V0.172363H104.948V5.56662H99.5556V7.22639H104.948V12.6207H106.607V7.22639H112V5.56662H106.607Z" fill="#538DF7"/>
<path d="M7.05185 149.552V154.946H12.4445V156.606H7.05185V162H5.39261V156.606H0V154.946H5.39261V149.552H7.05185Z" fill="#538DF7"/>
<path d="M56.8297 149.552V154.946H62.2222V156.606H56.8297V162H55.1704V156.606H49.7778V154.946H55.1704V149.552H56.8297Z" fill="#538DF7"/>
<path d="M7.05185 55.3597V49.9655H5.39261V55.3597H0V57.0195H5.39261V62.4137H7.05185V57.0195H12.4445V55.3597H7.05185Z" fill="#538DF7"/>
<path d="M56.8297 55.3597V49.9655H55.1704V55.3597H49.7778V57.0195H55.1704V62.4137H56.8297V57.0195H62.2222V55.3597H56.8297Z" fill="#538DF7"/>
<path d="M106.607 149.552V154.946H112V156.606H106.607V162H104.948V156.606H99.5556V154.946H104.948V149.552H106.607Z" fill="#538DF7"/>
<path d="M106.607 55.3597V49.9655H104.948V55.3597H99.5556V57.0195H104.948V62.4137H106.607V57.0195H112V55.3597H106.607Z" fill="#538DF7"/>
</g>
</svg>
