<svg width="212" height="113" viewBox="0 0 212 113" fill="none" xmlns="http://www.w3.org/2000/svg">
<g opacity="0.2">
<path d="M7.27451 50.7587V56.1529H12.6671V57.8127H7.27451V63.207H5.61526V57.8127H0.222656V56.1529H5.61526V50.7587H7.27451Z" fill="#538DF7"/>
<path d="M57.0523 50.7587V56.1529H62.4449V57.8127H57.0523V63.207H55.393V57.8127H50.0004V56.1529H55.393V50.7587H57.0523Z" fill="#538DF7"/>
<path d="M106.83 50.7587V56.1529H112.223V57.8127H106.83V63.207H105.171V57.8127H99.7782V56.1529H105.171V50.7587H106.83Z" fill="#538DF7"/>
<path d="M156.608 50.7587V56.1529H162V57.8127H156.608V63.207H154.949V57.8127H149.556V56.1529H154.949V50.7587H156.608Z" fill="#538DF7"/>
<path d="M206.386 50.7587V56.1529H211.778V57.8127H206.386V63.207H204.726V57.8127H199.334V56.1529H204.726V50.7587H206.386Z" fill="#538DF7"/>
<path d="M7.27451 100.552V105.946H12.6671V107.606H7.27451V113H5.61526V107.606H0.222656V105.946H5.61526V100.552H7.27451Z" fill="#538DF7"/>
<path d="M7.27451 6.35983V0.965576H5.61526V6.35983H0.222656V8.01959H5.61526V13.4138H7.27451V8.01959H12.6671V6.35983H7.27451Z" fill="#538DF7"/>
<path d="M57.0523 100.552V105.946H62.4449V107.606H57.0523V113H55.393V107.606H50.0004V105.946H55.393V100.552H57.0523Z" fill="#538DF7"/>
<path d="M106.83 100.552V105.946H112.223V107.606H106.83V113H105.171V107.606H99.7782V105.946H105.171V100.552H106.83Z" fill="#538DF7"/>
<path d="M57.0523 6.35983V0.965576H55.393V6.35983H50.0004V8.01959H55.393V13.4138H57.0523V8.01959H62.4449V6.35983H57.0523Z" fill="#538DF7"/>
<path d="M106.83 6.35983V0.965576H105.171V6.35983H99.7782V8.01959H105.171V13.4138H106.83V8.01959H112.223V6.35983H106.83Z" fill="#538DF7"/>
<path d="M156.608 100.552V105.946H162V107.606H156.608V113H154.949V107.606H149.556V105.946H154.949V100.552H156.608Z" fill="#538DF7"/>
<path d="M206.386 100.552V105.946H211.778V107.606H206.386V113H204.726V107.606H199.334V105.946H204.726V100.552H206.386Z" fill="#538DF7"/>
<path d="M156.608 6.35983V0.965576H154.949V6.35983H149.556V8.01959H154.949V13.4138H156.608V8.01959H162V6.35983H156.608Z" fill="#538DF7"/>
<path d="M206.386 6.35983V0.965576H204.726V6.35983H199.334V8.01959H204.726V13.4138H206.386V8.01959H211.778V6.35983H206.386Z" fill="#538DF7"/>
</g>
</svg>
