<svg width="162" height="64" viewBox="0 0 162 64" fill="none" xmlns="http://www.w3.org/2000/svg">
<g opacity="0.2">
<path d="M7.05185 0.792969V6.18719H12.4445V7.84698H7.05185V13.2412H5.39261V7.84698H0V6.18719H5.39261V0.792969H7.05185Z" fill="#538DF7"/>
<path d="M56.8296 0.792969V6.18719H62.2222V7.84698H56.8296V13.2412H55.1704V7.84698H49.7778V6.18719H55.1704V0.792969H56.8296Z" fill="#538DF7"/>
<path d="M106.607 0.792969V6.18719H112V7.84698H106.607V13.2412H104.948V7.84698H99.5555V6.18719H104.948V0.792969H106.607Z" fill="#538DF7"/>
<path d="M56.8296 50.5861V55.9803H62.2222V57.6401H56.8296V63.0343H55.1704V57.6401H49.7778V55.9803H55.1704V50.5861H56.8296Z" fill="#538DF7"/>
<path d="M106.607 50.5861V55.9803H112V57.6401H106.607V63.0343H104.948V57.6401H99.5555V55.9803H104.948V50.5861H106.607Z" fill="#538DF7"/>
<path d="M156.385 50.5861V55.9803H161.778V57.6401H156.385V63.0343H154.726V57.6401H149.333V55.9803H154.726V50.5861H156.385Z" fill="#538DF7"/>
</g>
</svg>
