<svg width="112" height="64" viewBox="0 0 112 64" fill="none" xmlns="http://www.w3.org/2000/svg">
<g opacity="0.2">
<path d="M7.05185 0.793213V6.18744H12.4445V7.84723H7.05185V13.2415H5.39261V7.84723H0V6.18744H5.39261V0.793213H7.05185Z" fill="#538DF7"/>
<path d="M106.607 0.793213V6.18744H112V7.84723H106.607V13.2415H104.948V7.84723H99.5555V6.18744H104.948V0.793213H106.607Z" fill="#538DF7"/>
<path d="M56.8296 50.5863V55.9806H62.2222V57.6403H56.8296V63.0346H55.1704V57.6403H49.7778V55.9806H55.1704V50.5863H56.8296Z" fill="#538DF7"/>
<path d="M106.607 50.5863V55.9806H112V57.6403H106.607V63.0346H104.948V57.6403H99.5555V55.9806H104.948V50.5863H106.607Z" fill="#538DF7"/>
</g>
<path fill-rule="evenodd" clip-rule="evenodd" d="M51.0909 6.78833C51.0909 4.21416 53.2682 2.09091 56 2.09091C58.7317 2.09091 60.9091 4.21416 60.9091 6.78833C60.9091 9.36249 58.7317 11.4857 56 11.4857C53.2682 11.4857 51.0909 9.36249 51.0909 6.78833ZM56 1C52.7068 1 50 3.57138 50 6.78833C50 10.0053 52.7068 12.5767 56 12.5767C59.2931 12.5767 62 10.0053 62 6.78833C62 3.57138 59.2931 1 56 1ZM54.1995 3.55204C54.7533 3.26754 55.3715 3.1187 55.9994 3.1187V6.78864L58.6992 9.38368C58.2552 9.81044 57.7086 10.1254 57.1077 10.3006C56.5069 10.4757 55.8703 10.5058 55.2545 10.3881C54.6386 10.2703 54.0625 10.0084 53.5771 9.62554C53.0918 9.24267 52.7121 8.75065 52.4718 8.19307C52.2316 7.63548 52.138 7.02954 52.1996 6.42892C52.2611 5.8283 52.4758 5.25154 52.8247 4.74973C53.1735 4.24792 53.6457 3.83654 54.1995 3.55204Z" fill="#EDC446"/>
</svg>
