<svg width="303" height="255" viewBox="0 0 303 255" fill="none" xmlns="http://www.w3.org/2000/svg">
<g opacity="0.2">
<path d="M296.132 194.286V199.548H290.88V201.167H296.132V206.429H297.748V201.167H303V199.548H297.748V194.286H296.132Z" fill="white"/>
<path d="M296.132 102.405V97.1429H297.748V102.405H303V104.024H297.748V109.286H296.132V104.024H290.88V102.405H296.132Z" fill="white"/>
<path d="M296.132 0V5.26191H290.88V6.88095H296.132V12.1429H297.748V6.88095H303V5.26191H297.748V0H296.132Z" fill="white"/>
<path d="M247.652 194.286V199.548H242.4V201.167H247.652V206.429H249.268V201.167H254.52V199.548H249.268V194.286H247.652Z" fill="white"/>
<path d="M199.172 194.286V199.548H193.92V201.167H199.172V206.429H200.788V201.167H206.04V199.548H200.788V194.286H199.172Z" fill="white"/>
<path d="M247.652 102.405V97.1429H249.268V102.405H254.52V104.024H249.268V109.286H247.652V104.024H242.4V102.405H247.652Z" fill="white"/>
<path d="M199.172 102.405V97.1429H200.788V102.405H206.04V104.024H200.788V109.286H199.172V104.024H193.92V102.405H199.172Z" fill="white"/>
<path d="M247.652 0V5.26191H242.4V6.88095H247.652V12.1429H249.268V6.88095H254.52V5.26191H249.268V0H247.652Z" fill="white"/>
<path d="M199.172 0V5.26191H193.92V6.88095H199.172V12.1429H200.788V6.88095H206.04V5.26191H200.788V0H199.172Z" fill="white"/>
<path d="M150.692 194.286V199.548H145.44V201.167H150.692V206.429H152.308V201.167H157.56V199.548H152.308V194.286H150.692Z" fill="white"/>
<path d="M102.212 194.286V199.548H96.96V201.167H102.212V206.429H103.828V201.167H109.08V199.548H103.828V194.286H102.212Z" fill="white"/>
<path d="M150.692 102.405V97.1429H152.308V102.405H157.56V104.024H152.308V109.286H150.692V104.024H145.44V102.405H150.692Z" fill="white"/>
<path d="M102.212 102.405V97.1429H103.828V102.405H109.08V104.024H103.828V109.286H102.212V104.024H96.96V102.405H102.212Z" fill="white"/>
<path d="M150.692 0V5.26191H145.44V6.88095H150.692V12.1429H152.308V6.88095H157.56V5.26191H152.308V0H150.692Z" fill="white"/>
<path d="M102.212 0V5.26191H96.96V6.88095H102.212V12.1429H103.828V6.88095H109.08V5.26191H103.828V0H102.212Z" fill="white"/>
<path d="M53.732 102.405V97.1429H55.348V102.405H60.6V104.024H55.348V109.286H53.732V104.024H48.48V102.405H53.732Z" fill="white"/>
<path d="M53.732 0V5.26191H48.48V6.88095H53.732V12.1429H55.348V6.88095H60.6V5.26191H55.348V0H53.732Z" fill="white"/>
<path d="M5.25205 0V5.26191H0V6.88095H5.25205V12.1429H6.86803V6.88095H12.12V5.26191H6.86803V0H5.25205Z" fill="white"/>
<path d="M296.132 242.857V248.119H290.88V249.738H296.132V255H297.748V249.738H303V248.119H297.748V242.857H296.132Z" fill="white"/>
<path d="M296.132 150.976V145.714H297.748V150.976H303V152.595H297.748V157.857H296.132V152.595H290.88V150.976H296.132Z" fill="white"/>
<path d="M296.132 48.5714V53.8333H290.88V55.4524H296.132V60.7143H297.748V55.4524H303V53.8333H297.748V48.5714H296.132Z" fill="white"/>
<path d="M247.652 242.857V248.119H242.4V249.738H247.652V255H249.268V249.738H254.52V248.119H249.268V242.857H247.652Z" fill="white"/>
<path d="M199.172 242.857V248.119H193.92V249.738H199.172V255H200.788V249.738H206.04V248.119H200.788V242.857H199.172Z" fill="white"/>
<path d="M247.652 150.976V145.714H249.268V150.976H254.52V152.595H249.268V157.857H247.652V152.595H242.4V150.976H247.652Z" fill="white"/>
<path d="M199.172 150.976V145.714H200.788V150.976H206.04V152.595H200.788V157.857H199.172V152.595H193.92V150.976H199.172Z" fill="white"/>
<path d="M247.652 48.5714V53.8333H242.4V55.4524H247.652V60.7143H249.268V55.4524H254.52V53.8333H249.268V48.5714H247.652Z" fill="white"/>
<path d="M199.172 48.5714V53.8333H193.92V55.4524H199.172V60.7143H200.788V55.4524H206.04V53.8333H200.788V48.5714H199.172Z" fill="white"/>
<path d="M150.692 150.976V145.714H152.308V150.976H157.56V152.595H152.308V157.857H150.692V152.595H145.44V150.976H150.692Z" fill="white"/>
<path d="M102.212 150.976V145.714H103.828V150.976H109.08V152.595H103.828V157.857H102.212V152.595H96.96V150.976H102.212Z" fill="white"/>
<path d="M150.692 48.5714V53.8333H145.44V55.4524H150.692V60.7143H152.308V55.4524H157.56V53.8333H152.308V48.5714H150.692Z" fill="white"/>
<path d="M102.212 48.5714V53.8333H96.96V55.4524H102.212V60.7143H103.828V55.4524H109.08V53.8333H103.828V48.5714H102.212Z" fill="white"/>
<path d="M53.732 150.976V145.714H55.348V150.976H60.6V152.595H55.348V157.857H53.732V152.595H48.48V150.976H53.732Z" fill="white"/>
<path d="M53.732 48.5714V53.8333H48.48V55.4524H53.732V60.7143H55.348V55.4524H60.6V53.8333H55.348V48.5714H53.732Z" fill="white"/>
<path d="M5.25205 48.5714V53.8333H0V55.4524H5.25205V60.7143H6.86803V55.4524H12.12V53.8333H6.86803V48.5714H5.25205Z" fill="white"/>
</g>
</svg>
