<svg width="312" height="162" viewBox="0 0 312 162" fill="none" xmlns="http://www.w3.org/2000/svg">
<g opacity="0.2">
<path d="M7.94052 99.5862V104.98H13.3331V106.64H7.94052V112.034H6.28127V106.64H0.888672V104.98H6.28127V99.5862H7.94052Z" fill="#538DF7"/>
<path d="M7.94052 5.39425V0H6.28127V5.39425H0.888672V7.05402H6.28127V12.4483H7.94052V7.05402H13.3331V5.39425H7.94052Z" fill="#538DF7"/>
<path d="M57.7183 99.5862V104.98H63.1109V106.64H57.7183V112.034H56.059V106.64H50.6664V104.98H56.059V99.5862H57.7183Z" fill="#538DF7"/>
<path d="M107.496 99.5862V104.98H112.889V106.64H107.496V112.034H105.837V106.64H100.444V104.98H105.837V99.5862H107.496Z" fill="#538DF7"/>
<path d="M107.496 5.39425V0H105.837V5.39425H100.444V7.05402H105.837V12.4483H107.496V7.05402H112.889V5.39425H107.496Z" fill="#538DF7"/>
<path d="M157.274 99.5862V104.98H162.666V106.64H157.274V112.034H155.615V106.64H150.222V104.98H155.615V99.5862H157.274Z" fill="#538DF7"/>
<path d="M207.052 99.5862V104.98H212.444V106.64H207.052V112.034H205.392V106.64H200V104.98H205.392V99.5862H207.052Z" fill="#538DF7"/>
<path d="M157.274 5.39425V0H155.615V5.39425H150.222V7.05402H155.615V12.4483H157.274V7.05402H162.666V5.39425H157.274Z" fill="#538DF7"/>
<path d="M207.052 5.39425V0H205.392V5.39425H200V7.05402H205.392V12.4483H207.052V7.05402H212.444V5.39425H207.052Z" fill="#538DF7"/>
<path d="M256.829 99.5862V104.98H262.222V106.64H256.829V112.034H255.17V106.64H249.778V104.98H255.17V99.5862H256.829Z" fill="#538DF7"/>
<path d="M306.607 99.5862V104.98H312V106.64H306.607V112.034H304.948V106.64H299.555V104.98H304.948V99.5862H306.607Z" fill="#538DF7"/>
<path d="M7.94052 149.379V154.774H13.3331V156.433H7.94052V161.828H6.28127V156.433H0.888672V154.774H6.28127V149.379H7.94052Z" fill="#538DF7"/>
<path d="M7.94052 55.1874V49.7931H6.28127V55.1874H0.888672V56.8471H6.28127V62.2414H7.94052V56.8471H13.3331V55.1874H7.94052Z" fill="#538DF7"/>
<path d="M57.7183 149.379V154.774H63.1109V156.433H57.7183V161.828H56.059V156.433H50.6664V154.774H56.059V149.379H57.7183Z" fill="#538DF7"/>
<path d="M107.496 149.379V154.774H112.889V156.433H107.496V161.828H105.837V156.433H100.444V154.774H105.837V149.379H107.496Z" fill="#538DF7"/>
<path d="M57.7183 55.1874V49.7931H56.059V55.1874H50.6664V56.8471H56.059V62.2414H57.7183V56.8471H63.1109V55.1874H57.7183Z" fill="#538DF7"/>
<path d="M107.496 55.1874V49.7931H105.837V55.1874H100.444V56.8471H105.837V62.2414H107.496V56.8471H112.889V55.1874H107.496Z" fill="#538DF7"/>
<path d="M157.274 149.379V154.774H162.666V156.433H157.274V161.828H155.615V156.433H150.222V154.774H155.615V149.379H157.274Z" fill="#538DF7"/>
<path d="M157.274 55.1874V49.7931H155.615V55.1874H150.222V56.8471H155.615V62.2414H157.274V56.8471H162.666V55.1874H157.274Z" fill="#538DF7"/>
<path d="M207.052 55.1874V49.7931H205.392V55.1874H200V56.8471H205.392V62.2414H207.052V56.8471H212.444V55.1874H207.052Z" fill="#538DF7"/>
<path d="M256.829 149.379V154.774H262.222V156.433H256.829V161.828H255.17V156.433H249.778V154.774H255.17V149.379H256.829Z" fill="#538DF7"/>
<path d="M306.607 149.379V154.774H312V156.433H306.607V161.828H304.948V156.433H299.555V154.774H304.948V149.379H306.607Z" fill="#538DF7"/>
<path d="M256.829 55.1874V49.7931H255.17V55.1874H249.778V56.8471H255.17V62.2414H256.829V56.8471H262.222V55.1874H256.829Z" fill="#538DF7"/>
</g>
</svg>
