<svg width="184" height="180" viewBox="0 0 184 180" fill="none" xmlns="http://www.w3.org/2000/svg">
<g clip-path="url(#clip0)">
<path opacity="0.1" d="M26.9468 166C62.8743 184.661 121.128 184.661 157.056 166C192.983 147.339 192.983 117.082 157.056 98.4255C121.128 79.7647 62.8743 79.7647 26.9468 98.4255C-8.98487 117.086 -8.98487 147.344 26.9468 166Z" fill="#538DF7"/>
<path d="M101.449 60.5977L114.687 68.2097L101.449 75.8259L88.207 68.2097L101.449 60.5977Z" fill="#455A64"/>
<path d="M88.207 68.1931V98.4753L101.445 106.087L101.449 75.8259L88.207 68.1931Z" fill="#37474F"/>
<path d="M101.449 75.8259L101.445 106.087L114.687 98.4753V68.1973L101.449 75.8259Z" fill="#263238"/>
<path d="M118.865 83.7451L132.103 91.3572L118.865 98.9692L105.623 91.3572L118.865 83.7451Z" fill="#E35492"/>
<path opacity="0.3" d="M118.865 83.7451L132.103 91.3572L118.865 98.9692L105.623 91.3572L118.865 83.7451Z" fill="white"/>
<path d="M105.623 91.3406V108.491L118.861 116.107L118.865 98.9734L105.623 91.3406Z" fill="#E35492"/>
<path d="M118.866 98.9734L118.861 116.107L132.103 108.491V91.3406L118.866 98.9734Z" fill="#E35492"/>
<path opacity="0.1" d="M118.866 98.9734L118.861 116.107L132.103 108.491V91.3406L118.866 98.9734Z" fill="black"/>
<path d="M136.283 86.6381L149.521 94.2501L136.279 101.866L123.041 94.2543L136.283 86.6381Z" fill="#538DF7"/>
<path opacity="0.88" d="M136.283 86.6381L149.521 94.2501L136.279 101.866L123.041 94.2543L136.283 86.6381Z" fill="white"/>
<path d="M123.041 94.2335V118.506L136.279 126.122L136.283 101.866L123.041 94.2335Z" fill="#538DF7"/>
<path opacity="0.75" d="M123.041 94.2335V118.506L136.279 126.122L136.283 101.866L123.041 94.2335Z" fill="white"/>
<path d="M136.283 101.866L136.279 126.122L149.517 118.506L149.521 94.2377L136.283 101.866Z" fill="#538DF7"/>
<path opacity="0.6" d="M136.283 101.866L136.279 126.122L149.517 118.506L149.521 94.2377L136.283 101.866Z" fill="white"/>
<path d="M153.699 112.351L166.937 119.963L153.695 127.579L140.457 119.967L153.699 112.351Z" fill="#538DF7"/>
<path opacity="0.3" d="M153.699 112.351L166.937 119.963L153.695 127.579L140.457 119.967L153.699 112.351Z" fill="black"/>
<path d="M140.457 119.946V128.525L153.695 136.137L153.699 127.579L140.457 119.946Z" fill="#538DF7"/>
<path opacity="0.4" d="M140.457 119.946V128.525L153.695 136.137L153.699 127.579L140.457 119.946Z" fill="black"/>
<path d="M153.699 127.579L153.695 136.137L166.933 128.521L166.937 119.95L153.699 127.579Z" fill="#538DF7"/>
<path opacity="0.55" d="M153.699 127.579L153.695 136.137L166.933 128.521L166.937 119.95L153.699 127.579Z" fill="black"/>
<path d="M42.2189 153.163L40.9039 152.407C39.8351 151.793 38.9668 150.299 38.9668 149.07V34.3456C38.9668 33.117 39.8351 31.6229 40.9039 31.0127L94.1272 0.464859C95.1959 -0.149419 96.9326 -0.149419 98.0013 0.464859L99.3205 1.22025C100.389 1.83453 101.258 3.32872 101.258 4.55313V119.282C101.258 120.511 100.389 122.005 99.3205 122.615L46.0972 153.163C45.0201 153.777 43.2876 153.777 42.2189 153.163Z" fill="#37474F"/>
<path d="M46.7487 36.591L39.5307 32.4487C39.18 33.0506 38.9629 33.7312 38.9629 34.3455V149.074C38.9629 150.303 39.8312 151.797 40.9 152.411L42.215 153.167C43.2837 153.781 45.0204 153.781 46.0891 153.167L46.7487 152.789V36.591Z" fill="#263238"/>
<path d="M44.1523 37.3257V152.055C44.1523 153.283 45.0207 153.781 46.0894 153.167L99.3127 122.619C100.381 122.005 101.25 120.511 101.25 119.286V4.55317C101.25 3.32461 100.381 2.82655 99.3127 3.44083L46.0894 33.9887C45.0207 34.603 44.1523 36.0972 44.1523 37.3257Z" fill="#455A64"/>
<path d="M48.4096 44.5766L96.8027 16.8013C97.7212 16.2742 98.4643 16.7017 98.4643 17.7559V109.283C98.4643 110.338 97.7212 111.616 96.8027 112.143L48.4096 139.914C47.4911 140.441 46.748 140.014 46.748 138.96V47.4322C46.748 46.3821 47.4911 45.1037 48.4096 44.5766Z" fill="#FAFAFA"/>
<g opacity="0.4">
<path opacity="0.4" d="M72.8739 51.7902C78.301 48.6773 82.6969 51.2009 82.6969 57.4267C82.6969 63.6566 78.2968 71.2313 72.8739 74.3442C67.4467 77.4571 63.0508 74.9336 63.0508 68.7036C63.0508 62.4778 67.4509 54.9031 72.8739 51.7902Z" fill="#538DF7"/>
<path opacity="0.4" d="M92.2368 85.1023C92.2368 74.8713 85.0104 70.3265 76.0974 75.4441L70.5242 78.6441C61.6112 83.7617 54.3848 96.205 54.3848 106.436V109.188L92.2368 87.4764V85.1023Z" fill="#538DF7"/>
</g>
<path d="M72.7026 21.6948C73.4207 21.2839 74.001 21.6159 74.001 22.4377C74.001 23.2595 73.4207 24.2598 72.7026 24.6707C71.9846 25.0816 71.4043 24.7496 71.4043 23.9278C71.4043 23.1059 71.9846 22.1057 72.7026 21.6948Z" fill="#263238"/>
<path d="M68.9552 28.1365C71.5895 26.688 76.2944 23.903 78.8952 22.3839C79.3377 22.1265 79.6926 22.305 79.6926 22.7823C79.6926 23.2596 79.3335 23.8532 78.891 24.1063L68.9344 29.8216C68.4918 30.0748 68.1328 29.8963 68.1328 29.419C68.1328 28.9458 68.5085 28.3855 68.9552 28.1365Z" fill="#263238"/>
<path d="M66.4415 29.585C66.8423 29.3526 67.1721 29.5393 67.1721 30.0042C67.1721 30.4691 66.8465 31.0294 66.4415 31.2577C66.0407 31.4901 65.7109 31.3033 65.7109 30.8385C65.7109 30.3778 66.0366 29.8133 66.4415 29.585Z" fill="#263238"/>
<path d="M72.7021 128.953C74.1341 128.131 75.2988 128.795 75.2988 130.443C75.2988 132.086 74.1382 134.091 72.7021 134.913C71.2702 135.735 70.1055 135.071 70.1055 133.423C70.1055 131.775 71.266 129.774 72.7021 128.953Z" fill="#263238"/>
<path d="M153.112 8.34674L146.996 4.83954C146.996 4.83954 146.988 4.83954 146.984 4.83954L146.921 4.80219L146.913 4.81464C143.874 3.10878 139.703 3.35781 135.086 6.00999C130.765 8.48371 126.824 12.6176 123.856 17.3949C120.424 22.8985 118.262 29.2737 118.262 34.9848C118.262 40.3141 120.136 44.0537 123.171 45.8052V45.8135L123.192 45.8218L129.4 49.3456C132.464 51.2881 136.793 51.1179 141.594 48.362C150.887 43.0285 158.422 30.054 158.422 19.383C158.427 13.8213 156.381 9.9945 153.112 8.34674Z" fill="#538DF7"/>
<path opacity="0.1" d="M129.279 49.2708L123.192 45.8134L123.171 45.8051V45.7968C120.136 44.0494 118.262 40.3057 118.262 34.9764C118.262 29.2653 120.42 22.8942 123.856 17.3906L130.352 21.1136C126.916 26.6172 124.766 32.98 124.766 38.687C124.766 43.788 126.482 47.428 129.279 49.2708Z" fill="black"/>
<path opacity="0.4" d="M152.986 8.27609C149.989 6.8317 145.989 7.19695 141.598 9.71632C137.273 12.2025 133.332 16.3364 130.355 21.122L123.859 17.3989C126.832 12.6134 130.773 8.48776 135.089 6.01405C139.707 3.36186 143.877 3.10868 146.916 4.81455L146.925 4.8021L146.987 4.83945C146.996 4.83945 147 4.83945 147 4.83945L152.986 8.27609Z" fill="white"/>
<path d="M150.36 15.0748L148.031 13.7383L138.896 35.1259L140.454 36.0225L150.36 15.0748Z" fill="white"/>
<path d="M137.11 30.3528L134.78 29.0164L132.275 34.2834L134.609 35.6198L137.11 30.3528Z" fill="white"/>
<path d="M141.055 42.294L134.609 35.6199L137.11 30.3529L140.454 36.0225L150.361 15.0748L154.03 18.636L141.055 42.294Z" fill="#F5F5F5"/>
<path d="M132.275 34.2833L134.609 35.6198L141.055 42.2938L138.725 40.9698L132.275 34.2833Z" fill="#E0E0E0"/>
<path d="M80.5891 152.204V156.931L75.8926 144.239V139.516C75.8926 139.516 75.8926 139.516 75.8968 139.52L80.5891 152.204Z" fill="#263238"/>
<path d="M80.5879 152.208V156.931L99.9627 150.253V145.526L80.5879 152.208Z" fill="#37474F"/>
<path d="M75.8926 139.52L80.5933 152.208L99.9681 145.526C94.6454 140.914 85.3984 138.607 75.8926 139.52Z" fill="#455A64"/>
<path d="M55.6526 153.084C55.6484 153.129 55.6484 153.183 55.6484 153.228V153.084H55.6526Z" fill="#538DF7"/>
<path d="M78.6594 158.168L75.783 171.62C64.0396 170.483 55.5566 164.577 55.6526 157.824L55.6484 157.836V153.225C55.6484 159.924 64.1106 165.764 75.783 166.897L77.7577 157.649L78.6594 158.168Z" fill="#538DF7"/>
<path opacity="0.4" d="M78.6594 158.168L75.783 171.62C64.0396 170.483 55.5566 164.577 55.6526 157.824L55.6484 157.836V153.225C55.6484 159.924 64.1106 165.764 75.783 166.897L77.7577 157.649L78.6594 158.168Z" fill="black"/>
<path d="M77.9844 167.059V171.782C83.1109 172.023 87.7991 171.383 92.2827 169.839C97.8184 167.93 101.73 164.896 103.291 161.298C103.767 160.202 104.005 159.098 104.018 157.998C104.022 157.55 104.018 153.117 104.018 153.117C104.018 153.117 102.678 153.013 101.104 151.345L97.4761 152.594L80.8607 158.326L77.9844 167.059Z" fill="#538DF7"/>
<path opacity="0.6" d="M77.9844 167.059V171.782C83.1109 172.023 87.7991 171.383 92.2827 169.839C97.8184 167.93 101.73 164.896 103.291 161.298C103.767 160.202 104.005 159.098 104.018 157.998C104.022 157.55 104.018 153.117 104.018 153.117C104.018 153.117 102.678 153.013 101.104 151.345L97.4761 152.594L80.8607 158.326L77.9844 167.059Z" fill="white"/>
<path d="M63.5273 147.684L77.9635 155.968V151.241L63.5273 142.957V147.684Z" fill="#E35492"/>
<path opacity="0.1" d="M63.5273 147.684L77.9635 155.968V151.241L63.5273 142.957V147.684Z" fill="black"/>
<path d="M55.8242 151.523C54.2461 158.907 63.1257 165.672 75.7792 166.901L78.6556 153.445L61.9568 143.857C58.4709 146.032 56.4629 148.543 55.8242 151.523Z" fill="#538DF7"/>
<path opacity="0.3" d="M55.8242 151.523C54.2461 158.907 63.1257 165.672 75.7792 166.901L78.6556 153.445L61.9568 143.857C58.4709 146.032 56.4629 148.543 55.8242 151.523Z" fill="black"/>
<path d="M78.0718 166.664L77.9883 167.059C83.1148 167.299 87.803 166.66 92.2866 165.116C97.8223 163.207 101.734 160.173 103.295 156.574C104.769 153.183 103.988 149.676 101.108 146.621L97.48 147.871L80.8647 153.603L78.0718 166.664Z" fill="#538DF7"/>
<path opacity="0.75" d="M78.0718 166.664L77.9883 167.059C83.1148 167.299 87.803 166.66 92.2866 165.116C97.8223 163.207 101.734 160.173 103.295 156.574C104.769 153.183 103.988 149.676 101.108 146.621L97.48 147.871L80.8647 153.603L78.0718 166.664Z" fill="white"/>
<path d="M63.5273 142.957L77.9593 151.241L73.7136 139.781C69.7017 140.358 66.5624 141.338 63.5273 142.957Z" fill="#E35492"/>
<path d="M78.6598 158.172V153.445L75.7793 166.901V171.624L78.6598 158.172Z" fill="#538DF7"/>
<path opacity="0.55" d="M78.6598 158.172V153.445L75.7793 166.901V171.624L78.6598 158.172Z" fill="black"/>
<path d="M97.0693 132.431L93.9258 134.236L97.0693 136.042L100.213 134.236L97.0693 132.431Z" fill="#538DF7"/>
<path opacity="0.3" d="M97.0693 132.431L93.9258 134.236L97.0693 136.042L100.213 134.236L97.0693 132.431Z" fill="black"/>
<path d="M100.216 134.232L100.212 136.042L97.0684 137.847V136.042L100.216 134.232Z" fill="#538DF7"/>
<path opacity="0.4" d="M100.216 134.232L100.212 136.042L97.0684 137.847V136.042L100.216 134.232Z" fill="black"/>
<path d="M97.0693 136.042V137.847L93.9258 136.042V134.232L97.0693 136.042Z" fill="#538DF7"/>
<path opacity="0.55" d="M97.0693 136.042V137.847L93.9258 136.042V134.232L97.0693 136.042Z" fill="black"/>
<path opacity="0.1" d="M101.871 131.028L113.522 124.341C114.215 123.943 115.309 123.922 115.96 124.296C116.612 124.669 116.578 125.296 115.881 125.694L104.23 132.381C103.537 132.779 102.443 132.8 101.792 132.427C101.14 132.057 101.178 131.431 101.871 131.028Z" fill="#538DF7"/>
<path d="M104.155 136.494L101.012 138.3L104.155 140.105L107.299 138.3L104.155 136.494Z" fill="#538DF7"/>
<path opacity="0.88" d="M104.155 136.494L101.012 138.3L104.155 140.105L107.299 138.3L104.155 136.494Z" fill="white"/>
<path d="M107.298 138.295V140.109L104.154 141.915V140.105L107.298 138.295Z" fill="#538DF7"/>
<path opacity="0.75" d="M107.298 138.295V140.109L104.154 141.915V140.105L107.298 138.295Z" fill="white"/>
<path d="M104.155 140.105V141.915L101.012 140.109V138.295L104.155 140.105Z" fill="#538DF7"/>
<path opacity="0.6" d="M104.155 140.105V141.915L101.012 140.109V138.295L104.155 140.105Z" fill="white"/>
<path opacity="0.1" d="M108.956 135.095L120.608 128.409C121.301 128.01 122.395 127.99 123.046 128.363C123.697 128.737 123.664 129.364 122.967 129.762L111.315 136.449C110.622 136.847 109.528 136.868 108.877 136.494C108.226 136.121 108.259 135.494 108.956 135.095Z" fill="#538DF7"/>
<path d="M111.239 140.562L108.096 142.367L111.239 144.173L114.383 142.367L111.239 140.562Z" fill="#538DF7"/>
<path opacity="0.3" d="M111.239 140.562L108.096 142.367L111.239 144.173L114.383 142.367L111.239 140.562Z" fill="white"/>
<path d="M114.382 142.363V144.173L111.238 145.978V144.173L114.382 142.363Z" fill="#538DF7"/>
<path d="M111.239 144.173V145.978L108.096 144.173V142.363L111.239 144.173Z" fill="#538DF7"/>
<path opacity="0.1" d="M111.239 144.173V145.978L108.096 144.173V142.363L111.239 144.173Z" fill="black"/>
<path opacity="0.1" d="M116.04 139.163L127.692 132.476C128.385 132.078 129.479 132.057 130.13 132.431C130.781 132.804 130.748 133.431 130.051 133.83L118.399 140.516C117.706 140.914 116.612 140.935 115.961 140.562C115.31 140.188 115.343 139.561 116.04 139.163Z" fill="#538DF7"/>
<path d="M118.323 144.629L115.176 146.435L118.323 148.24L121.467 146.435L118.323 144.629Z" fill="#455A64"/>
<path d="M121.468 146.431V148.24L118.324 150.046V148.24L121.468 146.431Z" fill="#37474F"/>
<path d="M118.324 148.24V150.046L115.176 148.24V146.431L118.324 148.24Z" fill="#263238"/>
<path opacity="0.1" d="M123.124 143.226L134.776 136.54C135.469 136.141 136.563 136.121 137.214 136.494C137.865 136.868 137.832 137.494 137.135 137.893L125.483 144.579C124.79 144.978 123.696 144.999 123.045 144.625C122.394 144.251 122.427 143.629 123.124 143.226Z" fill="#538DF7"/>
</g>
<defs>
<clipPath id="clip0">
<rect width="184" height="180" fill="white"/>
</clipPath>
</defs>
</svg>
