<svg width="149" height="32" viewBox="0 0 149 32" fill="none" xmlns="http://www.w3.org/2000/svg">
<path d="M84.8 3.19693L75.5175 31.6744H68.4644L62.2221 12.3911L55.777 31.6744H48.7644L39.4414 3.19693H46.2513L52.6558 23.2126L59.3441 3.19693H65.4243L71.9099 23.3753L78.5171 3.19693H84.8Z" fill="#538DF7"/>
<path d="M94.7473 31.9999C92.4503 31.9999 90.383 31.5253 88.5454 30.576C86.7349 29.5997 85.3161 28.2571 84.2892 26.5485C83.2624 24.8398 82.7489 22.9007 82.7489 20.7309C82.7489 18.5612 83.2624 16.622 84.2892 14.9134C85.3161 13.2047 86.7349 11.8758 88.5454 10.9265C90.383 9.95017 92.4503 9.46199 94.7473 9.46199C97.0442 9.46199 99.098 9.95017 100.909 10.9265C102.719 11.8758 104.138 13.2047 105.165 14.9134C106.192 16.622 106.705 18.5612 106.705 20.7309C106.705 22.9007 106.192 24.8398 105.165 26.5485C104.138 28.2571 102.719 29.5997 100.909 30.576C99.098 31.5253 97.0442 31.9999 94.7473 31.9999ZM94.7473 26.7926C96.3687 26.7926 97.6928 26.2502 98.7197 25.1653C99.7736 24.0533 100.301 22.5752 100.301 20.7309C100.301 18.8867 99.7736 17.4221 98.7197 16.3373C97.6928 15.2253 96.3687 14.6693 94.7473 14.6693C93.1259 14.6693 91.7882 15.2253 90.7343 16.3373C89.6804 17.4221 89.1534 18.8867 89.1534 20.7309C89.1534 22.5752 89.6804 24.0533 90.7343 25.1653C91.7882 26.2502 93.1259 26.7926 94.7473 26.7926Z" fill="#538DF7"/>
<path d="M114.945 12.6759C115.701 11.6181 116.715 10.8181 117.985 10.2756C119.282 9.7332 120.768 9.46199 122.444 9.46199V15.3202C121.741 15.266 121.268 15.2389 121.025 15.2389C119.214 15.2389 117.796 15.7542 116.769 16.7848C115.742 17.7883 115.229 19.3071 115.229 21.3412V31.6744H108.905V9.78744H114.945V12.6759Z" fill="#538DF7"/>
<path d="M133.541 23.0905L130.5 26.101V31.6744H124.177V1.48828H130.5V18.5748L139.742 9.78744H147.282L138.202 19.063L148.093 31.6744H140.431L133.541 23.0905Z" fill="#538DF7"/>
<path d="M23.7892 2.97656H10.894V17.4882V23.5556H17.4633V17.4882V8.49098H23.4648C26.3033 8.49098 28.5607 9.3064 30.2368 10.9372C31.9399 12.5404 32.7915 14.7241 32.7915 17.4882C32.7915 20.2523 31.9399 22.4498 30.2368 24.0806C28.5607 25.6838 26.3033 26.4854 23.4648 26.4854H17.4633H10.894H0.744141V31.9998H23.7892C26.8711 31.9998 29.588 31.4055 31.9399 30.217C34.3189 29.0008 36.1572 27.3008 37.4548 25.1172C38.7795 22.9335 39.4418 20.3905 39.4418 17.4882C39.4418 14.5859 38.7795 12.0429 37.4548 9.85922C36.1572 7.67557 34.3189 5.98945 31.9399 4.80088C29.588 3.58467 26.8711 2.97656 23.7892 2.97656Z" fill="#538DF7"/>
<path opacity="0.2" fill-rule="evenodd" clip-rule="evenodd" d="M6.69763 32.0003L12.212 26.4858H10.894H0.744141V32.0003H6.69763Z" fill="#265DC1"/>
<path d="M0.728842 10.1245H6.71302V32H0.728842V10.1245ZM3.72093 7.07497C2.62127 7.07497 1.7262 6.73613 1.03572 6.05845C0.345241 5.38077 0 4.54045 0 3.53748C0 2.53452 0.345241 1.6942 1.03572 1.01652C1.7262 0.33884 2.62127 0 3.72093 0C4.82059 0 5.71566 0.325287 6.40614 0.97586C7.09662 1.62643 7.44186 2.43965 7.44186 3.4155C7.44186 4.47268 7.09662 5.35366 6.40614 6.05845C5.71566 6.73613 4.82059 7.07497 3.72093 7.07497Z" fill="#538DF7"/>
</svg>
