<svg width="24" height="24" viewBox="0 0 24 24" fill="none" xmlns="http://www.w3.org/2000/svg">
<path fill-rule="evenodd" clip-rule="evenodd" d="M12 3C7.02944 3 3 7.02944 3 12C3 16.9706 7.02944 21 12 21C16.9706 21 21 16.9706 21 12C21 7.02944 16.9706 3 12 3V3ZM12 19.7727C7.70724 19.7727 4.22727 16.2928 4.22727 12C4.22727 7.70724 7.70724 4.22727 12 4.22727C16.2928 4.22727 19.7727 7.70724 19.7727 12C19.7727 14.0615 18.9538 16.0385 17.4961 17.4961C16.0385 18.9538 14.0615 19.7727 12 19.7727Z" fill="#E35492"/>
<path fill-rule="evenodd" clip-rule="evenodd" d="M15.2893 8.69455C15.0497 8.45527 14.6616 8.45527 14.4221 8.69455L12.0943 11.1164L9.56205 8.66182C9.40569 8.50199 9.17476 8.43986 8.95931 8.49966C8.74386 8.55946 8.57799 8.73171 8.52636 8.94926C8.47474 9.16682 8.54553 9.39523 8.71114 9.54546L11.2271 11.9673L8.71114 14.3891C8.54553 14.5393 8.47474 14.7677 8.52636 14.9853C8.57799 15.2028 8.74386 15.3751 8.95931 15.4349C9.17476 15.4947 9.40569 15.4326 9.56205 15.2727L12.0943 12.8182L14.4221 15.24C14.5723 15.4056 14.8007 15.4764 15.0182 15.4248C15.2358 15.3732 15.408 15.2073 15.4678 14.9918C15.5276 14.7764 15.4655 14.5455 15.3057 14.3891L12.9616 11.9345L15.3057 9.48C15.4905 9.24855 15.4836 8.9181 15.2893 8.69455V8.69455Z" fill="#E35492"/>
</svg>
