<svg width="24" height="24" viewBox="0 0 24 24" fill="none" xmlns="http://www.w3.org/2000/svg">
<path fill-rule="evenodd" clip-rule="evenodd" d="M14.8087 5.6931C13.4496 5.08751 11.9311 4.93749 10.4798 5.2654C9.02841 5.59332 7.72195 6.3816 6.7552 7.51268C5.78846 8.64377 5.21325 10.0571 5.11535 11.5418C5.01745 13.0265 5.40211 14.503 6.21195 15.7513C7.0218 16.9995 8.21345 17.9525 9.60918 18.4682C11.0049 18.9838 12.5299 19.0345 13.9568 18.6126C15.3837 18.1907 16.6359 17.3189 17.5268 16.1272C18.4177 14.9354 18.8995 13.4876 18.9004 11.9997V11.31C18.9004 10.9787 19.169 10.71 19.5004 10.71C19.8318 10.71 20.1004 10.9787 20.1004 11.31V12C20.0994 13.7467 19.5338 15.4467 18.488 16.8457C17.4421 18.2447 15.9721 19.2681 14.297 19.7634C12.622 20.2586 10.8318 20.1991 9.19331 19.5938C7.55485 18.9885 6.15596 17.8697 5.20527 16.4044C4.25458 14.9391 3.80302 13.2057 3.91795 11.4628C4.03288 9.71989 4.70813 8.06081 5.843 6.73302C6.97787 5.40522 8.51155 4.47985 10.2153 4.09491C11.9191 3.70997 13.7016 3.88608 15.2971 4.59699C15.5998 4.73186 15.7358 5.08656 15.601 5.38925C15.4661 5.69193 15.1114 5.82797 14.8087 5.6931Z" fill="#64C57A"/>
<path fill-rule="evenodd" clip-rule="evenodd" d="M19.9244 5.57543C20.1589 5.80962 20.1591 6.18952 19.9249 6.42395L12.4249 13.9315C12.3124 14.0441 12.1597 14.1074 12.0005 14.1074C11.8414 14.1074 11.6887 14.0442 11.5761 13.9317L9.32613 11.6817C9.09181 11.4474 9.09181 11.0675 9.32613 10.8331C9.56044 10.5988 9.94034 10.5988 10.1747 10.8331L12.0002 12.6587L19.0759 5.57585C19.3101 5.34142 19.69 5.34123 19.9244 5.57543Z" fill="#64C57A"/>
</svg>
