<svg width="186" height="180" viewBox="0 0 186 180" fill="none" xmlns="http://www.w3.org/2000/svg">
<path opacity="0.1" d="M93 179.996C144.362 179.996 186 156.099 186 126.621C186 97.1434 144.362 73.2467 93 73.2467C41.6375 73.2467 0 97.1434 0 126.621C0 156.099 41.6375 179.996 93 179.996Z" fill="#538DF7"/>
<g clip-path="url(#clip0)">
<path opacity="0.1" d="M46.5344 152.613L37.6684 147.471C36.7772 146.954 36.7772 146.12 37.6684 145.603L143.246 84.3848C144.138 83.8678 145.578 83.8678 146.469 84.3848L155.335 89.5275C156.227 90.0445 156.227 90.8778 155.335 91.3947L49.7574 152.613C48.8662 153.13 47.4257 153.13 46.5344 152.613Z" fill="#538DF7"/>
</g>
<path d="M56.6602 10.5567C56.5538 10.494 56.408 10.498 56.2582 10.5958L55.4307 11.1362L55.2494 11.6296C55.1391 11.9272 55.2573 12.3148 55.4741 12.5419C55.608 12.6829 55.7341 12.8356 55.8524 13.0001C56.0336 13.2546 56.3646 13.3447 56.6287 13.1724L58.5596 11.9115C58.7054 11.8215 58.8473 11.8097 58.9537 11.8684L56.6602 10.5567ZM53.6889 17.601C53.417 16.0465 52.424 15.2673 51.1275 15.3769C51.2418 15.6353 51.3324 15.9368 51.3955 16.2853C51.821 18.7483 50.2527 22.245 47.8882 24.0932C47.0174 24.7706 46.1622 25.1309 45.4135 25.1935C46.1898 26.8459 48.1483 27.0026 50.1857 25.4089C52.5461 23.5607 54.1145 20.0679 53.6889 17.601ZM53.7283 7.06782C53.681 7.04432 53.6338 7.02083 53.5746 7.00908L52.1205 6.68408C51.8132 6.61751 51.4427 6.78589 51.2969 7.0639L49.9295 9.65608C49.8665 9.78138 49.7522 9.89494 49.6261 10.0007H49.6221C49.5512 10.0594 49.4724 10.1142 49.3896 10.1573L49.8152 11.5709C49.9059 11.8684 50.2132 11.9977 50.5009 11.8802C50.8043 11.7588 51.1078 11.6609 51.3994 11.5865C51.5728 11.5395 51.758 11.4416 51.9196 11.3163C52.0496 11.2145 52.1639 11.0931 52.2269 10.9678L53.5944 8.37565C53.7441 8.09764 54.1145 7.92927 54.418 7.99583L55.876 8.32083C55.9312 8.33258 55.9785 8.35216 56.0218 8.37565L53.7283 7.06782ZM49.63 32.1595C49.5709 32.1086 49.5197 32.0381 49.4921 31.9402L48.9995 30.3191C48.9128 30.0215 48.6055 29.8884 48.3138 30.0098C48.0143 30.1312 47.7109 30.2291 47.4154 30.3035C47.3247 30.327 47.2302 30.3661 47.1316 30.4209L47.1947 30.6285C47.2341 30.7499 47.2971 30.8321 47.3799 30.8791V30.883L49.63 32.1595ZM46.84 8.37957C46.7888 8.35216 46.7376 8.3365 46.6785 8.3365C46.5918 8.3365 46.4972 8.36782 46.4105 8.4383L44.2274 10.1416C44.1958 10.1651 44.1682 10.1925 44.1446 10.2199C44.121 10.2395 44.1052 10.263 44.0855 10.2826C44.0106 10.3805 43.9436 10.498 43.8963 10.6233C43.8885 10.6507 43.8766 10.682 43.8688 10.7055H43.8727C43.8333 10.8269 43.8096 10.9483 43.8136 11.054L43.9436 13.1175C43.9633 13.4308 43.8057 13.8772 43.6047 14.116C43.2461 14.5389 42.9112 14.9892 42.592 15.4474C42.4856 15.604 42.3043 15.7371 42.1112 15.8155C42.0482 15.8429 41.9851 15.8624 41.9221 15.8742C41.8905 15.882 41.8629 15.8898 41.8314 15.8898C41.7881 15.8977 41.7487 15.9016 41.7053 15.8977L40.3064 15.8311H40.2749C40.2354 15.8311 40.2 15.835 40.1606 15.8429C40.1251 15.8468 40.0936 15.8546 40.0581 15.8664C40.0542 15.8664 40.0502 15.8664 40.0463 15.8703C40.0069 15.882 39.9714 15.8977 39.932 15.9173C39.8611 15.9525 39.7902 15.9917 39.731 16.0426C39.6365 16.1209 39.5537 16.2227 39.5064 16.3284L38.1902 19.2652C38.072 19.5275 38.1705 19.8212 38.4109 19.97L39.9675 20.8628C40.0187 20.992 40.0305 21.1329 40.0029 21.2661C39.8965 21.736 39.8138 22.2058 39.7586 22.664C39.7232 22.9733 39.5222 23.404 39.2897 23.6155L39.266 23.6351L37.3548 25.3775C37.3193 25.4089 37.2918 25.4402 37.2642 25.4794C37.2602 25.4872 37.2563 25.4911 37.2524 25.4989C37.2208 25.5381 37.1932 25.5772 37.1775 25.6242C37.0553 25.8357 36.9962 26.1098 37.0317 26.3251L37.3982 28.42C37.4218 28.5532 37.4809 28.6471 37.5676 28.7059L39.8532 30.0137C39.7744 29.9589 39.7153 29.8649 39.6916 29.7357L39.3291 27.6408C39.3054 27.5194 39.3173 27.3745 39.3527 27.2375C39.4079 27.0261 39.5143 26.8185 39.6562 26.6932L41.5635 24.9507L41.5871 24.9312C41.8196 24.7197 42.0206 24.289 42.06 23.9797C42.1152 23.5215 42.194 23.0516 42.3043 22.5818C42.3713 22.2763 42.2058 21.9278 41.9142 21.8025L40.7793 21.3248C40.4877 21.1995 40.3576 20.8667 40.4837 20.5808L41.7999 17.648C41.8511 17.5423 41.926 17.4444 42.0245 17.3621C42.19 17.229 42.4068 17.1429 42.6038 17.1546L44.0067 17.2212C44.1367 17.229 44.2786 17.1977 44.4126 17.1429C44.6057 17.0646 44.7869 16.9314 44.8933 16.7748C45.2086 16.3167 45.5514 15.8703 45.9061 15.4435C46.111 15.2046 46.2647 14.7621 46.245 14.445L46.1149 12.3853C46.1071 12.2757 46.1268 12.1504 46.1701 12.029C46.2371 11.8058 46.3711 11.5904 46.5327 11.4651L48.7118 9.76181C48.8616 9.64434 49.0192 9.62867 49.1414 9.70307L46.84 8.37957ZM43.5732 30.2565C43.6796 29.9589 43.5614 29.5712 43.3446 29.3441C43.2107 29.2032 43.0846 29.0505 42.9703 28.886C42.789 28.6276 42.458 28.5414 42.194 28.7098L41.0906 29.4303L40.2906 31.5839C40.2039 31.8188 40.2906 32.0538 40.4837 32.1713L40.4798 32.1752L42.7811 33.4948C42.5841 33.3734 42.4974 33.1384 42.588 32.9035L43.5732 30.2565Z" fill="#E35492"/>
<path d="M41.5549 24.9429L39.6477 26.6853C39.5058 26.8146 39.3994 27.0182 39.3442 27.2296L37.0547 25.9179C37.0823 25.8121 37.1177 25.7103 37.169 25.6164C37.1887 25.5694 37.2163 25.5302 37.2438 25.4911C37.2478 25.4832 37.2517 25.4793 37.2557 25.4715C37.2832 25.4323 37.3148 25.401 37.3463 25.3697L39.2575 23.6272L41.5549 24.9429Z" fill="#FF7CB5"/>
<path d="M44.412 17.135C44.278 17.1938 44.1361 17.2212 44.0061 17.2133L42.6032 17.1468C42.4062 17.135 42.1855 17.2212 42.0239 17.3543L39.7305 16.0386C39.7896 15.9877 39.8605 15.9486 39.9314 15.9133C39.9708 15.8938 40.0063 15.8781 40.0457 15.8663C40.0497 15.8624 40.0536 15.8624 40.0575 15.8624C40.093 15.8507 40.1245 15.8428 40.16 15.8389C40.1994 15.8311 40.2349 15.8272 40.2743 15.8272H40.3097L41.7087 15.8938C41.752 15.8977 41.7914 15.8938 41.8348 15.8859C41.8663 15.882 41.8939 15.8781 41.9254 15.8703C41.9845 15.8546 42.0476 15.8311 42.1067 15.8115L42.1146 15.8154L44.412 17.135Z" fill="#FF7CB5"/>
<path d="M58.9494 11.8646C58.843 11.8058 58.7011 11.8137 58.5553 11.9115L56.6244 13.1724C56.3603 13.3447 56.0333 13.2546 55.848 12.9962C55.7298 12.8278 55.6077 12.679 55.4697 12.5381C55.253 12.3109 55.1348 11.9194 55.2451 11.6257L55.4264 11.1362L56.2539 10.5959C56.4037 10.5019 56.5495 10.4941 56.6559 10.5567V10.5528L58.9494 11.8646Z" fill="#FF7CB5"/>
<path d="M56.0188 8.37957C55.9754 8.35608 55.9281 8.3365 55.873 8.32475L54.4149 7.99975C54.1115 7.93318 53.7411 8.10156 53.5913 8.37957L52.2239 10.9718C52.1608 11.0971 52.0426 11.2184 51.9165 11.3202L49.623 10.0007C49.7531 9.89494 49.8634 9.78139 49.9265 9.65608L51.2978 7.0639C51.4436 6.78589 51.8141 6.61751 52.1214 6.68408L53.5755 7.00908C53.6347 7.02083 53.6819 7.04432 53.7292 7.07173V7.06782L56.0188 8.37957Z" fill="#FF7CB5"/>
<path d="M49.1378 9.69528C49.0156 9.6248 48.8541 9.63655 48.7083 9.75402L46.5291 11.4573C46.3675 11.5826 46.2335 11.798 46.1665 12.0212L43.873 10.7094C43.8809 10.682 43.8928 10.6507 43.9006 10.6272C43.9519 10.5019 44.0149 10.3844 44.0898 10.2865C44.1095 10.2631 44.1253 10.2396 44.1489 10.2239C44.1765 10.1926 44.2041 10.1652 44.2316 10.1456L46.4148 8.44226C46.5015 8.37178 46.5961 8.34045 46.6828 8.34045C46.7419 8.34045 46.7931 8.35612 46.8443 8.38353L49.1378 9.69528Z" fill="#FF7CB5"/>
<path d="M59.4945 14.253L59.1319 12.1581C59.0768 11.8488 58.8206 11.7392 58.5566 11.9114L56.6257 13.1723C56.3616 13.3446 56.0306 13.2545 55.8494 13C55.7311 12.8355 55.609 12.6828 55.475 12.5419C55.2583 12.3148 55.14 11.9232 55.2504 11.6295L56.2355 8.98252C56.3459 8.68884 56.1843 8.39516 55.8769 8.32468L54.4228 7.99968C54.1155 7.9292 53.745 8.10149 53.5992 8.3795L52.2318 10.9678C52.086 11.2458 51.7116 11.5081 51.4043 11.5864C51.1127 11.6608 50.8132 11.7587 50.5097 11.8801C50.2181 11.9976 49.9147 11.8684 49.8201 11.5669L49.3275 9.94578C49.2369 9.64427 48.9611 9.55812 48.7128 9.75391L46.5336 11.4572C46.2853 11.653 46.1001 12.0642 46.1198 12.3774L46.2499 14.4371C46.2696 14.7503 46.1119 15.1928 45.911 15.4356C45.5524 15.8585 45.2174 16.3048 44.8982 16.7669C44.7209 17.0253 44.3268 17.2289 44.0116 17.2133L42.6087 17.1428C42.2934 17.1271 41.9309 17.3464 41.8048 17.6323L40.4886 20.569C40.3586 20.8549 40.4925 21.1877 40.7802 21.313L41.9112 21.7946C42.2028 21.916 42.3683 22.2645 42.3013 22.5699C42.1949 23.0437 42.1122 23.5097 42.057 23.9718C42.0215 24.285 41.8166 24.7118 41.5841 24.9233L39.6532 26.6892C39.4207 26.9007 39.2749 27.3236 39.33 27.6329L39.6926 29.7278C39.7477 30.0371 40.0039 30.1468 40.2679 29.9745L42.1988 28.7136C42.4629 28.5414 42.7939 28.6314 42.9752 28.8859C43.0934 29.0504 43.2155 29.2031 43.3495 29.3441C43.5663 29.5712 43.6845 29.9627 43.5741 30.2564L42.589 32.9034C42.4786 33.1971 42.6402 33.4908 42.9476 33.5613L44.4017 33.8863C44.7091 33.9567 45.0795 33.7845 45.2253 33.5064L46.5927 30.9182C46.7385 30.6402 47.1129 30.3778 47.4202 30.2995C47.7119 30.2251 48.0113 30.1272 48.3148 30.0058C48.6064 29.8883 48.9098 30.0176 49.0044 30.3191L49.497 31.9402C49.5876 32.2417 49.8635 32.3278 50.1117 32.132L52.2909 30.4287C52.5392 30.2329 52.7244 29.8218 52.7047 29.5085L52.5747 27.4489C52.5549 27.1356 52.7126 26.6932 52.9135 26.4504C53.2722 26.0275 53.6071 25.5811 53.9263 25.119C54.1036 24.8606 54.4977 24.657 54.813 24.6727L56.2158 24.7431C56.5311 24.7588 56.8936 24.5395 57.0197 24.2537L58.3359 21.3169C58.466 21.0311 58.332 20.6982 58.0443 20.5729L56.9133 20.0913C56.6217 19.9699 56.4562 19.6214 56.5232 19.316C56.6296 18.8422 56.7124 18.3762 56.7675 17.9142C56.803 17.6009 57.0079 17.1741 57.2404 16.9627L59.1713 15.1967C59.4038 14.9853 59.5496 14.5624 59.4945 14.253ZM50.1827 25.4088C47.8183 27.2531 45.5563 26.7519 45.1307 24.285C44.7051 21.8181 46.2735 18.3214 48.634 16.4771C50.9984 14.6328 53.2603 15.1341 53.6859 17.6009C54.1155 20.0678 52.5471 23.5606 50.1827 25.4088Z" fill="#FFC5DE"/>
<path d="M79.1686 23.7095V23.7134C79.0386 23.6351 78.8652 23.639 78.6839 23.7564L77.683 24.4104L77.4623 25.0056C77.3283 25.3619 77.4702 25.8357 77.7342 26.1098C77.8958 26.2781 78.0495 26.4622 78.1913 26.6658C78.412 26.9712 78.81 27.0809 79.1253 26.8733L81.4581 25.3462C81.6315 25.2366 81.8049 25.2209 81.931 25.2953L79.1686 23.7095ZM75.5786 32.2182C75.2516 30.3387 74.0497 29.4029 72.4852 29.5282C72.6231 29.8414 72.7335 30.2056 72.8083 30.6285C73.3246 33.6044 71.4252 37.8294 68.5721 40.0613C67.52 40.8797 66.4875 41.3183 65.5812 41.3888C66.5151 43.3858 68.8874 43.5737 71.3464 41.6511C74.1994 39.4192 76.0949 35.1942 75.5786 32.2182ZM75.6299 19.4923V19.4962C75.5747 19.4649 75.5156 19.4374 75.4447 19.4218L73.6871 19.0263C73.3128 18.9441 72.8675 19.1516 72.6901 19.4844L71.035 22.617C70.9562 22.7697 70.8222 22.9067 70.6646 23.032H70.6607C70.574 23.1064 70.4794 23.1691 70.3809 23.22L70.8971 24.9272C71.0075 25.2875 71.3779 25.4441 71.7286 25.3031C72.099 25.1583 72.4616 25.0369 72.8123 24.9507C73.0211 24.8959 73.2458 24.7784 73.4389 24.6257C73.5965 24.5004 73.7344 24.3555 73.8132 24.2028L75.4644 21.0703C75.6456 20.7375 76.0909 20.5299 76.4614 20.6122L78.2228 21.0076C78.2859 21.0194 78.3489 21.0429 78.3962 21.0703L75.6299 19.4923ZM70.6764 49.8036C70.6016 49.7448 70.5425 49.6587 70.5109 49.5373L69.9159 47.5755C69.8095 47.2153 69.443 47.0548 69.0844 47.1996C68.7219 47.3445 68.3554 47.4659 68.0007 47.5521C67.8904 47.5795 67.7761 47.6304 67.6579 47.693L67.7367 47.9436C67.784 48.0885 67.8628 48.1903 67.9613 48.2451V48.249L70.6764 49.8036ZM67.3072 21.0781C67.2481 21.0468 67.1811 21.0272 67.1141 21.0272C67.0077 21.0272 66.8973 21.0625 66.7909 21.1525L64.1546 23.2083C64.1192 23.2357 64.0837 23.267 64.0522 23.3061C64.0246 23.3296 64.0049 23.357 63.9812 23.3845C63.8906 23.5019 63.8118 23.6468 63.7527 23.7956C63.7448 23.8269 63.729 23.8661 63.7212 23.8974H63.7251C63.6778 24.0423 63.6463 24.1911 63.6542 24.3203L63.8118 26.8107C63.8354 27.1905 63.6463 27.727 63.402 28.0167C62.9685 28.5297 62.5626 29.07 62.1803 29.6261C62.0503 29.814 61.8336 29.9746 61.6011 30.0685C61.5223 30.0999 61.4474 30.1233 61.3725 30.139C61.337 30.1468 61.2976 30.1586 61.2622 30.1586C61.2109 30.1664 61.1597 30.1743 61.1085 30.1664L59.4179 30.0842H59.3746C59.3273 30.0842 59.284 30.0881 59.2367 30.0999C59.1933 30.1038 59.1539 30.1155 59.1106 30.1273C59.1066 30.1273 59.1027 30.1273 59.0948 30.1312C59.0475 30.1468 59.0042 30.1625 58.9569 30.186C58.8702 30.2291 58.7874 30.2761 58.7126 30.3387C58.5983 30.4366 58.4998 30.5541 58.4406 30.6833L56.8486 34.227C56.7067 34.5442 56.825 34.9005 57.1166 35.0806L58.9963 36.1574C59.0554 36.314 59.0751 36.4824 59.0396 36.643C58.9096 37.2107 58.8111 37.7785 58.7441 38.3345C58.7007 38.7104 58.4564 39.2273 58.1766 39.4857L58.149 39.5092L55.8398 41.6159C55.7965 41.6511 55.761 41.6942 55.7295 41.7412C55.7255 41.749 55.7216 41.7568 55.7137 41.7647C55.6782 41.8117 55.6428 41.8626 55.6231 41.9174C55.4773 42.1758 55.4024 42.5047 55.4497 42.7632L55.891 45.2927C55.9186 45.4532 55.9935 45.5668 56.092 45.6373L58.8544 47.2192C58.7559 47.1566 58.6889 47.0391 58.6613 46.8864L58.2239 44.3569C58.1963 44.212 58.2081 44.0358 58.2515 43.8713C58.3145 43.6129 58.4446 43.3662 58.614 43.2135L60.9193 41.1068L60.9469 41.0833C61.2267 40.8249 61.471 40.308 61.5183 39.9321C61.5814 39.3761 61.6799 38.8083 61.8139 38.2406C61.8966 37.8686 61.6956 37.4535 61.3449 37.3008L59.9775 36.7252C59.6268 36.5725 59.4652 36.1692 59.6228 35.8285L61.2149 32.2848C61.274 32.1556 61.3686 32.0381 61.4868 31.9402C61.6838 31.7797 61.9478 31.674 62.1882 31.6896L63.8827 31.7719C64.0403 31.7797 64.2098 31.7444 64.3714 31.674C64.6078 31.5761 64.8245 31.4155 64.9506 31.2315C65.3329 30.6755 65.7427 30.1351 66.1723 29.6221C66.4205 29.3324 66.6057 28.7959 66.5821 28.4161L66.4245 25.9297C66.4166 25.7965 66.4402 25.6438 66.4875 25.4989C66.5703 25.2287 66.7318 24.9664 66.9249 24.8176L69.5573 22.7619C69.7386 22.6209 69.9317 22.6013 70.0775 22.6875L67.3072 21.0781ZM63.3586 47.509C63.4887 47.1527 63.3428 46.6789 63.0828 46.4048C62.9212 46.2364 62.7675 46.0523 62.6296 45.8487C62.4089 45.5355 62.0109 45.4337 61.6956 45.6373L60.3637 46.5066L59.3943 49.1066C59.2879 49.3924 59.3943 49.6744 59.6307 49.8153L59.6268 49.8192L62.405 51.4129C62.1646 51.268 62.0621 50.9822 62.1685 50.7003L63.3586 47.509Z" fill="#E35492"/>
<path d="M60.9225 41.0872L58.6172 43.1939C58.4477 43.3505 58.3177 43.5972 58.2546 43.8517L55.4883 42.2658C55.5198 42.1366 55.5671 42.0152 55.6262 41.8978C55.6498 41.843 55.6814 41.792 55.7168 41.7451C55.7208 41.7372 55.7247 41.7294 55.7326 41.7216C55.7641 41.6746 55.8035 41.6354 55.8429 41.5963L58.1522 39.4896L60.9225 41.0872Z" fill="#FF7CB5"/>
<path d="M64.3717 31.6544C64.2101 31.7248 64.0407 31.7601 63.883 31.7523L62.1885 31.67C61.9482 31.6544 61.6841 31.7601 61.4871 31.9206L58.7168 30.3309C58.7917 30.2721 58.8744 30.2212 58.9611 30.1781C59.0084 30.1547 59.0518 30.1351 59.099 30.1233C59.103 30.1194 59.1069 30.1194 59.1148 30.1194C59.1582 30.1037 59.1976 30.0959 59.2409 30.092C59.2882 30.0842 59.3315 30.0763 59.3788 30.0763H59.4222L61.1127 30.1586C61.164 30.1625 61.2152 30.1586 61.2664 30.1507C61.3019 30.1468 61.3413 30.1429 61.3768 30.1312C61.4516 30.1116 61.5226 30.0842 61.5974 30.0568L61.6053 30.0607L64.3717 31.6544Z" fill="#FF7CB5"/>
<path d="M81.9341 25.2914C81.804 25.217 81.6346 25.2327 81.4612 25.3462L79.1283 26.8733C78.8091 27.0808 78.415 26.9751 78.1944 26.6619C78.0525 26.4622 77.9027 26.2781 77.7372 26.1058C77.4732 25.8317 77.3313 25.358 77.4653 25.0016L77.686 24.4104L78.6869 23.7564C78.8682 23.6429 79.0416 23.6311 79.1716 23.7094V23.7055L81.9341 25.2914Z" fill="#FF7CB5"/>
<path d="M78.3956 21.0781C78.3444 21.0507 78.2853 21.0272 78.2222 21.0154L76.4608 20.62C76.0903 20.5377 75.645 20.7453 75.4638 21.0781L73.8126 24.2106C73.7338 24.3634 73.5959 24.5082 73.4383 24.6335L70.668 23.0399C70.8256 22.9106 70.9596 22.7736 71.0384 22.6248L72.6935 19.4922C72.8669 19.1594 73.3161 18.9519 73.6905 19.0341L75.448 19.4296C75.5189 19.4453 75.578 19.4727 75.6332 19.504V19.5001L78.3956 21.0781Z" fill="#FF7CB5"/>
<path d="M70.0849 22.6679C69.9391 22.5817 69.7421 22.5974 69.5647 22.7423L66.9324 24.798C66.7393 24.9507 66.5777 25.2092 66.4949 25.4793L63.7207 23.8974C63.7286 23.8661 63.7443 23.8269 63.7522 23.7956C63.8113 23.6429 63.8902 23.5019 63.9808 23.3845C64.0044 23.3571 64.0241 23.3296 64.0517 23.3061C64.0832 23.2709 64.1148 23.2357 64.1542 23.2083L66.7905 21.1525C66.8969 21.0664 67.0072 21.0272 67.1136 21.0272C67.1846 21.0272 67.2476 21.0468 67.3067 21.0781L70.0849 22.6679Z" fill="#FF7CB5"/>
<path d="M82.5922 28.1734L82.1548 25.6439C82.0918 25.2679 81.7805 25.1348 81.4613 25.3463L79.1284 26.8695C78.8092 27.077 78.4112 26.9713 78.1905 26.658C78.0486 26.4583 77.8989 26.2743 77.7373 26.1059C77.4733 25.8318 77.3314 25.358 77.4654 25.0017L78.6555 21.8065C78.7895 21.4502 78.5924 21.0938 78.222 21.0116L76.4645 20.62C76.0901 20.5378 75.6448 20.7414 75.4675 21.0782L73.8163 24.2068C73.639 24.5435 73.1898 24.8607 72.8194 24.9547C72.4647 25.0448 72.1061 25.1622 71.7357 25.311C71.381 25.452 71.0145 25.2954 70.9042 24.9351L70.3091 22.9734C70.1988 22.6092 69.8678 22.5074 69.5644 22.7384L66.932 24.7941C66.6325 25.0291 66.4079 25.5264 66.4315 25.9062L66.5891 28.3966C66.6128 28.7764 66.4236 29.3089 66.1793 29.6026C65.7458 30.1156 65.3399 30.652 64.9577 31.212C64.741 31.5252 64.2681 31.7719 63.8858 31.7523L62.1913 31.6701C61.8091 31.6505 61.3756 31.9168 61.218 32.2653L59.626 35.8129C59.4723 36.1575 59.6299 36.5608 59.9806 36.7096L61.348 37.2891C61.6988 37.4379 61.9037 37.8569 61.817 38.2249C61.6869 38.7966 61.5884 39.3605 61.5254 39.9165C61.482 40.2924 61.2377 40.8093 60.954 41.0638L58.6211 43.1939C58.3413 43.4524 58.164 43.9614 58.231 44.3373L58.6684 46.8669C58.7314 47.2428 59.0427 47.3759 59.3619 47.1644L61.6948 45.6412C62.014 45.4337 62.412 45.5394 62.6327 45.8527C62.7746 46.0524 62.9243 46.2364 63.0859 46.4048C63.3499 46.6789 63.4918 47.1527 63.3578 47.509L62.1677 50.7042C62.0337 51.0606 62.2308 51.4169 62.6012 51.4991L64.3587 51.8907C64.7331 51.9729 65.1784 51.7693 65.3557 51.4325L67.0069 48.3039C67.1842 47.9672 67.6334 47.65 68.0038 47.556C68.3585 47.466 68.7171 47.3485 69.0875 47.1997C69.4422 47.0587 69.8087 47.2154 69.919 47.5756L70.5141 49.5374C70.6244 49.9015 70.9554 50.0033 71.2588 49.7723L73.8912 47.7166C74.1907 47.4816 74.4153 46.9843 74.3917 46.6045L74.2341 44.1141C74.2104 43.7343 74.3996 43.2018 74.6439 42.9081C75.0774 42.3951 75.4833 41.8587 75.8655 41.2988C76.0822 40.9855 76.5551 40.7388 76.9374 40.7584L78.6319 40.8406C79.0141 40.8602 79.4476 40.5939 79.6052 40.2454L81.1972 36.6978C81.3509 36.3493 81.1933 35.9499 80.8426 35.8011L79.4752 35.2216C79.1244 35.0728 78.9195 34.6538 79.0062 34.2858C79.1363 33.7141 79.2348 33.1502 79.2978 32.5942C79.3412 32.2183 79.5855 31.7014 79.8692 31.4469L82.2021 29.3128C82.4819 29.0583 82.6592 28.5493 82.5922 28.1734ZM71.3455 41.6512C68.4925 43.8831 65.7577 43.2723 65.2414 40.2963C64.7252 37.3165 66.6207 33.0954 69.4737 30.8635C72.3268 28.6315 75.0616 29.2384 75.5778 32.2183C76.0941 35.1981 74.1986 39.4192 71.3455 41.6512Z" fill="#FFC5DE"/>
<path d="M24.5079 75.8271C24.6498 75.5452 24.6104 75.1145 24.4488 74.8443C24.0823 74.2491 23.7789 73.5795 23.5385 72.8316C23.4479 72.534 23.1484 72.3931 22.8607 72.5223L21.8716 72.9648C21.9701 73.1684 22.0765 73.3681 22.1947 73.5521C22.3603 73.8223 22.3957 74.253 22.2539 74.5349L19.5348 79.9856C19.3929 80.2675 19.5033 80.6238 19.7752 80.7805L22.0095 82.0609C21.7534 81.8925 21.6509 81.5479 21.7889 81.2778L24.5079 75.8271ZM36.5979 37.8685C36.5546 37.845 36.5073 37.8333 36.4521 37.8333C36.3812 37.8333 36.3024 37.8528 36.2275 37.8959L31.6406 40.5272C31.6169 40.5429 31.5933 40.5586 31.5736 40.5742C31.5499 40.5938 31.5263 40.6095 31.5066 40.633C31.4829 40.6525 31.4632 40.6721 31.4435 40.6917C31.4002 40.7387 31.3647 40.7818 31.3253 40.8366C31.1992 41.005 31.1164 41.2047 31.1007 41.3809L30.6396 46.4517C30.612 46.7649 30.3953 47.1878 30.1628 47.3993C29.2683 48.2176 28.4171 49.1182 27.6132 50.0815C27.4161 50.3243 27.0142 50.4378 26.7108 50.336L23.7671 49.314C23.6922 49.2866 23.6134 49.2749 23.5346 49.2827H23.5188C23.507 49.2788 23.4952 49.2827 23.4833 49.2866C23.4676 49.2827 23.4518 49.2866 23.44 49.2905C23.4085 49.2945 23.3769 49.3023 23.3533 49.3101C23.2627 49.3375 23.176 49.3767 23.0972 49.4432C23.0775 49.455 23.0617 49.4667 23.0459 49.4863C22.9986 49.5255 22.9671 49.5686 22.9356 49.6234L19.5624 55.4264C19.4914 55.5556 19.4717 55.7083 19.4914 55.8493C19.5072 56.0177 19.5821 56.1782 19.7121 56.2879L22.0726 58.3123C22.313 58.5159 22.4115 58.9192 22.3011 59.2129C21.8637 60.3837 21.5091 61.5662 21.2411 62.7487C21.2017 62.9171 21.1071 63.1129 20.981 63.2891C20.9574 63.3243 20.9298 63.3596 20.9022 63.3909C20.8746 63.4222 20.851 63.4496 20.8273 63.481C20.7682 63.5397 20.7131 63.5906 20.6539 63.6337L16.465 66.5665C16.4374 66.5861 16.4098 66.6057 16.3901 66.6253C16.3625 66.6488 16.3389 66.6762 16.3192 66.6997C16.134 66.8994 16 67.2087 16 67.4593V72.722C16 72.8864 16.0631 73.0039 16.1655 73.0587L18.4235 74.3548C18.325 74.2922 18.258 74.1747 18.258 74.0142V68.7515C18.258 68.5674 18.3289 68.3482 18.4393 68.168C18.5181 68.0388 18.6166 67.9292 18.723 67.8548L22.9119 64.9259C23.0262 64.8475 23.1405 64.7222 23.239 64.5852C23.3612 64.409 23.4597 64.2093 23.4991 64.0409C23.7671 62.8662 24.1257 61.6837 24.5592 60.509C24.6695 60.2114 24.571 59.812 24.3306 59.6084L21.9701 57.584C21.8401 57.4743 21.7652 57.3099 21.7494 57.1454C21.7219 56.9966 21.7494 56.8478 21.8204 56.7225L25.1936 50.9195C25.3079 50.7237 25.5286 50.5984 25.7532 50.5827C25.8438 50.5749 25.9344 50.5827 26.0211 50.614L28.9648 51.636C29.2643 51.7378 29.6663 51.6243 29.8712 51.3815C30.6711 50.4183 31.5223 49.5176 32.4169 48.6993C32.6494 48.4878 32.8661 48.0649 32.8937 47.7517L33.3547 42.6809C33.3626 42.583 33.3942 42.4812 33.4375 42.3794C33.536 42.1522 33.7094 41.9408 33.8986 41.8312L38.4855 39.1998C38.6155 39.1293 38.7377 39.1176 38.8323 39.1528L36.5979 37.8685ZM33.4966 83.0046C33.4139 82.9458 33.3587 82.844 33.3429 82.707L32.8976 78.2823C32.8661 77.969 32.5942 77.785 32.2829 77.8554C31.7548 77.969 31.2465 78.0395 30.75 78.063L31.0889 81.4187C31.1046 81.5675 31.1716 81.6772 31.2662 81.7241V81.7281L33.4966 83.0046ZM40.6805 51.2719C41.3386 52.1725 41.6853 53.5547 41.6853 55.3559C41.6853 60.2662 38.2175 66.2337 33.934 68.6927C32.2671 69.6521 30.8445 69.9693 29.7293 69.7108C31.1164 71.3163 33.4927 71.5355 36.1881 69.9888C40.4716 67.5259 43.9394 61.5584 43.9394 56.6442C43.9394 53.6526 42.6547 51.7496 40.6805 51.2719ZM45.1413 37.1245C44.8655 36.964 44.5029 37.054 44.3295 37.3125L40.9366 42.3794C40.9208 42.4029 40.9051 42.4224 40.8854 42.442C40.8617 42.4694 40.8342 42.5007 40.8066 42.5203C40.7947 42.536 40.779 42.5477 40.7593 42.5595C40.7435 42.5751 40.7278 42.5869 40.712 42.5986C40.5189 42.7396 40.2628 42.8218 40.046 42.8179C39.8253 42.8101 39.6047 42.814 39.3761 42.8297L39.4825 43.9026C39.518 44.2158 39.7859 44.3998 40.0972 44.3294C40.8657 44.161 41.6065 44.0905 42.308 44.1101C42.5208 44.114 42.7769 44.0318 42.97 43.8908C43.0606 43.8282 43.1394 43.7538 43.1907 43.6715L46.5836 38.6007C46.757 38.3423 47.1117 38.2601 47.3836 38.4128L45.1413 37.1245ZM51.7065 46.5339C51.6828 46.5221 51.6553 46.5104 51.6356 46.5065C51.5528 46.4869 51.4543 46.4947 51.3518 46.5417L48.2623 47.924C48.3372 48.0688 48.4081 48.2137 48.4712 48.3625C48.5303 48.4917 48.5855 48.6249 48.6367 48.7619C48.6525 48.7893 48.6643 48.8167 48.6682 48.8402C48.7273 48.9812 48.7746 49.1222 48.8219 49.267C48.8337 49.2945 48.8416 49.3219 48.8495 49.3454C48.8771 49.4276 48.9165 49.4981 48.9717 49.5529C48.9914 49.5725 49.0111 49.592 49.0308 49.6038C49.0426 49.6155 49.0583 49.6234 49.0702 49.6312C49.1096 49.6586 49.145 49.6782 49.1884 49.686C49.2042 49.6939 49.2199 49.6978 49.2317 49.6978C49.2948 49.7134 49.3618 49.7134 49.4248 49.6978V49.6939C49.4327 49.6939 49.4406 49.6899 49.4445 49.6899C49.4761 49.6821 49.5036 49.6743 49.5312 49.6586L53.6138 47.83C53.7241 47.7752 53.8305 47.7673 53.9133 47.8026C53.9369 47.8065 53.9566 47.8143 53.9724 47.8261L51.7065 46.5339Z" fill="#E35492"/>
<path d="M47.3884 38.4128C47.1125 38.2601 46.7579 38.3462 46.5884 38.6008L43.1955 43.6716C43.1403 43.7538 43.0654 43.8282 42.9748 43.8908L40.7207 42.5987L40.7168 42.5948C40.7523 42.5713 40.7838 42.5478 40.8114 42.5243C40.8429 42.5008 40.8705 42.4695 40.8902 42.446C40.9099 42.4225 40.9257 42.4029 40.9414 42.3833L44.3343 37.3164C44.5117 37.0541 44.8742 36.9679 45.1461 37.1285L47.3884 38.4128Z" fill="#FF7CB5"/>
<path d="M23.2393 64.5812C23.1408 64.7183 23.0265 64.8436 22.9122 64.9219L18.7233 67.8508C18.6169 67.9252 18.5223 68.0349 18.4395 68.1641L16.1934 66.8758C16.2328 66.8132 16.2722 66.7505 16.3195 66.6957C16.3431 66.6683 16.3667 66.6409 16.3904 66.6213C16.414 66.5978 16.4416 66.5782 16.4653 66.5626L20.6542 63.6297C20.7133 63.5867 20.7685 63.5358 20.8276 63.477C20.8552 63.4457 20.8788 63.4183 20.9025 63.387C20.9301 63.3517 20.9537 63.3204 20.9773 63.2852H20.9813L23.2393 64.5812Z" fill="#FF7CB5"/>
<path d="M25.7533 50.5749C25.5287 50.5906 25.308 50.7159 25.1937 50.9117L21.8205 56.7147C21.7496 56.84 21.722 56.9927 21.7496 57.1376L19.4955 55.8454C19.4758 55.7005 19.4955 55.5478 19.5664 55.4225L22.9396 49.6195C22.9712 49.5647 23.0027 49.5216 23.05 49.4824C23.0657 49.4629 23.0815 49.4511 23.1012 49.4394C23.1761 49.3767 23.2667 49.3336 23.3574 49.3062C23.3849 49.2984 23.4165 49.2906 23.4441 49.2867C23.4559 49.2827 23.4716 49.2788 23.4874 49.2827C23.4992 49.2788 23.511 49.2749 23.5229 49.2788C23.5268 49.2749 23.5307 49.2749 23.5347 49.2749L23.5386 49.2788L25.7533 50.5749Z" fill="#FF7CB5"/>
<path d="M38.8324 39.1489C38.7378 39.1098 38.6157 39.1215 38.4856 39.1959L33.8987 41.8272C33.7095 41.9369 33.5361 42.1483 33.4376 42.3754L31.1875 41.0833C31.2269 41.001 31.2703 40.9149 31.3254 40.8405C31.3648 40.7857 31.4003 40.7426 31.4436 40.6956C31.4673 40.6721 31.487 40.6525 31.5067 40.6369C31.5303 40.6134 31.554 40.5977 31.5737 40.5781C31.5973 40.5625 31.621 40.5468 31.6407 40.5312L36.2276 37.8998C36.3025 37.8528 36.3813 37.8372 36.4522 37.8372C36.5074 37.8372 36.5547 37.8489 36.5981 37.8724L38.8324 39.1489Z" fill="#FF7CB5"/>
<path d="M51.7059 46.5339L53.9639 47.8299C53.9482 47.8182 53.9284 47.8104 53.9048 47.8065C53.822 47.7712 53.7157 47.779 53.6053 47.8339L49.5228 49.6625C49.3179 49.7565 49.1011 49.7095 48.9671 49.5607C48.912 49.5019 48.8726 49.4354 48.845 49.3531C48.8371 49.3257 48.8292 49.2983 48.8174 49.2748C48.7701 49.126 48.7228 48.9851 48.6637 48.848C48.6598 48.8206 48.6479 48.7932 48.6322 48.7697C48.5809 48.6327 48.5297 48.4995 48.4667 48.3703C48.4036 48.2176 48.3327 48.0727 48.2578 47.9318L51.3473 46.5495C51.4498 46.5025 51.5443 46.4947 51.631 46.5143C51.6547 46.5143 51.6823 46.526 51.7059 46.5339Z" fill="#FF7CB5"/>
<path d="M53.9685 47.83H53.9648V47.8337H53.9685V47.83Z" fill="#FF7CB5"/>
<path d="M54.1259 53.4334V48.1707C54.1259 47.8574 53.8934 47.7047 53.6057 47.8339L49.5232 49.6626C49.2355 49.7918 48.94 49.6508 48.8414 49.3493C48.605 48.6053 48.2976 47.9318 47.9312 47.3366C47.7656 47.0704 47.7302 46.6357 47.8681 46.3538L50.5911 40.9032C50.733 40.6213 50.6226 40.2649 50.3507 40.1083L47.3992 38.4128C47.1273 38.2562 46.7608 38.3423 46.5874 38.6008L43.1945 43.6677C43.0211 43.93 42.6231 44.114 42.3078 44.1062C41.6064 44.0866 40.8695 44.161 40.101 44.3294C39.7937 44.396 39.5217 44.2119 39.4902 43.9026L39.041 39.474C39.0095 39.1607 38.7612 39.0354 38.4893 39.192L33.9023 41.8234C33.6304 41.98 33.3822 42.3598 33.3546 42.6731L32.8935 47.7439C32.8659 48.0571 32.6492 48.48 32.4167 48.6915C31.5222 49.5099 30.671 50.4065 29.8671 51.3698C29.6661 51.6126 29.2642 51.7261 28.9647 51.6243L26.021 50.6023C25.7215 50.5005 25.3511 50.6337 25.1934 50.9077L21.8202 56.7108C21.6626 56.981 21.7296 57.3686 21.966 57.5762L24.3304 59.6006C24.5708 59.8042 24.6693 60.2075 24.559 60.5051C24.1216 61.6759 23.763 62.8623 23.4989 64.037C23.428 64.3425 23.1719 64.7379 22.9118 64.922L18.7228 67.8548C18.4628 68.0349 18.2539 68.4383 18.2539 68.7515V74.0142C18.2539 74.3274 18.4864 74.4802 18.7741 74.3509L22.8566 72.5223C23.1443 72.3931 23.4398 72.5341 23.5384 72.8356C23.7748 73.5795 24.0822 74.253 24.4487 74.8482C24.6142 75.1145 24.6496 75.5491 24.5117 75.8311L21.7887 81.2817C21.6468 81.5636 21.7572 81.92 22.0291 82.0766L24.9806 83.7721C25.2526 83.9287 25.619 83.8426 25.7924 83.5841L29.1853 78.5172C29.3587 78.2549 29.7567 78.0708 30.072 78.0787C30.7734 78.0982 31.5103 78.0238 32.2788 77.8555C32.5862 77.7889 32.8581 77.9729 32.8896 78.2862L33.3388 82.7148C33.3703 83.0281 33.6186 83.1534 33.8905 82.9968L38.4775 80.3654C38.7494 80.2088 38.9976 79.829 39.0252 79.5157L39.4863 74.4449C39.5139 74.1317 39.7306 73.7088 39.9631 73.4973C40.8537 72.6789 41.7088 71.7823 42.5088 70.819C42.7098 70.5762 43.1117 70.4627 43.4112 70.5645L46.3549 71.5865C46.6544 71.6883 47.0248 71.5551 47.1824 71.281L50.5556 65.478C50.7133 65.2078 50.6463 64.8202 50.4098 64.6126L48.0454 62.5882C47.805 62.3846 47.7065 61.9813 47.8169 61.6837C48.2543 60.5129 48.6129 59.3265 48.8769 58.1518C48.9478 57.8463 49.204 57.4509 49.4641 57.2668L53.653 54.334C53.917 54.146 54.1259 53.7466 54.1259 53.4334ZM36.1919 69.981C31.9123 72.4362 28.4406 70.447 28.4406 65.5367C28.4406 60.6265 31.9123 54.6551 36.1919 52.1999C40.4714 49.7448 43.9392 51.734 43.9392 56.6442C43.9392 61.5545 40.4714 67.5259 36.1919 69.981Z" fill="#FFC5DE"/>
<path d="M49.9518 149.736C49.6484 149.736 49.3449 149.614 49.1243 149.403C48.8918 149.18 48.7617 148.878 48.7617 148.553V69.5779L156.366 7.9137V86.7403C156.366 87.9542 155.507 89.4343 154.447 90.0412L50.539 149.575C50.3538 149.681 50.1567 149.736 49.9518 149.736Z" fill="white"/>
<path d="M156.176 8.24254V86.7402C156.176 87.8719 155.341 89.3089 154.356 89.8767L52.3672 148.307L50.4441 149.411C50.2904 149.501 50.1249 149.544 49.9515 149.544C49.6954 149.544 49.4432 149.442 49.254 149.262C49.057 149.074 48.9506 148.823 48.9506 148.549V69.6835L156.176 8.24254ZM156.559 7.58862L48.5684 69.4642V148.549C48.5684 149.348 49.2304 149.924 49.9476 149.924C50.1762 149.924 50.4087 149.865 50.6293 149.74L52.5524 148.635L154.545 90.2056C155.652 89.5713 156.559 88.0207 156.559 86.7402V7.58862Z" fill="#E0E0E0"/>
<path opacity="0.8" d="M153.998 6.11633L46 67.992L48.5693 69.4643L156.56 7.58863L153.998 6.11633Z" fill="#455A64"/>
<path d="M49.2944 149.759C49.2944 149.759 48.5733 149.407 48.5733 148.553V71.7471C48.5733 71.1166 48.5733 69.4681 48.5733 69.4681L46.0039 67.9958L46 146.642C46 146.74 46.0079 146.838 46.0197 146.936C46.1103 147.586 46.4965 148.162 47.0719 148.487L49.192 149.704L49.2944 149.759Z" fill="#EBEBEB"/>
<path d="M46 68.0272V62.6901C46 62.0518 46.4492 61.2765 47.0009 60.9554L152.997 0.242781C153.549 -0.0783047 154.447 -0.0822204 155.003 0.238866L155.555 0.556036C156.11 0.873206 156.56 1.64851 156.56 2.28677V7.63167L48.5693 69.4995L46 68.0272Z" fill="#538DF7"/>
<path opacity="0.3" d="M46 68.0272V62.6901C46 62.0518 46.4492 61.2765 47.0009 60.9554L152.997 0.242781C153.549 -0.0783047 154.447 -0.0822204 155.003 0.238866L155.555 0.556036C156.11 0.873206 156.56 1.64851 156.56 2.28677V7.63167L48.5693 69.4995L46 68.0272Z" fill="white"/>
<path d="M48.5684 64.1663C48.5684 63.5281 49.0176 62.7528 49.5693 62.4317L155.554 1.7112C156.106 1.39012 156.555 1.64464 156.555 2.28289V7.6278L48.5684 69.4995V64.1663Z" fill="#538DF7"/>
<path d="M48.8609 63.1796C48.6796 63.4928 48.5693 63.8492 48.5693 64.1663V69.4995L46.0039 68.0272V62.6901C46.0039 62.3729 46.1142 62.0205 46.2955 61.7073L48.8609 63.1796Z" fill="#538DF7"/>
<path opacity="0.15" d="M48.8609 63.1796C48.6796 63.4928 48.5693 63.8492 48.5693 64.1663V69.4995L46.0039 68.0272V62.6901C46.0039 62.3729 46.1142 62.0205 46.2955 61.7073L48.8609 63.1796Z" fill="black"/>
<path d="M151.848 7.38497C151.848 7.98406 152.269 8.22292 152.789 7.92533C153.31 7.62774 153.731 6.89942 153.731 6.30424C153.731 5.70905 153.31 5.46628 152.789 5.76387C152.269 6.06147 151.848 6.78978 151.848 7.38497Z" fill="#FAFAFA"/>
<path d="M148.076 9.55034C148.076 10.1494 148.498 10.3883 149.018 10.0907C149.538 9.79311 149.96 9.0648 149.96 8.46961C149.96 7.87052 149.538 7.63166 149.018 7.92925C148.498 8.22684 148.076 8.95124 148.076 9.55034Z" fill="#FAFAFA"/>
<path d="M144.305 11.7118C144.305 12.3109 144.726 12.5498 145.247 12.2522C145.767 11.9546 146.188 11.2263 146.188 10.6311C146.188 10.032 145.767 9.79316 145.247 10.0907C144.73 10.3883 144.305 11.1127 144.305 11.7118Z" fill="#FAFAFA"/>
<path d="M94.3809 52.7469V89.2556C94.3809 89.9291 93.9124 90.7441 93.3269 91.0808L57.4348 111.856C57.3762 111.89 57.3226 111.919 57.2543 111.939H57.2494C56.7517 112.134 56.3809 111.851 56.3809 111.251V74.7419C56.3809 74.4101 56.5028 74.0392 56.6883 73.7073C56.8834 73.3803 57.142 73.0875 57.4348 72.9216L93.3318 52.1417C93.8149 51.8635 94.2247 52.01 94.3467 52.4492C94.3613 52.498 94.3662 52.537 94.3711 52.5809C94.376 52.6346 94.3809 52.6883 94.3809 52.7469Z" fill="#E0E0E0"/>
<path d="M151.747 15.8154V57.3216C151.747 57.862 151.369 58.512 150.9 58.7822L97.0075 89.7004C96.9602 89.7278 96.9129 89.7513 96.8617 89.767C96.8538 89.7709 96.8498 89.7709 96.842 89.7748C96.4479 89.9119 96.1523 89.6887 96.1523 89.2149V47.7047C96.1523 47.4385 96.2509 47.1409 96.4045 46.8746C96.5582 46.6123 96.7671 46.3773 97.0035 46.2442L150.9 15.322C151.29 15.0988 151.621 15.2163 151.72 15.5726C151.732 15.6118 151.736 15.6431 151.74 15.6784C151.743 15.7254 151.747 15.7723 151.747 15.8154Z" fill="#E0E0E0"/>
<path d="M59.3897 137.006C59.0626 137.006 58.7553 136.928 58.4873 136.775C57.841 136.403 57.4824 135.635 57.4824 134.617C57.4824 132.597 58.9168 130.13 60.6783 129.12C61.5689 128.611 62.4161 128.532 63.0624 128.904C63.7087 129.276 64.0673 130.04 64.0673 131.062C64.0673 133.082 62.6329 135.549 60.8714 136.56C60.3552 136.853 59.8508 137.006 59.3897 137.006ZM62.16 129.045C61.7699 129.045 61.3285 129.178 60.8714 129.441C59.2124 130.392 57.8647 132.71 57.8647 134.613C57.8647 135.494 58.1523 136.144 58.6764 136.442C59.2006 136.744 59.9099 136.665 60.6783 136.227C62.3373 135.275 63.685 132.957 63.685 131.054C63.685 130.173 63.3974 129.523 62.8733 129.225C62.6644 129.108 62.424 129.045 62.16 129.045Z" fill="#538DF7"/>
<path d="M59.7922 132.765C59.7764 132.742 59.7685 132.71 59.7725 132.671C59.7764 132.632 59.7882 132.593 59.808 132.554L60.5527 131.226C60.5724 131.195 60.5882 131.164 60.6079 131.132C60.6276 131.101 60.6473 131.081 60.671 131.066L60.9389 130.913C60.9626 130.897 60.9862 130.901 61.0059 130.917C61.0256 130.933 61.0335 130.964 61.0335 130.999V134.394C61.0335 134.433 61.0256 134.472 61.0059 134.512C60.9862 134.551 60.9665 134.578 60.9389 134.59L60.6591 134.75C60.6355 134.766 60.6119 134.762 60.5922 134.746C60.5724 134.731 60.5646 134.699 60.5646 134.664V132.068L60.0759 132.93C60.0562 132.965 60.0326 132.988 60.0089 132.996C59.9853 133.004 59.9656 133 59.9459 132.977L59.7922 132.765Z" fill="#538DF7"/>
<path d="M68.6944 131.669C68.3673 131.669 68.0599 131.59 67.792 131.438C67.1457 131.066 66.7871 130.298 66.791 129.28C66.791 127.26 68.2255 124.793 69.9869 123.783C70.8775 123.274 71.7248 123.195 72.371 123.567C73.0173 123.939 73.3759 124.707 73.3759 125.725C73.3759 127.745 71.9415 130.212 70.18 131.222C69.6559 131.52 69.1515 131.669 68.6944 131.669ZM71.4608 123.712C71.0706 123.712 70.6293 123.845 70.1722 124.108C68.5131 125.059 67.1654 127.377 67.1654 129.28C67.1654 130.161 67.4531 130.811 67.9772 131.109C68.5013 131.41 69.2146 131.332 69.9791 130.893C71.6381 129.942 72.9858 127.624 72.9858 125.721C72.9858 124.84 72.6981 124.19 72.174 123.892C71.9652 123.771 71.7248 123.712 71.4608 123.712Z" fill="#E0E0E0"/>
<path d="M70.2754 127.181C70.3424 127.056 70.3897 126.946 70.4054 126.849C70.4251 126.751 70.433 126.664 70.433 126.59C70.433 126.445 70.4054 126.339 70.3463 126.273C70.2872 126.206 70.1927 126.21 70.0626 126.289C69.9365 126.359 69.8459 126.461 69.7868 126.59C69.7277 126.719 69.6882 126.864 69.6607 127.025C69.6528 127.076 69.641 127.115 69.6213 127.15C69.6015 127.185 69.5779 127.209 69.5582 127.221L69.2863 127.377C69.2626 127.393 69.239 127.393 69.2193 127.377C69.1996 127.361 69.1917 127.334 69.1917 127.291C69.1996 127.13 69.2232 126.966 69.2705 126.798C69.3178 126.633 69.3769 126.473 69.4557 126.324C69.5346 126.175 69.6213 126.042 69.7237 125.92C69.8262 125.799 69.9365 125.705 70.0587 125.639C70.2045 125.556 70.3266 125.521 70.433 125.533C70.5394 125.545 70.6261 125.588 70.6931 125.662C70.7601 125.736 70.8113 125.834 70.8468 125.952C70.8783 126.073 70.898 126.199 70.898 126.336C70.898 126.422 70.8941 126.508 70.8862 126.59C70.8783 126.672 70.8626 126.762 70.8389 126.852C70.8113 126.946 70.7759 127.048 70.7286 127.162C70.6813 127.275 70.6182 127.405 70.5355 127.549L69.901 128.802L70.8547 128.254C70.8783 128.239 70.902 128.242 70.9217 128.258C70.9414 128.278 70.9493 128.305 70.9493 128.34V128.712C70.9493 128.752 70.9414 128.791 70.9217 128.83C70.902 128.869 70.8823 128.896 70.8547 128.908L69.2508 129.828C69.2272 129.844 69.2035 129.84 69.1838 129.824C69.1641 129.809 69.1562 129.777 69.1562 129.742V129.421C69.1562 129.362 69.1681 129.304 69.1917 129.249C69.2154 129.19 69.2351 129.151 69.2508 129.124L70.2754 127.181Z" fill="#E0E0E0"/>
<path d="M77.9932 126.336C77.6662 126.336 77.3627 126.257 77.0908 126.105C76.4445 125.733 76.0859 124.965 76.0859 123.947C76.0859 121.927 77.5203 119.46 79.2818 118.449C80.1724 117.94 81.0197 117.862 81.6659 118.234C82.3122 118.606 82.6708 119.374 82.6708 120.392C82.6708 122.412 81.2364 124.879 79.4749 125.889C78.9548 126.183 78.4504 126.336 77.9932 126.336ZM80.7596 118.375C80.3695 118.375 79.9281 118.508 79.471 118.771C77.812 119.722 76.4642 122.04 76.4642 123.943C76.4642 124.824 76.7519 125.474 77.276 125.772C77.8001 126.073 78.5095 125.995 79.2779 125.556C80.9369 124.605 82.2846 122.287 82.2846 120.384C82.2846 119.503 81.997 118.853 81.4729 118.555C81.264 118.438 81.0236 118.375 80.7596 118.375Z" fill="#E0E0E0"/>
<path d="M80.1368 119.906C80.1604 119.89 80.184 119.894 80.1998 119.91C80.2195 119.93 80.2274 119.957 80.2274 119.996V120.368C80.2274 120.407 80.2195 120.446 80.2038 120.49C80.1841 120.533 80.1683 120.572 80.1525 120.603L79.6521 121.699C79.7545 121.66 79.8491 121.645 79.9318 121.652C80.0146 121.66 80.0855 121.692 80.1446 121.746C80.2038 121.801 80.251 121.884 80.2826 121.985C80.3141 122.091 80.3299 122.216 80.3299 122.369C80.3299 122.549 80.3062 122.725 80.2589 122.894C80.2116 123.062 80.1486 123.219 80.0619 123.368C79.9791 123.512 79.8806 123.646 79.7663 123.763C79.6521 123.881 79.5299 123.978 79.3959 124.053C79.2343 124.147 79.0964 124.198 78.9782 124.206C78.86 124.217 78.7615 124.198 78.6827 124.151C78.6038 124.104 78.5447 124.037 78.5014 123.943C78.458 123.849 78.4344 123.751 78.4305 123.642C78.4265 123.603 78.4383 123.563 78.4541 123.524C78.4738 123.485 78.4974 123.462 78.5211 123.446L78.793 123.289C78.8166 123.278 78.8363 123.278 78.8482 123.289C78.8639 123.305 78.8797 123.328 78.8954 123.36C78.9073 123.395 78.927 123.422 78.9506 123.446C78.9743 123.469 79.0058 123.485 79.0413 123.493C79.0807 123.501 79.1279 123.497 79.1831 123.481C79.2383 123.465 79.3092 123.434 79.392 123.387C79.5299 123.309 79.6442 123.199 79.7309 123.066C79.8176 122.929 79.8609 122.784 79.8609 122.628C79.8609 122.471 79.8176 122.381 79.7309 122.361C79.6442 122.342 79.5299 122.373 79.392 122.451L79.1082 122.616C79.0846 122.631 79.061 122.628 79.0452 122.612C79.0255 122.596 79.0176 122.565 79.0176 122.53V122.158C79.0176 122.118 79.0255 122.079 79.0413 122.036C79.057 121.993 79.0767 121.954 79.0925 121.923L79.5732 120.873L78.6235 121.418C78.5999 121.433 78.5763 121.429 78.5605 121.414C78.5408 121.394 78.5329 121.367 78.5329 121.327V120.955C78.5329 120.916 78.5408 120.877 78.5605 120.838C78.5802 120.799 78.5999 120.775 78.6235 120.76L80.1368 119.906Z" fill="#E0E0E0"/>
<path d="M111.781 103.766L111.486 103.597C111.017 103.327 110.635 102.673 110.635 102.133V60.6304C110.635 60.09 111.017 59.4361 111.486 59.1659L165.383 28.2516C165.852 27.9814 166.612 27.9814 167.081 28.2516L167.373 28.42C167.842 28.6901 168.224 29.3441 168.224 29.8844V71.3907C168.224 71.931 167.842 72.5849 167.373 72.8551L113.484 103.766C113.015 104.036 112.25 104.036 111.781 103.766Z" fill="#538DF7"/>
<path opacity="0.4" d="M168.216 29.7474C168.157 29.3088 167.802 29.1483 167.372 29.395L113.476 60.3132C113.239 60.4463 113.03 60.6813 112.873 60.9397L110.883 59.8002C111.033 59.534 111.249 59.3029 111.486 59.1659L165.382 28.2516C165.855 27.9814 166.616 27.9814 167.085 28.2516L167.38 28.42C167.802 28.6666 168.165 29.2383 168.216 29.7474Z" fill="white"/>
<path opacity="0.1" d="M113.338 103.832C112.869 104.032 112.207 104.008 111.785 103.765L111.486 103.597C111.017 103.327 110.639 102.673 110.639 102.133V60.6303C110.639 60.3601 110.733 60.0586 110.887 59.8002L112.877 60.9396C112.727 61.2059 112.629 61.5074 112.629 61.7698V103.276C112.629 103.762 112.936 103.989 113.338 103.832Z" fill="black"/>
<path d="M118.129 94.599L163.08 68.8103" stroke="#37474F" stroke-width="0.9683" stroke-miterlimit="10" stroke-linecap="round" stroke-linejoin="round"/>
<path d="M116.053 91.341L117.881 90.2916C118.019 90.2133 118.13 90.276 118.13 90.4326V90.7537C118.13 90.9103 118.019 91.1022 117.881 91.1805L116.053 92.2299C115.915 92.3082 115.805 92.2456 115.805 92.0889V91.7679C115.805 91.6112 115.915 91.4194 116.053 91.341Z" fill="#455A64"/>
<path d="M116.053 86.8967L117.881 85.8473C118.019 85.769 118.13 85.8317 118.13 85.9883V86.3094C118.13 86.466 118.019 86.6579 117.881 86.7362L116.053 87.7856C115.915 87.8639 115.805 87.8012 115.805 87.6446V87.3235C115.805 87.1669 115.915 86.975 116.053 86.8967Z" fill="#455A64"/>
<path d="M116.053 82.4525L117.881 81.4031C118.019 81.3248 118.13 81.3874 118.13 81.5441V81.8652C118.13 82.0218 118.019 82.2136 117.881 82.292L116.053 83.3414C115.915 83.4197 115.805 83.357 115.805 83.2004V82.8793C115.805 82.7227 115.915 82.5308 116.053 82.4525Z" fill="#455A64"/>
<path d="M116.053 78.0082L117.881 76.9588C118.019 76.8805 118.13 76.9431 118.13 77.0997V77.4208C118.13 77.5774 118.019 77.7693 117.881 77.8476L116.053 78.897C115.915 78.9753 115.805 78.9127 115.805 78.7561V78.435C115.805 78.2744 115.915 78.0865 116.053 78.0082Z" fill="#455A64"/>
<path d="M116.053 73.5599L117.881 72.5105C118.019 72.4322 118.13 72.4949 118.13 72.6515V72.9726C118.13 73.1292 118.019 73.3211 117.881 73.3994L116.053 74.4488C115.915 74.5271 115.805 74.4644 115.805 74.3078V73.9867C115.805 73.8301 115.915 73.6382 116.053 73.5599Z" fill="#455A64"/>
<path d="M116.053 69.1118L117.881 68.0624C118.019 67.9841 118.13 68.0467 118.13 68.2034V68.5245C118.13 68.6811 118.019 68.873 117.881 68.9513L116.053 70.0007C115.915 70.079 115.805 70.0163 115.805 69.8597V69.5386C115.805 69.382 115.915 69.1901 116.053 69.1118Z" fill="#455A64"/>
<path d="M116.053 64.6675L117.881 63.6181C118.019 63.5398 118.13 63.6024 118.13 63.759V64.0801C118.13 64.2367 118.019 64.4286 117.881 64.5069L116.053 65.5563C115.915 65.6346 115.805 65.572 115.805 65.4153V65.0943C115.805 64.9376 115.915 64.7458 116.053 64.6675Z" fill="#455A64"/>
<path d="M130.85 54.706L150.357 43.5345C150.534 43.4327 150.68 43.5149 150.68 43.7186V44.1336C150.68 44.3372 150.534 44.5878 150.357 44.6896L130.85 55.8611C130.673 55.9629 130.527 55.8807 130.527 55.677V55.262C130.531 55.0545 130.673 54.8078 130.85 54.706Z" fill="#455A64"/>
<path d="M121.475 94.4579L123.303 93.4085C123.441 93.3302 123.552 93.3928 123.552 93.5494V93.8705C123.552 94.0271 123.441 94.219 123.303 94.2973L121.475 95.3467C121.337 95.425 121.227 95.3624 121.227 95.2058V94.8847C121.227 94.7241 121.341 94.5362 121.475 94.4579Z" fill="#455A64"/>
<path d="M126.905 91.345L128.733 90.2956C128.871 90.2172 128.981 90.2799 128.981 90.4365V90.7576C128.981 90.9142 128.871 91.1061 128.733 91.1844L126.905 92.2338C126.767 92.3121 126.656 92.2495 126.656 92.0929V91.7718C126.656 91.6112 126.767 91.4233 126.905 91.345Z" fill="#455A64"/>
<path d="M132.332 88.228L134.161 87.1786C134.299 87.1003 134.409 87.1629 134.409 87.3196V87.6407C134.409 87.7973 134.299 87.9892 134.161 88.0675L132.332 89.1169C132.194 89.1952 132.084 89.1325 132.084 88.9759V88.6548C132.084 88.4982 132.194 88.3063 132.332 88.228Z" fill="#455A64"/>
<path d="M137.758 85.1151L139.587 84.0657C139.724 83.9874 139.835 84.05 139.835 84.2067V84.5277C139.835 84.6844 139.724 84.8762 139.587 84.9546L137.758 86.0039C137.62 86.0823 137.51 86.0196 137.51 85.863V85.5419C137.51 85.3814 137.62 85.1934 137.758 85.1151Z" fill="#455A64"/>
<path d="M143.184 82.0021L145.012 80.9527C145.15 80.8743 145.261 80.937 145.261 81.0936V81.4147C145.261 81.5713 145.15 81.7632 145.012 81.8415L143.184 82.8909C143.046 82.9692 142.936 82.9066 142.936 82.75V82.4289C142.936 82.2722 143.046 82.0804 143.184 82.0021Z" fill="#455A64"/>
<path d="M148.61 78.8892L150.438 77.8397C150.576 77.7614 150.686 77.8241 150.686 77.9807V78.3018C150.686 78.4584 150.576 78.6503 150.438 78.7286L148.61 79.778C148.472 79.8563 148.361 79.7937 148.361 79.637V79.316C148.361 79.1593 148.476 78.9675 148.61 78.8892Z" fill="#455A64"/>
<path d="M154.041 75.7762L155.87 74.7268C156.008 74.6485 156.118 74.7112 156.118 74.8678V75.1889C156.118 75.3455 156.008 75.5374 155.87 75.6157L154.041 76.6651C153.903 76.7434 153.793 76.6807 153.793 76.5241V76.203C153.793 76.0464 153.903 75.8545 154.041 75.7762Z" fill="#455A64"/>
<path d="M159.467 72.6593L161.296 71.6099C161.433 71.5316 161.544 71.5942 161.544 71.7509V72.0719C161.544 72.2286 161.433 72.4204 161.296 72.4987L159.467 73.5481C159.329 73.6265 159.219 73.5638 159.219 73.4072V73.0861C159.219 72.9295 159.329 72.7415 159.467 72.6593Z" fill="#455A64"/>
<path d="M122.389 90.3739V89.8062" stroke="#FAFAFA" stroke-width="0.7263" stroke-linecap="round" stroke-linejoin="round"/>
<path d="M122.389 88.6197V77.3386" stroke="#FAFAFA" stroke-width="0.7263" stroke-linecap="round" stroke-linejoin="round" stroke-dasharray="3.03 3.03"/>
<path d="M122.389 76.7434V76.1757" stroke="#FAFAFA" stroke-width="0.7263" stroke-linecap="round" stroke-linejoin="round"/>
<path d="M127.814 87.2765V86.7087" stroke="#FAFAFA" stroke-width="0.7263" stroke-linecap="round" stroke-linejoin="round"/>
<path d="M127.814 85.5967V63.9313" stroke="#FAFAFA" stroke-width="0.7263" stroke-linecap="round" stroke-linejoin="round" stroke-dasharray="2.84 2.84"/>
<path d="M127.814 63.3753V62.8075" stroke="#FAFAFA" stroke-width="0.7263" stroke-linecap="round" stroke-linejoin="round"/>
<path d="M133.246 84.1793V83.6116" stroke="#FAFAFA" stroke-width="0.7263" stroke-linecap="round" stroke-linejoin="round"/>
<path d="M133.246 82.5465V74.5781" stroke="#FAFAFA" stroke-width="0.7263" stroke-linecap="round" stroke-linejoin="round" stroke-dasharray="2.71 2.71"/>
<path d="M133.246 74.0456V73.4778" stroke="#FAFAFA" stroke-width="0.7263" stroke-linecap="round" stroke-linejoin="round"/>
<path d="M138.672 81.0819V80.5142" stroke="#FAFAFA" stroke-width="0.7263" stroke-linecap="round" stroke-linejoin="round"/>
<path d="M138.672 79.3513V75.2947" stroke="#FAFAFA" stroke-width="0.7263" stroke-linecap="round" stroke-linejoin="round" stroke-dasharray="2.96 2.96"/>
<path d="M138.672 74.7151V74.1473" stroke="#FAFAFA" stroke-width="0.7263" stroke-linecap="round" stroke-linejoin="round"/>
<path d="M144.098 77.9848V77.4131" stroke="#FAFAFA" stroke-width="0.7263" stroke-linecap="round" stroke-linejoin="round"/>
<path d="M144.098 76.301V59.0446" stroke="#FAFAFA" stroke-width="0.7263" stroke-linecap="round" stroke-linejoin="round" stroke-dasharray="2.84 2.84"/>
<path d="M144.098 58.4885V57.9208" stroke="#FAFAFA" stroke-width="0.7263" stroke-linecap="round" stroke-linejoin="round"/>
<path d="M149.523 74.8874V74.3157" stroke="#FAFAFA" stroke-width="0.7263" stroke-linecap="round" stroke-linejoin="round"/>
<path d="M149.523 73.1292V61.8481" stroke="#FAFAFA" stroke-width="0.7263" stroke-linecap="round" stroke-linejoin="round" stroke-dasharray="3.03 3.03"/>
<path d="M149.523 61.2569V60.6852" stroke="#FAFAFA" stroke-width="0.7263" stroke-linecap="round" stroke-linejoin="round"/>
<path d="M154.951 71.7862V71.2184" stroke="#FAFAFA" stroke-width="0.7263" stroke-linecap="round" stroke-linejoin="round"/>
<path d="M154.951 70.0045V65.756" stroke="#FAFAFA" stroke-width="0.7263" stroke-linecap="round" stroke-linejoin="round" stroke-dasharray="3.1 3.1"/>
<path d="M154.951 65.1491V64.5813" stroke="#FAFAFA" stroke-width="0.7263" stroke-linecap="round" stroke-linejoin="round"/>
<path d="M160.381 68.6889V68.1211" stroke="#FAFAFA" stroke-width="0.7263" stroke-linecap="round" stroke-linejoin="round"/>
<path d="M160.381 66.9346V55.6536" stroke="#FAFAFA" stroke-width="0.7263" stroke-linecap="round" stroke-linejoin="round" stroke-dasharray="3.03 3.03"/>
<path d="M160.381 55.0584V54.4906" stroke="#FAFAFA" stroke-width="0.7263" stroke-linecap="round" stroke-linejoin="round"/>
<path opacity="0.6" d="M123.658 75.4356C124.359 75.0244 124.927 73.419 124.927 71.8488V66.8641C124.927 65.3018 126.042 63.3792 127.405 62.5999L128.051 62.228C129.415 61.4448 130.53 62.087 130.53 63.6494V72.1895C130.53 73.7518 131.645 74.394 133.009 73.6108L134.203 72.9256C134.896 72.5262 135.763 73.0235 135.763 73.8223C135.763 74.6133 136.619 75.1106 137.312 74.7268L138.546 74.0416C139.901 73.2349 141.001 71.3084 141.001 69.7382V61.0924C141.001 59.5301 142.124 57.6231 143.499 56.8635L144.11 56.5228C145.485 55.7593 146.608 56.4171 146.608 57.9794V59.4048C146.608 60.9671 147.723 61.6093 149.087 60.8261L149.745 60.4502C151.108 59.6671 152.224 60.3093 152.224 61.8716V63.2969C152.224 64.8593 153.339 65.5015 154.702 64.7183L155.006 64.5421C156.369 63.759 157.484 61.8403 157.484 60.278V58.8526C157.484 57.2825 158.131 55.6379 158.927 55.1797L160.369 54.3496V68.5792L122.381 90.3739V76.1756C122.389 76.1756 122.956 75.8428 123.658 75.4356Z" fill="#FAFAFA"/>
<path d="M122.389 76.1756C122.389 76.1756 122.956 75.8428 123.658 75.4356C124.359 75.0244 124.926 73.419 124.926 71.8488V66.8641C124.926 65.3018 126.042 63.3792 127.405 62.5999L128.051 62.228C129.415 61.4448 130.53 62.087 130.53 63.6494V72.1895C130.53 73.7518 131.645 74.394 133.009 73.6109L134.203 72.9256C134.896 72.5262 135.763 73.0235 135.763 73.8223C135.763 74.6133 136.618 75.1106 137.312 74.7268L138.545 74.0416C139.901 73.2349 141 71.3084 141 69.7382V61.0924C141 59.5301 142.124 57.6231 143.499 56.8635L144.11 56.5228C145.485 55.7593 146.608 56.4171 146.608 57.9794V59.4048C146.608 60.9671 147.723 61.6093 149.087 60.8261L149.745 60.4502C151.108 59.6671 152.224 60.3093 152.224 61.8716V63.2969C152.224 64.8593 153.339 65.5015 154.702 64.7183L155.006 64.5421C156.369 63.759 157.484 61.8403 157.484 60.278V58.8526C157.484 57.2825 158.131 55.6379 158.927 55.1797L160.369 54.3496" stroke="#FAFAFA" stroke-width="0.9683" stroke-miterlimit="10" stroke-linecap="round" stroke-linejoin="round"/>
<path d="M127.815 61.2529C128.245 61.0062 128.592 61.206 128.592 61.6993C128.592 62.1888 128.245 62.7879 127.815 63.0346C127.386 63.2812 127.039 63.0816 127.039 62.5882C127.043 62.0948 127.39 61.4957 127.815 61.2529Z" fill="#FAFAFA"/>
<path d="M149.524 59.4987C149.954 59.252 150.301 59.4517 150.301 59.945C150.301 60.4345 149.954 61.0336 149.524 61.2803C149.095 61.527 148.748 61.3273 148.748 60.8339C148.748 60.3405 149.099 59.7454 149.524 59.4987Z" fill="#37474F"/>
<path d="M133.403 72.303C133.833 72.0563 134.18 72.256 134.18 72.7494C134.18 73.2388 133.833 73.8379 133.403 74.0846C132.974 74.3313 132.627 74.1316 132.627 73.6382C132.627 73.1449 132.974 72.5497 133.403 72.303Z" fill="#37474F"/>
<path d="M62.1795 118.163L61.8121 117.954C61.2291 117.618 60.7539 116.805 60.7539 116.133V79.7167C60.7539 79.0449 61.2291 78.232 61.8121 77.8961L97.8486 57.1737C98.4316 56.8378 99.3771 56.8378 99.96 57.1737L100.323 57.383C100.906 57.7189 101.381 58.5318 101.381 59.2036V95.62C101.381 96.2917 100.906 97.1047 100.323 97.4406L64.2958 118.163C63.708 118.499 62.7625 118.499 62.1795 118.163Z" fill="#538DF7"/>
<path opacity="0.4" d="M101.375 59.043C101.301 58.4978 100.86 58.2982 100.326 58.6048L64.2899 79.3322C63.996 79.4977 63.7363 79.7897 63.5404 80.111L61.0664 78.6945C61.2526 78.3635 61.522 78.0763 61.8159 77.9059L97.8476 57.1834C98.4354 56.8475 99.3809 56.8475 99.9639 57.1834L100.331 57.3928C100.86 57.6994 101.311 58.4101 101.375 59.043Z" fill="white"/>
<path opacity="0.1" d="M64.1136 118.246C63.5306 118.494 62.7076 118.465 62.1834 118.163L61.8111 117.954C61.2281 117.618 60.7578 116.805 60.7578 116.133V79.7216C60.7578 79.3857 60.8754 79.0109 61.0664 78.6896L63.5404 80.1061C63.3542 80.4371 63.2318 80.812 63.2318 81.1381V117.555C63.2318 118.158 63.6139 118.44 64.1136 118.246Z" fill="black"/>
<path d="M76.6015 83.4019C73.0938 87.6028 70.6934 93.4637 70.6934 98.6236C70.6934 100.965 71.193 102.893 72.0553 104.304L81.4808 92.4269L76.6015 83.4019Z" fill="#E35492"/>
<path d="M86.3504 77.7793C84.8857 77.7112 83.2298 78.1493 81.4809 79.1569C79.7222 80.1646 78.0663 81.6347 76.6016 83.3968L81.4809 92.417L86.3504 77.7793Z" fill="#538DF7"/>
<path d="M86.3504 77.7793C84.8857 77.7112 83.2298 78.1493 81.4809 79.1569C79.7222 80.1646 78.0663 81.6347 76.6016 83.3968L81.4809 92.417L86.3504 77.7793Z" fill="#F5F5F6"/>
<path d="M91.2685 81.2063C90.2447 79.0888 88.5055 77.8815 86.35 77.7793L81.4805 92.4218L91.2685 81.2063Z" fill="#538DF7"/>
<path d="M91.2683 81.2064L81.4802 92.422L72.0547 104.3C73.9065 107.288 77.4288 108.014 81.4802 105.687C87.4422 102.27 92.2775 93.5562 92.2775 86.2252C92.2726 84.2245 91.91 82.5353 91.2683 81.2064Z" fill="#538DF7"/>
<path d="M91.2685 81.2064C90.2447 79.0889 88.5055 77.8816 86.35 77.7794L81.4805 92.4219L91.2685 81.2064Z" fill="#F5F5F6"/>
<path d="M91.2683 81.2063L81.4802 92.4218L72.0547 104.299C73.9065 107.288 77.4288 108.014 81.4802 105.687C87.4422 102.27 92.2775 93.556 92.2775 86.2251C92.2726 84.2244 91.91 82.5352 91.2683 81.2063Z" fill="#538DF7"/>
<path opacity="0.25" d="M91.2683 81.2063L81.4802 92.4218L72.0547 104.299C73.9065 107.288 77.4288 108.014 81.4802 105.687C87.4422 102.27 92.2775 93.556 92.2775 86.2251C92.2726 84.2244 91.91 82.5352 91.2683 81.2063Z" fill="black"/>
<path d="M81.4823 84.1134C82.5775 83.4823 83.6145 83.208 84.5318 83.2506C85.8817 83.3147 86.9709 84.0707 87.6121 85.3968C88.014 86.229 88.241 87.2869 88.2441 88.5398C88.2441 93.1308 85.216 98.5876 81.4823 100.728C78.9459 102.184 76.7406 101.731 75.5806 99.8606C75.0406 98.9765 74.7266 97.7707 74.7266 96.3044C74.7266 93.073 76.2299 89.4026 78.4265 86.7718C79.3438 85.6682 80.3809 84.7444 81.4823 84.1134Z" fill="#538DF7"/>
<path d="M74.8822 77.0199L88.0799 69.4504C88.3003 69.3238 88.4816 69.4261 88.4816 69.6792V70.1952C88.4816 70.4483 88.3003 70.7599 88.0799 70.8864L74.8822 78.4559C74.6617 78.5825 74.4805 78.4803 74.4805 78.2271V77.7111C74.4805 77.458 74.6617 77.1465 74.8822 77.0199Z" fill="#455A64"/>
<defs>
<clipPath id="clip0">
<rect width="119" height="69" fill="white" transform="translate(37 84)"/>
</clipPath>
</defs>
</svg>
