<svg width="110" height="24" viewBox="0 0 110 24" fill="none" xmlns="http://www.w3.org/2000/svg">
    <path d="M62.9878 2.39717L56.093 23.7546H50.8541L46.2174 9.29257L41.4301 23.7546H36.2213L29.2964 2.39717H34.3546L39.1118 17.4084L44.0797 2.39717H48.5959L53.4133 17.5304L58.321 2.39717H62.9878Z" fill="#2146D9"/>
    <path d="M70.3764 23.9987C68.6702 23.9987 67.1347 23.6427 65.7698 22.9308C64.4249 22.1986 63.3711 21.1917 62.6084 19.9103C61.8456 18.6288 61.4643 17.1745 61.4643 15.5472C61.4643 13.92 61.8456 12.4657 62.6084 11.1842C63.3711 9.90278 64.4249 8.9061 65.7698 8.19419C67.1347 7.46193 68.6702 7.0958 70.3764 7.0958C72.0825 7.0958 73.608 7.46193 74.9529 8.19419C76.2977 8.9061 77.3515 9.90278 78.1143 11.1842C78.877 12.4657 79.2584 13.92 79.2584 15.5472C79.2584 17.1745 78.877 18.6288 78.1143 19.9103C77.3515 21.1917 76.2977 22.1986 74.9529 22.9308C73.608 23.6427 72.0825 23.9987 70.3764 23.9987ZM70.3764 20.0933C71.5807 20.0933 72.5643 19.6865 73.327 18.8729C74.1098 18.0389 74.5013 16.9304 74.5013 15.5472C74.5013 14.1641 74.1098 13.0657 73.327 12.2521C72.5643 11.4181 71.5807 11.0012 70.3764 11.0012C69.172 11.0012 68.1785 11.4181 67.3956 12.2521C66.6128 13.0657 66.2214 14.1641 66.2214 15.5472C66.2214 16.9304 66.6128 18.0389 67.3956 18.8729C68.1785 19.6865 69.172 20.0933 70.3764 20.0933Z" fill="#2146D9"/>
    <path d="M85.3787 9.50614C85.9407 8.71287 86.6934 8.11282 87.6368 7.70602C88.6003 7.29921 89.7043 7.0958 90.9487 7.0958V11.4893C90.4269 11.4487 90.0756 11.4283 89.8949 11.4283C88.5501 11.4283 87.4963 11.8148 86.7335 12.5877C85.9708 13.3403 85.5894 14.4794 85.5894 16.0049V23.7546H80.8925V7.33989H85.3787V9.50614Z" fill="#2146D9"/>
    <path d="M99.1912 17.3169L96.933 19.5746V23.7546H92.2361V1.11572H96.933V13.9302L103.798 7.33989H109.398L102.654 14.2963L110 23.7546H104.31L99.1912 17.3169Z" fill="#2146D9"/>
    <path d="M17.6711 2.23242H8.09284V13.1158V17.6662H12.9723V13.1158V6.3681H17.4301C19.5385 6.3681 21.2152 6.97964 22.4602 8.20272C23.7253 9.40508 24.3578 11.0428 24.3578 13.1158C24.3578 15.1888 23.7253 16.8369 22.4602 18.0599C21.2152 19.2623 19.5385 19.8635 17.4301 19.8635H12.9723H8.09284H0.553711V23.9991H17.6711C19.9602 23.9991 21.9783 23.5534 23.7253 22.662C25.4923 21.7499 26.8578 20.475 27.8216 18.8373C28.8055 17.1996 29.2975 15.2925 29.2975 13.1158C29.2975 10.9391 28.8055 9.03193 27.8216 7.39424C26.8578 5.75656 25.4923 4.49202 23.7253 3.60062C21.9783 2.68849 19.9602 2.23242 17.6711 2.23242Z" fill="#2146D9"/>
    <path opacity="0.2" fill-rule="evenodd" clip-rule="evenodd" d="M4.97488 23.9999L9.07087 19.8643H8.09187H0.552734V23.9999H4.97488Z" fill="#201F3B"/>
    <path d="M0.541368 7.59314H4.98629V23.9992H0.541368V7.59314ZM2.76383 5.30605C1.94703 5.30605 1.28219 5.05193 0.769313 4.54369C0.256438 4.03545 0 3.40522 0 2.65303C0 1.90083 0.256438 1.27061 0.769313 0.762365C1.28219 0.254122 1.94703 0 2.76383 0C3.58063 0 4.24547 0.243957 4.75834 0.731871C5.27122 1.21978 5.52765 1.82967 5.52765 2.56154C5.52765 3.3544 5.27122 4.01512 4.75834 4.54369C4.24547 5.05193 3.58063 5.30605 2.76383 5.30605Z" fill="#2146D9"/>
</svg>
