<svg width="186" height="180" viewBox="0 0 186 180" fill="none" xmlns="http://www.w3.org/2000/svg">
<path opacity="0.1" d="M93 180C144.362 180 186 155.383 186 125.017C186 94.6509 144.362 70.0342 93 70.0342C41.6375 70.0342 0 94.6509 0 125.017C0 155.383 41.6375 180 93 180Z" fill="#538DF7"/>
<path opacity="0.1" d="M117.033 152.791C123.382 152.791 128.528 149.745 128.528 145.988C128.528 142.232 123.382 139.186 117.033 139.186C110.685 139.186 105.539 142.232 105.539 145.988C105.539 149.745 110.685 152.791 117.033 152.791Z" fill="#538DF7"/>
<path opacity="0.1" d="M80.045 162.284C79.5421 162.284 79.1093 162.178 78.7506 161.971L72.2395 158.184L66.1338 161.731C65.7751 161.939 65.3423 162.045 64.8433 162.045C64.3442 162.045 63.9115 161.939 63.5528 161.731L59.4472 159.346C58.917 159.036 58.8039 158.643 58.8039 158.369C58.8039 158.094 58.917 157.698 59.4472 157.392L65.163 154.072L59.0418 150.517C58.5154 150.211 58.4023 149.819 58.3984 149.54C58.3984 149.262 58.5115 148.869 59.0418 148.559L64.161 145.585C64.5158 145.377 64.9525 145.271 65.4515 145.271C65.9545 145.271 66.3911 145.377 66.7459 145.585L73.2571 149.368L79.3198 145.844C79.6785 145.636 80.1113 145.53 80.6143 145.53C81.1172 145.53 81.55 145.636 81.9048 145.84L86.0103 148.226C86.5406 148.536 86.6536 148.928 86.6536 149.203C86.6536 149.477 86.5406 149.87 86.0103 150.18L80.3374 153.476L86.4587 157.035C86.9889 157.344 87.102 157.737 87.102 158.012C87.102 158.286 86.9889 158.682 86.4587 158.989L81.3395 161.963C80.9808 162.178 80.548 162.284 80.045 162.284Z" fill="#538DF7"/>
<path d="M95.473 143.906C94.9739 143.906 94.5411 143.8 94.1824 143.592L90.0769 141.206C89.5467 140.896 89.4336 140.504 89.4336 140.229C89.4336 139.955 89.5467 139.558 90.0769 139.252L109.949 127.705C110.304 127.497 110.741 127.391 111.244 127.391C111.747 127.391 112.18 127.497 112.534 127.701L116.64 130.086C117.17 130.396 117.283 130.789 117.283 131.063C117.283 131.338 117.17 131.73 116.64 132.04L96.7635 143.588C96.4087 143.8 95.972 143.906 95.473 143.906Z" fill="#E0E0E0"/>
<path opacity="0.1" d="M35.4687 150.164L8.75356 134.642C7.82173 134.1 7.82173 133.222 8.75356 132.68L62.41 101.506C63.3418 100.965 64.8546 100.965 65.7864 101.506L92.4859 117.036C93.4178 117.578 93.4178 118.457 92.4859 118.998L38.8451 150.164C37.9133 150.706 36.4005 150.706 35.4687 150.164Z" fill="#538DF7"/>
<path d="M93.6361 6.63497C93.6361 5.55595 93.2618 4.79867 92.6575 4.44161C92.0454 4.08063 86.9144 1.07115 86.2906 0.721942C85.6824 0.380579 84.848 0.439435 83.9279 0.973059L32.6147 30.7854C30.751 31.8683 29.2383 34.505 29.2383 36.6709V143.074C29.2383 144.157 29.6165 144.918 30.2286 145.275C30.8407 145.628 35.9405 148.599 36.5409 148.96C37.153 149.328 38.0069 149.285 38.9504 148.736L90.2597 118.924C92.1233 117.841 93.6361 115.204 93.6361 113.038V6.63497Z" fill="#37474F"/>
<path d="M35.5742 146.774V40.371C35.5742 38.2051 37.087 35.5684 38.9507 34.4854L90.2599 4.67312C92.1236 3.59018 93.6364 4.46909 93.6364 6.63497V113.038C93.6364 115.204 92.1236 117.841 90.2599 118.924L38.9507 148.736C37.0831 149.819 35.5742 148.94 35.5742 146.774Z" fill="#37474F"/>
<path d="M49.0636 127.332C48.9427 127.261 48.7984 127.265 48.6425 127.355L41.1059 131.738C40.6732 131.989 40.3223 132.817 40.3223 133.59V141.018C40.3223 141.508 40.4626 141.857 40.6771 141.983C40.8018 142.054 42.0456 142.776 42.26 142.901C42.3809 142.972 42.529 142.972 42.685 142.882L50.2215 138.499C50.6543 138.248 51.0052 137.42 51.0052 136.647V129.219C51.0052 128.721 50.8609 128.368 50.6387 128.246C50.5217 128.179 49.2819 127.454 49.0636 127.332Z" fill="#538DF7"/>
<path opacity="0.25" d="M42.2834 142.913C42.2756 142.913 42.2717 142.909 42.2639 142.905C42.0495 142.779 40.8018 142.058 40.6771 141.987C40.4665 141.861 40.3223 141.512 40.3223 141.022V133.594C40.3223 133.186 40.4197 132.766 40.5757 132.421L42.1586 133.339C42.0027 133.684 41.9052 134.104 41.9052 134.512L41.9091 141.936C41.9091 142.442 42.0573 142.795 42.2834 142.913Z" fill="black"/>
<path opacity="0.5" d="M50.6353 128.242C50.5144 128.18 50.3741 128.187 50.2259 128.274L42.6894 132.657C42.4827 132.774 42.2956 133.025 42.1591 133.339L40.5762 132.421C40.7165 132.111 40.8998 131.86 41.1064 131.742L48.643 127.36C48.7989 127.269 48.9432 127.265 49.064 127.332C49.2785 127.454 50.4793 128.156 50.6353 128.242Z" fill="white"/>
<path d="M50.2284 138.499L42.6919 142.881C42.2591 143.133 41.9082 142.709 41.9082 141.936V134.508C41.9082 133.735 42.2591 132.907 42.6919 132.656L50.2284 128.274C50.6612 128.022 51.0121 128.446 51.0121 129.219V136.647C51.0082 137.416 50.6573 138.248 50.2284 138.499Z" fill="#538DF7"/>
<path d="M75.9854 111.692C75.8646 111.621 75.7203 111.625 75.5643 111.716L68.0278 116.098C67.595 116.35 67.2441 117.177 67.2441 117.95V125.378C67.2441 125.868 67.3845 126.218 67.5989 126.343C67.7198 126.414 68.9674 127.136 69.1819 127.261C69.3027 127.332 69.4509 127.332 69.6069 127.242L77.1434 122.859C77.5762 122.608 77.9271 121.78 77.9271 121.007V113.579C77.9271 113.081 77.7828 112.728 77.5606 112.606C77.4436 112.54 76.2038 111.814 75.9854 111.692Z" fill="#538DF7"/>
<path opacity="0.25" d="M69.2053 127.269C69.1975 127.269 69.1936 127.265 69.1858 127.261C68.9713 127.136 67.7237 126.414 67.5989 126.343C67.3884 126.218 67.2441 125.868 67.2441 125.378V117.95C67.2441 117.542 67.3416 117.122 67.4976 116.777L69.0805 117.695C68.9245 118.041 68.8271 118.46 68.8271 118.868L68.831 126.292C68.831 126.798 68.9791 127.151 69.2053 127.269Z" fill="black"/>
<path opacity="0.5" d="M77.5572 112.598C77.4363 112.536 77.2959 112.543 77.1478 112.63L69.6112 117.013C69.4046 117.13 69.2175 117.381 69.081 117.695L67.498 116.777C67.6384 116.467 67.8217 116.216 68.0283 116.098L75.5648 111.716C75.7208 111.625 75.865 111.621 75.9859 111.688C76.2003 111.81 77.4012 112.512 77.5572 112.598Z" fill="white"/>
<path d="M77.1464 122.855L69.6098 127.238C69.1771 127.489 68.8262 127.065 68.8262 126.292V118.864C68.8262 118.092 69.1771 117.264 69.6098 117.012L77.1464 112.63C77.5792 112.379 77.9301 112.802 77.9301 113.575V121.003C77.9301 121.776 77.5792 122.604 77.1464 122.855Z" fill="#538DF7"/>
<path d="M89.4444 103.868C89.3235 103.797 89.1793 103.801 89.0233 103.892L81.4868 108.278C81.054 108.529 80.7031 109.357 80.7031 110.13V117.558C80.7031 118.048 80.8435 118.398 81.0579 118.523C81.1827 118.594 82.4264 119.316 82.6409 119.441C82.7617 119.512 82.9099 119.512 83.0697 119.422L90.6063 115.039C91.039 114.788 91.3899 113.96 91.3899 113.187V105.759C91.3899 105.261 91.2457 104.908 91.0234 104.786C90.9026 104.72 89.6627 103.994 89.4444 103.868Z" fill="#538DF7"/>
<path opacity="0.25" d="M82.6643 119.449C82.6565 119.449 82.6526 119.445 82.6448 119.441C82.4303 119.316 81.1827 118.594 81.0579 118.523C80.8474 118.397 80.7031 118.048 80.7031 117.558V110.13C80.7031 109.722 80.8006 109.302 80.9565 108.957L82.5395 109.875C82.3835 110.22 82.2861 110.64 82.2861 111.048L82.29 118.472C82.29 118.978 82.4381 119.331 82.6643 119.449Z" fill="black"/>
<path opacity="0.5" d="M91.0161 104.778C90.8953 104.716 90.7549 104.723 90.6068 104.81L83.0702 109.192C82.8636 109.31 82.6764 109.561 82.54 109.875L80.957 108.957C81.0974 108.647 81.2806 108.396 81.4873 108.278L89.0238 103.895C89.1798 103.805 89.324 103.801 89.4449 103.868C89.6593 103.99 90.8602 104.692 91.0161 104.778Z" fill="white"/>
<path d="M90.6093 115.035L83.0727 119.418C82.64 119.669 82.2891 119.245 82.2891 118.472V111.045C82.2891 110.272 82.64 109.444 83.0688 109.193L90.6054 104.81C91.0381 104.559 91.389 104.983 91.389 105.755V113.183C91.389 113.956 91.0381 114.784 90.6093 115.035Z" fill="#538DF7"/>
<path d="M89.4444 88.2087C89.3235 88.138 89.1793 88.142 89.0233 88.2322L81.4868 92.615C81.054 92.8661 80.7031 93.694 80.7031 94.467V101.895C80.7031 102.385 80.8435 102.734 81.0579 102.86C81.1827 102.93 82.4264 103.652 82.6409 103.778C82.7617 103.849 82.9099 103.849 83.0658 103.758L90.6024 99.3755C91.0352 99.1244 91.386 98.2965 91.386 97.5236V90.096C91.386 89.5977 91.2418 89.2445 91.0196 89.1229C90.9026 89.0562 89.6627 88.3342 89.4444 88.2087Z" fill="#538DF7"/>
<path opacity="0.25" d="M82.6643 103.79C82.6565 103.79 82.6526 103.786 82.6448 103.782C82.4303 103.656 81.1827 102.934 81.0579 102.864C80.8474 102.738 80.7031 102.389 80.7031 101.898V94.4708C80.7031 94.0627 80.8006 93.6429 80.9565 93.2976L82.5395 94.2158C82.3835 94.561 82.2861 94.9809 82.2861 95.3889L82.29 102.813C82.29 103.319 82.4381 103.672 82.6643 103.79Z" fill="black"/>
<path opacity="0.5" d="M91.0161 89.1189C90.8953 89.0561 90.7549 89.0639 90.6068 89.1502L83.0702 93.533C82.8636 93.6507 82.6764 93.9018 82.54 94.2157L80.957 93.2976C81.0974 92.9876 81.2806 92.7365 81.4873 92.6188L89.0238 88.236C89.1798 88.1458 89.324 88.1419 89.4449 88.2086C89.6593 88.3302 90.8602 89.0325 91.0161 89.1189Z" fill="white"/>
<path d="M90.6093 99.3756L83.0727 103.758C82.64 104.01 82.2891 103.586 82.2891 102.813V95.3852C82.2891 94.6123 82.64 93.7844 83.0688 93.5332L90.6054 89.1505C91.0381 88.8993 91.389 89.3231 91.389 90.0961V97.5236C91.389 98.2966 91.0381 99.1245 90.6093 99.3756Z" fill="#538DF7"/>
<path d="M89.4444 72.5492C89.3235 72.4786 89.1793 72.4825 89.0233 72.5728L81.4868 76.9556C81.054 77.2067 80.7031 78.0346 80.7031 78.8076V86.2351C80.7031 86.7256 80.8435 87.0748 81.0579 87.2004C81.1827 87.271 82.4264 87.9929 82.6409 88.1185C82.7617 88.1891 82.9099 88.1891 83.0658 88.0989L90.6024 83.7161C91.0352 83.465 91.386 82.6371 91.386 81.8641V74.4365C91.386 73.9382 91.2418 73.5851 91.0196 73.4635C90.9026 73.3968 89.6627 72.6748 89.4444 72.5492Z" fill="#538DF7"/>
<path opacity="0.25" d="M82.6643 88.1302C82.6565 88.1302 82.6526 88.1263 82.6448 88.1223C82.4303 87.9968 81.1827 87.2748 81.0579 87.2042C80.8474 87.0786 80.7031 86.7294 80.7031 86.239V78.8114C80.7031 78.4033 80.8006 77.9835 80.9565 77.6382L82.5395 78.5563C82.3835 78.9016 82.2861 79.3215 82.2861 79.7295L82.29 87.1532C82.29 87.6593 82.4381 88.0125 82.6643 88.1302Z" fill="black"/>
<path opacity="0.5" d="M91.0161 73.4594C90.8953 73.3967 90.7549 73.4045 90.6068 73.4908L83.0702 77.8736C82.8636 77.9913 82.6764 78.2424 82.54 78.5563L80.957 77.6382C81.0974 77.3282 81.2806 77.0771 81.4873 76.9594L89.0238 72.5766C89.1798 72.4864 89.324 72.4824 89.4449 72.5491C89.6593 72.6708 90.8602 73.3731 91.0161 73.4594Z" fill="white"/>
<path d="M90.6093 83.716L83.0727 88.0987C82.64 88.3499 82.2891 87.9261 82.2891 87.1531V79.7256C82.2891 78.9526 82.64 78.1247 83.0688 77.8736L90.6054 73.4908C91.0381 73.2397 91.389 73.6634 91.389 74.4364V81.864C91.389 82.6369 91.0381 83.4648 90.6093 83.716Z" fill="#538DF7"/>
<path d="M89.4444 56.8896C89.3235 56.8189 89.1793 56.8229 89.0233 56.9131L81.4868 61.2959C81.054 61.547 80.7031 62.3749 80.7031 63.1479V70.5755C80.7031 71.0659 80.8435 71.4151 81.0579 71.5407C81.1827 71.6113 82.4264 72.3333 82.6409 72.4588C82.7617 72.5295 82.9099 72.5295 83.0697 72.4392L90.6063 68.0564C91.039 67.8053 91.3899 66.9774 91.3899 66.2044V58.7769C91.3899 58.2786 91.2457 57.9254 91.0234 57.8038C90.9026 57.7371 89.6627 57.0112 89.4444 56.8896Z" fill="#538DF7"/>
<path opacity="0.25" d="M82.6643 72.4705C82.6565 72.4705 82.6526 72.4666 82.6448 72.4627C82.4303 72.3371 81.1827 71.6151 81.0579 71.5445C80.8474 71.419 80.7031 71.0697 80.7031 70.5793V63.1517C80.7031 62.7436 80.8006 62.3238 80.9565 61.9785L82.5395 62.8967C82.3835 63.2419 82.2861 63.6618 82.2861 64.0698L82.29 71.4935C82.29 71.9997 82.4381 72.3528 82.6643 72.4705Z" fill="black"/>
<path opacity="0.5" d="M91.0161 57.7998C90.8953 57.737 90.7549 57.7448 90.6068 57.8312L83.0702 62.2139C82.8636 62.3317 82.6764 62.5828 82.54 62.8967L80.957 61.9785C81.0974 61.6685 81.2806 61.4174 81.4873 61.2997L89.0238 56.9169C89.1798 56.8267 89.324 56.8228 89.4449 56.8895C89.6593 57.0111 90.8602 57.7134 91.0161 57.7998Z" fill="white"/>
<path d="M90.6093 68.0563L83.0727 72.4391C82.64 72.6902 82.2891 72.2664 82.2891 71.4935V64.0659C82.2891 63.2929 82.64 62.465 83.0727 62.2139L90.6093 57.8311C91.042 57.58 91.3929 58.0038 91.3929 58.7767V66.2043C91.389 66.9734 91.0381 67.8052 90.6093 68.0563Z" fill="#538DF7"/>
<path d="M89.4444 41.2301C89.3235 41.1595 89.1793 41.1634 89.0233 41.2537L81.4868 45.6365C81.054 45.8876 80.7031 46.7155 80.7031 47.4885V54.916C80.7031 55.4065 80.8435 55.7557 81.0579 55.8813C81.1827 55.9519 82.4264 56.6738 82.6409 56.7994C82.7617 56.87 82.9099 56.87 83.0658 56.7798L90.6024 52.397C91.0352 52.1459 91.386 51.318 91.386 50.545V43.1175C91.386 42.6191 91.2418 42.266 91.0196 42.1444C90.9026 42.0777 89.6627 41.3518 89.4444 41.2301Z" fill="#538DF7"/>
<path opacity="0.25" d="M82.6643 56.8111C82.6565 56.8111 82.6526 56.8072 82.6448 56.8032C82.4303 56.6777 81.1827 55.9557 81.0579 55.8851C80.8474 55.7595 80.7031 55.4103 80.7031 54.9199V47.4923C80.7031 47.0842 80.8006 46.6644 80.9565 46.3191L82.5395 47.2372C82.3835 47.5825 82.2861 48.0024 82.2861 48.4104L82.29 55.8341C82.29 56.3402 82.4381 56.6934 82.6643 56.8111Z" fill="black"/>
<path opacity="0.5" d="M91.0161 42.1406C90.8953 42.0778 90.7549 42.0857 90.6068 42.172L83.0702 46.5548C82.8636 46.6725 82.6764 46.9236 82.54 47.2375L80.957 46.3193C81.0974 46.0094 81.2806 45.7582 81.4873 45.6405L89.0238 41.2577C89.1798 41.1675 89.324 41.1636 89.4449 41.2303C89.6593 41.3519 90.8602 42.0543 91.0161 42.1406Z" fill="white"/>
<path d="M90.6093 52.3969L83.0727 56.7797C82.64 57.0308 82.2891 56.607 82.2891 55.834V48.4065C82.2891 47.6335 82.64 46.8056 83.0688 46.5545L90.6054 42.1717C91.0381 41.9206 91.389 42.3443 91.389 43.1173V50.5449C91.389 51.3139 91.0381 52.1458 90.6093 52.3969Z" fill="#538DF7"/>
<path d="M75.9854 49.05C75.8646 48.9793 75.7203 48.9833 75.5643 49.0735L68.0278 53.4563C67.595 53.7074 67.2441 54.5353 67.2441 55.3083V62.7359C67.2441 63.2263 67.3845 63.5755 67.5989 63.7011C67.7198 63.7717 68.9674 64.4937 69.1819 64.6192C69.3027 64.6899 69.4509 64.6899 69.6069 64.5996L77.1434 60.2168C77.5762 59.9657 77.9271 59.1378 77.9271 58.3649V50.9373C77.9271 50.439 77.7828 50.0858 77.5606 49.9642C77.4436 49.8975 76.2038 49.1755 75.9854 49.05Z" fill="#538DF7"/>
<path opacity="0.25" d="M69.2053 64.6309C69.1975 64.6309 69.1936 64.627 69.1858 64.6231C68.9713 64.4975 67.7237 63.7755 67.5989 63.7049C67.3884 63.5794 67.2441 63.2301 67.2441 62.7397V55.3121C67.2441 54.904 67.3416 54.4842 67.4976 54.1389L69.0805 55.0571C68.9245 55.4024 68.8271 55.8222 68.8271 56.2303L68.831 63.6539C68.831 64.1601 68.9791 64.5132 69.2053 64.6309Z" fill="black"/>
<path opacity="0.5" d="M77.5572 49.9602C77.4363 49.8974 77.2959 49.9052 77.1478 49.9916L69.6112 54.3743C69.4046 54.492 69.2175 54.7432 69.081 55.0571L67.498 54.1389C67.6384 53.8289 67.8217 53.5778 68.0283 53.4601L75.5648 49.0773C75.7208 48.9871 75.865 48.9832 75.9859 49.0499C76.2003 49.1715 77.4012 49.8738 77.5572 49.9602Z" fill="white"/>
<path d="M77.1464 60.2167L69.6098 64.5995C69.1771 64.8506 68.8262 64.4268 68.8262 63.6538V56.2263C68.8262 55.4533 69.1771 54.6254 69.6098 54.3743L77.1464 49.9915C77.5792 49.7404 77.9301 50.1642 77.9301 50.9371V58.3647C77.9301 59.1377 77.5792 59.9656 77.1464 60.2167Z" fill="#538DF7"/>
<path d="M62.5264 56.87C62.4056 56.7994 62.2613 56.8033 62.1054 56.8936L54.5688 61.2764C54.1361 61.5275 53.7852 62.3554 53.7852 63.1283V70.5559C53.7852 71.0464 53.9255 71.3956 54.14 71.5211C54.2647 71.5918 55.5085 72.3137 55.7229 72.4393C55.8438 72.5099 55.9919 72.5099 56.1518 72.4197L63.6883 68.0369C64.1211 67.7858 64.472 66.9579 64.472 66.1849V58.7573C64.472 58.259 64.3277 57.9059 64.1055 57.7843C63.9846 57.7215 62.7409 56.9956 62.5264 56.87Z" fill="#538DF7"/>
<path opacity="0.25" d="M55.7424 72.451C55.7346 72.451 55.7307 72.4471 55.7229 72.4431C55.5085 72.3176 54.2608 71.5956 54.1361 71.525C53.9255 71.3994 53.7812 71.0502 53.7812 70.5598V63.1322C53.7812 62.7241 53.8787 62.3043 54.0347 61.959L55.6176 62.8771C55.4617 63.2224 55.3642 63.6423 55.3642 64.0503L55.3681 71.474C55.3681 71.9801 55.5163 72.3333 55.7424 72.451Z" fill="black"/>
<path opacity="0.5" d="M64.0943 57.7802C63.9734 57.7175 63.833 57.7253 63.6849 57.8116L56.1483 62.1944C55.9417 62.3121 55.7546 62.5632 55.6181 62.8771L54.0352 61.959C54.1755 61.649 54.3588 61.3979 54.5654 61.2802L62.1019 56.8974C62.2579 56.8072 62.4022 56.8032 62.523 56.8699C62.7375 56.9916 63.9383 57.6939 64.0943 57.7802Z" fill="white"/>
<path d="M63.6874 68.0368L56.1509 72.4196C55.7181 72.6707 55.3672 72.2469 55.3672 71.4739V64.0464C55.3672 63.2734 55.7181 62.4455 56.1509 62.1944L63.6874 57.8116C64.1202 57.5605 64.4711 57.9842 64.4711 58.7572V66.1848C64.4672 66.9578 64.1202 67.7857 63.6874 68.0368Z" fill="#538DF7"/>
<path d="M49.0636 64.694C48.9427 64.6234 48.7984 64.6273 48.6425 64.7176L41.1059 69.1003C40.6732 69.3515 40.3223 70.1794 40.3223 70.9523V78.3799C40.3223 78.8704 40.4626 79.2196 40.6771 79.3451C40.8018 79.4158 42.0456 80.1377 42.26 80.2633C42.3809 80.3339 42.529 80.3339 42.685 80.2437L50.2215 75.8609C50.6543 75.6098 51.0052 74.7819 51.0052 74.0089V66.5813C51.0052 66.083 50.8609 65.7299 50.6387 65.6082C50.5217 65.5415 49.2819 64.8157 49.0636 64.694Z" fill="#538DF7"/>
<path opacity="0.25" d="M42.2834 80.271C42.2756 80.271 42.2717 80.2671 42.2639 80.2632C42.0495 80.1376 40.8018 79.4157 40.6771 79.345C40.4665 79.2195 40.3223 78.8703 40.3223 78.3798V70.9522C40.3223 70.5442 40.4197 70.1243 40.5757 69.7791L42.1586 70.6972C42.0027 71.0425 41.9052 71.4623 41.9052 71.8704L41.9091 79.294C41.9091 79.8002 42.0573 80.1533 42.2834 80.271Z" fill="black"/>
<path opacity="0.5" d="M50.6353 65.6003C50.5144 65.5375 50.3741 65.5454 50.2259 65.6317L42.6894 70.0145C42.4827 70.1322 42.2956 70.3833 42.1591 70.6972L40.5762 69.7791C40.7165 69.4691 40.8998 69.218 41.1064 69.1003L48.643 64.7175C48.7989 64.6272 48.9432 64.6233 49.064 64.69C49.2785 64.8116 50.4793 65.514 50.6353 65.6003Z" fill="white"/>
<path d="M50.2284 75.8568L42.6919 80.2396C42.2591 80.4907 41.9082 80.067 41.9082 79.294V71.8664C41.9082 71.0935 42.2591 70.2656 42.688 70.0144L50.2245 65.6317C50.6573 65.3805 51.0082 65.8043 51.0082 66.5773V74.0048C51.0082 74.7778 50.6573 75.6057 50.2284 75.8568Z" fill="#538DF7"/>
<path d="M62.5264 119.512C62.4056 119.441 62.2613 119.445 62.1054 119.535L54.5688 123.918C54.1361 124.169 53.7852 124.997 53.7852 125.77V133.198C53.7852 133.688 53.9255 134.037 54.14 134.163C54.2647 134.234 55.5085 134.956 55.7229 135.081C55.8438 135.152 55.9919 135.152 56.1479 135.062L63.6844 130.679C64.1172 130.428 64.4681 129.6 64.4681 128.827V121.399C64.4681 120.901 64.3238 120.548 64.1016 120.426C63.9846 120.359 62.7409 119.634 62.5264 119.512Z" fill="#E0E0E0"/>
<path d="M64.0943 120.418C63.9734 120.355 63.833 120.363 63.6849 120.45L56.1483 124.832C55.9417 124.95 55.7546 125.201 55.6181 125.515L54.0352 124.597C54.1755 124.287 54.3588 124.036 54.5654 123.918L62.1019 119.535C62.2579 119.445 62.4022 119.441 62.523 119.508C62.7375 119.63 63.9383 120.332 64.0943 120.418Z" fill="#F0F0F0"/>
<path opacity="0.2" d="M55.7424 135.089C55.7346 135.089 55.7307 135.085 55.7229 135.081C55.5085 134.955 54.2608 134.234 54.1361 134.163C53.9255 134.037 53.7812 133.688 53.7812 133.198V125.77C53.7812 125.362 53.8787 124.942 54.0347 124.597L55.6176 125.515C55.4617 125.86 55.3642 126.28 55.3642 126.688L55.3681 134.112C55.3681 134.618 55.5163 134.971 55.7424 135.089Z" fill="black"/>
<path d="M49.0636 111.672C48.9427 111.602 48.7984 111.606 48.6425 111.696L41.1059 116.079C40.6732 116.33 40.3223 117.158 40.3223 117.931V125.358C40.3223 125.849 40.4626 126.198 40.6771 126.323C40.7979 126.394 42.0456 127.116 42.26 127.242C42.3809 127.312 42.529 127.312 42.685 127.222L50.2215 122.839C50.6543 122.588 51.0052 121.76 51.0052 120.987V113.56C51.0052 113.061 50.8609 112.708 50.6387 112.587C50.5217 112.52 49.2819 111.794 49.0636 111.672Z" fill="#E0E0E0"/>
<path d="M50.6353 112.579C50.5144 112.516 50.3741 112.524 50.2259 112.61L42.6894 116.993C42.4827 117.11 42.2956 117.362 42.1591 117.675L40.5762 116.757C40.7165 116.447 40.8998 116.196 41.1064 116.079L48.643 111.696C48.7989 111.605 48.9432 111.602 49.064 111.668C49.2785 111.79 50.4793 112.492 50.6353 112.579Z" fill="#F0F0F0"/>
<path opacity="0.2" d="M42.2834 127.249C42.2756 127.249 42.2717 127.245 42.2639 127.241C42.0495 127.116 40.8018 126.394 40.6771 126.323C40.4665 126.198 40.3223 125.849 40.3223 125.358V117.931C40.3223 117.522 40.4197 117.103 40.5757 116.757L42.1586 117.675C42.0027 118.021 41.9052 118.441 41.9052 118.849L41.9091 126.272C41.9091 126.778 42.0573 127.132 42.2834 127.249Z" fill="black"/>
<path d="M75.9854 96.0322C75.8646 95.9615 75.7203 95.9654 75.5643 96.0557L68.0278 100.438C67.595 100.69 67.2441 101.517 67.2441 102.29V109.718C67.2441 110.209 67.3845 110.558 67.5989 110.683C67.7237 110.754 68.9674 111.476 69.1819 111.601C69.3027 111.672 69.4509 111.672 69.6108 111.582L77.1473 107.199C77.5801 106.948 77.931 106.12 77.931 105.347V97.9195C77.931 97.4211 77.7867 97.068 77.5645 96.9464C77.4436 96.8797 76.1999 96.1538 75.9854 96.0322Z" fill="#E0E0E0"/>
<path d="M77.5572 96.9387C77.4363 96.8759 77.2959 96.8837 77.1478 96.9701L69.6112 101.353C69.4046 101.471 69.2175 101.722 69.081 102.036L67.498 101.117C67.6384 100.807 67.8217 100.556 68.0283 100.439L75.5648 96.0558C75.7208 95.9656 75.865 95.9617 75.9859 96.0284C76.2003 96.15 77.4012 96.8524 77.5572 96.9387Z" fill="#F0F0F0"/>
<path opacity="0.2" d="M69.2053 111.609C69.1975 111.609 69.1936 111.606 69.1858 111.602C68.9713 111.476 67.7237 110.754 67.5989 110.683C67.3884 110.558 67.2441 110.209 67.2441 109.718V102.291C67.2441 101.883 67.3416 101.463 67.4976 101.117L69.0805 102.036C68.9245 102.381 68.8271 102.801 68.8271 103.209L68.831 110.632C68.831 111.139 68.9791 111.492 69.2053 111.609Z" fill="black"/>
<path d="M62.5264 103.852C62.4056 103.782 62.2613 103.786 62.1054 103.876L54.5688 108.259C54.1361 108.51 53.7852 109.338 53.7852 110.111V117.538C53.7852 118.029 53.9255 118.378 54.14 118.503C54.2647 118.574 55.5085 119.296 55.7229 119.421C55.8438 119.492 55.9919 119.492 56.1479 119.402L63.6844 115.019C64.1172 114.768 64.4681 113.94 64.4681 113.167V105.74C64.4681 105.241 64.3238 104.888 64.1016 104.766C63.9846 104.7 62.7409 103.974 62.5264 103.852Z" fill="#E0E0E0"/>
<path d="M64.0943 104.759C63.9734 104.696 63.833 104.704 63.6849 104.79L56.1483 109.173C55.9417 109.291 55.7546 109.542 55.6181 109.856L54.0352 108.937C54.1755 108.628 54.3588 108.376 54.5654 108.259L62.1019 103.876C62.2579 103.786 62.4022 103.782 62.523 103.848C62.7375 103.97 63.9383 104.672 64.0943 104.759Z" fill="#F0F0F0"/>
<path opacity="0.2" d="M55.7424 119.429C55.7346 119.429 55.7307 119.426 55.7229 119.422C55.5085 119.296 54.2608 118.574 54.1361 118.503C53.9255 118.378 53.7812 118.029 53.7812 117.538V110.111C53.7812 109.703 53.8787 109.283 54.0347 108.938L55.6176 109.856C55.4617 110.201 55.3642 110.621 55.3642 111.029L55.3681 118.452C55.3681 118.959 55.5163 119.312 55.7424 119.429Z" fill="black"/>
<path d="M49.0636 96.0168C48.9427 95.9461 48.7984 95.9501 48.6425 96.0403L41.1059 100.423C40.6732 100.674 40.3223 101.502 40.3223 102.275V109.703C40.3223 110.193 40.4626 110.542 40.6771 110.668C40.7979 110.738 42.0456 111.46 42.26 111.586C42.3809 111.657 42.529 111.657 42.685 111.566L50.2215 107.184C50.6543 106.933 51.0052 106.105 51.0052 105.332V97.9041C51.0052 97.4058 50.8609 97.0526 50.6387 96.931C50.5217 96.8643 49.2819 96.1423 49.0636 96.0168Z" fill="#E0E0E0"/>
<path d="M50.6353 96.927C50.5144 96.8642 50.3741 96.872 50.2259 96.9583L42.6894 101.341C42.4827 101.459 42.2956 101.71 42.1591 102.024L40.5762 101.106C40.7165 100.796 40.8998 100.545 41.1064 100.427L48.643 96.0441C48.7989 95.9539 48.9432 95.95 49.064 96.0167C49.2785 96.1383 50.4793 96.8406 50.6353 96.927Z" fill="#F0F0F0"/>
<path opacity="0.2" d="M42.2834 111.598C42.2756 111.598 42.2717 111.594 42.2639 111.59C42.0495 111.464 40.8018 110.742 40.6771 110.672C40.4665 110.546 40.3223 110.197 40.3223 109.706V102.279C40.3223 101.871 40.4197 101.451 40.5757 101.106L42.1586 102.024C42.0027 102.369 41.9052 102.789 41.9052 103.197L41.9091 110.621C41.9091 111.127 42.0573 111.48 42.2834 111.598Z" fill="black"/>
<path d="M75.9854 80.3769C75.8646 80.3063 75.7203 80.3102 75.5643 80.4004L68.0278 84.7832C67.595 85.0343 67.2441 85.8622 67.2441 86.6352V94.0627C67.2441 94.5532 67.3845 94.9024 67.5989 95.028C67.7237 95.0986 68.9674 95.8206 69.1819 95.9461C69.3027 96.0167 69.4509 96.0167 69.6108 95.9265L77.1473 91.5437C77.5801 91.2926 77.931 90.4647 77.931 89.6917V82.2642C77.931 81.7659 77.7867 81.4127 77.5645 81.2911C77.4436 81.2244 76.1999 80.4985 75.9854 80.3769Z" fill="#E0E0E0"/>
<path d="M77.5572 81.2832C77.4363 81.2204 77.2959 81.2282 77.1478 81.3146L69.6112 85.6973C69.4046 85.815 69.2175 86.0661 69.081 86.38L67.498 85.4619C67.6384 85.1519 67.8217 84.9008 68.0283 84.7831L75.5648 80.4003C75.7208 80.3101 75.865 80.3062 75.9859 80.3729C76.2003 80.4945 77.4012 81.1968 77.5572 81.2832Z" fill="#F0F0F0"/>
<path opacity="0.2" d="M69.2053 95.9539C69.1975 95.9539 69.1936 95.95 69.1858 95.946C68.9713 95.8205 67.7237 95.0985 67.5989 95.0279C67.3884 94.9023 67.2441 94.5531 67.2441 94.0627V86.6351C67.2441 86.227 67.3416 85.8072 67.4976 85.4619L69.0805 86.3801C68.9245 86.7253 68.8271 87.1452 68.8271 87.5532L68.831 94.9769C68.831 95.483 68.9791 95.8362 69.2053 95.9539Z" fill="black"/>
<path d="M62.5264 88.1967C62.4056 88.1261 62.2613 88.13 62.1054 88.2202L54.5688 92.603C54.1361 92.8541 53.7852 93.682 53.7852 94.455V101.883C53.7852 102.373 53.9255 102.722 54.14 102.848C54.2647 102.918 55.5085 103.64 55.7229 103.766C55.8438 103.837 55.9919 103.837 56.1479 103.746L63.6844 99.3636C64.1172 99.1125 64.4681 98.2846 64.4681 97.5116V90.084C64.4681 89.5857 64.3238 89.2326 64.1016 89.1109C63.9846 89.0442 62.7409 88.3183 62.5264 88.1967Z" fill="#E0E0E0"/>
<path d="M64.0943 89.1069C63.9734 89.0441 63.833 89.052 63.6849 89.1383L56.1483 93.5211C55.9417 93.6388 55.7546 93.8899 55.6181 94.2038L54.0352 93.2856C54.1755 92.9757 54.3588 92.7245 54.5654 92.6068L62.1019 88.2241C62.2579 88.1338 62.4022 88.1299 62.523 88.1966C62.7375 88.3182 63.9383 89.0206 64.0943 89.1069Z" fill="#F0F0F0"/>
<path opacity="0.2" d="M55.7424 103.778C55.7346 103.778 55.7307 103.774 55.7229 103.77C55.5085 103.644 54.2608 102.922 54.1361 102.852C53.9255 102.726 53.7812 102.377 53.7812 101.886V94.4588C53.7812 94.0508 53.8787 93.6309 54.0347 93.2856L55.6176 94.2038C55.4617 94.5491 55.3642 94.9689 55.3642 95.377L55.3681 102.801C55.3681 103.307 55.5163 103.66 55.7424 103.778Z" fill="black"/>
<path d="M49.0636 80.3613C48.9427 80.2906 48.7984 80.2945 48.6425 80.3848L41.1059 84.7676C40.6732 85.0187 40.3223 85.8466 40.3223 86.6196V94.0471C40.3223 94.5376 40.4626 94.8868 40.6771 95.0124C40.7979 95.083 42.0456 95.805 42.26 95.9305C42.3809 96.0011 42.529 96.0011 42.685 95.9109L50.2215 91.5281C50.6543 91.277 51.0052 90.4491 51.0052 89.6761V82.2486C51.0052 81.7502 50.8609 81.3971 50.6387 81.2755C50.5217 81.2088 49.2819 80.4829 49.0636 80.3613Z" fill="#E0E0E0"/>
<path d="M50.6353 81.2714C50.5144 81.2087 50.3741 81.2165 50.2259 81.3028L42.6894 85.6856C42.4827 85.8033 42.2956 86.0544 42.1591 86.3683L40.5762 85.4502C40.7165 85.1402 40.8998 84.8891 41.1064 84.7714L48.643 80.3886C48.7989 80.2984 48.9432 80.2944 49.064 80.3611C49.2785 80.4828 50.4793 81.1851 50.6353 81.2714Z" fill="#F0F0F0"/>
<path opacity="0.2" d="M42.2834 95.9422C42.2756 95.9422 42.2717 95.9383 42.2639 95.9343C42.0495 95.8088 40.8018 95.0868 40.6771 95.0162C40.4665 94.8906 40.3223 94.5414 40.3223 94.0509V86.6234C40.3223 86.2153 40.4197 85.7955 40.5757 85.4502L42.1586 86.3683C42.0027 86.7136 41.9052 87.1335 41.9052 87.5415L41.9091 94.9652C41.9091 95.4713 42.0573 95.8245 42.2834 95.9422Z" fill="black"/>
<path d="M75.9854 64.7211C75.8646 64.6505 75.7203 64.6544 75.5643 64.7447L68.0278 69.1274C67.595 69.3786 67.2441 70.2065 67.2441 70.9794V78.407C67.2441 78.8975 67.3845 79.2467 67.5989 79.3722C67.7237 79.4429 68.9674 80.1648 69.1819 80.2904C69.3027 80.361 69.4509 80.361 69.6108 80.2708L77.1473 75.888C77.5801 75.6369 77.931 74.809 77.931 74.036V66.6084C77.931 66.1101 77.7867 65.757 77.5645 65.6353C77.4436 65.5686 76.1999 64.8428 75.9854 64.7211Z" fill="#E0E0E0"/>
<path d="M77.5572 65.6276C77.4363 65.5649 77.2959 65.5727 77.1478 65.659L69.6112 70.0418C69.4046 70.1595 69.2175 70.4106 69.081 70.7245L67.498 69.8064C67.6384 69.4964 67.8217 69.2453 68.0283 69.1276L75.5648 64.7448C75.7208 64.6546 75.865 64.6506 75.9859 64.7173C76.2003 64.839 77.4012 65.5413 77.5572 65.6276Z" fill="#F0F0F0"/>
<path opacity="0.2" d="M69.2053 80.2984C69.1975 80.2984 69.1936 80.2945 69.1858 80.2906C68.9713 80.165 67.7237 79.443 67.5989 79.3724C67.3884 79.2468 67.2441 78.8976 67.2441 78.4072V70.9796C67.2441 70.5715 67.3416 70.1517 67.4976 69.8064L69.0805 70.7245C68.9245 71.0698 68.8271 71.4897 68.8271 71.8977L68.831 79.3214C68.831 79.8276 68.9791 80.1807 69.2053 80.2984Z" fill="black"/>
<path d="M62.5264 72.5412C62.4056 72.4706 62.2613 72.4745 62.1054 72.5647L54.5688 76.9475C54.1361 77.1986 53.7852 78.0265 53.7852 78.7995V86.2271C53.7852 86.7175 53.9255 87.0668 54.14 87.1923C54.2647 87.2629 55.5085 87.9849 55.7229 88.1105C55.8438 88.1811 55.9919 88.1811 56.1479 88.0908L63.6844 83.7081C64.1172 83.4569 64.4681 82.629 64.4681 81.8561V74.4285C64.4681 73.9302 64.3238 73.577 64.1016 73.4554C63.9846 73.3887 62.7409 72.6628 62.5264 72.5412Z" fill="#E0E0E0"/>
<path d="M64.0943 73.4477C63.9734 73.3849 63.833 73.3928 63.6849 73.4791L56.1483 77.8619C55.9417 77.9796 55.7546 78.2307 55.6181 78.5446L54.0352 77.6265C54.1755 77.3165 54.3588 77.0654 54.5654 76.9477L62.1019 72.5649C62.2579 72.4746 62.4022 72.4707 62.523 72.5374C62.7375 72.659 63.9383 73.3614 64.0943 73.4477Z" fill="#F0F0F0"/>
<path opacity="0.2" d="M55.7424 88.1185C55.7346 88.1185 55.7307 88.1145 55.7229 88.1106C55.5085 87.9851 54.2608 87.2631 54.1361 87.1925C53.9255 87.0669 53.7812 86.7177 53.7812 86.2272V78.7997C53.7812 78.3916 53.8787 77.9718 54.0347 77.6265L55.6176 78.5446C55.4617 78.8899 55.3642 79.3097 55.3642 79.7178L55.3681 87.1415C55.3681 87.6476 55.5163 88.0008 55.7424 88.1185Z" fill="black"/>
<path d="M45.7569 91.2221C45.7569 91.2025 45.7608 91.175 45.7686 91.1318L46.7161 87.1571L45.4099 87.9183C45.3787 87.9379 45.3515 87.934 45.3281 87.9105C45.3047 87.8869 45.293 87.8516 45.293 87.8006V87.0787C45.293 87.0276 45.3047 86.9806 45.3281 86.9296C45.3515 86.8785 45.3787 86.8472 45.4099 86.8275L47.5075 85.6112C47.5387 85.5916 47.566 85.5955 47.5894 85.619C47.6128 85.6426 47.6245 85.6779 47.6245 85.7289V86.3606C47.6245 86.4312 47.6011 86.5607 47.5543 86.7491L46.603 90.7355C46.5913 90.7826 46.5757 90.8297 46.5562 90.8729C46.5367 90.916 46.5094 90.9513 46.4743 90.971L45.8583 91.328C45.831 91.3437 45.8037 91.3437 45.7842 91.3241C45.7647 91.2966 45.7569 91.2652 45.7569 91.2221Z" fill="#455A64"/>
<path d="M58.6854 80.5417C58.6854 80.3181 58.7205 80.0984 58.7829 79.8747C58.8492 79.6511 58.9388 79.4431 59.0519 79.2469C59.165 79.0507 59.2936 78.8702 59.4457 78.7133C59.5939 78.5524 59.7537 78.4269 59.9175 78.3288C60.0851 78.2307 60.2411 78.1757 60.3931 78.164C60.5413 78.1483 60.6739 78.1757 60.7869 78.2424C60.9 78.3091 60.9897 78.4151 61.0559 78.5603C61.1222 78.7054 61.1534 78.8899 61.1534 79.1096C61.1534 79.2901 61.1339 79.4706 61.091 79.6432C61.0481 79.8198 60.9897 79.9885 60.9156 80.1572C61.0092 80.2278 61.0832 80.3338 61.1378 80.4672C61.1924 80.6006 61.2197 80.7693 61.2197 80.9733C61.2197 81.197 61.1846 81.4167 61.1183 81.6404C61.052 81.864 60.9585 82.0759 60.8415 82.2721C60.7245 82.4722 60.5881 82.6527 60.4282 82.8175C60.2723 82.9823 60.1007 83.1157 59.9175 83.2216C59.7342 83.3276 59.5666 83.3903 59.4106 83.41C59.2547 83.4296 59.1143 83.406 58.9973 83.3433C58.8804 83.2805 58.7868 83.1745 58.7205 83.0333C58.6542 82.8881 58.6191 82.7037 58.6191 82.484C58.6191 82.2799 58.6464 82.0798 58.6971 81.8836C58.7517 81.6875 58.8219 81.4991 58.9155 81.3186C58.8414 81.2402 58.7868 81.1342 58.7439 81.0087C58.7049 80.8753 58.6854 80.7222 58.6854 80.5417ZM59.4301 82.0249C59.4301 82.1544 59.4691 82.2446 59.551 82.2839C59.6329 82.327 59.7537 82.2996 59.9175 82.2054C60.0812 82.1112 60.2021 81.9935 60.284 81.8601C60.3658 81.7267 60.4048 81.5933 60.4048 81.4599C60.4048 81.3265 60.3658 81.2402 60.284 81.2009C60.2021 81.1578 60.0812 81.1852 59.9175 81.2794C59.7537 81.3736 59.6329 81.4913 59.551 81.6247C59.473 81.7581 59.4301 81.8915 59.4301 82.0249ZM59.4964 80.0552C59.4964 80.1847 59.5354 80.2749 59.6095 80.3181C59.6835 80.3612 59.7888 80.3456 59.9175 80.271C60.05 80.1965 60.1514 80.0905 60.2255 79.9571C60.2996 79.8237 60.3385 79.6942 60.3385 79.5608C60.3385 79.4274 60.2996 79.3411 60.2255 79.2979C60.1514 79.2508 60.0461 79.2705 59.9175 79.345C59.7849 79.4196 59.6835 79.5255 59.6095 79.6589C59.5354 79.7923 59.4964 79.9257 59.4964 80.0552Z" fill="#455A64"/>
<path d="M72.0938 72.9808C72.0938 72.7179 72.1288 72.4589 72.2029 72.2078C72.2731 71.9567 72.3706 71.7213 72.4914 71.5055C72.6123 71.2897 72.7488 71.1013 72.9047 70.9326C73.0607 70.7639 73.2205 70.6344 73.3843 70.5402C73.548 70.4461 73.7079 70.3911 73.8638 70.3794C74.0198 70.3676 74.1563 70.399 74.2771 70.4735C74.398 70.5481 74.4916 70.6697 74.5657 70.8384C74.6358 71.0072 74.6748 71.223 74.6748 71.4859C74.6748 71.6153 74.667 71.7448 74.6475 71.8665C74.628 71.9881 74.6046 72.1058 74.5735 72.2235C74.5423 72.3373 74.5072 72.4511 74.4721 72.5609C74.4331 72.6708 74.398 72.7768 74.359 72.8827L73.5246 75.1545C73.5091 75.1859 73.4935 75.2252 73.4779 75.2683C73.4584 75.3115 73.4311 75.3468 73.3921 75.3703L72.6942 75.7745C72.6669 75.7902 72.6474 75.7862 72.6318 75.7666C72.6162 75.747 72.6084 75.7156 72.6084 75.6764C72.6084 75.6528 72.6123 75.6332 72.6162 75.6175C72.6201 75.6018 72.624 75.5861 72.6318 75.5744L73.1932 74.0245C73.049 74.0755 72.9125 74.0951 72.7839 74.0834C72.6552 74.0716 72.5382 74.0206 72.4408 73.9382C72.3433 73.8519 72.2614 73.7341 72.2029 73.5772C72.121 73.4202 72.0938 73.2241 72.0938 72.9808ZM73.8522 71.9606C73.8522 71.8704 73.8405 71.7958 73.8132 71.737C73.7859 71.6781 73.7508 71.635 73.7079 71.6075C73.665 71.58 73.6143 71.5683 73.5558 71.5722C73.4974 71.5761 73.4389 71.5957 73.3765 71.631C73.3141 71.6663 73.2556 71.7174 73.1971 71.7801C73.1387 71.8429 73.088 71.9135 73.0451 71.992C73.0022 72.0705 72.9671 72.1529 72.9398 72.2431C72.9125 72.3334 72.9008 72.4236 72.9008 72.5139C72.9008 72.6041 72.9125 72.6787 72.9398 72.7375C72.9671 72.7964 73.0022 72.8395 73.0451 72.867C73.088 72.8945 73.1387 72.9062 73.1971 72.9023C73.2556 72.8984 73.3141 72.8788 73.3765 72.8435C73.4389 72.8081 73.4974 72.7571 73.5558 72.6944C73.6143 72.6316 73.665 72.5609 73.7079 72.4825C73.7508 72.404 73.7859 72.3216 73.8132 72.2314C73.8405 72.1411 73.8522 72.0509 73.8522 71.9606Z" fill="#455A64"/>
<path d="M46.6727 106.509C46.6415 106.528 46.6142 106.525 46.5909 106.501C46.5675 106.477 46.5558 106.442 46.5558 106.391V105.697L45.1756 106.501C45.1444 106.521 45.1171 106.517 45.0937 106.493C45.0703 106.47 45.0586 106.434 45.0586 106.383V105.661C45.0586 105.544 45.0781 105.434 45.1171 105.336L46.4271 102.012C46.4544 101.946 46.4778 101.899 46.5012 101.871C46.5246 101.844 46.5519 101.816 46.5909 101.796L47.2537 101.412C47.2849 101.392 47.3122 101.396 47.3355 101.42C47.3589 101.443 47.3706 101.479 47.3706 101.53V104.139L47.7488 103.919C47.78 103.9 47.8073 103.904 47.8307 103.927C47.8541 103.951 47.8658 103.986 47.8658 104.037V104.759C47.8658 104.81 47.8541 104.857 47.8307 104.908C47.8073 104.959 47.78 104.99 47.7488 105.01L47.3706 105.23V105.924C47.3706 105.975 47.3589 106.022 47.3355 106.073C47.3122 106.124 47.2849 106.156 47.2537 106.175L46.6727 106.509ZM46.5753 104.602V103.35L45.9358 104.975L46.5753 104.602Z" fill="#455A64"/>
<path d="M59.4535 97.6374C59.473 97.6648 59.4964 97.6962 59.5198 97.7276C59.5432 97.759 59.5744 97.7825 59.6095 97.8022C59.6446 97.8218 59.6875 97.8296 59.7382 97.8257C59.7888 97.8257 59.8473 97.8022 59.9136 97.7629C59.976 97.7276 60.0345 97.6805 60.0891 97.6256C60.1436 97.5667 60.1943 97.504 60.2372 97.4255C60.2801 97.3509 60.3152 97.2685 60.3386 97.1822C60.362 97.0959 60.3776 97.0017 60.3776 96.9036C60.3776 96.7506 60.3386 96.6447 60.2606 96.5937C60.1826 96.5427 60.0774 96.5544 59.9409 96.6329C59.898 96.6564 59.859 96.6878 59.8239 96.7271C59.7888 96.7663 59.7538 96.8056 59.7226 96.8448C59.6914 96.884 59.6641 96.9193 59.6368 96.9507C59.6095 96.9821 59.59 97.0057 59.5705 97.0174L58.8882 97.4137C58.8531 97.4333 58.8258 97.4333 58.8024 97.4098C58.779 97.3863 58.7673 97.3509 58.7712 97.2999L58.9038 94.7966C58.9077 94.7456 58.9194 94.6946 58.9428 94.6475C58.9662 94.6004 58.9935 94.5651 59.0247 94.5455L60.9 93.4547C60.9312 93.4351 60.9585 93.439 60.9819 93.4625C61.0053 93.4861 61.017 93.5214 61.017 93.5724V94.2944C61.017 94.3454 61.0053 94.3925 60.9819 94.4435C60.9585 94.4945 60.9312 94.5259 60.9 94.5455L59.6251 95.2871L59.5939 95.9109C59.6446 95.8364 59.707 95.7618 59.7772 95.6912C59.8473 95.6206 59.9214 95.5617 60.0033 95.5146C60.1748 95.4166 60.3308 95.3616 60.4751 95.3499C60.6193 95.3381 60.7441 95.3695 60.8532 95.444C60.9585 95.5186 61.0443 95.6363 61.1028 95.8011C61.1613 95.9659 61.1924 96.1778 61.1924 96.4367C61.1924 96.7075 61.1613 96.9664 61.095 97.2136C61.0287 97.4608 60.939 97.6884 60.8221 97.8963C60.7051 98.1082 60.5725 98.2926 60.4166 98.4535C60.2606 98.6144 60.093 98.7478 59.9175 98.8537C59.7187 98.9675 59.5393 99.0342 59.3834 99.046C59.2274 99.0578 59.0948 99.0264 58.9857 98.9557C58.8765 98.8851 58.7946 98.7792 58.7361 98.6379C58.6777 98.4967 58.6465 98.3358 58.6426 98.1514C58.6426 98.1121 58.6504 98.069 58.6699 98.0297C58.6894 97.9905 58.7128 97.963 58.7401 97.9473L59.2976 97.6256C59.3444 97.5981 59.3795 97.5903 59.4068 97.6021C59.4301 97.6099 59.4457 97.6217 59.4535 97.6374Z" fill="#455A64"/>
<path d="M74.6865 88.5618C74.6865 88.8286 74.6514 89.0876 74.5812 89.3387C74.511 89.5898 74.4174 89.8252 74.2966 90.0371C74.1757 90.2529 74.0392 90.4452 73.8794 90.6139C73.7195 90.7865 73.5558 90.9199 73.3803 91.0219C73.2049 91.124 73.0372 91.1828 72.8813 91.1946C72.7253 91.2064 72.585 91.175 72.4641 91.1004C72.3432 91.0259 72.2458 90.9042 72.1756 90.7355C72.1054 90.5668 72.0703 90.3471 72.0703 90.0803C72.0703 89.939 72.082 89.8056 72.1015 89.6761C72.1249 89.5466 72.1522 89.425 72.1834 89.3073C72.2146 89.1896 72.2497 89.0758 72.2886 88.9659C72.3276 88.8561 72.3627 88.754 72.3978 88.656L73.2361 86.4155C73.2517 86.3841 73.2673 86.3449 73.2829 86.3017C73.3024 86.2586 73.3296 86.2233 73.3725 86.1997L74.0704 85.7956C74.0977 85.7799 74.1172 85.7838 74.1328 85.8034C74.1484 85.823 74.1562 85.8544 74.1562 85.8937C74.1562 85.9172 74.1523 85.9368 74.1484 85.9525C74.1445 85.9682 74.1406 85.9839 74.1328 85.9957L73.5636 87.522C73.7195 87.4592 73.8638 87.4318 74.0003 87.4396C74.1367 87.4475 74.2537 87.4945 74.359 87.5769C74.4603 87.6593 74.5422 87.7849 74.6007 87.9458C74.6592 88.1184 74.6865 88.3224 74.6865 88.5618ZM72.8813 89.6133C72.8813 89.7114 72.8969 89.7938 72.9242 89.8527C72.9515 89.9115 72.9904 89.9547 73.0372 89.9782C73.084 90.0018 73.1386 90.0136 73.1971 90.0057C73.2556 89.9979 73.318 89.9782 73.3803 89.939C73.4427 89.9037 73.5012 89.8527 73.5636 89.7938C73.6221 89.7311 73.6766 89.6604 73.7195 89.5819C73.7663 89.5035 73.8014 89.4172 73.8326 89.323C73.8638 89.2288 73.8755 89.1307 73.8755 89.0326C73.8755 88.9345 73.8599 88.8521 73.8326 88.7933C73.8053 88.7344 73.7663 88.6913 73.7195 88.6638C73.6727 88.6363 73.6221 88.6285 73.5636 88.6363C73.5051 88.6442 73.4427 88.6677 73.3803 88.703C73.318 88.7384 73.2595 88.7894 73.1971 88.8482C73.1386 88.911 73.084 88.9816 73.0372 89.0601C72.9904 89.1386 72.9515 89.2249 72.9242 89.3191C72.893 89.4172 72.8813 89.5113 72.8813 89.6133Z" fill="#455A64"/>
<path d="M45.5576 119.59C45.5381 119.563 45.5303 119.52 45.5342 119.469C45.5381 119.414 45.5576 119.367 45.581 119.32L46.5245 117.652C46.5479 117.613 46.5752 117.562 46.6103 117.507C46.6454 117.452 46.6843 117.409 46.7272 117.385L47.2614 117.075C47.2926 117.056 47.3199 117.06 47.3433 117.083C47.3667 117.107 47.3783 117.142 47.3783 117.193V121.584C47.3783 121.635 47.3667 121.682 47.3433 121.733C47.3199 121.784 47.2926 121.815 47.2614 121.835L46.6882 122.168C46.6571 122.188 46.6298 122.184 46.6064 122.16C46.583 122.137 46.5713 122.102 46.5713 122.051V119.08L46.0488 119.995C46.0215 120.042 45.9942 120.069 45.9631 120.085C45.9319 120.097 45.9046 120.089 45.8851 120.057L45.5576 119.59Z" fill="#455A64"/>
<path d="M61.1223 110.582C61.1223 110.711 61.1145 110.845 61.095 110.978C61.0794 111.111 61.0482 111.249 61.0053 111.386C60.9624 111.523 60.9078 111.672 60.8376 111.825C60.7675 111.978 60.6856 112.139 60.5842 112.312L59.9721 113.391L61.0716 112.751C61.1028 112.732 61.1301 112.736 61.1535 112.759C61.1768 112.783 61.1885 112.818 61.1885 112.869V113.591C61.1885 113.642 61.1768 113.689 61.1535 113.74C61.1301 113.791 61.1028 113.823 61.0716 113.842L58.7556 115.188C58.7244 115.208 58.6972 115.204 58.6738 115.18C58.6504 115.157 58.6387 115.121 58.6387 115.07V114.486C58.6387 114.415 58.6465 114.337 58.666 114.25C58.6855 114.168 58.7167 114.085 58.7634 114.011L60.0735 111.794C60.1748 111.617 60.2411 111.472 60.2684 111.359C60.2957 111.245 60.3074 111.143 60.3074 111.052C60.3074 111.021 60.3035 110.978 60.2957 110.927C60.2879 110.876 60.2723 110.829 60.245 110.786C60.2177 110.742 60.1826 110.719 60.1319 110.703C60.0852 110.691 60.0189 110.707 59.937 110.754C59.8551 110.801 59.7888 110.86 59.7382 110.935C59.6875 111.009 59.6485 111.08 59.6212 111.151C59.5939 111.221 59.5744 111.288 59.5588 111.355C59.5471 111.417 59.5354 111.464 59.5315 111.496C59.5159 111.566 59.4925 111.621 59.4652 111.661C59.434 111.7 59.399 111.731 59.3561 111.755L58.818 112.069C58.7907 112.084 58.7673 112.084 58.7517 112.065C58.7322 112.045 58.7244 112.018 58.7244 111.975C58.7283 111.782 58.7517 111.578 58.8024 111.362C58.8531 111.147 58.9272 110.931 59.0286 110.719C59.1299 110.507 59.2547 110.307 59.4068 110.126C59.5588 109.942 59.7343 109.793 59.9409 109.675C60.1358 109.561 60.3035 109.507 60.4517 109.51C60.5998 109.514 60.7246 109.558 60.822 109.648C60.9195 109.738 60.9975 109.864 61.0482 110.024C61.0989 110.185 61.1223 110.37 61.1223 110.582Z" fill="#455A64"/>
<path d="M74.4136 101.259C74.4447 101.239 74.472 101.243 74.4954 101.267C74.5188 101.29 74.5305 101.326 74.5305 101.377V102.099C74.5305 102.15 74.5188 102.201 74.4993 102.252C74.4798 102.303 74.4603 102.35 74.4408 102.385L73.9106 103.523C74.1406 103.48 74.3239 103.527 74.4681 103.656C74.6124 103.79 74.6826 104.029 74.6826 104.386C74.6826 104.896 74.5695 105.351 74.3395 105.74C74.1133 106.132 73.7936 106.446 73.3842 106.681C73.1737 106.803 72.9865 106.874 72.8267 106.889C72.6629 106.905 72.5265 106.886 72.4173 106.823C72.3081 106.76 72.2224 106.666 72.16 106.54C72.1015 106.415 72.0703 106.269 72.0664 106.101C72.0664 106.062 72.0742 106.018 72.0937 105.979C72.1132 105.94 72.1366 105.912 72.1639 105.897L72.7175 105.575C72.7799 105.54 72.8267 105.532 72.8579 105.559C72.8891 105.583 72.9242 105.61 72.9671 105.638C73.006 105.665 73.0567 105.681 73.1191 105.689C73.1815 105.697 73.2712 105.665 73.3881 105.599C73.5285 105.516 73.6455 105.414 73.7351 105.289C73.8287 105.163 73.8716 105.022 73.8716 104.861C73.8716 104.704 73.8248 104.614 73.7351 104.594C73.6416 104.574 73.5285 104.606 73.3881 104.688L73.0255 104.9C72.9944 104.92 72.9671 104.916 72.9437 104.892C72.9203 104.869 72.9086 104.833 72.9086 104.782V104.198C72.9086 104.147 72.9203 104.096 72.9398 104.045C72.9593 103.994 72.9788 103.943 73.0021 103.9L73.4661 102.903L72.3198 103.57C72.2886 103.59 72.2614 103.586 72.238 103.562C72.2146 103.539 72.2029 103.503 72.2029 103.452V102.73C72.2029 102.679 72.2146 102.632 72.238 102.581C72.2614 102.53 72.2886 102.499 72.3198 102.479L74.4136 101.259Z" fill="#455A64"/>
<path d="M59.9175 125.311C60.1358 125.186 60.3269 125.123 60.4828 125.131C60.6427 125.139 60.7713 125.197 60.8766 125.303C60.9819 125.409 61.0599 125.562 61.1106 125.755C61.1612 125.951 61.1924 126.167 61.2002 126.406C61.2041 126.598 61.208 126.798 61.208 127.014C61.208 127.226 61.2041 127.43 61.2002 127.618C61.1924 127.87 61.1612 128.121 61.1106 128.376C61.0599 128.631 60.9819 128.87 60.8766 129.098C60.7713 129.325 60.6427 129.537 60.4828 129.725C60.3269 129.918 60.1358 130.075 59.9175 130.204C59.6991 130.33 59.5081 130.392 59.3521 130.385C59.1923 130.377 59.0636 130.318 58.9584 130.212C58.8531 130.106 58.7751 129.953 58.7244 129.761C58.6737 129.565 58.6426 129.349 58.6348 129.109C58.627 128.929 58.627 128.729 58.627 128.517C58.627 128.305 58.6309 128.097 58.6348 127.901C58.6426 127.65 58.6737 127.399 58.7244 127.144C58.7751 126.889 58.8531 126.649 58.9584 126.422C59.0636 126.194 59.1923 125.982 59.3521 125.794C59.5081 125.598 59.6991 125.437 59.9175 125.311ZM60.3854 128.054C60.3971 127.662 60.3971 127.281 60.3854 126.912C60.3815 126.802 60.3698 126.704 60.3542 126.618C60.3386 126.532 60.3113 126.465 60.2762 126.414C60.2411 126.363 60.1943 126.335 60.1358 126.328C60.0773 126.32 60.0033 126.343 59.9175 126.394C59.8317 126.445 59.7576 126.508 59.6991 126.583C59.6407 126.657 59.5939 126.739 59.5588 126.83C59.5237 126.92 59.4964 127.018 59.4808 127.124C59.4613 127.23 59.4535 127.34 59.4496 127.454C59.434 127.838 59.434 128.219 59.4496 128.595C59.4535 128.709 59.4613 128.807 59.4769 128.89C59.4925 128.976 59.5198 129.043 59.5549 129.09C59.59 129.141 59.6407 129.168 59.6991 129.172C59.7576 129.18 59.8317 129.157 59.9175 129.105C60.0033 129.054 60.0773 128.992 60.1358 128.917C60.1943 128.843 60.2411 128.76 60.2801 128.666C60.3152 128.576 60.3425 128.478 60.3581 128.372C60.3737 128.278 60.3854 128.168 60.3854 128.054Z" fill="#455A64"/>
<path d="M44.5952 75.1977C44.5718 75.1742 44.5524 75.1467 44.5368 75.1192L44.1235 74.2364V76.4847C44.1235 76.5357 44.1118 76.5828 44.0884 76.6338C44.065 76.6848 44.0377 76.7162 44.0065 76.7358L43.4334 77.0693C43.4022 77.0889 43.3749 77.085 43.3515 77.0615C43.3281 77.0379 43.3164 77.0026 43.3164 76.9516V72.561C43.3164 72.51 43.3281 72.4629 43.3515 72.4119C43.3749 72.3609 43.4022 72.3295 43.4334 72.3099L43.9441 72.0156C44.0026 71.9803 44.0455 71.9803 44.0767 72.0156C44.1079 72.047 44.1235 72.0744 44.1352 72.0901L44.8448 73.5615L45.5544 71.2662C45.5622 71.2387 45.5817 71.1916 45.6128 71.1249C45.644 71.0582 45.6869 71.0072 45.7454 70.9719L46.2562 70.6776C46.2874 70.658 46.3146 70.6619 46.338 70.6854C46.3614 70.709 46.3731 70.7443 46.3731 70.7953V75.1859C46.3731 75.2369 46.3614 75.284 46.338 75.335C46.3146 75.386 46.2874 75.4174 46.2562 75.437L45.683 75.7706C45.6518 75.7902 45.6245 75.7863 45.6011 75.7627C45.5778 75.7392 45.5661 75.7039 45.5661 75.6528V73.4046L45.1528 74.7661C45.1372 74.8093 45.1177 74.8603 45.0943 74.9113C45.0709 74.9623 45.0358 75.0015 44.9929 75.029L44.7122 75.1938C44.6537 75.2212 44.6186 75.2252 44.5952 75.1977Z" fill="#FAFAFA"/>
<path d="M47.684 71.6545C47.6801 71.7133 47.6801 71.7997 47.6762 71.9017C47.6762 72.0076 47.6723 72.1136 47.6723 72.2273C47.6723 72.3372 47.6723 72.4471 47.6762 72.553C47.6762 72.6589 47.6801 72.7413 47.684 72.7963C47.6918 72.8983 47.7035 72.9885 47.723 73.0709C47.7425 73.1533 47.7776 73.22 47.8204 73.2671C47.8633 73.3142 47.9179 73.3377 47.9881 73.3417C48.0544 73.3456 48.1401 73.3181 48.2376 73.2593C48.3351 73.2004 48.417 73.1376 48.4832 73.0631C48.5456 72.9885 48.6002 72.914 48.6392 72.8394C48.6782 72.7649 48.7133 72.6864 48.7328 72.6119C48.7562 72.5373 48.7718 72.4667 48.7835 72.4039C48.7991 72.3215 48.8147 72.2627 48.8303 72.2234C48.8497 72.1842 48.8809 72.1489 48.9316 72.1214L49.5048 71.7879C49.5321 71.7722 49.5554 71.7761 49.571 71.7918C49.5905 71.8114 49.5983 71.8389 49.5983 71.8821C49.5944 72.1136 49.5593 72.3529 49.4892 72.6001C49.419 72.8434 49.3215 73.0788 49.2006 73.2985C49.0759 73.5182 48.9355 73.7223 48.7679 73.9067C48.6041 74.0911 48.4248 74.2402 48.2298 74.3501C48.0193 74.4717 47.8321 74.5345 47.6645 74.5306C47.5007 74.5306 47.3565 74.4795 47.2395 74.3775C47.1225 74.2794 47.0329 74.1343 46.9705 73.9459C46.9081 73.7576 46.873 73.5418 46.8613 73.2985C46.8535 73.118 46.8535 72.9179 46.8535 72.706C46.8535 72.4942 46.8574 72.2862 46.8613 72.09C46.8652 71.8389 46.9003 71.5799 46.9666 71.317C47.029 71.0542 47.1225 70.807 47.2356 70.5715C47.3526 70.3361 47.4929 70.1242 47.6606 69.9281C47.8282 69.7319 48.0154 69.5749 48.2259 69.4533C48.417 69.3395 48.5963 69.2806 48.764 69.2728C48.9277 69.265 49.072 69.3003 49.1967 69.3787C49.3176 69.4572 49.4151 69.5788 49.4853 69.7397C49.5554 69.9045 49.5905 70.1007 49.5944 70.3283C49.5944 70.3675 49.5866 70.4107 49.5671 70.4499C49.5476 70.4891 49.5243 70.5166 49.5009 70.5323L48.9277 70.8658C48.877 70.8933 48.8458 70.9011 48.8264 70.8815C48.8108 70.8619 48.7913 70.8187 48.7796 70.756C48.7679 70.7089 48.7523 70.6579 48.7289 70.6069C48.7055 70.5558 48.6743 70.5166 48.6353 70.4891C48.5924 70.4617 48.5417 70.446 48.4794 70.4499C48.4131 70.4499 48.3312 70.4813 48.2337 70.5362C48.1324 70.5951 48.0505 70.6657 47.9842 70.7481C47.9179 70.8305 47.8633 70.9208 47.8165 71.0188C47.7737 71.1169 47.7425 71.219 47.7191 71.3249C47.7035 71.4387 47.6918 71.5446 47.684 71.6545Z" fill="#FAFAFA"/>
<path d="M58.0777 67.3659C58.0543 67.3424 58.0348 67.3149 58.0192 67.2874L57.6059 66.4046V68.6529C57.6059 68.7039 57.5942 68.751 57.5708 68.802C57.5474 68.853 57.5201 68.8844 57.4889 68.904L56.9158 69.2375C56.8846 69.2572 56.8573 69.2532 56.8339 69.2297C56.8105 69.2061 56.7988 69.1708 56.7988 69.1198V64.7292C56.7988 64.6782 56.8105 64.6311 56.8339 64.5801C56.8573 64.5291 56.8846 64.4977 56.9158 64.4781L57.4265 64.1838C57.485 64.1485 57.5279 64.1485 57.5591 64.1838C57.5903 64.2152 57.6059 64.2427 57.6176 64.2583L58.3272 65.7297L59.0368 63.4344C59.0446 63.4069 59.0641 63.3598 59.0953 63.2931C59.1265 63.2264 59.1693 63.1754 59.2278 63.1401L59.7386 62.8458C59.7698 62.8262 59.7971 62.8301 59.8205 62.8537C59.8439 62.8772 59.8556 62.9125 59.8556 62.9635V67.3542C59.8556 67.4052 59.8439 67.4522 59.8205 67.5032C59.7971 67.5543 59.7698 67.5856 59.7386 67.6053L59.1654 67.9388C59.1343 67.9584 59.107 67.9545 59.0836 67.9309C59.0602 67.9074 59.0485 67.8721 59.0485 67.8211V65.5728L58.6352 66.9343C58.6196 66.9775 58.6001 67.0285 58.5767 67.0795C58.5533 67.1305 58.5182 67.1697 58.4753 67.1972L58.1946 67.362C58.1361 67.3895 58.105 67.3895 58.0777 67.3659Z" fill="#FAFAFA"/>
<path d="M61.769 61.6609C61.964 61.5471 62.1355 61.4804 62.2876 61.4569C62.4396 61.4334 62.5683 61.453 62.6775 61.5158C62.7828 61.5825 62.8646 61.6962 62.9231 61.861C62.9816 62.0258 63.0089 62.2377 63.0089 62.5006C63.0089 62.842 62.9621 63.148 62.8724 63.4266C62.7828 63.7052 62.6541 63.9484 62.4864 64.1643L63.0323 65.4669C63.0401 65.4905 63.044 65.5101 63.044 65.5336C63.044 65.5729 63.0362 65.616 63.0167 65.6553C62.9972 65.6945 62.9738 65.722 62.9504 65.7377L62.3539 66.0829C62.2954 66.1183 62.2525 66.1222 62.2291 66.0947C62.2057 66.0672 62.1862 66.0398 62.1706 66.0084L61.6833 64.8352L61.2817 65.0706V66.5263C61.2817 66.5773 61.27 66.6244 61.2466 66.6754C61.2232 66.7264 61.1959 66.7578 61.1647 66.7774L60.5916 67.111C60.5604 67.1306 60.5331 67.1267 60.5097 67.1031C60.4863 67.0796 60.4746 67.0443 60.4746 66.9932V62.6026C60.4746 62.5516 60.4863 62.5045 60.5097 62.4535C60.5331 62.4025 60.5604 62.3711 60.5916 62.3515L61.769 61.6609ZM61.2739 64.0112L61.769 63.7248C61.8938 63.6542 61.9952 63.56 62.0732 63.4384C62.155 63.3207 62.194 63.1637 62.194 62.9754C62.194 62.787 62.155 62.6772 62.0732 62.6497C61.9913 62.6222 61.8899 62.6458 61.769 62.7164L61.2739 63.0028V64.0112Z" fill="#FAFAFA"/>
<path d="M72.0503 59.2438C72.0269 59.2203 72.0074 59.1928 71.9918 59.1654L71.5785 58.2825V60.5308C71.5785 60.5818 71.5669 60.6289 71.5435 60.6799C71.5201 60.7309 71.4928 60.7623 71.4616 60.7819L70.8885 61.1154C70.8573 61.1351 70.83 61.1311 70.8066 61.1076C70.7832 61.0841 70.7715 61.0487 70.7715 60.9977V56.6071C70.7715 56.5561 70.7832 56.509 70.8066 56.458C70.83 56.407 70.8573 56.3756 70.8885 56.356L71.3992 56.0617C71.4577 56.0264 71.5006 56.0264 71.5318 56.0617C71.563 56.0931 71.5785 56.1206 71.5902 56.1363L72.2998 57.6077L73.0094 55.3123C73.0172 55.2848 73.0367 55.2377 73.0679 55.171C73.0991 55.1043 73.142 55.0533 73.2005 55.018L73.7112 54.7237C73.7424 54.7041 73.7697 54.708 73.7931 54.7316C73.8165 54.7551 73.8282 54.7904 73.8282 54.8415V59.2321C73.8282 59.2831 73.8165 59.3302 73.7931 59.3812C73.7697 59.4322 73.7424 59.4636 73.7112 59.4832L73.1381 59.8167C73.1069 59.8363 73.0796 59.8324 73.0562 59.8089C73.0328 59.7853 73.0211 59.75 73.0211 59.699V57.4507L72.6079 58.8122C72.5923 58.8554 72.5728 58.9064 72.5494 58.9574C72.526 59.0084 72.4909 59.0477 72.448 59.0751L72.1673 59.2399C72.1088 59.2674 72.0737 59.2713 72.0503 59.2438Z" fill="#FAFAFA"/>
<path d="M74.4881 57.5135C74.4569 57.5331 74.4296 57.5292 74.4062 57.5096C74.3828 57.486 74.3711 57.4507 74.3711 57.3997V56.713C74.3711 56.662 74.3828 56.615 74.4062 56.564C74.4296 56.5129 74.4569 56.4816 74.4881 56.4619L75.8683 55.6576C75.8995 55.638 75.9267 55.6419 75.9501 55.6654C75.9735 55.689 75.9852 55.7243 75.9852 55.7753V56.4619C75.9852 56.5129 75.9735 56.56 75.9501 56.611C75.9267 56.662 75.8995 56.6934 75.8683 56.713L74.4881 57.5135Z" fill="#FAFAFA"/>
<path d="M85.1753 51.6201C85.1519 51.5965 85.1324 51.5691 85.1168 51.5416L84.7036 50.6588V52.907C84.7036 52.958 84.6919 53.0051 84.6685 53.0561C84.6451 53.1072 84.6178 53.1385 84.5866 53.1582L84.0135 53.4917C83.9823 53.5113 83.955 53.5074 83.9316 53.4838C83.9082 53.4603 83.8965 53.425 83.8965 53.374V48.9833C83.8965 48.9323 83.9082 48.8852 83.9316 48.8342C83.955 48.7832 83.9823 48.7518 84.0135 48.7322L84.5242 48.4379C84.5827 48.4026 84.6256 48.4026 84.6568 48.4379C84.688 48.4693 84.7036 48.4968 84.7153 48.5125L85.4249 49.9839L86.1345 47.6885C86.1423 47.6611 86.1617 47.614 86.1929 47.5473C86.2241 47.4806 86.267 47.4296 86.3255 47.3942L86.8363 47.1C86.8674 47.0803 86.8947 47.0843 86.9181 47.1078C86.9415 47.1314 86.9532 47.1667 86.9532 47.2177V51.6083C86.9532 51.6593 86.9415 51.7064 86.9181 51.7574C86.8947 51.8084 86.8674 51.8398 86.8363 51.8594L86.2631 52.1929C86.2319 52.2125 86.2046 52.2086 86.1812 52.1851C86.1578 52.1615 86.1461 52.1262 86.1461 52.0752V49.8309L85.7329 51.1924C85.7173 51.2355 85.6978 51.2866 85.6744 51.3376C85.651 51.3886 85.6159 51.4278 85.573 51.4553L85.2923 51.6201C85.2338 51.6436 85.1987 51.6436 85.1753 51.6201Z" fill="#FAFAFA"/>
<path d="M88.9931 49.0853V50.2075C88.9931 50.2585 88.9814 50.3056 88.958 50.3566C88.9346 50.4076 88.9073 50.439 88.8761 50.4586L88.3225 50.7804C88.2913 50.8 88.264 50.7961 88.2406 50.7725C88.2172 50.749 88.2055 50.7137 88.2055 50.6627V49.5405L87.5271 49.9368C87.4959 49.9564 87.4686 49.9525 87.4452 49.9329C87.4219 49.9093 87.4102 49.874 87.4102 49.823V49.1364C87.4102 49.0853 87.4219 49.0383 87.4452 48.9873C87.4686 48.9362 87.4959 48.9049 87.5271 48.8852L88.2055 48.4889V47.3668C88.2055 47.3158 88.2172 47.2687 88.2406 47.2177C88.264 47.1667 88.2913 47.1353 88.3225 47.1156L88.8761 46.7939C88.9073 46.7743 88.9346 46.7782 88.958 46.7978C88.9814 46.8214 88.9931 46.8567 88.9931 46.9077V48.0299L89.6676 47.6375C89.6988 47.6179 89.7261 47.6218 89.7495 47.6453C89.7729 47.6689 89.7846 47.7042 89.7846 47.7552V48.4419C89.7846 48.4929 89.7729 48.54 89.7495 48.591C89.7261 48.642 89.6988 48.6734 89.6676 48.693L88.9931 49.0853Z" fill="#FAFAFA"/>
<path d="M85.533 66.3772C85.5018 66.3969 85.4745 66.3929 85.4511 66.3733C85.4277 66.3498 85.416 66.3145 85.416 66.2635V65.5768C85.416 65.5258 85.4277 65.4787 85.4511 65.4277C85.4745 65.3767 85.5018 65.3453 85.533 65.3257L88.1413 63.8111C88.1725 63.7915 88.1998 63.7954 88.2232 63.819C88.2466 63.8425 88.2583 63.8778 88.2583 63.9289V64.6155C88.2583 64.6665 88.2466 64.7136 88.2232 64.7646C88.1998 64.8156 88.1725 64.847 88.1413 64.8666L85.533 66.3772Z" fill="#FAFAFA"/>
<path d="M87.2718 62.9478C87.2718 63.3206 87.0768 63.7326 86.839 63.8738C86.6012 64.0112 86.4062 63.8268 86.4062 63.454C86.4062 63.0813 86.6012 62.6693 86.839 62.528C87.0768 62.3907 87.2718 62.5751 87.2718 62.9478Z" fill="#FAFAFA"/>
<path d="M87.2718 66.8166C87.2718 66.4439 87.0768 66.2555 86.839 66.3968C86.6012 66.5341 86.4062 66.95 86.4062 67.3228C86.4062 67.6956 86.6012 67.8839 86.839 67.7426C87.0768 67.6014 87.2718 67.1894 87.2718 66.8166Z" fill="#FAFAFA"/>
<path d="M86.2821 81.1223L85.7167 80.569C85.6933 80.5455 85.6816 80.5102 85.6816 80.4592C85.6816 80.4082 85.6933 80.3611 85.7167 80.3101L86.1066 79.4782C86.13 79.4272 86.1573 79.3959 86.1885 79.3762C86.2197 79.3566 86.247 79.3605 86.2704 79.3841L86.8357 79.9373L87.4011 78.7327C87.4244 78.6817 87.4517 78.6503 87.4829 78.6307C87.5141 78.6111 87.5414 78.615 87.5648 78.6386L87.9547 79.0153C87.9781 79.0388 87.9898 79.0741 87.9898 79.1251C87.9898 79.1761 87.9781 79.2232 87.9547 79.2742L87.3894 80.4788L87.9547 81.0203C87.9781 81.0438 87.9898 81.0791 87.9898 81.1301C87.9898 81.1811 87.9781 81.2282 87.9547 81.2792L87.5648 82.1111C87.5414 82.1621 87.5141 82.1935 87.4829 82.2131C87.4517 82.2327 87.4244 82.2288 87.4011 82.2092L86.8357 81.6677L86.2704 82.8723C86.247 82.9233 86.2197 82.9547 86.1885 82.9743C86.1573 82.9939 86.13 82.99 86.1066 82.9664L85.7167 82.5898C85.6933 82.5662 85.6816 82.5309 85.6816 82.4799C85.6816 82.4289 85.6933 82.3818 85.7167 82.3308L86.2821 81.1223Z" fill="#FAFAFA"/>
<path d="M85.533 97.7393C85.5018 97.7589 85.4745 97.755 85.4511 97.7354C85.4277 97.7118 85.416 97.6765 85.416 97.6255V96.9389C85.416 96.8879 85.4277 96.8408 85.4511 96.7898C85.4745 96.7388 85.5018 96.7074 85.533 96.6877L88.1413 95.1732C88.1725 95.1536 88.1998 95.1575 88.2232 95.1811C88.2466 95.2046 88.2583 95.2399 88.2583 95.2909V95.9776C88.2583 96.0286 88.2466 96.0757 88.2232 96.1267C88.1998 96.1777 88.1725 96.2091 88.1413 96.2287L85.533 97.7393Z" fill="#FAFAFA"/>
<path d="M45.3597 133.837C45.4182 133.802 45.4611 133.802 45.4923 133.833C45.5235 133.865 45.543 133.904 45.5547 133.947L46.5099 137.675C46.5216 137.714 46.5294 137.745 46.5294 137.765C46.5294 137.804 46.5216 137.847 46.5021 137.887C46.4826 137.926 46.4592 137.953 46.4358 137.969L45.8822 138.291C45.8237 138.326 45.7808 138.33 45.7574 138.306C45.734 138.283 45.7184 138.255 45.7106 138.22L45.5898 137.726L44.424 138.404L44.3031 139.04C44.2992 139.079 44.2836 139.126 44.2564 139.177C44.233 139.228 44.1901 139.276 44.1316 139.307L43.5779 139.629C43.5507 139.644 43.5273 139.644 43.5117 139.625C43.4922 139.605 43.4844 139.578 43.4844 139.535C43.4844 139.511 43.4883 139.476 43.5 139.421L44.4552 134.583C44.4669 134.528 44.4864 134.465 44.5176 134.394C44.5488 134.328 44.5917 134.277 44.6501 134.241L45.3597 133.837ZM44.6501 137.22L45.3597 136.808L45.0049 135.383L44.6501 137.22Z" fill="#FAFAFA"/>
<path d="M47.5141 134.391C47.5102 134.449 47.5102 134.536 47.5063 134.638C47.5063 134.744 47.5024 134.85 47.5024 134.963C47.5024 135.073 47.5024 135.183 47.5063 135.289C47.5063 135.395 47.5102 135.477 47.5141 135.532C47.5219 135.634 47.5336 135.725 47.5531 135.807C47.5725 135.889 47.6076 135.956 47.6505 136.003C47.6934 136.05 47.748 136.078 47.8182 136.082C47.8845 136.086 47.9702 136.058 48.0677 135.999C48.1652 135.94 48.2471 135.878 48.3133 135.803C48.3757 135.729 48.4303 135.654 48.4693 135.579C48.5083 135.505 48.5434 135.426 48.5629 135.352C48.5863 135.277 48.6019 135.207 48.6136 135.144C48.6291 135.061 48.6447 135.003 48.6603 134.963C48.6798 134.924 48.711 134.889 48.7617 134.861L49.3348 134.528C49.3621 134.512 49.3855 134.516 49.4011 134.532C49.4206 134.551 49.4284 134.579 49.4284 134.622C49.4245 134.854 49.3894 135.093 49.3193 135.34C49.2491 135.583 49.1516 135.819 49.0307 136.038C48.9099 136.258 48.7656 136.462 48.598 136.647C48.4342 136.831 48.2549 136.98 48.0599 137.09C47.8494 137.212 47.6622 137.274 47.4946 137.271C47.3308 137.271 47.1866 137.22 47.0696 137.118C46.9526 137.019 46.8629 136.874 46.8006 136.686C46.7382 136.498 46.7031 136.282 46.6914 136.038C46.6836 135.858 46.6836 135.658 46.6836 135.446C46.6836 135.234 46.6875 135.026 46.6914 134.83C46.6953 134.579 46.7304 134.32 46.7967 134.057C46.859 133.794 46.9526 133.547 47.0657 133.312C47.1827 133.076 47.323 132.864 47.4907 132.668C47.6583 132.476 47.8455 132.315 48.056 132.193C48.2471 132.079 48.4264 132.021 48.5941 132.013C48.7578 132.005 48.9021 132.04 49.0268 132.119C49.1516 132.197 49.2452 132.319 49.3154 132.48C49.3855 132.645 49.4206 132.841 49.4245 133.068C49.4245 133.108 49.4167 133.151 49.3972 133.19C49.3777 133.229 49.3543 133.257 49.3309 133.272L48.7578 133.606C48.7071 133.633 48.6759 133.641 48.6564 133.621C48.6408 133.602 48.6213 133.559 48.6097 133.496C48.598 133.449 48.5824 133.398 48.559 133.347C48.5356 133.296 48.5044 133.257 48.4654 133.229C48.4225 133.202 48.3718 133.186 48.3094 133.19C48.2432 133.19 48.1613 133.221 48.0638 133.276C47.9624 133.335 47.8806 133.406 47.8143 133.488C47.748 133.57 47.6934 133.661 47.6466 133.759C47.6037 133.857 47.5725 133.959 47.5492 134.065C47.5336 134.175 47.5219 134.285 47.5141 134.391Z" fill="#FAFAFA"/>
<path d="M72.1326 120.352C72.1014 120.371 72.0741 120.367 72.0507 120.344C72.0273 120.32 72.0156 120.285 72.0156 120.234V119.547C72.0156 119.496 72.0273 119.449 72.0507 119.398C72.0741 119.347 72.1014 119.316 72.1326 119.296L74.624 117.848C74.6552 117.829 74.6825 117.833 74.7058 117.856C74.7292 117.88 74.7409 117.915 74.7409 117.966V118.653C74.7409 118.704 74.7292 118.751 74.7058 118.802C74.6825 118.853 74.6552 118.884 74.624 118.904L72.1326 120.352ZM72.1326 122.023C72.1014 122.043 72.0741 122.039 72.0507 122.015C72.0273 121.992 72.0156 121.956 72.0156 121.905V121.219C72.0156 121.168 72.0273 121.121 72.0507 121.07C72.0741 121.019 72.1014 120.987 72.1326 120.968L74.624 119.52C74.6552 119.5 74.6825 119.504 74.7058 119.528C74.7292 119.551 74.7409 119.586 74.7409 119.637V120.324C74.7409 120.375 74.7292 120.422 74.7058 120.473C74.6825 120.524 74.6552 120.556 74.624 120.575L72.1326 122.023Z" fill="#FAFAFA"/>
<path d="M87.2372 112.41V113.532C87.2372 113.583 87.2255 113.63 87.2022 113.681C87.1788 113.732 87.1515 113.764 87.1203 113.783L86.5666 114.105C86.5354 114.125 86.5082 114.121 86.4848 114.097C86.4614 114.074 86.4497 114.038 86.4497 113.987V112.865L85.7713 113.261C85.7401 113.281 85.7128 113.277 85.6894 113.258C85.666 113.234 85.6543 113.199 85.6543 113.148V112.461C85.6543 112.41 85.666 112.363 85.6894 112.312C85.7128 112.261 85.7401 112.23 85.7713 112.21L86.4497 111.814V110.691C86.4497 110.64 86.4614 110.593 86.4848 110.542C86.5082 110.491 86.5354 110.46 86.5666 110.44L87.1203 110.119C87.1515 110.099 87.1788 110.103 87.2022 110.123C87.2255 110.146 87.2372 110.181 87.2372 110.232V111.355L87.9117 110.962C87.9429 110.943 87.9702 110.947 87.9936 110.97C88.017 110.994 88.0287 111.029 88.0287 111.08V111.767C88.0287 111.818 88.017 111.865 87.9936 111.916C87.9702 111.967 87.9429 111.998 87.9117 112.018L87.2372 112.41Z" fill="#FAFAFA"/>
<path d="M36.5721 37.0005C35.9522 38.0717 35.5701 39.2802 35.5701 40.371L35.574 146.77C35.574 147.826 35.9327 148.575 36.5136 148.944C35.8196 148.524 30.829 145.62 30.2247 145.271C29.6165 144.914 29.2383 144.153 29.2383 143.07V36.6709C29.2383 35.5841 29.6165 34.3795 30.2286 33.3162L36.5721 37.0005Z" fill="#263238"/>
<path d="M92.6535 4.44163C92.6652 4.44948 92.6769 4.45733 92.6886 4.46518C92.0765 4.08065 91.2148 4.11989 90.2557 4.67706L38.9464 34.4855C38.0185 35.023 37.1802 35.9451 36.572 37.0005L30.2285 33.3162C30.8406 32.2529 31.6828 31.3269 32.6146 30.7854L83.9239 0.973079C84.844 0.435531 85.6784 0.380599 86.2866 0.718038C86.9104 1.07117 92.0414 4.08065 92.6535 4.44163Z" fill="#455A64"/>
<path d="M88.6372 34.862V34.866C88.4773 35.1328 88.2707 35.3643 88.0368 35.4977L41.1683 62.736C40.7005 63.0068 40.3223 62.7871 40.3223 62.2456V40.1747C40.3223 39.6333 40.7005 38.9741 41.1644 38.7033L68.1837 23.0125L88.6372 34.862Z" fill="#455A64"/>
<path d="M88.8828 11.9555V34.0224C88.8828 34.2932 88.7892 34.5914 88.6371 34.8582L68.1836 23.0086L87.2998 11.8927L88.0367 11.465C88.5046 11.1943 88.8828 11.414 88.8828 11.9555Z" fill="#263238"/>
<path d="M87.2999 11.8928V33.1044C87.2999 33.6459 86.9217 34.305 86.4538 34.5758L40.3223 61.3786V40.171C40.3223 39.6295 40.7005 38.9703 41.1644 38.6996L87.2999 11.8928Z" fill="#538DF7"/>
<path opacity="0.25" d="M87.2999 11.8928V33.1044C87.2999 33.6459 86.9217 34.305 86.4538 34.5758L40.3223 61.3786V40.171C40.3223 39.6295 40.7005 38.9703 41.1644 38.6996L87.2999 11.8928Z" fill="black"/>
<path opacity="0.5" d="M49.0055 50.3214L47.3602 51.2788C46.9079 51.5417 46.518 51.5182 46.1983 51.2082C45.8786 50.8982 45.7148 50.3881 45.7148 49.6858C45.7148 49.5132 45.7538 49.3405 45.8357 49.1679C45.9176 48.9952 46.0151 48.8736 46.1281 48.8069C46.2412 48.7402 46.3387 48.748 46.4166 48.8265C46.4946 48.905 46.5336 49.0345 46.5336 49.2071C46.5336 49.5602 46.6155 49.8114 46.7753 49.9683C46.9352 50.1253 47.1301 50.137 47.3563 50.0036L49.0016 49.0462C49.2277 48.9128 49.4227 48.6774 49.5864 48.3321C49.7502 47.9908 49.8321 47.6416 49.8321 47.2884V45.664C49.5747 46.0446 49.2979 46.3232 49.0016 46.4958L47.3563 47.4532C46.904 47.7161 46.5141 47.6926 46.1944 47.3826C45.8747 47.0726 45.7109 46.5625 45.7109 45.8602V44.585C45.7109 43.8826 45.8708 43.1882 46.1944 42.5015C46.5141 41.8188 46.904 41.344 47.3563 41.0772L49.0016 40.1198C49.4617 39.853 49.8515 39.8765 50.1713 40.1865C50.491 40.4965 50.6547 41.0066 50.6547 41.7089V46.8058C50.6547 47.5081 50.4949 48.2026 50.1713 48.8893C49.8554 49.5799 49.4656 50.0546 49.0055 50.3214ZM49.836 42.1955C49.836 41.8423 49.7541 41.5912 49.5942 41.4343C49.4344 41.2773 49.2355 41.2695 49.0055 41.4029L47.3602 42.3602C47.134 42.4937 46.9391 42.7291 46.7792 43.0704C46.6194 43.4118 46.5375 43.761 46.5375 44.1102V45.3854C46.5375 45.7386 46.6194 45.9897 46.7792 46.1466C46.9391 46.3036 47.134 46.3153 47.3602 46.1819L49.0055 45.2246C49.2316 45.0911 49.4266 44.8557 49.5903 44.5104C49.7541 44.1652 49.836 43.8199 49.836 43.4667V42.1955V42.1955Z" fill="white"/>
<path opacity="0.5" d="M53.1195 41.242C53.1195 41.3283 53.139 41.3911 53.1819 41.4303C53.2248 41.4696 53.2716 41.4735 53.3262 41.4421L55.5875 40.1277C56.0437 39.8648 56.4297 39.8883 56.7494 40.1983C57.0691 40.5083 57.2329 41.0184 57.2329 41.7207V42.9959C57.2329 43.6983 57.073 44.3927 56.7494 45.0794C56.4258 45.7621 56.0398 46.2369 55.5875 46.5037L53.9422 47.4611C53.486 47.724 53.1 47.7004 52.7803 47.3905C52.4606 47.0805 52.2969 46.5704 52.2969 45.8681C52.2969 45.6876 52.3359 45.5149 52.4177 45.3423C52.4996 45.1736 52.5971 45.0559 52.7102 44.9892C52.8232 44.9224 52.9207 44.9303 52.9987 45.0048C53.0766 45.0833 53.1156 45.2089 53.1156 45.3894C53.1156 45.7425 53.1975 45.9936 53.3574 46.1506C53.5172 46.3075 53.7122 46.3193 53.9383 46.1859L55.5836 45.2285C55.8098 45.0951 56.0047 44.8597 56.1646 44.5183C56.3244 44.1769 56.4063 43.8277 56.4063 43.4785V42.2033C56.4063 41.8502 56.3244 41.5991 56.1646 41.4421C56.0047 41.2852 55.8098 41.2734 55.5836 41.4068L53.1156 42.839C52.8895 42.9724 52.6946 42.9606 52.5347 42.8036C52.3748 42.6467 52.293 42.3956 52.293 42.0424V38.8564C52.293 38.6759 52.332 38.5033 52.4099 38.3345C52.4879 38.1658 52.5854 38.0481 52.7024 37.9814L56.8157 35.5919C56.9287 35.5252 57.0223 35.533 57.1042 35.6076C57.1861 35.6821 57.2251 35.8077 57.2251 35.9842C57.2251 36.1608 57.1822 36.3335 57.1042 36.5022C57.0223 36.6709 56.9248 36.7886 56.8157 36.8553L53.3184 38.8878C53.2638 38.9192 53.2131 38.978 53.1741 39.0683C53.1351 39.1546 53.1117 39.2448 53.1117 39.339V41.242H53.1195Z" fill="white"/>
<path opacity="0.5" d="M62.1676 42.6741L60.5223 43.6315C60.07 43.8943 59.6801 43.8708 59.3604 43.5608C59.0407 43.2509 58.877 42.7408 58.877 42.0384V36.9415C58.877 36.2392 59.0368 35.5447 59.3604 34.8581C59.6801 34.1753 60.07 33.7006 60.5223 33.4338L62.1676 32.4764C62.6199 32.2135 63.0098 32.237 63.3295 32.547C63.6492 32.857 63.8129 33.3671 63.8129 34.0694V39.1663C63.8129 39.8686 63.6531 40.5631 63.3295 41.2498C63.0098 41.9364 62.6199 42.4112 62.1676 42.6741ZM60.5223 42.3563L62.1676 41.3989C62.3002 41.3204 62.4288 41.1909 62.5575 41.0104L59.6996 36.5688V41.5558C59.6996 41.909 59.7815 42.1601 59.9414 42.317C60.1012 42.4779 60.2922 42.4897 60.5223 42.3563ZM62.1676 33.7555L60.5223 34.7129C60.3858 34.7914 60.2533 34.9208 60.1285 35.1013L62.9903 39.543V34.552C62.9903 34.1989 62.9084 33.9478 62.7485 33.7908C62.5887 33.6339 62.3937 33.6221 62.1676 33.7555Z" fill="white"/>
<path opacity="0.5" d="M68.3285 39.0957L65.8605 40.5278C65.7475 40.5945 65.6539 40.5867 65.572 40.5121C65.4902 40.4376 65.4512 40.312 65.4512 40.1355C65.4512 39.9589 65.4902 39.7863 65.572 39.6136C65.6539 39.441 65.7514 39.3193 65.8605 39.2566L66.6832 38.7779V32.4018C66.6832 32.0487 66.6052 31.7976 66.4454 31.6446C66.2855 31.4915 66.0945 31.4759 65.8722 31.5975C65.8683 31.6014 65.8644 31.6014 65.8605 31.6053C65.7436 31.672 65.6461 31.6681 65.5681 31.5896C65.4902 31.5112 65.4473 31.3856 65.4473 31.209C65.4473 31.0325 65.4863 30.8598 65.5681 30.6872C65.6461 30.5145 65.7436 30.3968 65.8605 30.3301V30.3419V30.3301C66.3167 30.0672 66.7027 30.0908 67.0224 30.4008C67.346 30.7107 67.5059 31.2208 67.5059 31.9232V38.2953L68.3285 37.8166C68.4455 37.7499 68.543 37.7577 68.621 37.8362C68.6989 37.9147 68.7379 38.0441 68.7379 38.2207C68.7379 38.3973 68.6989 38.5699 68.6171 38.7386C68.5391 38.9113 68.4416 39.029 68.3285 39.0957Z" fill="white"/>
<path opacity="0.5" d="M73.6813 35.9842L72.036 36.9415C71.5837 37.2044 71.1938 37.1809 70.8741 36.8709C70.5544 36.5609 70.3906 36.0509 70.3906 35.3485V30.2477C70.3906 29.5454 70.5505 28.8509 70.8741 28.1642C71.1977 27.4815 71.5837 27.0067 72.036 26.7399L73.6813 25.7825C74.1375 25.5196 74.5235 25.5432 74.8432 25.8532C75.1629 26.1631 75.3266 26.6732 75.3266 27.3755V32.4724C75.3266 33.1748 75.1668 33.8693 74.8432 34.5559C74.5235 35.2465 74.1375 35.7213 73.6813 35.9842ZM72.036 35.6663L73.6813 34.709C73.8139 34.6305 73.9464 34.501 74.0751 34.3205L71.2172 29.8789V34.8659C71.2172 35.219 71.2991 35.4702 71.4589 35.6271C71.6149 35.7841 71.8098 35.7958 72.036 35.6663ZM73.6813 27.0617L72.036 28.019C71.8995 28.0975 71.7669 28.227 71.6422 28.4075L74.504 32.8491V27.8582C74.504 27.505 74.4221 27.2539 74.2622 27.097C74.1024 26.9439 73.9113 26.9322 73.6813 27.0617Z" fill="white"/>
<path opacity="0.5" d="M81.7878 31.0874C81.7059 31.26 81.6084 31.3817 81.4954 31.4484C81.3823 31.5151 81.2848 31.5072 81.2069 31.4327C81.1289 31.3542 81.0899 31.2286 81.0899 31.0482V27.5129C80.8326 27.8935 80.5596 28.1682 80.2672 28.3408L78.6219 29.2982C78.1696 29.5611 77.7797 29.5375 77.46 29.2276C77.1403 28.9176 76.9766 28.4075 76.9766 27.7052V24.5191C76.9766 24.3465 77.0156 24.1738 77.0935 24.0012C77.1715 23.8285 77.269 23.7108 77.3821 23.6441C77.4951 23.5774 77.5926 23.5853 77.6745 23.6637C77.7563 23.7422 77.7953 23.8678 77.7953 24.0404V27.2265C77.7953 27.5796 77.8772 27.8307 78.0371 27.9877C78.1969 28.1446 78.3919 28.1564 78.618 28.023L80.2633 27.0656C80.4895 26.9322 80.6844 26.6968 80.8443 26.3554C81.0041 26.014 81.086 25.6648 81.086 25.3156V22.1296C81.086 21.9569 81.125 21.7843 81.203 21.6116C81.2809 21.439 81.3784 21.3213 81.4915 21.2546C81.6045 21.1879 81.702 21.1957 81.7839 21.2742C81.8658 21.3527 81.9048 21.4782 81.9048 21.6509V30.5734C81.9087 30.7421 81.8697 30.9148 81.7878 31.0874Z" fill="white"/>
<path d="M86.7109 151.533C86.7109 151.282 86.5628 151.07 86.2625 150.894L84.0519 149.607L85.8142 148.583C86.1144 148.41 86.2625 148.198 86.2625 147.947V142.725C86.2625 142.474 86.1144 142.262 85.8142 142.085L81.7086 139.7C81.4123 139.527 81.0458 139.441 80.6131 139.441C80.1803 139.441 79.8138 139.527 79.5136 139.7L73.2559 143.337L66.5498 139.441C66.2535 139.268 65.887 139.182 65.4503 139.182C65.0175 139.182 64.651 139.268 64.3547 139.441L59.2355 142.415C58.9353 142.587 58.7871 142.799 58.7871 143.05V143.054V148.277C58.791 148.528 58.9353 148.74 59.2316 148.912L61.4422 150.195L59.6371 151.243C59.3408 151.416 59.1926 151.628 59.1926 151.879H59.1848V157.101H59.1926V157.105C59.1926 157.356 59.3447 157.568 59.641 157.741L63.7465 160.126C64.0467 160.299 64.4093 160.389 64.8421 160.389C65.2748 160.389 65.6413 160.299 65.9377 160.13L72.2383 156.469L78.9443 160.366C79.2445 160.538 79.6071 160.625 80.0438 160.625C80.4766 160.625 80.8431 160.538 81.1433 160.366L86.2625 157.392C86.555 157.223 86.6953 157.015 86.7031 156.772H86.707V151.549H86.7031C86.7031 151.545 86.7109 151.541 86.7109 151.533Z" fill="#538DF7"/>
<path opacity="0.25" d="M86.7109 151.533C86.7109 151.282 86.5628 151.07 86.2625 150.894L84.0519 149.607L85.8142 148.583C86.1144 148.41 86.2625 148.198 86.2625 147.947V142.725C86.2625 142.474 86.1144 142.262 85.8142 142.085L81.7086 139.7C81.4123 139.527 81.0458 139.441 80.6131 139.441C80.1803 139.441 79.8138 139.527 79.5136 139.7L73.2559 143.337L66.5498 139.441C66.2535 139.268 65.887 139.182 65.4503 139.182C65.0175 139.182 64.651 139.268 64.3547 139.441L59.2355 142.415C58.9353 142.587 58.7871 142.799 58.7871 143.05V143.054V148.277C58.791 148.528 58.9353 148.74 59.2316 148.912L61.4422 150.195L59.6371 151.243C59.3408 151.416 59.1926 151.628 59.1926 151.879H59.1848V157.101H59.1926V157.105C59.1926 157.356 59.3447 157.568 59.641 157.741L63.7465 160.126C64.0467 160.299 64.4093 160.389 64.8421 160.389C65.2748 160.389 65.6413 160.299 65.9377 160.13L72.2383 156.469L78.9443 160.366C79.2445 160.538 79.6071 160.625 80.0438 160.625C80.4766 160.625 80.8431 160.538 81.1433 160.366L86.2625 157.392C86.555 157.223 86.6953 157.015 86.7031 156.772H86.707V151.549H86.7031C86.7031 151.545 86.7109 151.541 86.7109 151.533Z" fill="black"/>
<path opacity="0.25" d="M78.5703 149.905H84.559L84.0521 149.611L85.8144 148.587C86.1146 148.414 86.2628 148.202 86.2628 147.951V142.729C86.2628 142.477 86.1146 142.266 85.8144 142.089L84.8046 141.5H78.5742V149.905H78.5703Z" fill="black"/>
<path opacity="0.25" d="M80.0547 160.629C80.4836 160.629 80.8461 160.542 81.1425 160.37L86.2617 157.395C86.5541 157.227 86.6945 157.019 86.7023 156.776H86.7062V151.553H86.7023C86.7023 151.545 86.7062 151.541 86.7062 151.537C86.7062 151.435 86.6633 151.341 86.6165 151.255H80.0508V160.629H80.0547Z" fill="black"/>
<path opacity="0.25" d="M59.2355 142.419C58.9353 142.591 58.7871 142.803 58.7871 143.054V143.058V148.281C58.791 148.532 58.9353 148.744 59.2316 148.916L61.4423 150.199H67.5206V141.999H59.9568L59.2355 142.419Z" fill="black"/>
<path opacity="0.25" d="M64.8691 160.389C65.2902 160.385 65.6489 160.303 65.9374 160.134L72.238 156.473V151.251H64.8691V160.389Z" fill="black"/>
<path d="M79.5565 146.998L86.2625 150.894C86.5628 151.067 86.7109 151.278 86.7109 151.533C86.7109 151.785 86.5628 151.996 86.2625 152.173L81.1433 155.147C80.8431 155.32 80.4805 155.406 80.0438 155.406C79.611 155.406 79.2445 155.32 78.9443 155.147L72.2383 151.251L65.9377 154.912C65.6413 155.084 65.2748 155.171 64.8421 155.171C64.4093 155.171 64.0467 155.084 63.7465 154.908L59.641 152.522C59.3447 152.35 59.1926 152.138 59.1926 151.887C59.1926 151.635 59.3447 151.42 59.641 151.247L65.9416 147.586L59.2355 143.69C58.9392 143.517 58.791 143.305 58.7871 143.05C58.7871 142.799 58.9353 142.587 59.2355 142.415L64.3547 139.441C64.6549 139.268 65.0175 139.182 65.4503 139.182C65.887 139.182 66.2496 139.268 66.5498 139.441L73.2559 143.337L79.5136 139.7C79.8138 139.527 80.1764 139.441 80.6131 139.441C81.0458 139.441 81.4123 139.527 81.7086 139.7L85.8142 142.085C86.1144 142.258 86.2625 142.47 86.2625 142.725C86.2625 142.976 86.1144 143.188 85.8142 143.36L79.5565 146.998Z" fill="#538DF7"/>
<path d="M114.682 131.479L116.444 130.455C116.744 130.283 116.892 130.071 116.892 129.82V124.597C116.892 124.346 116.744 124.134 116.444 123.958L112.338 121.572C112.042 121.399 111.675 121.313 111.243 121.313C110.81 121.313 110.443 121.399 110.143 121.572L103.886 125.209L92.0719 132.072L90.2667 133.119C89.9704 133.292 89.8223 133.504 89.8223 133.755H89.8145V138.978H89.8223V138.981C89.8223 139.233 89.9743 139.444 90.2706 139.617L94.3761 142.003C94.6764 142.175 95.039 142.266 95.4717 142.266C95.9045 142.266 96.271 142.175 96.5673 142.007L102.868 138.346L114.682 131.479Z" fill="#538DF7"/>
<path opacity="0.25" d="M114.682 131.479L116.444 130.455C116.744 130.283 116.892 130.071 116.892 129.82V124.597C116.892 124.346 116.744 124.134 116.444 123.958L112.338 121.572C112.042 121.399 111.675 121.313 111.243 121.313C110.81 121.313 110.443 121.399 110.143 121.572L103.886 125.209L92.0719 132.072L90.2667 133.119C89.9704 133.292 89.8223 133.504 89.8223 133.755H89.8145V138.978H89.8223V138.981C89.8223 139.233 89.9743 139.444 90.2706 139.617L94.3761 142.003C94.6764 142.175 95.039 142.266 95.4717 142.266C95.9045 142.266 96.271 142.175 96.5673 142.007L102.868 138.346L114.682 131.479Z" fill="black"/>
<path opacity="0.25" d="M95.5488 135.995V142.246C95.9426 142.234 96.2896 142.164 96.5664 142.003L102.867 138.342L114.681 131.479L116.443 130.455C116.743 130.283 116.891 130.071 116.891 129.82V124.597C116.891 124.346 116.743 124.134 116.443 123.958L114.548 122.855L95.5488 135.995Z" fill="black"/>
<path d="M110.186 128.87L102.868 133.119L96.5673 136.78C96.271 136.953 95.9045 137.039 95.4717 137.039C95.039 137.039 94.6764 136.953 94.3762 136.776L90.2706 134.391C89.9743 134.218 89.8223 134.006 89.8223 133.755C89.8223 133.504 89.9743 133.288 90.2706 133.116L96.5712 129.455L103.889 125.205L110.147 121.568C110.447 121.395 110.81 121.309 111.247 121.309C111.683 121.309 112.046 121.395 112.342 121.568L116.448 123.954C116.748 124.126 116.896 124.338 116.896 124.593C116.896 124.844 116.748 125.056 116.448 125.229L110.186 128.87Z" fill="#538DF7"/>
<g clip-path="url(#clip0)">
<path d="M130.742 126.912L117.928 145.913C117.558 146.466 116.691 146.229 116.647 145.564L115.178 122.55L130.742 126.912Z" fill="#EDC446"/>
<path d="M116.652 145.57C116.696 146.235 117.557 146.471 117.933 145.919L120.434 142.209C119.018 142.539 117.537 142.049 116.592 140.947L116.336 140.647L116.652 145.57Z" fill="#263238"/>
<path d="M140.433 29.2581L139.88 31.3053L139.205 33.7722L115.178 122.55C116.325 124.868 118.514 126.479 120.925 127.393C124.596 128.795 128.796 128.606 130.733 126.909L154.739 38.1876L156.017 33.4659C155.021 36.4741 139.472 32.291 140.433 29.2581Z" fill="#538DF7"/>
<path opacity="0.25" d="M140.433 29.2581L139.88 31.3053L139.205 33.7722L115.178 122.55C116.325 124.868 118.514 126.479 120.925 127.393C124.596 128.795 128.796 128.606 130.733 126.909L154.739 38.1876L156.017 33.4659C155.021 36.4741 139.472 32.291 140.433 29.2581Z" fill="black"/>
<path d="M138.298 37.0462L137.068 41.6218C136.671 42.9342 139.276 44.5537 142.474 45.7309C146.719 47.3069 152.152 47.5102 152.689 45.7724L153.601 42.4023L153.904 41.1929C153.371 42.932 147.931 42.737 143.688 41.1562C140.628 40.0213 138.097 38.4731 138.269 37.1927L138.273 37.1783C138.27 37.1312 138.28 37.0928 138.298 37.0462Z" fill="#EBEBEB"/>
<path d="M138.003 38.1903C137.068 41.2406 152.674 45.3873 153.614 42.3383L154.859 37.7618C153.924 40.8121 138.313 36.6641 139.253 33.6151L138.003 38.1903Z" fill="#538DF7"/>
<path d="M140.432 29.2581L139.204 33.7722C138.265 36.7598 153.291 40.8898 154.744 38.1841C154.776 38.1413 154.798 38.0802 154.819 38.0192L156.023 33.4624C155.021 36.4741 139.471 32.291 140.432 29.2581Z" fill="#EBEBEB"/>
<path d="M161.278 14.0934C161.287 14.0598 161.32 13.9351 161.329 13.9015C161.92 11.6946 158.908 8.96848 154.598 7.81192C150.293 6.65665 146.319 7.50821 145.729 9.71509L145.172 11.7972L140.433 29.258C140.023 30.557 142.593 32.1722 145.764 33.3573C150.004 34.9477 155.454 35.1862 156.023 33.4623C156.029 33.4588 156.029 33.4588 156.033 33.4444L161.251 14.2146C161.252 14.1894 161.275 14.103 161.278 14.0934Z" fill="#E35492"/>
<path opacity="0.2" d="M152.461 15.8047C156.769 16.9608 160.74 16.1087 161.33 13.9015C161.921 11.6944 158.907 8.968 154.599 7.81195C150.291 6.65591 146.32 7.50799 145.73 9.71513C145.139 11.9223 148.153 14.6487 152.461 15.8047Z" fill="white"/>
<path opacity="0.1" d="M154.739 38.1875L161.278 14.0934C160.666 15.9552 156.959 16.8731 153.391 16.0544L123.152 128.073L117.926 145.922L130.74 126.921L130.73 126.919L154.739 38.1875Z" fill="black"/>
</g>
<defs>
<clipPath id="clip0">
<rect width="31.3515" height="143.358" fill="white" transform="matrix(0.965829 0.259181 -0.258457 0.966023 135.049 2.56592)"/>
</clipPath>
</defs>
</svg>
