<svg width="183" height="180" viewBox="0 0 183 180" fill="none" xmlns="http://www.w3.org/2000/svg">
<g clip-path="url(#clip0)">
<path opacity="0.1" d="M91.5018 180C141.497 180 182.027 156.659 182.027 127.866C182.027 99.0736 141.497 75.7324 91.5018 75.7324C41.5061 75.7324 0.976562 99.0736 0.976562 127.866C0.976562 156.659 41.5061 180 91.5018 180Z" fill="#538DF7"/>
<path opacity="0.1" d="M123.236 95.7972L104.833 85.1778C103.899 84.6396 102.382 84.6396 101.447 85.1778L7.97425 139.012C7.03983 139.55 7.03983 140.424 7.97425 140.962L26.3772 151.581C27.3116 152.12 28.8286 152.12 29.763 151.581L64.7939 131.407L70.1776 134.531C73.0278 136.173 77.6529 136.173 80.5031 134.531L96.5563 125.355C99.4065 123.713 99.4065 121.053 96.5563 119.411L91.1766 116.291L123.24 97.7511C124.174 97.209 124.174 96.3354 123.236 95.7972Z" fill="#538DF7"/>
<path d="M80.5043 132.979L94.3329 125.004C95.7599 124.181 96.4715 123.109 96.4715 122.032C96.4715 120.956 96.4793 120.113 96.4793 120.113L83.4639 112.747C82.7055 112.31 82.0877 111.245 82.0877 110.368V93.3601L57.9297 107.283V124.29C57.9297 125.168 58.5474 126.232 59.3059 126.669L70.1788 132.979C73.0289 134.621 77.6541 134.621 80.5043 132.979Z" fill="#37474F"/>
<path d="M63.7317 127.301V129.212L59.3059 126.665C58.5513 126.228 57.9297 125.167 57.9297 124.286V107.279L62.5314 104.631C62.6252 105.797 62.7308 107.002 62.8246 108.176L59.5991 110.04V123.327C59.5991 124.208 60.213 125.269 60.9753 125.706L63.7317 127.301Z" fill="#263238"/>
<path d="M59.5996 123.331C59.5996 124.208 60.2174 125.273 60.9758 125.71L70.1793 131.064C73.0294 132.706 77.6546 132.706 80.5048 131.064L94.3412 123.089C97.1914 121.447 97.1914 118.787 94.3412 117.145L85.13 111.791C84.3676 111.354 83.7537 110.289 83.7537 109.412V96.1211L59.5957 110.044V123.331H59.5996Z" fill="#455A64"/>
<path opacity="0.15" d="M87.9371 113.402L85.1339 111.783C84.3715 111.346 83.7576 110.282 83.7576 109.404V96.1133L59.5996 110.036V123.327C59.5996 124.204 60.2173 125.269 60.9758 125.706L63.7322 127.293L87.9371 113.402Z" fill="black"/>
<path d="M96.4755 120.113C96.4755 120.113 96.4755 120.952 96.4755 122.032C96.4755 123.108 95.76 124.181 94.3369 125.004L80.5044 132.975C79.136 133.767 77.3649 134.165 75.5781 134.196V132.285C77.3649 132.261 79.1399 131.848 80.5044 131.064L94.3369 123.085C95.76 122.27 96.4755 121.194 96.4755 120.113Z" fill="#37474F"/>
<path d="M20.812 141.68C21.7034 142.195 23.1969 142.167 24.147 141.617C36.0246 134.777 105.695 94.6548 117.569 87.8182C118.519 87.2722 119.29 85.9385 119.29 84.8465V3.28004C119.29 2.18416 118.566 0.881596 117.675 0.366808C116.783 -0.147979 115.29 -0.120679 114.34 0.429207L20.9215 54.2284C19.9714 54.7744 19.2012 56.1081 19.2012 57.2001V138.767C19.1973 139.862 19.9206 141.169 20.812 141.68Z" fill="#455A64"/>
<path d="M24.1461 141.617L117.568 87.8181C118.518 87.2721 119.289 85.9383 119.289 84.8464V3.276C119.289 2.18013 118.518 1.73944 117.568 2.28543L24.15 56.0885C23.1999 56.6345 22.4297 57.9682 22.4297 59.0602V140.627C22.4258 141.723 23.196 142.163 24.1461 141.617Z" fill="#37474F"/>
<path d="M25.6562 129.851V60.1289C25.6562 59.4737 26.1176 58.6742 26.6884 58.3466L115.028 7.47242C115.599 7.14483 116.06 7.41003 116.06 8.06521L116.064 77.7877C116.064 78.4428 115.603 79.2423 115.032 79.5699L26.6884 130.448C26.1176 130.776 25.6562 130.51 25.6562 129.851Z" fill="#538DF7"/>
<path opacity="0.7" d="M25.6562 129.851V60.1289C25.6562 59.4737 26.1176 58.6742 26.6884 58.3466L115.028 7.47242C115.599 7.14483 116.06 7.41003 116.06 8.06521L116.064 77.7877C116.064 78.4428 115.603 79.2423 115.032 79.5699L26.6884 130.448C26.1176 130.776 25.6562 130.51 25.6562 129.851Z" fill="white"/>
<path d="M70.6787 111.416C70.491 111.416 70.3151 111.374 70.1626 111.284C69.7951 111.073 69.5918 110.64 69.5918 110.071C69.5918 108.963 70.3425 107.665 71.3042 107.111C71.8008 106.826 72.2738 106.787 72.6414 106.998C73.0089 107.208 73.2122 107.641 73.2122 108.211C73.2122 109.318 72.4615 110.617 71.4997 111.171C71.2143 111.335 70.9367 111.416 70.6787 111.416ZM72.1214 107.255C71.9337 107.255 71.7226 107.322 71.4997 107.45C70.6631 107.93 69.9828 109.108 69.9828 110.071C69.9828 110.496 70.1157 110.804 70.3581 110.945C70.6005 111.085 70.9367 111.042 71.3042 110.831C72.1409 110.348 72.8212 109.174 72.8212 108.211C72.8212 107.786 72.6883 107.478 72.4459 107.337C72.352 107.283 72.2426 107.255 72.1214 107.255Z" fill="#538DF7"/>
<path d="M131.406 20.5913L40.4238 72.928V139.815C40.4238 140.704 41.3895 141.266 42.1636 140.821L43.7862 139.889L129.71 90.4698C130.644 89.9316 131.406 88.6212 131.406 87.5409V20.5913V20.5913Z" fill="#F0F0F0"/>
<path d="M131.015 21.266V87.537C131.015 88.473 130.327 89.6586 129.514 90.1305L43.5907 139.55L41.9682 140.482C41.847 140.552 41.7218 140.587 41.5889 140.587C41.3934 140.587 41.194 140.509 41.0494 140.369C40.8969 140.225 40.8148 140.03 40.8148 139.815V73.1503L131.015 21.266ZM131.406 20.5913L40.4238 72.928V139.815C40.4238 140.49 40.979 140.977 41.5889 140.977C41.7805 140.977 41.9799 140.927 42.1636 140.821L43.7862 139.889L129.71 90.4698C130.644 89.9316 131.406 88.6212 131.406 87.5409V20.5913V20.5913Z" fill="#E0E0E0"/>
<path opacity="0.8" d="M129.246 19.3472L38.2559 71.68L40.4218 72.9279L131.404 20.5912L129.246 19.3472Z" fill="#455A64"/>
<path d="M41.0318 140.837C41.0318 140.837 40.4218 140.541 40.4218 139.815V74.8545C40.4218 74.3202 40.4218 72.9279 40.4218 72.9279L38.2598 71.6799L38.2559 138.201C38.2559 138.282 38.2598 138.364 38.2715 138.446C38.3497 138.996 38.6742 139.484 39.1551 139.757L40.9418 140.786L41.0318 140.837Z" fill="#EBEBEB"/>
<path d="M38.2559 71.7113V67.1952C38.2559 66.657 38.6351 66.0018 39.1004 65.7288L128.402 14.3788C128.867 14.1058 129.626 14.1058 130.091 14.3749L130.556 14.644C131.025 14.9131 131.404 15.5683 131.404 16.1065V20.6265L40.4218 72.9554L38.2559 71.7113Z" fill="#538DF7"/>
<path opacity="0.3" d="M38.2559 71.7113V67.1952C38.2559 66.657 38.6351 66.0018 39.1004 65.7288L128.402 14.3788C128.867 14.1058 129.626 14.1058 130.091 14.3749L130.556 14.644C131.025 14.9131 131.404 15.5683 131.404 16.1065V20.6265L40.4218 72.9554L38.2559 71.7113Z" fill="black"/>
<path d="M40.4238 68.4434C40.4238 67.9052 40.8031 67.25 41.2683 66.977L130.562 15.6231C131.027 15.3501 131.406 15.5685 131.406 16.1067V20.6267L40.4238 72.9556V68.4434Z" fill="#538DF7"/>
<path opacity="0.4" d="M40.4238 68.4434C40.4238 67.9052 40.8031 67.25 41.2683 66.977L130.562 15.6231C131.027 15.3501 131.406 15.5685 131.406 16.1067V20.6267L40.4238 72.9556V68.4434Z" fill="black"/>
<path d="M40.6701 67.6086C40.5176 67.8738 40.4238 68.1741 40.4238 68.4432V72.9553L38.2617 71.7113V67.1952C38.2617 66.9261 38.3556 66.6297 38.508 66.3645L40.6701 67.6086Z" fill="#538DF7"/>
<path opacity="0.5" d="M40.6701 67.6086C40.5176 67.8738 40.4238 68.1741 40.4238 68.4432V72.9553L38.2617 71.7113V67.1952C38.2617 66.9261 38.3556 66.6297 38.508 66.3645L40.6701 67.6086Z" fill="black"/>
<path d="M127.432 20.4196C127.432 20.9266 127.787 21.1294 128.225 20.8759C128.663 20.6224 129.019 20.0102 129.019 19.5032C129.019 18.9962 128.663 18.7934 128.225 19.0469C127.787 19.3004 127.432 19.9166 127.432 20.4196Z" fill="#FAFAFA"/>
<path d="M124.258 22.2487C124.258 22.7557 124.614 22.9585 125.051 22.705C125.489 22.4515 125.845 21.8393 125.845 21.3323C125.845 20.8253 125.489 20.6225 125.051 20.876C124.614 21.1295 124.258 21.7457 124.258 22.2487Z" fill="#FAFAFA"/>
<path d="M121.084 24.0778C121.084 24.5848 121.44 24.7876 121.878 24.5341C122.316 24.2806 122.671 23.6684 122.671 23.1614C122.671 22.6544 122.316 22.4516 121.878 22.7051C121.44 22.9586 121.084 23.5748 121.084 24.0778Z" fill="#FAFAFA"/>
<path d="M40.4238 72.9553V139.815C40.4238 140.704 41.3895 141.266 42.1636 140.821L43.7862 139.889L63.667 128.455V59.5864L40.4238 72.9553Z" fill="#FAFAFA"/>
<path d="M65.2539 60.7137V125.655L129.498 88.6565V23.7192L65.2539 60.7137Z" fill="#FAFAFA"/>
<path d="M58.3456 67.4333L43.5161 75.9819C43.2424 76.1418 43.0195 76.5239 43.0195 76.8398V78.3803C43.0195 78.6962 43.2424 78.8249 43.5161 78.665L58.3456 70.1164C58.6192 69.9565 58.8421 69.5743 58.8421 69.2584V67.718C58.8421 67.4021 58.6192 67.2734 58.3456 67.4333Z" fill="#538DF7"/>
<path opacity="0.8" d="M58.3456 67.4333L43.5161 75.9819C43.2424 76.1418 43.0195 76.5239 43.0195 76.8398V78.3803C43.0195 78.6962 43.2424 78.8249 43.5161 78.665L58.3456 70.1164C58.6192 69.9565 58.8421 69.5743 58.8421 69.2584V67.718C58.8421 67.4021 58.6192 67.2734 58.3456 67.4333Z" fill="#FAFAFA"/>
<path d="M61.6501 68.0457L61.2122 67.6245C61.2982 67.4061 61.3529 67.1643 61.3529 66.9264C61.3529 66.5715 61.2356 66.2985 61.0245 66.1776C60.8681 66.0879 60.6765 66.0957 60.4928 66.201C60.1096 66.4233 59.8047 67.0434 59.8047 67.6167C59.8047 67.9716 59.922 68.2446 60.1331 68.3655C60.2074 68.4084 60.2856 68.4279 60.3677 68.4279C60.4654 68.4279 60.5671 68.4006 60.6648 68.3421C60.8095 68.2602 60.9424 68.1198 61.0519 67.9443L61.4116 68.2875C61.4428 68.3187 61.4859 68.3343 61.5289 68.3343C61.5758 68.3343 61.6188 68.3148 61.654 68.2836C61.7204 68.2173 61.7165 68.1081 61.6501 68.0457ZM60.4928 68.0457C60.4185 68.0886 60.352 68.0964 60.3051 68.0691C60.2348 68.0262 60.1487 67.8858 60.1487 67.6167C60.1487 67.1721 60.3833 66.6573 60.6648 66.4974C60.7117 66.4701 60.7508 66.4584 60.7899 66.4584C60.8134 66.4584 60.8329 66.4623 60.8525 66.474C60.9229 66.5169 61.0089 66.6573 61.0089 66.9264C61.005 67.3749 60.7704 67.8858 60.4928 68.0457Z" fill="#455A64"/>
<path d="M43.3831 83.1806L43.0508 83.3717C43.0313 83.3834 43.0156 83.3717 43.0156 83.3444V82.4475C43.0156 82.4202 43.0313 82.3929 43.0508 82.3812L43.3831 82.1901C43.4027 82.1784 43.4183 82.1901 43.4183 82.2174V83.1143C43.4183 83.1416 43.4027 83.1689 43.3831 83.1806Z" fill="#455A64"/>
<path d="M43.8792 82.8962L43.5469 83.0873C43.5274 83.099 43.5117 83.0873 43.5117 83.06V82.163C43.5117 82.1357 43.5274 82.1084 43.5469 82.0967L43.8792 81.9056C43.8988 81.8939 43.9144 81.9056 43.9144 81.9329V82.8299C43.9144 82.8533 43.8988 82.8845 43.8792 82.8962Z" fill="#455A64"/>
<path d="M44.3792 82.6074L44.0469 82.7985C44.0274 82.8102 44.0117 82.7985 44.0117 82.7712V81.8742C44.0117 81.8469 44.0274 81.8196 44.0469 81.8079L44.3792 81.6168C44.3988 81.6051 44.4144 81.6168 44.4144 81.6441V82.5411C44.4144 82.5684 44.3988 82.5957 44.3792 82.6074Z" fill="#455A64"/>
<path d="M43.3831 84.3388L43.0508 84.5299C43.0313 84.5416 43.0156 84.5299 43.0156 84.5026V83.6057C43.0156 83.5784 43.0313 83.5511 43.0508 83.5394L43.3831 83.3483C43.4027 83.3366 43.4183 83.3483 43.4183 83.3756V84.2725C43.4183 84.2998 43.4027 84.3271 43.3831 84.3388Z" fill="#455A64"/>
<path d="M43.8792 84.0542L43.5469 84.2453C43.5274 84.257 43.5117 84.2453 43.5117 84.218V83.321C43.5117 83.2937 43.5274 83.2664 43.5469 83.2547L43.8792 83.0636C43.8988 83.0519 43.9144 83.0636 43.9144 83.0909V83.9879C43.9144 84.0113 43.8988 84.0425 43.8792 84.0542Z" fill="#455A64"/>
<path d="M44.3792 83.7656L44.0469 83.9567C44.0274 83.9684 44.0117 83.9567 44.0117 83.9294V83.0324C44.0117 83.0051 44.0274 82.9778 44.0469 82.9661L44.3792 82.775C44.3988 82.7633 44.4144 82.775 44.4144 82.8023V83.6993C44.4144 83.7266 44.3988 83.7539 44.3792 83.7656Z" fill="#455A64"/>
<path d="M43.434 87.4008L43.0234 87.1512C43.0078 87.1434 43.0078 87.1044 43.0234 87.0771L43.434 86.3556C43.4535 86.3205 43.4809 86.3244 43.4809 86.3634V87.3345C43.4848 87.3735 43.4535 87.4125 43.434 87.4008Z" fill="#455A64"/>
<path d="M43.2598 86.8506L43.7994 86.5386V86.796L43.2598 87.108C43.2129 87.1353 43.1777 87.1002 43.1777 87.03C43.1777 86.9559 43.2168 86.8779 43.2598 86.8506Z" fill="#455A64"/>
<path d="M43.9004 86.484L44.0841 86.3748V86.6321L43.9004 86.7374V86.484Z" fill="#455A64"/>
<path d="M44.5804 86.2189V87.1587C44.5804 87.2289 44.5413 87.3069 44.4983 87.3342C44.4514 87.3615 44.4162 87.3264 44.4162 87.2562V86.4451L44.1895 86.5776V86.3203L44.5022 86.1409C44.5413 86.1136 44.5804 86.1487 44.5804 86.2189Z" fill="#455A64"/>
<path d="M43.5933 89.5063C43.2102 89.7676 42.9521 90.493 43.0264 91.0273C43.0929 91.5186 43.3861 91.4991 43.4174 91.7253C43.4213 91.7487 43.4369 91.7604 43.4565 91.7487L43.8201 91.542C43.8396 91.5303 43.8553 91.503 43.8592 91.4757C43.8983 91.1754 44.2697 90.8128 44.2736 90.0874C44.2697 89.5258 43.9648 89.2528 43.5933 89.5063Z" fill="#455A64"/>
<path d="M43.8109 92.1309L43.459 92.3337C43.4356 92.3493 43.416 92.3337 43.416 92.3025V91.9788C43.416 91.9476 43.4356 91.9086 43.459 91.8969L43.8109 91.6941C43.8343 91.6785 43.8539 91.6941 43.8539 91.7253V92.049C43.8539 92.0763 43.8343 92.1153 43.8109 92.1309Z" fill="#455A64"/>
<path d="M43.6797 81.921C43.3552 82.1862 43.0932 82.74 43.0424 83.2665C43.0111 83.5746 43.0502 83.8242 43.1362 84.0036L43.0189 84.6159C43.0111 84.6666 43.0385 84.6939 43.0659 84.6627L43.4216 84.2766C43.5702 84.3234 43.7461 84.2805 43.9377 84.1245C44.2622 83.8554 44.5242 83.3055 44.575 82.7751C44.6571 81.921 44.2075 81.4881 43.6797 81.921ZM43.8048 83.9334C43.4803 84.1206 43.2144 83.8671 43.2144 83.364C43.2144 82.8648 43.4803 82.3032 43.8048 82.116C44.1293 81.9288 44.3952 82.1823 44.3952 82.6854C44.3991 83.1846 44.1332 83.7462 43.8048 83.9334Z" fill="#455A64"/>
<path d="M43.6797 93.7573C43.3552 94.0225 43.0932 94.5763 43.0424 95.1028C43.0111 95.4109 43.0502 95.6605 43.1362 95.8399L43.0189 96.4522C43.0111 96.5029 43.0385 96.5302 43.0659 96.499L43.4216 96.1129C43.5702 96.1597 43.7461 96.1168 43.9377 95.9608C44.2622 95.6917 44.5242 95.1418 44.575 94.6114C44.6571 93.7534 44.2075 93.3244 43.6797 93.7573ZM43.8048 95.7658C43.4803 95.953 43.2144 95.6995 43.2144 95.1964C43.2144 94.6972 43.4803 94.1356 43.8048 93.9484C44.1293 93.7612 44.3952 94.0147 44.3952 94.5178C44.3991 95.0209 44.1332 95.5786 43.8048 95.7658Z" fill="#455A64"/>
<path d="M44.1802 98.0942C44.1802 98.3594 44.0395 98.6558 43.8675 98.7533C43.6954 98.8508 43.5547 98.7182 43.5547 98.453C43.5547 98.1878 43.6954 97.8914 43.8675 97.7939C44.0395 97.6964 44.1802 97.829 44.1802 98.0942Z" fill="#455A64"/>
<path d="M44.7152 98.1878C44.7152 98.3633 44.6214 98.5622 44.508 98.6285C44.3946 98.6948 44.3008 98.6051 44.3008 98.4296C44.3008 98.2541 44.3946 98.0552 44.508 97.9889C44.6214 97.9226 44.7152 98.0123 44.7152 98.1878Z" fill="#455A64"/>
<path d="M44.235 99.9816L43.4961 100.407V99.4746C43.4961 99.2796 43.6173 99.0495 43.762 98.9676L43.9653 98.8506C44.1138 98.7648 44.2311 98.8545 44.2311 99.0534V99.9816H44.235Z" fill="#455A64"/>
<path d="M44.5392 98.7338L44.3359 98.8508V99.9233L44.7191 99.701V98.8664C44.7191 98.7377 44.637 98.6792 44.5392 98.7338Z" fill="#455A64"/>
<path d="M43.0195 99.1669C43.0195 99.3424 43.1134 99.4321 43.2267 99.3658C43.3401 99.2995 43.434 99.1045 43.434 98.9251C43.434 98.7496 43.3401 98.6599 43.2267 98.7262C43.1134 98.7925 43.0195 98.9875 43.0195 99.1669Z" fill="#455A64"/>
<path d="M43.1955 99.5098L43.3988 99.3928V100.465L43.0156 100.688V99.853C43.0156 99.7204 43.0938 99.5683 43.1955 99.5098Z" fill="#455A64"/>
<path d="M46.6195 81.0788L55.303 76.0791C55.5375 75.9426 55.7252 76.0401 55.7252 76.2936C55.7252 76.5471 55.5375 76.8591 55.303 76.9956L46.6195 81.9953C46.3849 82.1318 46.1973 82.0343 46.1973 81.7808C46.1973 81.5273 46.3849 81.2114 46.6195 81.0788Z" fill="#E0E0E0"/>
<path d="M46.6195 85.154L55.303 80.1543C55.5375 80.0178 55.7252 80.1153 55.7252 80.3688C55.7252 80.6223 55.5375 80.9343 55.303 81.0708L46.6195 86.0705C46.3849 86.207 46.1973 86.1095 46.1973 85.856C46.1973 85.6025 46.3849 85.2905 46.6195 85.154Z" fill="#E0E0E0"/>
<path d="M46.6195 89.2295L55.303 84.2298C55.5375 84.0933 55.7252 84.1908 55.7252 84.4443C55.7252 84.6978 55.5375 85.0098 55.303 85.1463L46.6195 90.1459C46.3849 90.2824 46.1973 90.1849 46.1973 89.9314C46.1973 89.6779 46.3849 89.3659 46.6195 89.2295Z" fill="#E0E0E0"/>
<path d="M46.6195 93.3088L55.303 88.3091C55.5375 88.1726 55.7252 88.2701 55.7252 88.5236C55.7252 88.7771 55.5375 89.0891 55.303 89.2256L46.6195 94.2253C46.3849 94.3618 46.1973 94.2643 46.1973 94.0108C46.1973 93.7573 46.3849 93.4414 46.6195 93.3088Z" fill="#E0E0E0"/>
<path d="M46.6195 97.3842L55.303 92.3846C55.5375 92.2481 55.7252 92.3456 55.7252 92.5991C55.7252 92.8526 55.5375 93.1645 55.303 93.301L46.6195 98.3007C46.3849 98.4372 46.1973 98.3397 46.1973 98.0862C46.1973 97.8327 46.3849 97.5168 46.6195 97.3842Z" fill="#E0E0E0"/>
<path d="M48.2074 100.711L56.8908 95.711C57.1254 95.5745 57.3131 95.672 57.3131 95.9255C57.3131 96.179 57.1254 96.491 56.8908 96.6275L48.2074 101.627C47.9728 101.764 47.7852 101.666 47.7852 101.413C47.7852 101.159 47.9767 100.847 48.2074 100.711Z" fill="#455A64"/>
<path d="M48.2074 103.468L56.8908 98.4683C57.1254 98.3318 57.3131 98.4293 57.3131 98.6828C57.3131 98.9363 57.1254 99.2483 56.8908 99.3848L48.2074 104.384C47.9728 104.521 47.7852 104.423 47.7852 104.17C47.7852 103.916 47.9767 103.601 48.2074 103.468Z" fill="#E0E0E0"/>
<path d="M48.2074 106.221L56.8908 101.222C57.1254 101.085 57.3131 101.183 57.3131 101.436C57.3131 101.69 57.1254 102.002 56.8908 102.138L48.2074 107.138C47.9728 107.274 47.7852 107.177 47.7852 106.923C47.7852 106.67 47.9767 106.354 48.2074 106.221Z" fill="#E0E0E0"/>
<path d="M49.9008 107.969L58.5842 102.969C58.8188 102.833 59.0065 102.93 59.0065 103.184C59.0065 103.437 58.8188 103.749 58.5842 103.886L49.9008 108.885C49.6662 109.022 49.4785 108.924 49.4785 108.671C49.4785 108.417 49.6662 108.105 49.9008 107.969Z" fill="#E0E0E0"/>
<path d="M47.8673 110.34L48.571 109.099C48.5984 109.053 48.5984 108.99 48.571 108.975L47.8673 108.546C47.8321 108.526 47.7852 108.593 47.7852 108.655V110.324C47.7852 110.39 47.836 110.398 47.8673 110.34Z" fill="#455A64"/>
<path d="M49.9008 110.714L58.5842 105.715C58.8188 105.578 59.0065 105.676 59.0065 105.929C59.0065 106.183 58.8188 106.495 58.5842 106.631L49.9008 111.631C49.6662 111.767 49.4785 111.67 49.4785 111.416C49.4785 111.163 49.6662 110.851 49.9008 110.714Z" fill="#E0E0E0"/>
<path d="M47.8673 113.085L48.571 111.845C48.5984 111.798 48.5984 111.736 48.571 111.72L47.8673 111.291C47.8321 111.272 47.7852 111.338 47.7852 111.4V113.069C47.7852 113.136 47.836 113.144 47.8673 113.085Z" fill="#455A64"/>
<path d="M49.9008 113.459L58.5843 108.46C58.8188 108.323 59.0065 108.421 59.0065 108.674C59.0065 108.928 58.8188 109.24 58.5843 109.376L49.9008 114.376C49.6662 114.512 49.4786 114.415 49.4786 114.161C49.4747 113.908 49.6662 113.592 49.9008 113.459Z" fill="#E0E0E0"/>
<path d="M47.8673 115.827L48.571 114.587C48.5984 114.54 48.5984 114.477 48.571 114.462L47.8673 114.033C47.8321 114.013 47.7852 114.08 47.7852 114.142V115.811C47.7852 115.877 47.836 115.889 47.8673 115.827Z" fill="#455A64"/>
<path d="M49.9008 116.201L58.5843 111.201C58.8188 111.065 59.0065 111.162 59.0065 111.416C59.0065 111.669 58.8188 111.981 58.5843 112.118L49.9008 117.118C49.6662 117.254 49.4786 117.157 49.4786 116.903C49.4747 116.65 49.6662 116.338 49.9008 116.201Z" fill="#E0E0E0"/>
<path d="M47.8673 118.572L48.571 117.332C48.5984 117.285 48.5984 117.223 48.571 117.207L47.8673 116.778C47.8321 116.759 47.7852 116.825 47.7852 116.888V118.557C47.7852 118.623 47.836 118.631 47.8673 118.572Z" fill="#455A64"/>
<path d="M49.9008 118.947L58.5843 113.947C58.8188 113.811 59.0065 113.908 59.0065 114.162C59.0065 114.415 58.8188 114.727 58.5843 114.864L49.9008 119.863C49.6662 120 49.4786 119.902 49.4786 119.649C49.4747 119.395 49.6662 119.083 49.9008 118.947Z" fill="#E0E0E0"/>
<path d="M47.8673 121.318L48.571 120.078C48.5984 120.031 48.5984 119.969 48.571 119.953L47.8673 119.524C47.8321 119.504 47.7852 119.571 47.7852 119.633V121.302C47.7852 121.369 47.836 121.376 47.8673 121.318Z" fill="#455A64"/>
<path d="M49.9008 121.692L58.5843 116.693C58.8188 116.556 59.0065 116.654 59.0065 116.907C59.0065 117.161 58.8188 117.473 58.5843 117.609L49.9008 122.609C49.6662 122.745 49.4786 122.648 49.4786 122.394C49.4747 122.141 49.6662 121.825 49.9008 121.692Z" fill="#E0E0E0"/>
<path d="M47.8673 124.06L48.571 122.819C48.5984 122.773 48.5984 122.71 48.571 122.695L47.8673 122.266C47.8321 122.246 47.7852 122.312 47.7852 122.375V124.044C47.7852 124.11 47.836 124.122 47.8673 124.06Z" fill="#455A64"/>
<path d="M49.9008 124.434L58.5843 119.434C58.8188 119.298 59.0065 119.395 59.0065 119.649C59.0065 119.902 58.8188 120.214 58.5843 120.351L49.9008 125.351C49.6662 125.487 49.4786 125.39 49.4786 125.136C49.4747 124.883 49.6662 124.571 49.9008 124.434Z" fill="#E0E0E0"/>
<path d="M47.8673 126.805L48.571 125.565C48.5984 125.518 48.5984 125.456 48.571 125.44L47.8673 125.011C47.8321 124.992 47.7852 125.058 47.7852 125.12V126.789C47.7852 126.856 47.836 126.863 47.8673 126.805Z" fill="#455A64"/>
<path d="M49.9008 127.179L58.5843 122.18C58.8188 122.043 59.0065 122.141 59.0065 122.394C59.0065 122.648 58.8188 122.96 58.5843 123.096L49.9008 128.096C49.6662 128.232 49.4786 128.135 49.4786 127.881C49.4747 127.628 49.6662 127.316 49.9008 127.179Z" fill="#E0E0E0"/>
<path d="M47.8673 129.551L48.571 128.31C48.5984 128.264 48.5984 128.201 48.571 128.186L47.8673 127.757C47.8321 127.737 47.7852 127.803 47.7852 127.866V129.535C47.7852 129.601 47.836 129.609 47.8673 129.551Z" fill="#455A64"/>
<path d="M67.268 69.6212L95.8049 53.187C96.0395 53.0505 96.2272 52.7268 96.2272 52.4538V45.2C96.2272 44.9309 96.0395 44.8217 95.8049 44.9543L67.268 61.3846C67.0334 61.5211 66.8458 61.8448 66.8458 62.1139V69.3755C66.8419 69.6485 67.0334 69.7577 67.268 69.6212Z" fill="#F0F0F0"/>
<path d="M69.754 64.5004C69.754 64.4965 69.754 64.4926 69.7579 64.4848L69.9456 63.7048L69.6875 63.853C69.6797 63.8569 69.6758 63.8569 69.6719 63.853C69.668 63.8491 69.6641 63.8413 69.6641 63.8296V63.6892C69.6641 63.6775 69.668 63.6697 69.6719 63.658C69.6758 63.6463 69.6836 63.6424 69.6875 63.6385L70.102 63.4006C70.1098 63.3967 70.1137 63.3967 70.1176 63.4006C70.1215 63.4045 70.1254 63.4123 70.1254 63.424V63.5488C70.1254 63.5644 70.1215 63.5878 70.1098 63.6229L69.9221 64.4029C69.9182 64.4107 69.9182 64.4224 69.9143 64.4302C69.9104 64.438 69.9065 64.4458 69.8986 64.4497L69.7774 64.5199C69.7735 64.5238 69.7657 64.5238 69.7618 64.5199C69.7579 64.516 69.754 64.5082 69.754 64.5004Z" fill="#455A64"/>
<path d="M70.4455 63.1862C70.4885 63.1628 70.5276 63.1511 70.5589 63.1511C70.5902 63.1511 70.6176 63.1628 70.6371 63.1862C70.6567 63.2057 70.6723 63.2369 70.684 63.2759C70.6958 63.3149 70.6997 63.3578 70.6997 63.4046C70.6997 63.4436 70.6997 63.4826 70.6997 63.5255C70.6997 63.5684 70.6997 63.6074 70.6997 63.6425C70.6997 63.6932 70.6919 63.74 70.684 63.7907C70.6723 63.8414 70.6567 63.8882 70.6371 63.9311C70.6176 63.974 70.5902 64.0169 70.5589 64.0559C70.5276 64.0949 70.4885 64.1261 70.4455 64.1495C70.4025 64.1729 70.3634 64.1846 70.3322 64.1846C70.3009 64.1846 70.2735 64.1729 70.254 64.1495C70.2344 64.13 70.2188 64.0988 70.207 64.0598C70.1953 64.0208 70.1914 63.9779 70.1875 63.9311C70.1875 63.896 70.1875 63.857 70.1875 63.8141C70.1875 63.7712 70.1875 63.7322 70.1875 63.6932C70.1875 63.6425 70.1953 63.5957 70.207 63.545C70.2188 63.4943 70.2305 63.4475 70.254 63.4046C70.2735 63.3578 70.3009 63.3188 70.3322 63.2798C70.3673 63.2447 70.4025 63.2135 70.4455 63.1862ZM70.5394 63.7244C70.5433 63.6464 70.5433 63.5723 70.5394 63.5021C70.5394 63.4787 70.5355 63.4631 70.5316 63.4436C70.5276 63.428 70.5237 63.4124 70.5159 63.4046C70.5081 63.3968 70.5003 63.389 70.4885 63.389C70.4768 63.389 70.4612 63.3929 70.4455 63.4007C70.4299 63.4124 70.4143 63.4241 70.4025 63.4358C70.3908 63.4514 70.383 63.467 70.3752 63.4865C70.3673 63.506 70.3634 63.5216 70.3595 63.545C70.3556 63.5645 70.3556 63.5879 70.3556 63.6113C70.3517 63.6854 70.3517 63.7595 70.3556 63.8336C70.3556 63.857 70.3595 63.8765 70.3595 63.8921C70.3634 63.9077 70.3673 63.9233 70.3752 63.9311C70.383 63.9389 70.3908 63.9467 70.4025 63.9467C70.4143 63.9467 70.4299 63.9428 70.4455 63.935C70.4612 63.9233 70.4768 63.9116 70.4885 63.8999C70.5003 63.8843 70.5081 63.8687 70.5159 63.8492C70.5237 63.8297 70.5276 63.8102 70.5316 63.7907C70.5355 63.7712 70.5394 63.7478 70.5394 63.7244Z" fill="#455A64"/>
<path d="M71.0471 63.038C71.0471 63.0731 71.0471 63.1082 71.0471 63.1394C71.0471 63.1667 71.0432 63.194 71.0354 63.2174C71.0315 63.2447 71.0197 63.2681 71.0119 63.2915C71.0002 63.3149 70.9846 63.3383 70.9689 63.3578C70.9533 63.3773 70.9337 63.3929 70.9103 63.4046C70.8868 63.4163 70.8673 63.4241 70.8516 63.4241C70.836 63.4241 70.8204 63.4163 70.8086 63.4085C70.7969 63.3968 70.7891 63.3812 70.7852 63.3617C70.7773 63.3422 70.7773 63.3188 70.7734 63.2954C70.7734 63.2798 70.7734 63.2603 70.7734 63.2447C70.7734 63.2291 70.7734 63.2135 70.7734 63.194C70.7734 63.1667 70.7773 63.1394 70.7852 63.1121C70.7891 63.0848 70.8008 63.0614 70.8086 63.038C70.8204 63.0146 70.8321 62.9912 70.8516 62.9717C70.8673 62.9522 70.8868 62.9366 70.9103 62.9249C70.9337 62.9132 70.9533 62.9054 70.9689 62.9054C70.9846 62.9054 71.0002 62.9093 71.0119 62.921C71.0237 62.9327 71.0315 62.9483 71.0393 62.9678C71.0432 62.9873 71.0432 63.0107 71.0471 63.038ZM71.2621 62.7572C71.2661 62.7455 71.27 62.7377 71.2739 62.7299C71.2778 62.7221 71.2856 62.7182 71.2934 62.7143L71.3638 62.6714C71.3716 62.6675 71.3755 62.6675 71.3794 62.6714C71.3833 62.6753 71.3833 62.6792 71.3833 62.687C71.3833 62.687 71.3833 62.6909 71.3833 62.6948C71.3833 62.6987 71.3833 62.7026 71.3794 62.7026L70.9494 63.8141C70.9455 63.8258 70.9416 63.8336 70.9376 63.8414C70.9337 63.8492 70.9259 63.8531 70.9181 63.857L70.8477 63.896C70.8399 63.8999 70.836 63.8999 70.8321 63.896C70.8282 63.8921 70.8282 63.8882 70.8282 63.8804C70.8282 63.8804 70.8282 63.8765 70.8282 63.8726C70.8282 63.8687 70.8282 63.8648 70.8321 63.8648L71.2621 62.7572ZM70.8751 63.2291C70.8751 63.2525 70.879 63.2681 70.8829 63.2759C70.8868 63.2837 70.8985 63.2837 70.9103 63.2798C70.922 63.272 70.9298 63.2603 70.9376 63.2486C70.9416 63.233 70.9455 63.2135 70.9455 63.1901C70.9455 63.1589 70.9455 63.1316 70.9455 63.1004C70.9455 63.077 70.9416 63.0614 70.9376 63.0536C70.9337 63.0458 70.9259 63.0458 70.9103 63.0536C70.8985 63.0614 70.8907 63.0731 70.8829 63.0848C70.879 63.1004 70.8751 63.1199 70.8751 63.1433C70.8712 63.1745 70.8712 63.2018 70.8751 63.2291ZM71.4498 63.272C71.4498 63.3071 71.4498 63.3422 71.4498 63.3734C71.4498 63.4007 71.4459 63.428 71.4381 63.4514C71.4342 63.4787 71.4224 63.5021 71.4146 63.5255C71.4029 63.5489 71.3912 63.5723 71.3716 63.5918C71.356 63.6113 71.3364 63.6269 71.313 63.6386C71.2895 63.6503 71.27 63.6581 71.2543 63.6581C71.2387 63.6581 71.223 63.6542 71.2113 63.6425C71.1996 63.6308 71.1918 63.6152 71.1879 63.5957C71.184 63.5762 71.18 63.5528 71.1761 63.5294C71.1761 63.5138 71.1761 63.4943 71.1761 63.4787C71.1761 63.4631 71.1761 63.4475 71.1761 63.428C71.1761 63.4007 71.18 63.3734 71.1879 63.35C71.1957 63.3227 71.2035 63.2993 71.2113 63.2759C71.223 63.2525 71.2348 63.2291 71.2543 63.2096C71.27 63.1901 71.2895 63.1745 71.313 63.1589C71.3364 63.1472 71.356 63.1394 71.3716 63.1394C71.3873 63.1394 71.4029 63.1433 71.4146 63.155C71.4264 63.1667 71.4342 63.1823 71.4381 63.2018C71.4459 63.2252 71.4459 63.2447 71.4498 63.272ZM71.2778 63.467C71.2778 63.4904 71.2817 63.506 71.2856 63.5138C71.2895 63.5216 71.2973 63.5216 71.313 63.5138C71.3247 63.506 71.3325 63.4943 71.3403 63.4826C71.3442 63.467 71.3482 63.4475 71.3482 63.4241C71.3482 63.3929 71.3482 63.3656 71.3482 63.3344C71.3482 63.311 71.3442 63.2954 71.3403 63.2876C71.3364 63.2798 71.3247 63.2798 71.313 63.2837C71.3012 63.2915 71.2895 63.3032 71.2856 63.3149C71.2817 63.3305 71.2778 63.35 71.2778 63.3734C71.2739 63.4085 71.2739 63.4358 71.2778 63.467Z" fill="#455A64"/>
<path d="M69.7508 62.2659L69.4654 61.8252C69.1527 62.3595 68.9103 62.9952 68.7891 63.6464L69.2504 63.6113C69.3403 63.1278 69.5202 62.6559 69.7508 62.2659Z" fill="#E35492"/>
<path d="M70.5596 61.3921V60.6433C70.149 60.8773 69.7737 61.2985 69.4648 61.8211L69.7502 62.2618C69.977 61.8796 70.2546 61.5676 70.5596 61.3921Z" fill="#E35492"/>
<path d="M69.184 64.3019C69.184 64.0757 69.2075 63.8417 69.2505 63.6116L68.7891 63.6467C68.7305 63.9587 68.6992 64.2746 68.6992 64.5827C68.6992 64.8907 68.7305 65.1715 68.7891 65.4133L69.2505 64.9141C69.2075 64.7347 69.184 64.5281 69.184 64.3019Z" fill="#E35492"/>
<path d="M72.3293 61.6029C72.2081 61.092 71.9657 60.7332 71.6529 60.5616C71.3441 60.3939 70.9687 60.4095 70.5582 60.6435V61.3923C70.8592 61.2168 71.1407 61.209 71.3675 61.3338C71.5982 61.4586 71.778 61.7238 71.868 62.1021C71.911 62.2815 71.9344 62.4882 71.9344 62.7144C71.9344 62.9406 71.911 63.1746 71.868 63.4047C71.778 63.8843 71.5982 64.3562 71.3675 64.7501C71.1407 65.1362 70.8632 65.4482 70.5582 65.6198C70.2572 65.7953 69.9757 65.8031 69.7489 65.6783C69.5182 65.5535 69.3384 65.2883 69.2485 64.91L68.7871 65.4092C68.9083 65.9201 69.1507 66.2789 69.4635 66.4505C69.7724 66.6182 70.1477 66.6026 70.5582 66.3686C70.9687 66.1346 71.3441 65.7134 71.6529 65.1908C71.9657 64.6565 72.2081 64.0208 72.3293 63.3696C72.3879 63.0576 72.4192 62.7417 72.4192 62.4336C72.4192 62.1255 72.3879 61.8486 72.3293 61.6029Z" fill="#538DF7"/>
<path d="M75.2094 59.5556L83.8928 54.5559C84.1274 54.4195 84.315 54.517 84.315 54.7704C84.315 55.0239 84.1274 55.3359 83.8928 55.4724L75.2094 60.4721C74.9748 60.6086 74.7871 60.5111 74.7871 60.2576C74.7871 60.0041 74.9748 59.6921 75.2094 59.5556Z" fill="#455A64"/>
<path d="M75.2094 61.4003L90.2461 52.7425C90.4807 52.606 90.6683 52.7035 90.6683 52.957C90.6683 53.2105 90.4807 53.5225 90.2461 53.6589L75.2094 62.3167C74.9748 62.4532 74.7871 62.3557 74.7871 62.1022C74.7871 61.8487 74.9748 61.5368 75.2094 61.4003Z" fill="#E0E0E0"/>
<path d="M98.2328 51.7831L126.77 35.3489C127.004 35.2124 127.192 34.8887 127.192 34.6157V27.3619C127.192 27.0928 127.004 26.9836 126.77 27.1162L98.2328 43.5465C97.9982 43.683 97.8105 44.0067 97.8105 44.2796V51.5413C97.8105 51.8104 97.9982 51.9196 98.2328 51.7831Z" fill="#F0F0F0"/>
<path d="M100.859 45.9994C100.859 45.9487 100.867 45.898 100.879 45.8473C100.895 45.7966 100.91 45.7537 100.938 45.7108C100.961 45.6679 100.988 45.6328 101.02 45.5977C101.051 45.5665 101.082 45.5392 101.114 45.5197C101.145 45.5002 101.176 45.4924 101.207 45.4885C101.239 45.4846 101.266 45.4924 101.289 45.508C101.313 45.5236 101.332 45.547 101.348 45.5782C101.364 45.6094 101.368 45.6523 101.368 45.703C101.368 45.7303 101.368 45.7537 101.364 45.7771C101.36 45.8005 101.356 45.8239 101.348 45.8473C101.344 45.8707 101.336 45.8902 101.329 45.9136C101.321 45.9331 101.313 45.9565 101.305 45.976L101.141 46.4206C101.137 46.4284 101.133 46.4323 101.133 46.444C101.129 46.4518 101.125 46.4596 101.117 46.4635L100.981 46.5415C100.977 46.5454 100.973 46.5454 100.969 46.5415C100.965 46.5376 100.965 46.5298 100.965 46.522C100.965 46.5181 100.965 46.5142 100.965 46.5103C100.965 46.5064 100.965 46.5025 100.969 46.5025L101.078 46.1983C101.051 46.21 101.024 46.2139 100.996 46.21C100.969 46.2061 100.949 46.1983 100.93 46.1827C100.91 46.1671 100.895 46.1437 100.883 46.1125C100.867 46.0852 100.859 46.0462 100.859 45.9994ZM101.207 45.7966C101.207 45.781 101.203 45.7654 101.2 45.7537C101.196 45.742 101.188 45.7342 101.18 45.7303C101.172 45.7264 101.16 45.7225 101.149 45.7225C101.137 45.7225 101.125 45.7264 101.114 45.7342C101.102 45.742 101.09 45.7498 101.078 45.7615C101.067 45.7732 101.059 45.7888 101.047 45.8044C101.039 45.82 101.031 45.8356 101.027 45.8551C101.024 45.8707 101.02 45.8902 101.02 45.9097C101.02 45.9292 101.024 45.9409 101.027 45.9526C101.031 45.9643 101.039 45.9721 101.047 45.976C101.055 45.9799 101.067 45.9838 101.078 45.9838C101.09 45.9838 101.102 45.9799 101.114 45.9721C101.125 45.9643 101.137 45.9565 101.149 45.9448C101.16 45.9331 101.168 45.9175 101.18 45.9019C101.188 45.8863 101.196 45.8707 101.2 45.8512C101.207 45.8317 101.207 45.8161 101.207 45.7966Z" fill="#455A64"/>
<path d="M101.696 45.1843C101.739 45.1609 101.778 45.1492 101.809 45.1492C101.84 45.1492 101.868 45.1609 101.887 45.1843C101.907 45.2038 101.922 45.235 101.934 45.274C101.946 45.313 101.95 45.3559 101.95 45.4027C101.95 45.4417 101.95 45.4807 101.95 45.5236C101.95 45.5665 101.95 45.6055 101.95 45.6406C101.95 45.6913 101.942 45.7381 101.934 45.7888C101.922 45.8395 101.907 45.8863 101.887 45.9292C101.868 45.9721 101.84 46.015 101.809 46.0539C101.778 46.0929 101.739 46.1242 101.696 46.1475C101.653 46.1709 101.613 46.1826 101.582 46.1826C101.551 46.1826 101.524 46.1709 101.504 46.1475C101.484 46.128 101.469 46.0968 101.457 46.0579C101.445 46.0189 101.441 45.976 101.441 45.9292C101.441 45.8941 101.441 45.8551 101.441 45.8122C101.441 45.7693 101.441 45.7303 101.441 45.6913C101.441 45.6406 101.449 45.5938 101.457 45.5431C101.469 45.4924 101.484 45.4456 101.504 45.4027C101.524 45.3559 101.551 45.3169 101.582 45.2779C101.613 45.2428 101.653 45.2116 101.696 45.1843ZM101.785 45.7225C101.789 45.6445 101.789 45.5704 101.785 45.5002C101.785 45.4768 101.782 45.4612 101.778 45.4417C101.774 45.4261 101.77 45.4105 101.762 45.4027C101.754 45.3949 101.746 45.3871 101.735 45.3871C101.723 45.3871 101.707 45.391 101.692 45.3988C101.672 45.4105 101.66 45.4222 101.649 45.4339C101.637 45.4495 101.629 45.4651 101.621 45.4846C101.613 45.5041 101.61 45.5197 101.606 45.5431C101.602 45.5626 101.602 45.586 101.602 45.6094C101.598 45.6835 101.598 45.7576 101.602 45.8317C101.602 45.8551 101.606 45.8746 101.606 45.8902C101.61 45.9058 101.613 45.9214 101.621 45.9292C101.629 45.937 101.637 45.9448 101.649 45.9448C101.66 45.9448 101.676 45.9409 101.692 45.9331C101.707 45.9214 101.723 45.9097 101.735 45.898C101.746 45.8824 101.754 45.8668 101.762 45.8473C101.77 45.8278 101.774 45.8083 101.778 45.7888C101.785 45.7693 101.785 45.7459 101.785 45.7225Z" fill="#455A64"/>
<path d="M102.293 45.036C102.293 45.0711 102.293 45.1062 102.293 45.1374C102.293 45.1647 102.289 45.192 102.281 45.2154C102.278 45.2427 102.266 45.2661 102.258 45.2895C102.246 45.3129 102.231 45.3363 102.215 45.3558C102.199 45.3753 102.18 45.3909 102.156 45.4026C102.133 45.4143 102.113 45.4221 102.098 45.4221C102.082 45.4221 102.066 45.4143 102.055 45.4065C102.043 45.3948 102.035 45.3792 102.031 45.3597C102.023 45.3402 102.023 45.3168 102.02 45.2934C102.02 45.2778 102.02 45.2583 102.02 45.2427C102.02 45.2271 102.02 45.2115 102.02 45.192C102.02 45.1647 102.023 45.1374 102.031 45.1101C102.035 45.0828 102.047 45.0594 102.055 45.036C102.066 45.0126 102.078 44.9892 102.098 44.9697C102.113 44.9502 102.133 44.9346 102.156 44.9229C102.18 44.9112 102.199 44.9034 102.215 44.9034C102.231 44.9034 102.246 44.9073 102.258 44.919C102.27 44.9307 102.278 44.9463 102.285 44.9658C102.289 44.9853 102.293 45.0087 102.293 45.036ZM102.512 44.7552C102.516 44.7435 102.52 44.7357 102.524 44.7279C102.528 44.7201 102.536 44.7162 102.543 44.7123L102.614 44.6694C102.622 44.6655 102.626 44.6655 102.629 44.6694C102.633 44.6733 102.633 44.6772 102.633 44.685C102.633 44.685 102.633 44.6889 102.633 44.6928C102.633 44.6967 102.633 44.7006 102.629 44.7006L102.199 45.8121C102.195 45.8238 102.192 45.8316 102.188 45.8394C102.184 45.8472 102.176 45.8511 102.168 45.855L102.098 45.8979C102.09 45.9018 102.086 45.9018 102.082 45.8979C102.078 45.894 102.078 45.8901 102.078 45.8823C102.078 45.8823 102.078 45.8784 102.078 45.8745C102.078 45.8706 102.078 45.8667 102.082 45.8667L102.512 44.7552ZM102.121 45.231C102.121 45.2544 102.125 45.27 102.129 45.2778C102.133 45.2856 102.145 45.2856 102.156 45.2817C102.168 45.2739 102.176 45.2622 102.184 45.2505C102.188 45.2349 102.192 45.2154 102.192 45.192C102.192 45.1608 102.192 45.1335 102.192 45.1023C102.192 45.0789 102.188 45.0633 102.184 45.0555C102.18 45.0477 102.172 45.0477 102.156 45.0555C102.145 45.0633 102.137 45.075 102.129 45.0867C102.125 45.1023 102.121 45.1218 102.121 45.1452C102.121 45.1725 102.121 45.1998 102.121 45.231ZM102.696 45.27C102.696 45.3051 102.696 45.3402 102.696 45.3714C102.696 45.3987 102.692 45.426 102.684 45.4494C102.68 45.4767 102.669 45.5001 102.661 45.5235C102.649 45.5469 102.637 45.5703 102.618 45.5898C102.602 45.6093 102.583 45.6249 102.559 45.6366C102.536 45.6483 102.516 45.6561 102.5 45.6561C102.485 45.6561 102.469 45.6522 102.457 45.6405C102.446 45.6288 102.438 45.6132 102.434 45.5937C102.43 45.5742 102.426 45.5508 102.422 45.5274C102.422 45.5118 102.422 45.4923 102.422 45.4767C102.422 45.4611 102.422 45.4416 102.422 45.426C102.422 45.3987 102.426 45.3714 102.434 45.348C102.438 45.3207 102.45 45.2973 102.457 45.2739C102.469 45.2505 102.481 45.2271 102.5 45.2115C102.516 45.192 102.536 45.1764 102.559 45.1608C102.583 45.1491 102.602 45.1413 102.618 45.1413C102.633 45.1413 102.649 45.1452 102.661 45.1569C102.672 45.1686 102.68 45.1842 102.684 45.2037C102.692 45.2232 102.696 45.2427 102.696 45.27ZM102.524 45.465C102.524 45.4884 102.528 45.504 102.532 45.5118C102.536 45.5196 102.543 45.5196 102.559 45.5118C102.571 45.504 102.579 45.4923 102.586 45.4806C102.59 45.465 102.594 45.4455 102.594 45.4221C102.594 45.3909 102.594 45.3636 102.594 45.3324C102.594 45.309 102.59 45.2934 102.586 45.2856C102.583 45.2778 102.571 45.2778 102.559 45.2817C102.547 45.2895 102.536 45.3012 102.532 45.3129C102.528 45.3285 102.524 45.348 102.524 45.3714C102.524 45.4065 102.524 45.4338 102.524 45.465Z" fill="#455A64"/>
<path d="M101.782 43.4058V42.657C101.372 42.891 100.996 43.3122 100.688 43.8348L100.973 44.2754C101.2 43.8933 101.481 43.5813 101.782 43.4058Z" fill="#E35492"/>
<path d="M103.554 43.6166C103.433 43.1057 103.19 42.7469 102.878 42.5753C102.569 42.4076 102.193 42.4232 101.783 42.6572V43.406C102.084 43.2305 102.365 43.2227 102.592 43.3475C102.823 43.4723 103.003 43.7375 103.093 44.1158C103.136 44.2951 103.159 44.5018 103.159 44.728C103.159 44.9542 103.136 45.1882 103.093 45.4183C103.003 45.898 102.827 46.366 102.592 46.7599C102.365 47.1421 102.084 47.458 101.783 47.6335C101.482 47.809 101.2 47.8168 100.974 47.692C100.743 47.5672 100.563 47.302 100.473 46.9237C100.43 46.7443 100.407 46.5376 100.407 46.3114C100.407 46.0852 100.43 45.8512 100.473 45.6211C100.563 45.1414 100.743 44.6695 100.974 44.2756L100.688 43.835C100.375 44.3692 100.133 45.0049 100.012 45.6562C99.9532 45.9682 99.9219 46.2841 99.9219 46.5922C99.9219 46.9003 99.9532 47.1811 100.012 47.4229C100.133 47.9338 100.375 48.2925 100.688 48.4641C100.997 48.6318 101.372 48.6162 101.783 48.3822C102.193 48.1483 102.569 47.7271 102.878 47.2045C103.19 46.6702 103.433 46.0345 103.554 45.3832C103.613 45.0712 103.644 44.7553 103.644 44.4472C103.644 44.1392 103.613 43.8584 103.554 43.6166Z" fill="#538DF7"/>
<path d="M106.422 41.5693L115.106 36.5696C115.34 36.4331 115.528 36.5306 115.528 36.7841C115.528 37.0376 115.34 37.3496 115.106 37.4861L106.422 42.4858C106.188 42.6223 106 42.5248 106 42.2713C106 42.0178 106.188 41.7058 106.422 41.5693Z" fill="#455A64"/>
<path d="M106.422 43.4139L121.459 34.7561C121.694 34.6196 121.881 34.7171 121.881 34.9706C121.881 35.2241 121.694 35.5361 121.459 35.6726L106.422 44.3304C106.188 44.4669 106 44.3694 106 44.1159C106 43.8624 106.188 43.5504 106.422 43.4139Z" fill="#E0E0E0"/>
<path d="M70.1722 71.61L76.2636 68.0923C76.4981 67.9558 76.6858 68.0533 76.6858 68.3068C76.6858 68.5603 76.4981 68.8723 76.2636 69.0088L70.1722 72.5265C69.9377 72.663 69.75 72.5655 69.75 72.312C69.75 72.0585 69.9416 71.7465 70.1722 71.61Z" fill="#455A64"/>
<path d="M126.801 41.2726V87.6698C126.801 87.7985 126.688 87.9974 126.574 88.0637L67.2367 122.235V75.8375C67.2367 75.7088 67.3501 75.5099 67.4634 75.4436L68.2063 75.0146C68.5582 74.8118 68.824 74.3516 68.824 73.946V71.2629C68.824 71.1342 68.9374 70.9353 69.0508 70.869L77.57 65.9629V68.4589C77.57 68.9112 77.8828 69.1491 78.1956 69.1491C78.3246 69.1491 78.4536 69.114 78.5787 69.0399L126.801 41.2726ZM126.957 40.7812C126.899 40.7812 126.836 40.8008 126.77 40.8397L78.3832 68.7046C78.3168 68.7435 78.2503 68.7631 78.1956 68.7631C78.0548 68.7631 77.961 68.6539 77.961 68.4628V65.7796C77.961 65.5885 77.8671 65.4793 77.7264 65.4793C77.6678 65.4793 77.6052 65.4988 77.5387 65.5378L68.8553 70.5375C68.6207 70.674 68.433 70.9977 68.433 71.2707V73.9538C68.433 74.2229 68.2454 74.5505 68.0108 74.687L67.268 75.116C67.0334 75.2525 66.8457 75.5762 66.8457 75.8492V122.434C66.8457 122.625 66.9395 122.734 67.0803 122.734C67.1389 122.734 67.2015 122.714 67.268 122.675L126.77 88.4069C127.004 88.2704 127.192 87.9467 127.192 87.6737V41.0893C127.192 40.8904 127.098 40.7812 126.957 40.7812Z" fill="#E0E0E0"/>
<path d="M70.6683 77.8615C70.5941 77.8615 70.5237 77.842 70.4611 77.8069C70.3204 77.725 70.2383 77.5651 70.2383 77.3662V75.5956C70.2383 75.2602 70.469 74.8624 70.7583 74.6947L75.4773 71.9804C75.6493 71.879 75.8331 71.8712 75.9738 71.9492C76.1146 72.0311 76.1967 72.191 76.1967 72.3899V74.1604C76.1967 74.4958 75.966 74.8936 75.6767 75.0613L70.9577 77.7757C70.8599 77.8342 70.7622 77.8615 70.6683 77.8615ZM70.9577 75.034C70.7856 75.1354 70.6332 75.3967 70.6332 75.5956V77.3662C70.6332 77.4325 70.6527 77.4676 70.6605 77.4715C70.6683 77.4754 70.7074 77.4754 70.7661 77.4403L75.4851 74.7259C75.6571 74.6245 75.8096 74.3632 75.8096 74.1643V72.3938C75.8096 72.3275 75.79 72.2924 75.7822 72.2885C75.7744 72.2846 75.7353 72.2846 75.6767 72.3197L70.9577 75.034Z" fill="#E0E0E0"/>
<path d="M71.2346 75.7634L74.3116 73.9851C74.468 73.8954 74.5931 73.9578 74.5931 74.1255C74.5931 74.2931 74.468 74.5037 74.3116 74.5934L71.2346 76.3718C71.0782 76.4615 70.9531 76.3991 70.9531 76.2275C70.9531 76.0637 71.0821 75.8531 71.2346 75.7634Z" fill="#E0E0E0"/>
<path d="M75.0281 73.6923L75.2822 74.055C75.2901 74.0706 75.3096 74.0589 75.3213 74.0316L75.5755 73.3765C75.5872 73.3453 75.5755 73.3141 75.5559 73.3258L75.0477 73.6182C75.0281 73.6299 75.0164 73.6728 75.0281 73.6923Z" fill="#455A64"/>
<path d="M70.0199 95.0019C70.2467 94.8733 70.4265 94.9785 70.4265 95.2359C70.4265 95.4972 70.2427 95.8131 70.0199 95.9418C69.7931 96.0705 69.6133 95.9652 69.6133 95.7078C69.6133 95.4465 69.7931 95.1306 70.0199 95.0019Z" fill="#538DF7"/>
<path d="M73.1937 91.3437C73.4205 91.215 73.6003 91.3203 73.6003 91.5777C73.6003 91.839 73.4166 92.1549 73.1937 92.2836C72.967 92.4123 72.7871 92.307 72.7871 92.0496C72.7871 91.7922 72.9709 91.4724 73.1937 91.3437Z" fill="#538DF7"/>
<path d="M76.3734 89.5146C76.6002 89.3859 76.78 89.4912 76.78 89.7486C76.78 90.0099 76.5963 90.3258 76.3734 90.4545C76.1466 90.5832 75.9668 90.4779 75.9668 90.2205C75.9668 89.9631 76.1466 89.6433 76.3734 89.5146Z" fill="#538DF7"/>
<path d="M79.5472 88.4888C79.774 88.3601 79.9538 88.4654 79.9538 88.7228C79.9538 88.9801 79.7701 89.2999 79.5472 89.4286C79.3205 89.5573 79.1406 89.452 79.1406 89.1946C79.1406 88.9334 79.3244 88.6175 79.5472 88.4888Z" fill="#538DF7"/>
<path d="M82.7289 85.1934C82.9557 85.0647 83.1355 85.17 83.1355 85.4274C83.1355 85.6886 82.9518 86.0045 82.7289 86.1332C82.5022 86.2619 82.3223 86.1566 82.3223 85.8992C82.3184 85.6379 82.5022 85.3221 82.7289 85.1934Z" fill="#538DF7"/>
<path d="M85.9008 84.0273C86.1275 83.8986 86.3074 84.0039 86.3074 84.2613C86.3074 84.5226 86.1236 84.8385 85.9008 84.9672C85.674 85.0959 85.4941 84.9906 85.4941 84.7332C85.4941 84.4719 85.674 84.156 85.9008 84.0273Z" fill="#538DF7"/>
<path d="M89.0765 80.3655C89.3033 80.2368 89.4831 80.3421 89.4831 80.5995C89.4831 80.8608 89.2994 81.1766 89.0765 81.3053C88.8498 81.434 88.6699 81.3287 88.6699 81.0714C88.6699 80.814 88.8537 80.4981 89.0765 80.3655Z" fill="#538DF7"/>
<path d="M92.2543 79.4526C92.481 79.3239 92.6609 79.4292 92.6609 79.6866C92.6609 79.9479 92.4771 80.2638 92.2543 80.3925C92.0275 80.5212 91.8477 80.4159 91.8477 80.1585C91.8477 79.9011 92.0275 79.5813 92.2543 79.4526Z" fill="#538DF7"/>
<path d="M95.4281 69.3909C95.6549 69.2622 95.8347 69.3675 95.8347 69.6249C95.8347 69.8862 95.651 70.202 95.4281 70.3307C95.2013 70.4594 95.0215 70.3541 95.0215 70.0967C95.0215 69.8394 95.2052 69.5196 95.4281 69.3909Z" fill="#538DF7"/>
<path d="M98.6058 74.8782C98.8326 74.7495 99.0124 74.8548 99.0124 75.1122C99.0124 75.3735 98.8287 75.6894 98.6058 75.8181C98.3791 75.9468 98.1992 75.8414 98.1992 75.5841C98.1992 75.3267 98.3791 75.0108 98.6058 74.8782Z" fill="#538DF7"/>
<path d="M101.784 74.8782C102.01 74.7495 102.19 74.8548 102.19 75.1122C102.19 75.3735 102.006 75.6894 101.784 75.8181C101.557 75.9468 101.377 75.8414 101.377 75.5841C101.377 75.3267 101.557 75.0108 101.784 74.8782Z" fill="#538DF7"/>
<path d="M104.957 74.8782C105.184 74.7495 105.364 74.8548 105.364 75.1122C105.364 75.3696 105.18 75.6894 104.957 75.8181C104.735 75.9468 104.551 75.8414 104.551 75.5841C104.551 75.3267 104.735 75.0108 104.957 74.8782Z" fill="#538DF7"/>
<path d="M108.135 69.3909C108.362 69.2622 108.542 69.3675 108.542 69.6249C108.542 69.8862 108.358 70.202 108.135 70.3307C107.908 70.4594 107.729 70.3541 107.729 70.0967C107.725 69.8355 107.908 69.5196 108.135 69.3909Z" fill="#538DF7"/>
<path d="M111.311 68.3418C111.538 68.2131 111.718 68.3184 111.718 68.5758C111.718 68.8371 111.534 69.153 111.311 69.2817C111.084 69.4104 110.904 69.3051 110.904 69.0477C110.904 68.7903 111.088 68.4705 111.311 68.3418Z" fill="#538DF7"/>
<path d="M114.496 63.9038C114.723 63.7751 114.903 63.8804 114.903 64.1378C114.903 64.3991 114.719 64.715 114.496 64.8437C114.27 64.9724 114.09 64.8671 114.09 64.6097C114.09 64.3523 114.274 64.0325 114.496 63.9038Z" fill="#538DF7"/>
<path d="M117.961 64.5381C118.12 64.262 118.121 63.964 117.962 63.8725C117.803 63.781 117.545 63.9306 117.385 64.2066C117.225 64.4827 117.225 64.7808 117.384 64.8723C117.542 64.9638 117.801 64.8142 117.961 64.5381Z" fill="#538DF7"/>
<path d="M121.138 64.5393C121.298 64.2633 121.299 63.9652 121.14 63.8737C120.981 63.7822 120.723 63.9318 120.563 64.2079C120.403 64.4839 120.402 64.782 120.561 64.8735C120.72 64.9651 120.979 64.8154 121.138 64.5393Z" fill="#538DF7"/>
<path d="M124.018 62.0747C124.245 61.946 124.425 62.0513 124.425 62.3087C124.425 62.57 124.241 62.8859 124.018 63.0146C123.791 63.1433 123.611 63.038 123.611 62.7806C123.611 62.5232 123.791 62.2034 124.018 62.0747Z" fill="#538DF7"/>
<path d="M70.0121 95.575C69.9886 95.575 69.9652 95.5672 69.9495 95.5516C69.9104 95.5165 69.9026 95.4541 69.9417 95.4151L73.1477 91.7375C73.1555 91.7297 73.1633 91.7219 73.1711 91.718L76.3263 89.9007L79.497 88.875L82.6561 85.5991C82.6678 85.5874 82.6795 85.5796 82.6913 85.5757L85.8425 84.4174L89.0015 80.7788C89.0132 80.7632 89.0289 80.7554 89.0484 80.7476L92.1723 79.8467L95.3313 69.8357C95.343 69.8006 95.3743 69.7733 95.4134 69.7694C95.4486 69.7655 95.4877 69.785 95.5073 69.8162L98.6546 75.2565L101.782 75.2526L104.894 75.2565L108.042 69.8162C108.053 69.7967 108.073 69.7811 108.096 69.7733L111.244 68.732L114.403 64.3212C114.422 64.2939 114.45 64.2822 114.481 64.2822H120.807L123.962 62.4648C124.009 62.4376 124.068 62.4531 124.095 62.4999C124.122 62.5467 124.107 62.6052 124.06 62.6325L120.881 64.4616C120.866 64.4694 120.85 64.4733 120.83 64.4733H114.528L111.381 68.8685C111.369 68.8841 111.353 68.8997 111.334 68.9036L108.194 69.9449L105.035 75.4008C105.016 75.432 104.984 75.4515 104.949 75.4515L101.782 75.4476L98.5998 75.4515C98.5646 75.4515 98.5334 75.432 98.5138 75.4008L95.4486 70.1048L92.3404 79.952C92.3287 79.9832 92.3052 80.0066 92.2739 80.0183L89.1266 80.9231L85.9676 84.5617C85.9559 84.5734 85.9441 84.5851 85.9285 84.589L82.7734 85.7473L79.6143 89.0271C79.6026 89.0388 79.5909 89.0466 79.5752 89.0505L76.4005 90.0762L73.2806 91.874L70.0825 95.5399C70.0668 95.5633 70.0395 95.575 70.0121 95.575Z" fill="#538DF7"/>
<path d="M70.0212 97.4937C69.9548 97.4937 69.8883 97.4586 69.8531 97.3962C69.7984 97.3026 69.8296 97.1856 69.9235 97.131L123.92 66.0332C124.014 65.9786 124.131 66.0098 124.186 66.1034C124.241 66.197 124.21 66.314 124.116 66.3686L70.119 97.4664C70.0877 97.4859 70.0525 97.4937 70.0212 97.4937Z" fill="#E0E0E0"/>
<path d="M70.0199 93.1726C70.2467 93.0439 70.4265 93.1492 70.4265 93.4066C70.4265 93.664 70.2427 93.9838 70.0199 94.1125C69.7931 94.2412 69.6133 94.1359 69.6133 93.8785C69.6133 93.6172 69.7931 93.3013 70.0199 93.1726Z" fill="#538DF7"/>
<path d="M73.1937 87.6855C73.4205 87.5568 73.6003 87.6621 73.6003 87.9195C73.6003 88.1808 73.4166 88.4967 73.1937 88.6254C72.967 88.7541 72.7871 88.6488 72.7871 88.3914C72.7871 88.134 72.9709 87.8142 73.1937 87.6855Z" fill="#538DF7"/>
<path d="M76.6697 87.6353C76.8294 87.3592 76.8301 87.0612 76.6711 86.9696C76.5122 86.8781 76.2538 87.0277 76.094 87.3038C75.9342 87.5799 75.9335 87.8779 76.0925 87.9695C76.2515 88.061 76.5099 87.9114 76.6697 87.6353Z" fill="#538DF7"/>
<path d="M79.5472 80.3652C79.774 80.2365 79.9538 80.3418 79.9538 80.5992C79.9538 80.8605 79.7701 81.1764 79.5472 81.3051C79.3205 81.4338 79.1406 81.3285 79.1406 81.0711C79.1406 80.8137 79.3205 80.4978 79.5472 80.3652Z" fill="#538DF7"/>
<path d="M82.7289 82.1943C82.9557 82.0656 83.1355 82.1709 83.1355 82.4283C83.1355 82.6896 82.9518 83.0055 82.7289 83.1342C82.5022 83.2629 82.3223 83.1576 82.3223 82.9002C82.3184 82.6428 82.5022 82.3269 82.7289 82.1943Z" fill="#538DF7"/>
<path d="M85.9008 81.2817C86.1275 81.153 86.3074 81.2583 86.3074 81.5157C86.3074 81.777 86.1236 82.0929 85.9008 82.2216C85.674 82.3503 85.4941 82.245 85.4941 81.9876C85.4941 81.7263 85.674 81.4104 85.9008 81.2817Z" fill="#538DF7"/>
<path d="M89.0765 78.5364C89.3033 78.4077 89.4831 78.513 89.4831 78.7704C89.4831 79.0317 89.2994 79.3475 89.0765 79.4762C88.8498 79.6049 88.6699 79.4996 88.6699 79.2422C88.6699 78.9849 88.8537 78.669 89.0765 78.5364Z" fill="#538DF7"/>
<path d="M92.2543 74.8782C92.481 74.7495 92.6609 74.8548 92.6609 75.1122C92.6609 75.3735 92.4771 75.6894 92.2543 75.8181C92.0275 75.9468 91.8477 75.8414 91.8477 75.5841C91.8477 75.3267 92.0275 75.0108 92.2543 74.8782Z" fill="#538DF7"/>
<path d="M95.4281 73.9656C95.6549 73.8369 95.8347 73.9422 95.8347 74.1996C95.8347 74.4609 95.651 74.7768 95.4281 74.9055C95.2013 75.0342 95.0215 74.9289 95.0215 74.6715C95.0215 74.4141 95.2052 74.0943 95.4281 73.9656Z" fill="#538DF7"/>
<path d="M98.6059 71.22C98.8327 71.0913 99.0125 71.1966 99.0125 71.454C99.0125 71.7153 98.8288 72.0312 98.6059 72.1598C98.3791 72.2885 98.1993 72.1832 98.1993 71.9259C98.1954 71.6646 98.3791 71.3487 98.6059 71.22Z" fill="#538DF7"/>
<path d="M101.784 71.22C102.01 71.0913 102.19 71.1966 102.19 71.454C102.19 71.7153 102.006 72.0312 101.784 72.1598C101.557 72.2885 101.377 72.1832 101.377 71.9259C101.377 71.6685 101.557 71.3526 101.784 71.22Z" fill="#538DF7"/>
<path d="M104.957 63.9036C105.184 63.7749 105.364 63.8802 105.364 64.1376C105.364 64.395 105.18 64.7147 104.957 64.8434C104.735 64.9721 104.551 64.8668 104.551 64.6094C104.551 64.3481 104.735 64.0323 104.957 63.9036Z" fill="#538DF7"/>
<path d="M108.135 67.5347C108.362 67.406 108.542 67.5113 108.542 67.7687C108.542 68.03 108.358 68.3458 108.135 68.4745C107.908 68.6032 107.729 68.4979 107.729 68.2405C107.729 67.9831 107.908 67.6673 108.135 67.5347Z" fill="#538DF7"/>
<path d="M111.311 63.9036C111.538 63.7749 111.718 63.8802 111.718 64.1376C111.718 64.3989 111.534 64.7147 111.311 64.8434C111.084 64.9721 110.904 64.8668 110.904 64.6094C110.904 64.352 111.088 64.0323 111.311 63.9036Z" fill="#538DF7"/>
<path d="M114.489 62.0747C114.715 61.946 114.895 62.0513 114.895 62.3087C114.895 62.57 114.711 62.8859 114.489 63.0146C114.262 63.1433 114.082 63.038 114.082 62.7806C114.082 62.5232 114.262 62.2034 114.489 62.0747Z" fill="#538DF7"/>
<path d="M117.662 62.0747C117.889 61.946 118.069 62.0513 118.069 62.3087C118.069 62.57 117.885 62.8859 117.662 63.0146C117.436 63.1433 117.256 63.038 117.256 62.7806C117.256 62.5193 117.436 62.2034 117.662 62.0747Z" fill="#538DF7"/>
<path d="M120.838 60.2456C121.065 60.1169 121.245 60.2222 121.245 60.4796C121.245 60.7409 121.061 61.0568 120.838 61.1855C120.611 61.3142 120.432 61.2089 120.432 60.9515C120.432 60.6902 120.615 60.3743 120.838 60.2456Z" fill="#538DF7"/>
<path d="M124.018 60.2456C124.245 60.1169 124.425 60.2222 124.425 60.4796C124.425 60.7409 124.241 61.0568 124.018 61.1855C123.791 61.3142 123.611 61.2089 123.611 60.9515C123.607 60.6902 123.791 60.3743 124.018 60.2456Z" fill="#538DF7"/>
<path d="M70.0194 93.7381C70.0038 93.7381 69.9842 93.7342 69.9686 93.7264C69.9217 93.6991 69.906 93.6406 69.9334 93.5938L73.1315 88.091C73.1472 88.0676 73.1667 88.052 73.1941 88.0442L76.3023 87.3812L79.4574 80.7904C79.4692 80.767 79.4926 80.7475 79.5161 80.7397C79.5434 80.7319 79.5708 80.7358 79.5943 80.7475L82.7377 82.5571L85.8498 81.6562L89.0049 78.9301L92.1757 75.2798C92.1874 75.2642 92.2031 75.2564 92.2226 75.2486L95.3777 74.34L98.5368 71.61C98.5563 71.5944 98.5759 71.5866 98.5993 71.5866H101.711L104.863 64.3289C104.874 64.2977 104.906 64.2782 104.937 64.2704C104.968 64.2665 105.003 64.2782 105.027 64.3016L108.127 67.8739L111.228 64.3016C111.235 64.2938 111.243 64.286 111.251 64.2821L114.438 62.4453C114.453 62.4375 114.469 62.4336 114.488 62.4336H117.64L120.783 60.624C120.799 60.6162 120.814 60.6123 120.834 60.6123H124.012C124.067 60.6123 124.11 60.6552 124.11 60.7098C124.11 60.7644 124.067 60.8073 124.012 60.8073H120.861L117.718 62.6169C117.702 62.6247 117.686 62.6286 117.667 62.6286H114.516L111.364 64.442L108.198 68.0884C108.159 68.1313 108.088 68.1313 108.049 68.0884L104.976 64.5473L101.86 71.7231C101.844 71.7582 101.809 71.7816 101.77 71.7816H98.6306L95.4833 74.4999C95.4716 74.5077 95.4598 74.5155 95.4481 74.5194L92.3008 75.4241L89.1378 79.0627L85.9554 81.8122C85.9436 81.82 85.9319 81.8278 85.9202 81.8317L82.7455 82.7481C82.7181 82.7559 82.6907 82.752 82.6712 82.7403L79.5825 80.962L76.4509 87.4982C76.4391 87.5255 76.4118 87.545 76.3844 87.5528L73.2723 88.2158L70.0937 93.6796C70.0859 93.7225 70.0546 93.7381 70.0194 93.7381Z" fill="#538DF7"/>
<g opacity="0.3">
<g opacity="0.3">
<g opacity="0.3">
<path opacity="0.3" d="M70.0199 93.1726C70.2467 93.0439 70.4265 93.1492 70.4265 93.4066C70.4265 93.664 70.2427 93.9838 70.0199 94.1125C69.7931 94.2412 69.6133 94.1359 69.6133 93.8785C69.6133 93.6172 69.7931 93.3013 70.0199 93.1726Z" fill="black"/>
</g>
<g opacity="0.3">
<path opacity="0.3" d="M73.1937 87.6855C73.4205 87.5568 73.6003 87.6621 73.6003 87.9195C73.6003 88.1808 73.4166 88.4967 73.1937 88.6254C72.967 88.7541 72.7871 88.6488 72.7871 88.3914C72.7871 88.134 72.9709 87.8142 73.1937 87.6855Z" fill="black"/>
</g>
<g opacity="0.3">
<path opacity="0.3" d="M76.6697 87.6353C76.8294 87.3592 76.8301 87.0612 76.6711 86.9696C76.5122 86.8781 76.2538 87.0277 76.094 87.3038C75.9342 87.5799 75.9335 87.8779 76.0925 87.9695C76.2515 88.061 76.5099 87.9114 76.6697 87.6353Z" fill="black"/>
</g>
<g opacity="0.3">
<path opacity="0.3" d="M79.5472 80.3652C79.774 80.2365 79.9538 80.3418 79.9538 80.5992C79.9538 80.8605 79.7701 81.1764 79.5472 81.3051C79.3205 81.4338 79.1406 81.3285 79.1406 81.0711C79.1406 80.8137 79.3205 80.4978 79.5472 80.3652Z" fill="black"/>
</g>
<g opacity="0.3">
<path opacity="0.3" d="M82.7289 82.1943C82.9557 82.0656 83.1355 82.1709 83.1355 82.4283C83.1355 82.6896 82.9518 83.0055 82.7289 83.1342C82.5022 83.2629 82.3223 83.1576 82.3223 82.9002C82.3184 82.6428 82.5022 82.3269 82.7289 82.1943Z" fill="black"/>
</g>
<g opacity="0.3">
<path opacity="0.3" d="M85.9008 81.2817C86.1275 81.153 86.3074 81.2583 86.3074 81.5157C86.3074 81.777 86.1236 82.0929 85.9008 82.2216C85.674 82.3503 85.4941 82.245 85.4941 81.9876C85.4941 81.7263 85.674 81.4104 85.9008 81.2817Z" fill="black"/>
</g>
<g opacity="0.3">
<path opacity="0.3" d="M89.0765 78.5364C89.3033 78.4077 89.4831 78.513 89.4831 78.7704C89.4831 79.0317 89.2994 79.3475 89.0765 79.4762C88.8498 79.6049 88.6699 79.4996 88.6699 79.2422C88.6699 78.9849 88.8537 78.669 89.0765 78.5364Z" fill="black"/>
</g>
<g opacity="0.3">
<path opacity="0.3" d="M92.2543 74.8782C92.481 74.7495 92.6609 74.8548 92.6609 75.1122C92.6609 75.3735 92.4771 75.6894 92.2543 75.8181C92.0275 75.9468 91.8477 75.8414 91.8477 75.5841C91.8477 75.3267 92.0275 75.0108 92.2543 74.8782Z" fill="black"/>
</g>
<g opacity="0.3">
<path opacity="0.3" d="M95.4281 73.9656C95.6549 73.8369 95.8347 73.9422 95.8347 74.1996C95.8347 74.4609 95.651 74.7768 95.4281 74.9055C95.2013 75.0342 95.0215 74.9289 95.0215 74.6715C95.0215 74.4141 95.2052 74.0943 95.4281 73.9656Z" fill="black"/>
</g>
<g opacity="0.3">
<path opacity="0.3" d="M98.6059 71.22C98.8327 71.0913 99.0125 71.1966 99.0125 71.454C99.0125 71.7153 98.8288 72.0312 98.6059 72.1598C98.3791 72.2885 98.1993 72.1832 98.1993 71.9259C98.1954 71.6646 98.3791 71.3487 98.6059 71.22Z" fill="black"/>
</g>
<g opacity="0.3">
<path opacity="0.3" d="M101.784 71.22C102.01 71.0913 102.19 71.1966 102.19 71.454C102.19 71.7153 102.006 72.0312 101.784 72.1598C101.557 72.2885 101.377 72.1832 101.377 71.9259C101.377 71.6685 101.557 71.3526 101.784 71.22Z" fill="black"/>
</g>
<g opacity="0.3">
<path opacity="0.3" d="M104.957 63.9036C105.184 63.7749 105.364 63.8802 105.364 64.1376C105.364 64.395 105.18 64.7147 104.957 64.8434C104.735 64.9721 104.551 64.8668 104.551 64.6094C104.551 64.3481 104.735 64.0323 104.957 63.9036Z" fill="black"/>
</g>
<g opacity="0.3">
<path opacity="0.3" d="M108.135 67.5347C108.362 67.406 108.542 67.5113 108.542 67.7687C108.542 68.03 108.358 68.3458 108.135 68.4745C107.908 68.6032 107.729 68.4979 107.729 68.2405C107.729 67.9831 107.908 67.6673 108.135 67.5347Z" fill="black"/>
</g>
<g opacity="0.3">
<path opacity="0.3" d="M111.311 63.9036C111.538 63.7749 111.718 63.8802 111.718 64.1376C111.718 64.3989 111.534 64.7147 111.311 64.8434C111.084 64.9721 110.904 64.8668 110.904 64.6094C110.904 64.352 111.088 64.0323 111.311 63.9036Z" fill="black"/>
</g>
<g opacity="0.3">
<path opacity="0.3" d="M114.489 62.0747C114.715 61.946 114.895 62.0513 114.895 62.3087C114.895 62.57 114.711 62.8859 114.489 63.0146C114.262 63.1433 114.082 63.038 114.082 62.7806C114.082 62.5232 114.262 62.2034 114.489 62.0747Z" fill="black"/>
</g>
<g opacity="0.3">
<path opacity="0.3" d="M117.662 62.0747C117.889 61.946 118.069 62.0513 118.069 62.3087C118.069 62.57 117.885 62.8859 117.662 63.0146C117.436 63.1433 117.256 63.038 117.256 62.7806C117.256 62.5193 117.436 62.2034 117.662 62.0747Z" fill="black"/>
</g>
<g opacity="0.3">
<path opacity="0.3" d="M120.838 60.2456C121.065 60.1169 121.245 60.2222 121.245 60.4796C121.245 60.7409 121.061 61.0568 120.838 61.1855C120.611 61.3142 120.432 61.2089 120.432 60.9515C120.432 60.6902 120.615 60.3743 120.838 60.2456Z" fill="black"/>
</g>
<g opacity="0.3">
<path opacity="0.3" d="M124.018 60.2456C124.245 60.1169 124.425 60.2222 124.425 60.4796C124.425 60.7409 124.241 61.0568 124.018 61.1855C123.791 61.3142 123.611 61.2089 123.611 60.9515C123.607 60.6902 123.791 60.3743 124.018 60.2456Z" fill="black"/>
</g>
</g>
<g opacity="0.3">
<path opacity="0.3" d="M70.0194 93.7381C70.0038 93.7381 69.9842 93.7342 69.9686 93.7264C69.9217 93.6991 69.906 93.6406 69.9334 93.5938L73.1315 88.091C73.1472 88.0676 73.1667 88.052 73.1941 88.0442L76.3023 87.3812L79.4574 80.7904C79.4692 80.767 79.4926 80.7475 79.5161 80.7397C79.5434 80.7319 79.5708 80.7358 79.5943 80.7475L82.7377 82.5571L85.8498 81.6562L89.0049 78.9301L92.1757 75.2798C92.1874 75.2642 92.2031 75.2564 92.2226 75.2486L95.3777 74.34L98.5368 71.61C98.5563 71.5944 98.5759 71.5866 98.5993 71.5866H101.711L104.863 64.3289C104.874 64.2977 104.906 64.2782 104.937 64.2704C104.968 64.2665 105.003 64.2782 105.027 64.3016L108.127 67.8739L111.228 64.3016C111.235 64.2938 111.243 64.286 111.251 64.2821L114.438 62.4453C114.453 62.4375 114.469 62.4336 114.488 62.4336H117.64L120.783 60.624C120.799 60.6162 120.814 60.6123 120.834 60.6123H124.012C124.067 60.6123 124.11 60.6552 124.11 60.7098C124.11 60.7644 124.067 60.8073 124.012 60.8073H120.861L117.718 62.6169C117.702 62.6247 117.686 62.6286 117.667 62.6286H114.516L111.364 64.442L108.198 68.0884C108.159 68.1313 108.088 68.1313 108.049 68.0884L104.976 64.5473L101.86 71.7231C101.844 71.7582 101.809 71.7816 101.77 71.7816H98.6306L95.4833 74.4999C95.4716 74.5077 95.4598 74.5155 95.4481 74.5194L92.3008 75.4241L89.1378 79.0627L85.9554 81.8122C85.9436 81.82 85.9319 81.8278 85.9202 81.8317L82.7455 82.7481C82.7181 82.7559 82.6907 82.752 82.6712 82.7403L79.5825 80.962L76.4509 87.4982C76.4391 87.5255 76.4118 87.545 76.3844 87.5528L73.2723 88.2158L70.0937 93.6796C70.0859 93.7225 70.0546 93.7381 70.0194 93.7381Z" fill="black"/>
</g>
</g>
<path d="M71.6859 79.597L74.7628 77.8187C74.9192 77.729 75.0443 77.7914 75.0443 77.963C75.0443 78.1346 74.9192 78.3413 74.7628 78.431L71.6859 80.2093C71.5295 80.299 71.4044 80.2366 71.4044 80.065C71.4005 79.8973 71.5295 79.6867 71.6859 79.597Z" fill="#E0E0E0"/>
<path d="M70.0199 80.3652C70.2467 80.2365 70.4265 80.3418 70.4265 80.5992C70.4265 80.8605 70.2427 81.1764 70.0199 81.3051C69.7931 81.4338 69.6133 81.3285 69.6133 81.0711C69.6133 80.8137 69.7931 80.4978 70.0199 80.3652Z" fill="#538DF7"/>
<path opacity="0.3" d="M70.0199 80.3652C70.2467 80.2365 70.4265 80.3418 70.4265 80.5992C70.4265 80.8605 70.2427 81.1764 70.0199 81.3051C69.7931 81.4338 69.6133 81.3285 69.6133 81.0711C69.6133 80.8137 69.7931 80.4978 70.0199 80.3652Z" fill="black"/>
<path d="M71.6859 81.422L74.7628 79.6436C74.9192 79.5539 75.0443 79.6163 75.0443 79.7879C75.0443 79.9556 74.9192 80.1662 74.7628 80.2559L71.6859 82.0343C71.5295 82.124 71.4044 82.0616 71.4044 81.8939C71.4005 81.7223 71.5295 81.5117 71.6859 81.422Z" fill="#E0E0E0"/>
<path d="M70.0199 82.1943C70.2467 82.0656 70.4265 82.1709 70.4265 82.4283C70.4265 82.6896 70.2427 83.0055 70.0199 83.1342C69.7931 83.2629 69.6133 83.1576 69.6133 82.9002C69.6133 82.6428 69.7931 82.3269 70.0199 82.1943Z" fill="#538DF7"/>
<path d="M70.0201 106.568C69.9967 106.568 69.9693 106.561 69.9537 106.541C69.9146 106.502 69.9146 106.444 69.9498 106.405L71.5605 104.751L73.144 104.552L74.743 102.493L76.3421 102.711L77.8943 101.311L79.4816 100.364L81.1002 98.1291L82.7071 98.6322L84.2514 97.2555C84.2905 97.2204 84.3531 97.2243 84.3883 97.2633C84.4235 97.3023 84.4196 97.3647 84.3805 97.3998L82.754 98.8506L81.1784 98.3592L79.6028 100.524L78.0155 101.471L76.4086 102.922L74.833 102.708L73.2534 104.743L71.6583 104.946L70.0944 106.549C70.0709 106.561 70.0475 106.568 70.0201 106.568Z" fill="#538DF7"/>
<path d="M70.6509 101.222C70.6626 101.211 70.6743 101.199 70.69 101.187C70.7056 101.176 70.7212 101.164 70.733 101.156C70.819 101.105 70.9011 101.082 70.9715 101.082C71.0457 101.082 71.1083 101.109 71.163 101.152C71.2178 101.199 71.2569 101.265 71.2881 101.351C71.3194 101.437 71.335 101.542 71.335 101.663C71.335 101.784 71.3194 101.905 71.2881 102.03C71.2569 102.15 71.2178 102.267 71.163 102.377C71.1083 102.486 71.0457 102.583 70.9715 102.669C70.8972 102.755 70.819 102.825 70.733 102.872C70.6469 102.923 70.5648 102.946 70.4906 102.946C70.4163 102.946 70.3537 102.919 70.299 102.872C70.2442 102.825 70.2051 102.759 70.1739 102.673C70.1426 102.587 70.127 102.482 70.127 102.361C70.127 102.291 70.1309 102.225 70.1426 102.158C70.1543 102.092 70.166 102.03 70.1817 101.967C70.1973 101.905 70.2169 101.846 70.2364 101.784C70.256 101.725 70.2755 101.667 70.2951 101.612L70.7173 100.411C70.7251 100.396 70.733 100.376 70.7447 100.353C70.7525 100.329 70.7681 100.314 70.7916 100.298L70.9245 100.22C70.9402 100.212 70.948 100.212 70.9597 100.224C70.9675 100.236 70.9715 100.251 70.9715 100.271C70.9715 100.282 70.9714 100.294 70.9675 100.302C70.9636 100.31 70.9636 100.318 70.9597 100.325L70.6509 101.222ZM70.3498 102.236C70.3498 102.306 70.3576 102.369 70.3772 102.423C70.3967 102.478 70.4202 102.521 70.4515 102.552C70.4827 102.583 70.5218 102.599 70.5727 102.603C70.6196 102.607 70.6743 102.591 70.733 102.556C70.7916 102.521 70.8463 102.478 70.8933 102.42C70.9402 102.361 70.9793 102.299 71.0145 102.232C71.0457 102.162 71.0731 102.092 71.0887 102.018C71.1044 101.944 71.1161 101.87 71.1161 101.799C71.1161 101.729 71.1083 101.667 71.0887 101.612C71.0692 101.558 71.0457 101.515 71.0145 101.484C70.9832 101.452 70.9402 101.437 70.8933 101.433C70.8463 101.429 70.7916 101.445 70.733 101.48C70.6743 101.515 70.6196 101.558 70.5727 101.616C70.5257 101.675 70.4866 101.737 70.4515 101.803C70.4202 101.874 70.3928 101.944 70.3772 102.018C70.3615 102.092 70.3498 102.162 70.3498 102.236Z" fill="#455A64"/>
<path d="M71.7287 101.663C71.7365 101.698 71.7483 101.729 71.76 101.756C71.7756 101.788 71.7952 101.807 71.8225 101.823C71.8499 101.838 71.889 101.838 71.932 101.834C71.9789 101.827 72.0376 101.803 72.1119 101.76C72.1588 101.733 72.2057 101.698 72.2487 101.655C72.2917 101.612 72.3308 101.561 72.3621 101.507C72.3934 101.448 72.4207 101.39 72.4403 101.32C72.4598 101.253 72.4676 101.179 72.4676 101.101C72.4676 101.023 72.4598 100.965 72.4403 100.922C72.4207 100.879 72.3973 100.852 72.366 100.836C72.3347 100.82 72.2956 100.82 72.2526 100.832C72.2096 100.844 72.1627 100.863 72.1119 100.891L71.9203 101.004C71.9046 101.015 71.889 101.012 71.8773 101C71.8656 100.988 71.8577 100.969 71.8577 100.941V100.813C71.8577 100.789 71.8616 100.77 71.8695 100.746C71.8773 100.723 71.8851 100.703 71.8929 100.684L72.3113 99.7519L71.6427 100.138C71.6271 100.15 71.6114 100.146 71.5997 100.134C71.588 100.122 71.5801 100.103 71.5801 100.076V99.9469C71.5801 99.9196 71.588 99.8962 71.5997 99.8689C71.6114 99.8416 71.6271 99.826 71.6427 99.8143L72.5576 99.2878C72.5732 99.2761 72.5888 99.28 72.6006 99.2917C72.6123 99.3034 72.6201 99.3229 72.6201 99.3502V99.4789C72.6201 99.5023 72.6162 99.5218 72.6084 99.5491C72.6006 99.5725 72.5889 99.5998 72.5771 99.6271L72.1666 100.548C72.2448 100.505 72.3152 100.481 72.3777 100.481C72.4442 100.477 72.495 100.497 72.5419 100.532C72.5888 100.567 72.624 100.625 72.6475 100.7C72.6749 100.774 72.6866 100.867 72.6866 100.98C72.6866 101.101 72.6709 101.218 72.6397 101.335C72.6084 101.448 72.5654 101.554 72.5146 101.651C72.4637 101.745 72.4012 101.831 72.3308 101.909C72.2604 101.987 72.1861 102.045 72.108 102.092C72.0024 102.15 71.9164 102.185 71.8382 102.189C71.7639 102.197 71.7013 102.182 71.6505 102.15C71.5997 102.119 71.5645 102.072 71.541 102.01C71.5176 101.948 71.5059 101.881 71.502 101.803C71.502 101.78 71.5059 101.76 71.5176 101.737C71.5293 101.717 71.541 101.702 71.5528 101.694L71.6583 101.632C71.674 101.62 71.6896 101.62 71.6974 101.632C71.7209 101.632 71.7248 101.643 71.7287 101.663Z" fill="#455A64"/>
<path d="M73.1135 100.867C73.1213 100.902 73.133 100.934 73.1448 100.965C73.1604 100.996 73.1799 101.015 73.2073 101.031C73.2347 101.047 73.2738 101.047 73.3168 101.039C73.3637 101.031 73.4223 101.008 73.4966 100.965C73.5435 100.937 73.5905 100.902 73.6335 100.859C73.6765 100.817 73.7156 100.766 73.7469 100.711C73.7781 100.653 73.8055 100.59 73.8251 100.524C73.8446 100.458 73.8524 100.384 73.8524 100.306C73.8524 100.228 73.8446 100.169 73.8251 100.126C73.8055 100.083 73.782 100.056 73.7508 100.04C73.7195 100.025 73.6804 100.025 73.6374 100.037C73.5944 100.048 73.5475 100.068 73.4966 100.095L73.3051 100.208C73.2894 100.216 73.2738 100.216 73.2621 100.204C73.2503 100.193 73.2425 100.173 73.2425 100.146V100.017C73.2425 99.9975 73.2464 99.9741 73.2542 99.9507C73.2621 99.9273 73.2699 99.9078 73.2777 99.8883L73.696 98.9563L73.0275 99.3424C73.0118 99.3541 72.9962 99.3502 72.9845 99.3385C72.9727 99.3268 72.9649 99.3073 72.9649 99.28V99.1513C72.9649 99.124 72.9727 99.1006 72.9845 99.0733C72.9962 99.046 73.0118 99.0304 73.0275 99.0187L73.9423 98.4922C73.958 98.4805 73.9736 98.4844 73.9853 98.4961C73.9971 98.5078 74.0049 98.5273 74.0049 98.5546V98.6833C74.0049 98.7067 74.001 98.7262 73.9932 98.7535C73.9853 98.7769 73.9736 98.8042 73.9619 98.8315L73.5514 99.7518C73.6296 99.7089 73.6999 99.6855 73.7625 99.6855C73.829 99.6816 73.8837 99.7012 73.9267 99.7363C73.9736 99.7713 74.0088 99.8299 74.0323 99.904C74.0596 99.978 74.0714 100.072 74.0714 100.185C74.0714 100.306 74.0557 100.423 74.0244 100.54C73.9932 100.653 73.9502 100.758 73.8993 100.856C73.8485 100.953 73.7859 101.035 73.7156 101.113C73.6452 101.191 73.5709 101.249 73.4927 101.296C73.3872 101.355 73.2972 101.39 73.223 101.394C73.1487 101.402 73.0861 101.386 73.0353 101.355C72.9884 101.324 72.9493 101.277 72.9258 101.214C72.9024 101.152 72.8906 101.082 72.8867 101.008C72.8867 100.984 72.8906 100.965 72.9024 100.941C72.9141 100.922 72.9258 100.906 72.9375 100.898L73.0431 100.836C73.0587 100.824 73.0744 100.828 73.0822 100.836C73.1018 100.836 73.1096 100.848 73.1135 100.867Z" fill="#455A64"/>
<path d="M70.3049 107.828L84.028 99.8959C84.1844 99.8062 84.3095 99.8686 84.3095 100.036C84.3095 100.204 84.1844 100.415 84.028 100.504L70.3049 108.437C70.1485 108.526 70.0234 108.464 70.0234 108.296C70.0234 108.129 70.1525 107.918 70.3049 107.828Z" fill="#E0E0E0"/>
<path d="M70.3049 98.6792L73.3819 96.9008C73.5383 96.8111 73.6634 96.8735 73.6634 97.0412C73.6634 97.2089 73.5383 97.4195 73.3819 97.5092L70.3049 99.2876C70.1485 99.3773 70.0234 99.3149 70.0234 99.1472C70.0234 98.9756 70.1525 98.7689 70.3049 98.6792Z" fill="#E0E0E0"/>
<path d="M70.0201 117.535C69.9967 117.535 69.9693 117.527 69.9537 117.508C69.9146 117.469 69.9146 117.41 69.9498 117.371L71.5605 115.718L73.1518 115.515L74.7548 114.115L76.2991 113.694L77.9099 110.492L79.5246 111.28L81.0846 109.911L81.112 109.907L82.6602 109.614L84.2241 106.92C84.2514 106.873 84.3101 106.857 84.357 106.885C84.4039 106.912 84.4196 106.97 84.3922 107.017L82.7853 109.79L81.1745 110.094L79.5559 111.514L77.9959 110.753L76.432 113.861L74.8252 114.298L73.23 115.702L71.6466 115.901L70.0827 117.504C70.0709 117.527 70.0475 117.535 70.0201 117.535Z" fill="#538DF7"/>
<g opacity="0.3">
<path opacity="0.3" d="M70.0201 117.535C69.9967 117.535 69.9693 117.527 69.9537 117.508C69.9146 117.469 69.9146 117.41 69.9498 117.371L71.5605 115.718L73.1518 115.515L74.7548 114.115L76.2991 113.694L77.9099 110.492L79.5246 111.28L81.0846 109.911L81.112 109.907L82.6602 109.614L84.2241 106.92C84.2514 106.873 84.3101 106.857 84.357 106.885C84.4039 106.912 84.4196 106.97 84.3922 107.017L82.7853 109.79L81.1745 110.094L79.5559 111.514L77.9959 110.753L76.432 113.861L74.8252 114.298L73.23 115.702L71.6466 115.901L70.0827 117.504C70.0709 117.527 70.0475 117.535 70.0201 117.535Z" fill="black"/>
</g>
<path d="M70.8342 113.651C70.8342 113.678 70.8264 113.702 70.8146 113.729C70.8029 113.756 70.7873 113.772 70.7716 113.783L70.6778 113.838C70.6621 113.85 70.6465 113.846 70.6348 113.834C70.623 113.822 70.6152 113.803 70.6152 113.776V111.81L70.2399 112.465C70.2242 112.493 70.2086 112.508 70.193 112.512C70.1773 112.516 70.1617 112.512 70.15 112.5L70.0952 112.422C70.0835 112.407 70.0796 112.387 70.0835 112.36C70.0874 112.333 70.0952 112.305 70.107 112.282L70.6035 111.408C70.6152 111.389 70.627 111.373 70.6426 111.362C70.6543 111.354 70.6661 111.346 70.6778 111.338L70.7716 111.284C70.7873 111.272 70.8029 111.276 70.8146 111.288C70.8264 111.299 70.8342 111.319 70.8342 111.346V113.651V113.651Z" fill="#455A64"/>
<path d="M71.8463 111.849C71.8932 111.759 71.9284 111.674 71.9519 111.592C71.9754 111.51 71.9871 111.416 71.9871 111.311C71.9871 111.186 71.9636 111.093 71.9167 111.034C71.8698 110.979 71.7916 110.979 71.6899 111.038C71.6352 111.069 71.5883 111.108 71.5531 111.151C71.514 111.198 71.4827 111.249 71.4593 111.303C71.4358 111.358 71.4124 111.42 71.4006 111.483C71.385 111.545 71.3733 111.607 71.3654 111.67C71.3615 111.697 71.3537 111.724 71.342 111.744C71.3303 111.763 71.3185 111.779 71.3068 111.787L71.2012 111.849C71.1856 111.857 71.1739 111.857 71.1661 111.845C71.1543 111.834 71.1504 111.818 71.1504 111.798C71.1504 111.709 71.1661 111.611 71.1895 111.506C71.213 111.401 71.2482 111.299 71.2951 111.198C71.342 111.096 71.3967 111.003 71.4671 110.917C71.5336 110.831 71.6118 110.761 71.6978 110.714C71.7838 110.664 71.8581 110.644 71.9245 110.644C71.991 110.648 72.0457 110.671 72.0887 110.714C72.1317 110.757 72.1669 110.82 72.1865 110.901C72.2099 110.983 72.2217 111.073 72.2217 111.178C72.2217 111.256 72.2178 111.327 72.2099 111.393C72.2021 111.459 72.1904 111.525 72.1708 111.592C72.1513 111.658 72.1317 111.724 72.1005 111.795C72.0731 111.861 72.0379 111.935 71.9988 112.013L71.4788 113.054L72.1904 112.645C72.206 112.633 72.2217 112.637 72.2334 112.649C72.2451 112.66 72.2529 112.68 72.2529 112.707V112.836C72.2529 112.863 72.2451 112.886 72.2334 112.914C72.2217 112.941 72.206 112.957 72.1904 112.968L71.1895 113.546C71.1739 113.557 71.1582 113.553 71.1465 113.542C71.1348 113.53 71.127 113.51 71.127 113.483V113.354C71.127 113.327 71.1309 113.304 71.1387 113.28C71.1465 113.257 71.1582 113.226 71.1778 113.191L71.8463 111.849Z" fill="#455A64"/>
<path d="M73.6846 110.554C73.6846 110.66 73.6886 110.761 73.6886 110.855C73.6886 110.948 73.6886 111.05 73.6846 111.159C73.6846 111.299 73.669 111.436 73.6455 111.568C73.6221 111.701 73.5869 111.826 73.5361 111.943C73.4892 112.06 73.4266 112.161 73.3523 112.255C73.278 112.348 73.192 112.423 73.0904 112.481C72.9887 112.54 72.8988 112.567 72.8284 112.559C72.7541 112.551 72.6955 112.516 72.6447 112.458C72.5977 112.399 72.5587 112.313 72.5352 112.208C72.5117 112.103 72.5 111.982 72.4961 111.841C72.4961 111.736 72.4922 111.635 72.4922 111.541C72.4922 111.448 72.4922 111.346 72.4961 111.237C72.4961 111.097 72.5117 110.96 72.5352 110.827C72.5587 110.695 72.5938 110.57 72.6447 110.453C72.6916 110.336 72.7541 110.231 72.8284 110.141C72.9027 110.048 72.9887 109.969 73.0904 109.911C73.192 109.852 73.2819 109.829 73.3523 109.837C73.4266 109.845 73.4853 109.88 73.5361 109.942C73.583 110.001 73.6182 110.086 73.6455 110.192C73.6729 110.297 73.6846 110.418 73.6846 110.554ZM72.719 111.717C72.7229 111.939 72.7541 112.087 72.8167 112.157C72.8792 112.228 72.9731 112.228 73.0904 112.157C73.2116 112.087 73.3015 111.982 73.364 111.838C73.4266 111.693 73.4618 111.51 73.4618 111.28C73.4618 111.171 73.4657 111.069 73.4657 110.976C73.4657 110.882 73.4657 110.781 73.4618 110.675C73.4579 110.449 73.4266 110.301 73.364 110.231C73.3015 110.161 73.2116 110.157 73.0904 110.227C72.9692 110.297 72.8792 110.402 72.8167 110.547C72.7541 110.691 72.719 110.878 72.719 111.104C72.719 111.214 72.715 111.315 72.715 111.409C72.7189 111.51 72.719 111.607 72.719 111.717Z" fill="#455A64"/>
<path d="M70.3049 118.795L84.028 110.862C84.1844 110.773 84.3095 110.835 84.3095 111.007C84.3095 111.174 84.1844 111.385 84.028 111.475L70.3049 119.407C70.1485 119.497 70.0234 119.434 70.0234 119.263C70.0234 119.095 70.1525 118.884 70.3049 118.795Z" fill="#E0E0E0"/>
<path d="M70.3049 109.646L73.3819 107.867C73.5383 107.778 73.6634 107.84 73.6634 108.008C73.6634 108.175 73.5383 108.386 73.3819 108.476L70.3049 110.254C70.1485 110.344 70.0234 110.281 70.0234 110.114C70.0234 109.942 70.1525 109.735 70.3049 109.646Z" fill="#E0E0E0"/>
<path d="M89.0769 95.5709C89.0495 95.5709 89.0183 95.5592 88.9987 95.5358C88.9635 95.4929 88.9714 95.4305 89.0144 95.3993L90.6017 94.1358L92.2008 92.3145L93.8233 92.0805L95.3715 91.7334L96.9745 89.8459L98.554 90.1228L100.137 87.6229L101.744 87.6502L103.3 86.2619C103.339 86.2268 103.402 86.2307 103.437 86.2697C103.472 86.3087 103.469 86.371 103.429 86.4061L101.815 87.8452L100.239 87.8179L98.644 90.3372L97.0449 90.0565L95.4732 91.9089L93.8546 92.2716L92.2946 92.4978L90.7307 94.28L89.1317 95.5553C89.1199 95.567 89.1004 95.5709 89.0769 95.5709Z" fill="#538DF7"/>
<path d="M89.7055 90.224C89.7173 90.2123 89.729 90.2006 89.7446 90.1889C89.7603 90.1772 89.7759 90.1655 89.7876 90.1577C89.8737 90.107 89.9558 90.0836 90.0261 90.0836C90.1004 90.0836 90.163 90.1109 90.2177 90.1538C90.2725 90.2006 90.3116 90.2669 90.3428 90.3527C90.3741 90.4385 90.3897 90.5438 90.3897 90.6647C90.3897 90.7856 90.3741 90.9065 90.3428 91.0313C90.3116 91.1522 90.2725 91.2692 90.2177 91.3784C90.163 91.4876 90.1004 91.5851 90.0261 91.6709C89.9519 91.7567 89.8737 91.8269 89.7876 91.8737C89.7016 91.9244 89.6195 91.9478 89.5452 91.9478C89.471 91.9478 89.4084 91.9205 89.3537 91.8737C89.2989 91.8269 89.2598 91.7606 89.2286 91.6748C89.1973 91.589 89.1816 91.4837 89.1816 91.3628C89.1816 91.2926 89.1855 91.2263 89.1973 91.16C89.209 91.0937 89.2207 91.0313 89.2364 90.9689C89.252 90.9065 89.2716 90.848 89.2911 90.7856C89.3107 90.7271 89.3302 90.6686 89.3498 90.614L89.772 89.4128C89.7798 89.3972 89.7876 89.3777 89.7994 89.3543C89.8072 89.3309 89.8228 89.3153 89.8463 89.2997L89.9792 89.2217C89.9949 89.2139 90.0027 89.2139 90.0144 89.2256C90.0222 89.2373 90.0261 89.2529 90.0261 89.2724C90.0261 89.2841 90.0261 89.2958 90.0222 89.3036C90.0183 89.3114 90.0183 89.3192 90.0144 89.327L89.7055 90.224ZM89.4084 91.238C89.4084 91.3082 89.4162 91.3706 89.4358 91.4252C89.4553 91.4798 89.4788 91.5227 89.5101 91.5539C89.5413 91.5851 89.5804 91.6007 89.6313 91.6046C89.6782 91.6085 89.7329 91.5929 89.7916 91.5578C89.8502 91.5227 89.9049 91.4798 89.9519 91.4213C89.9988 91.3628 90.0379 91.3004 90.0731 91.2341C90.1043 91.1639 90.1317 91.0937 90.1473 91.0196C90.163 90.9455 90.1747 90.8714 90.1747 90.8012C90.1747 90.731 90.1669 90.6686 90.1473 90.614C90.1278 90.5594 90.1043 90.5165 90.0731 90.4853C90.0418 90.4541 89.9988 90.4385 89.9519 90.4346C89.9049 90.4307 89.8502 90.4463 89.7916 90.4814C89.7329 90.5165 89.6782 90.5594 89.6313 90.6179C89.5843 90.6764 89.5452 90.7388 89.5101 90.8051C89.4788 90.8753 89.4514 90.9455 89.4358 91.0196C89.4162 91.0937 89.4084 91.1639 89.4084 91.238Z" fill="#455A64"/>
<path d="M91.3151 89.647C91.362 89.5573 91.3972 89.4715 91.4206 89.3896C91.4441 89.3077 91.4558 89.2141 91.4558 89.1088C91.4558 88.984 91.4324 88.8904 91.3855 88.8319C91.3385 88.7773 91.2604 88.7773 91.1587 88.8358C91.104 88.867 91.057 88.906 91.0219 88.9489C90.9828 88.9957 90.9515 89.0464 90.928 89.101C90.9007 89.1556 90.8811 89.218 90.8655 89.2804C90.8498 89.3428 90.8381 89.4052 90.8303 89.4676C90.8264 89.4949 90.8186 89.5222 90.8068 89.5417C90.7951 89.5612 90.7834 89.5768 90.7716 89.5846L90.6661 89.647C90.6504 89.6548 90.6387 89.6548 90.6309 89.6431C90.6192 89.6314 90.6153 89.6158 90.6153 89.5963C90.6153 89.5066 90.6309 89.4091 90.6543 89.3038C90.6778 89.1985 90.7169 89.0971 90.7599 88.9957C90.8068 88.8943 90.8616 88.8007 90.9319 88.7149C90.9984 88.6291 91.0766 88.5589 91.1626 88.5121C91.2486 88.4614 91.3229 88.4419 91.3894 88.4419C91.4558 88.4458 91.5067 88.4692 91.5536 88.5121C91.5966 88.555 91.6318 88.6174 91.6513 88.6993C91.6748 88.7812 91.6865 88.8709 91.6865 88.9762C91.6865 89.0542 91.6826 89.1244 91.6748 89.1907C91.667 89.257 91.6552 89.3233 91.6357 89.3896C91.62 89.4559 91.5966 89.5222 91.5653 89.5924C91.5379 89.6587 91.5028 89.7328 91.4637 89.8108L90.9437 90.852L91.6552 90.4425C91.6709 90.4308 91.6865 90.4347 91.6982 90.4464C91.71 90.4581 91.7178 90.4776 91.7178 90.5049V90.6336C91.7178 90.6609 91.71 90.6843 91.6982 90.7116C91.6865 90.7389 91.6709 90.7545 91.6552 90.7662L90.6543 91.3434C90.6387 91.3551 90.6231 91.3512 90.6113 91.3395C90.5996 91.3278 90.5918 91.3083 90.5918 91.281V91.1523C90.5918 91.125 90.5957 91.1016 90.6035 91.0782C90.6113 91.0548 90.6231 91.0236 90.6426 90.9885L91.3151 89.647Z" fill="#455A64"/>
<path d="M92.8974 87.5527C92.913 87.541 92.9286 87.5449 92.9404 87.5566C92.9521 87.5683 92.9599 87.5878 92.9599 87.6151V87.7438C92.9599 87.7633 92.956 87.7906 92.9521 87.814C92.9482 87.8413 92.9404 87.8686 92.9325 87.8998L92.4165 90.2437C92.4087 90.2671 92.4008 90.2944 92.393 90.3178C92.3813 90.3412 92.3696 90.3568 92.35 90.3685L92.2444 90.4309C92.2288 90.4387 92.2171 90.4386 92.2054 90.4269C92.1936 90.4153 92.1897 90.3997 92.1897 90.3763C92.1897 90.3724 92.1897 90.3646 92.1897 90.3607C92.1897 90.3529 92.1936 90.3451 92.1975 90.3295L92.7175 87.9817L91.9551 88.4224C91.9395 88.4341 91.9239 88.4302 91.9121 88.4185C91.9004 88.4068 91.8926 88.3873 91.8926 88.36V88.2313C91.8926 88.204 91.9004 88.1806 91.9121 88.1533C91.9239 88.126 91.9395 88.1104 91.9551 88.0987L92.8974 87.5527Z" fill="#455A64"/>
<path d="M89.3655 96.8307L103.089 88.8983C103.245 88.8086 103.37 88.871 103.37 89.0426C103.37 89.2103 103.245 89.4209 103.089 89.5106L89.3655 97.443C89.2091 97.5327 89.084 97.4703 89.084 97.2987C89.084 97.131 89.2091 96.9204 89.3655 96.8307Z" fill="#E0E0E0"/>
<path d="M89.3655 87.6815L92.4424 85.9032C92.5988 85.8135 92.7239 85.8759 92.7239 86.0474C92.7239 86.2151 92.5988 86.4257 92.4424 86.5154L89.3655 88.2938C89.2091 88.3835 89.084 88.3211 89.084 88.1534C89.084 87.9779 89.2091 87.7712 89.3655 87.6815Z" fill="#E0E0E0"/>
<path d="M89.0769 106.537C89.0613 106.537 89.0417 106.534 89.0261 106.522C88.9791 106.495 88.9635 106.432 88.9948 106.389L90.6173 103.733L92.2477 104.034L93.7842 103.616L95.3715 101.682L96.951 101.284L98.5579 98.4296L100.2 98.9054L101.74 98.6129L103.304 97.2245C103.343 97.1894 103.406 97.1933 103.441 97.2323C103.476 97.2713 103.472 97.3337 103.433 97.3688L101.83 98.7923L101.803 98.7962L100.188 99.1003L98.6518 98.6558L97.0801 101.448L95.481 101.85L93.8936 103.78L93.8624 103.788L92.2516 104.229L92.2281 104.225L90.7072 103.944L89.1551 106.483C89.1434 106.522 89.1121 106.537 89.0769 106.537Z" fill="#538DF7"/>
<g opacity="0.3">
<path opacity="0.3" d="M89.0769 106.537C89.0613 106.537 89.0417 106.534 89.0261 106.522C88.9791 106.495 88.9635 106.432 88.9948 106.389L90.6173 103.733L92.2477 104.034L93.7842 103.616L95.3715 101.682L96.951 101.284L98.5579 98.4296L100.2 98.9054L101.74 98.6129L103.304 97.2245C103.343 97.1894 103.406 97.1933 103.441 97.2323C103.476 97.2713 103.472 97.3337 103.433 97.3688L101.83 98.7923L101.803 98.7962L100.188 99.1003L98.6518 98.6558L97.0801 101.448L95.481 101.85L93.8936 103.78L93.8624 103.788L92.2516 104.229L92.2281 104.225L90.7072 103.944L89.1551 106.483C89.1434 106.522 89.1121 106.537 89.0769 106.537Z" fill="black"/>
</g>
<path d="M89.8111 101.936C89.8033 101.943 89.7916 101.951 89.7798 101.959C89.7642 101.967 89.7564 101.975 89.7486 101.978C89.6743 102.021 89.6 102.045 89.5335 102.049C89.4632 102.053 89.4006 102.033 89.3459 101.994C89.2911 101.955 89.2481 101.893 89.2129 101.807C89.1777 101.721 89.1621 101.612 89.1621 101.475C89.1621 101.354 89.1777 101.234 89.209 101.113C89.2403 100.992 89.2833 100.879 89.3341 100.773C89.3889 100.668 89.4475 100.574 89.5218 100.489C89.5922 100.407 89.6665 100.341 89.7446 100.294C89.8346 100.243 89.9167 100.216 89.9871 100.22C90.0574 100.22 90.12 100.243 90.1708 100.29C90.2216 100.337 90.2607 100.403 90.2881 100.489C90.3155 100.574 90.3272 100.68 90.3272 100.801C90.3272 100.859 90.3233 100.925 90.3076 100.992C90.2959 101.058 90.2803 101.128 90.2607 101.195C90.2412 101.261 90.2216 101.327 90.1982 101.393C90.1747 101.46 90.1552 101.518 90.1395 101.573L89.7173 102.774C89.7095 102.79 89.7016 102.809 89.6899 102.833C89.6821 102.856 89.6665 102.875 89.643 102.887L89.5101 102.965C89.4944 102.973 89.4866 102.973 89.4749 102.961C89.4671 102.95 89.4632 102.934 89.4632 102.914C89.4632 102.903 89.4632 102.891 89.4671 102.883C89.471 102.875 89.471 102.868 89.4749 102.86L89.8111 101.936ZM90.1122 100.929C90.1122 100.855 90.1043 100.793 90.0848 100.738C90.0652 100.684 90.0418 100.645 90.0105 100.613C89.9792 100.586 89.9401 100.571 89.8971 100.571C89.8541 100.571 89.8033 100.586 89.7525 100.617C89.6977 100.649 89.6508 100.691 89.6039 100.742C89.5609 100.793 89.5218 100.851 89.4905 100.918C89.4592 100.98 89.4358 101.05 89.4162 101.124C89.3967 101.198 89.3889 101.273 89.3889 101.347C89.3889 101.425 89.3967 101.487 89.4162 101.542C89.4319 101.596 89.4592 101.635 89.4905 101.663C89.5218 101.69 89.5609 101.705 89.6039 101.705C89.6469 101.705 89.6977 101.69 89.7525 101.659C89.8033 101.627 89.8541 101.588 89.8971 101.534C89.944 101.483 89.9792 101.425 90.0105 101.358C90.0418 101.292 90.0652 101.226 90.0848 101.152C90.1043 101.081 90.1122 101.003 90.1122 100.929Z" fill="#455A64"/>
<path d="M90.717 101.67C90.7248 101.706 90.7365 101.737 90.7483 101.768C90.7639 101.799 90.7835 101.819 90.8108 101.834C90.8382 101.85 90.8773 101.85 90.9203 101.842C90.9672 101.834 91.0259 101.811 91.1001 101.768C91.1471 101.741 91.194 101.706 91.237 101.663C91.28 101.62 91.3191 101.569 91.3504 101.514C91.3816 101.456 91.409 101.394 91.4286 101.327C91.4481 101.261 91.4598 101.187 91.4598 101.109C91.4598 101.031 91.452 100.972 91.4325 100.929C91.4129 100.887 91.3895 100.859 91.3582 100.844C91.3269 100.828 91.2878 100.828 91.2448 100.84C91.2018 100.851 91.1549 100.871 91.1041 100.898L90.9125 101.011C90.8968 101.023 90.8812 101.019 90.8695 101.007C90.8577 100.996 90.8499 100.976 90.8499 100.949V100.82C90.8499 100.797 90.8538 100.777 90.8616 100.754C90.8695 100.731 90.8773 100.711 90.8851 100.692L91.3034 99.7595L90.6349 100.146C90.6193 100.157 90.6036 100.153 90.5919 100.142C90.5802 100.13 90.5723 100.11 90.5723 100.083V99.9545C90.5723 99.9272 90.5802 99.9038 90.5919 99.8765C90.6036 99.8492 90.6193 99.8336 90.6349 99.8219L91.5498 99.2954C91.5654 99.2837 91.581 99.2876 91.5928 99.2993C91.6045 99.311 91.6123 99.3305 91.6123 99.3578V99.4865C91.6123 99.506 91.6084 99.5294 91.6006 99.5567C91.5928 99.5801 91.581 99.6074 91.5693 99.6347L91.1588 100.555C91.237 100.512 91.3074 100.489 91.3699 100.489C91.4364 100.485 91.4911 100.504 91.5341 100.539C91.581 100.575 91.6162 100.633 91.6397 100.707C91.6631 100.781 91.6788 100.875 91.6788 100.988C91.6788 101.109 91.6631 101.226 91.6319 101.343C91.6006 101.456 91.5576 101.561 91.5068 101.659C91.4559 101.752 91.3934 101.838 91.323 101.916C91.2526 101.994 91.1783 102.053 91.1001 102.099C90.9946 102.158 90.9047 102.193 90.8304 102.197C90.7561 102.205 90.6935 102.189 90.6427 102.158C90.5958 102.127 90.5567 102.08 90.5332 102.017C90.5098 101.955 90.4981 101.889 90.4941 101.811C90.4941 101.787 90.498 101.768 90.5098 101.745C90.5215 101.725 90.5332 101.709 90.545 101.702L90.6505 101.639C90.6662 101.628 90.6818 101.628 90.6896 101.639C90.7053 101.639 90.7131 101.655 90.717 101.67Z" fill="#455A64"/>
<path d="M89.3655 107.797L103.089 99.8649C103.245 99.7752 103.37 99.8376 103.37 100.005C103.37 100.173 103.245 100.384 103.089 100.473L89.3655 108.406C89.2091 108.495 89.084 108.433 89.084 108.265C89.084 108.098 89.2091 107.887 89.3655 107.797Z" fill="#E0E0E0"/>
<path d="M89.3655 98.6443L92.4424 96.8659C92.5988 96.7762 92.7239 96.8386 92.7239 97.0063C92.7239 97.174 92.5988 97.3846 92.4424 97.4743L89.3655 99.2527C89.2091 99.3424 89.084 99.28 89.084 99.1123C89.084 98.9446 89.2091 98.734 89.3655 98.6443Z" fill="#E0E0E0"/>
<path d="M109.721 77.7718C110.397 77.3818 111.023 77.3623 111.531 77.6392L109.721 82.5063V77.7718Z" fill="#538DF7"/>
<path d="M107.912 79.7217C108.42 78.8598 109.046 78.1617 109.722 77.7717V82.5062L107.912 79.7217Z" fill="#538DF7"/>
<path d="M106.789 82.7285C106.992 81.6521 107.391 80.5992 107.911 79.7178L109.721 82.5023L106.789 82.7285Z" fill="#538DF7"/>
<path d="M107.911 79.7217C107.391 80.6031 106.992 81.656 106.789 82.7324L109.721 82.5062V77.7717C109.045 78.1617 108.419 78.8598 107.911 79.7217Z" fill="#E35492"/>
<path d="M111.531 77.6353C112.051 77.916 112.45 78.5088 112.653 79.3551L109.721 82.5062L111.531 77.6353Z" fill="#538DF7"/>
<path d="M106.789 85.6572C106.691 85.2516 106.637 84.7914 106.637 84.2806C106.637 83.7697 106.691 83.2471 106.789 82.7323L109.721 82.5061L106.789 85.6572Z" fill="#538DF7"/>
<path d="M112.653 82.28C112.45 83.3564 112.051 84.4094 111.531 85.2908L109.721 82.5062L112.653 82.28Z" fill="#538DF7"/>
<path d="M109.722 87.2406C109.046 87.6306 108.42 87.6501 107.912 87.3732L109.722 82.5061V87.2406Z" fill="#538DF7"/>
<path d="M106.789 85.6572L109.721 82.5061L107.911 87.3732C107.391 87.0924 106.992 86.4996 106.789 85.6572Z" fill="#538DF7"/>
<path d="M112.653 79.355C112.751 79.7606 112.805 80.2208 112.805 80.7316C112.805 81.2425 112.751 81.7651 112.653 82.2799L109.721 82.5061L112.653 79.355Z" fill="#538DF7"/>
<path d="M111.531 85.2906C111.023 86.1525 110.397 86.8506 109.721 87.2406V82.5061L111.531 85.2906Z" fill="#538DF7"/>
<path d="M108.186 89.6548L111.263 87.8764C111.419 87.7867 111.544 87.8491 111.544 88.0168C111.544 88.1845 111.419 88.3951 111.263 88.4848L108.186 90.2632C108.029 90.3528 107.904 90.2905 107.904 90.1228C107.904 89.9512 108.029 89.7445 108.186 89.6548Z" fill="#455A64"/>
<path d="M107.506 91.8775L111.94 89.3114C112.096 89.2217 112.221 89.2841 112.221 89.4557C112.221 89.6234 112.096 89.8339 111.94 89.9236L107.506 92.4898C107.35 92.5795 107.225 92.5171 107.225 92.3494C107.225 92.1778 107.35 91.9672 107.506 91.8775Z" fill="#E0E0E0"/>
<path d="M107.506 93.7146L111.94 91.1485C112.096 91.0588 112.221 91.1212 112.221 91.2928C112.221 91.4605 112.096 91.6711 111.94 91.7608L107.506 94.3269C107.35 94.4166 107.225 94.3542 107.225 94.1865C107.225 94.011 107.35 93.8043 107.506 93.7146Z" fill="#E0E0E0"/>
<path d="M107.506 95.5473L111.94 92.9811C112.096 92.8915 112.221 92.9539 112.221 93.1215C112.221 93.2892 112.096 93.4998 111.94 93.5895L107.506 96.1557C107.35 96.2454 107.225 96.183 107.225 96.0114C107.225 95.8437 107.35 95.637 107.506 95.5473Z" fill="#E0E0E0"/>
<path d="M120.836 71.3448C121.512 70.9548 122.138 70.9353 122.646 71.2122L120.836 76.0793V71.3448Z" fill="#EDC446"/>
<path d="M119.027 73.2947C119.536 72.4328 120.161 71.7347 120.838 71.3447V76.0792L119.027 73.2947Z" fill="#538DF7"/>
<path d="M117.91 76.3054C118.113 75.229 118.512 74.1761 119.032 73.2947L120.842 76.0792L117.91 76.3054Z" fill="#538DF7"/>
<path d="M122.646 71.2083C123.166 71.489 123.565 72.0818 123.768 72.9281L120.836 76.0792L122.646 71.2083Z" fill="#EDC446"/>
<path d="M117.908 79.2302C117.811 78.8246 117.756 78.3644 117.756 77.8536C117.756 77.3427 117.811 76.8201 117.908 76.3053L120.841 76.0791L117.908 79.2302Z" fill="#538DF7"/>
<path d="M123.768 75.853C123.565 76.9294 123.166 77.9824 122.646 78.8638L120.836 76.0792L123.768 75.853Z" fill="#538DF7"/>
<path d="M120.838 80.8136C120.161 81.2036 119.536 81.2231 119.027 80.9462L120.838 76.0791V80.8136Z" fill="#538DF7"/>
<path d="M117.91 79.2302L120.842 76.0791L119.032 80.9462C118.508 80.6654 118.113 80.0726 117.91 79.2302Z" fill="#538DF7"/>
<path d="M119.027 73.2947C118.507 74.1761 118.108 75.229 117.904 76.3054C117.807 76.8241 117.752 77.3428 117.752 77.8537C117.752 78.3646 117.807 78.8247 117.904 79.2303C118.108 80.0727 118.507 80.6655 119.027 80.9502L120.837 76.0831V71.3486C120.16 71.7347 119.539 72.4328 119.027 73.2947Z" fill="#E35492"/>
<path d="M123.768 72.928C123.866 73.3336 123.921 73.7938 123.921 74.3046C123.921 74.8155 123.866 75.3381 123.768 75.8529L120.836 76.0791L123.768 72.928Z" fill="#538DF7"/>
<path d="M122.646 78.8636C122.138 79.7255 121.512 80.4236 120.836 80.8136V76.0791L122.646 78.8636Z" fill="#538DF7"/>
<path d="M119.301 83.2511L122.378 81.4727C122.534 81.383 122.659 81.4454 122.659 81.617C122.659 81.7847 122.534 81.9953 122.378 82.085L119.301 83.8634C119.145 83.9531 119.02 83.8907 119.02 83.7191C119.02 83.5514 119.145 83.3408 119.301 83.2511Z" fill="#455A64"/>
<path d="M118.625 85.4781L123.059 82.9119C123.215 82.8222 123.34 82.8846 123.34 83.0562C123.34 83.2278 123.215 83.4345 123.059 83.5242L118.625 86.0904C118.469 86.1801 118.344 86.1177 118.344 85.9461C118.344 85.7745 118.469 85.5678 118.625 85.4781Z" fill="#E0E0E0"/>
<path d="M118.625 87.3111L123.059 84.745C123.215 84.6553 123.34 84.7176 123.34 84.8892C123.34 85.0608 123.215 85.2675 123.059 85.3572L118.625 87.9234C118.469 88.0131 118.344 87.9507 118.344 87.7791C118.344 87.6114 118.469 87.4008 118.625 87.3111Z" fill="#E0E0E0"/>
<path d="M118.625 89.1436L123.059 86.5775C123.215 86.4878 123.34 86.5502 123.34 86.7218C123.34 86.8895 123.215 87.1001 123.059 87.1898L118.625 89.7559C118.469 89.8456 118.344 89.7832 118.344 89.6155C118.344 89.4439 118.469 89.2333 118.625 89.1436Z" fill="#E0E0E0"/>
<path opacity="0.1" d="M162.399 126.991C162.44 125.757 162.014 124.363 161.304 123.153C161.156 122.905 161.002 122.663 160.836 122.433C160.83 122.421 160.818 122.409 160.812 122.397C160.653 122.179 160.481 121.966 160.297 121.771C160.28 121.754 160.268 121.736 160.25 121.718C160.073 121.529 159.889 121.346 159.694 121.181C159.676 121.169 159.658 121.151 159.64 121.14C159.445 120.974 159.238 120.821 159.031 120.691C158.912 120.614 158.794 120.549 158.676 120.49C158.622 120.461 158.569 120.443 158.516 120.419C158.457 120.39 158.391 120.36 158.332 120.337C158.243 120.301 158.155 120.278 158.072 120.254C158.048 120.248 158.024 120.236 158.001 120.23C157.9 120.201 157.794 120.183 157.699 120.171C157.693 120.171 157.687 120.171 157.681 120.165C157.261 120.112 156.876 120.171 156.551 120.337H156.545C153.413 121.901 135.372 133.356 127.067 138.516L122.953 141.008C122.835 141.073 122.734 141.173 122.651 141.297C122.639 141.309 122.627 141.327 122.622 141.344C122.586 141.398 122.556 141.457 122.527 141.522C122.509 141.563 122.497 141.604 122.485 141.646C122.468 141.699 122.45 141.746 122.438 141.805C122.432 141.84 122.426 141.876 122.42 141.911C122.231 142.012 122 142.142 121.74 142.283L121.13 142.614C119.828 141.362 118.259 140.193 116.436 139.142C110.742 135.865 103.201 134.058 95.1978 134.058C87.195 134.058 79.6539 135.865 73.9597 139.142C68.0641 142.537 64.8145 147.125 64.8145 152.055C64.8145 156.985 68.0641 161.573 73.9597 164.968C79.6539 168.245 87.195 170.052 95.1978 170.052C103.201 170.052 110.742 168.245 116.436 164.968C122.332 161.573 125.581 156.985 125.581 152.055C125.581 149.829 124.918 147.68 123.652 145.672L124.196 145.377C124.646 145.625 125.054 145.655 125.362 145.489L125.386 145.478C128.203 143.931 155.669 132.252 161.286 129.252C161.286 129.252 161.286 129.252 161.292 129.252C161.937 128.91 162.357 128.125 162.399 126.991ZM113.832 160.492C108.919 163.321 102.295 164.879 95.1919 164.879C88.0888 164.879 81.4652 163.321 76.5523 160.492C72.3319 158.06 70.0056 155.066 70.0056 152.067C70.0056 149.061 72.3319 146.068 76.5523 143.641C81.4652 140.813 88.0888 139.254 95.1919 139.254C102.301 139.254 108.919 140.813 113.832 143.641C118.052 146.074 120.378 149.067 120.378 152.067C120.378 155.066 118.052 158.06 113.832 160.492Z" fill="#538DF7"/>
<path d="M162.867 116.717C162.944 114.444 161.435 111.628 159.499 110.423C158.546 109.827 157.664 109.744 157.007 110.081C153.047 112.065 125.215 129.866 123.439 130.74L123.415 130.752C123.084 130.929 122.871 131.325 122.853 131.897C122.812 133.043 123.575 134.466 124.546 135.068C125.037 135.369 125.487 135.41 125.819 135.233L125.842 135.222C128.66 133.675 156.125 121.996 161.742 118.996C161.742 118.996 161.742 118.996 161.748 118.996C162.405 118.636 162.832 117.851 162.867 116.717Z" fill="#538DF7"/>
<path opacity="0.1" d="M161.772 112.879C161.174 111.864 160.387 110.972 159.499 110.423C158.546 109.833 157.67 109.744 157.013 110.075C156.883 110.146 156.841 110.169 156.93 110.116C153.314 111.958 132.602 125.143 125.635 129.424C125.618 129.435 125.606 129.441 125.588 129.453C125.493 129.512 125.399 129.571 125.304 129.624C125.274 129.642 125.245 129.66 125.221 129.677C125.168 129.713 125.114 129.742 125.061 129.772C124.996 129.807 124.937 129.849 124.872 129.884C124.866 129.89 124.86 129.89 124.86 129.89C124.12 130.339 123.623 130.634 123.433 130.728L123.41 130.74C123.35 130.77 123.297 130.817 123.244 130.864C123.013 131.077 122.859 131.413 122.841 131.88C122.835 132.01 122.847 132.145 122.859 132.275C122.865 132.328 122.877 132.376 122.883 132.429C122.895 132.512 122.912 132.588 122.93 132.671C122.948 132.736 122.96 132.801 122.983 132.866C123.007 132.943 123.031 133.019 123.06 133.096C123.078 133.155 123.102 133.208 123.12 133.267C123.126 133.279 123.126 133.285 123.131 133.297L161.772 112.879Z" fill="black"/>
<path d="M124.54 135.068C123.569 134.466 122.812 133.049 122.853 131.909C122.889 130.77 123.711 130.333 124.682 130.935C125.653 131.537 126.411 132.954 126.369 134.094C126.328 135.233 125.511 135.67 124.54 135.068Z" fill="#538DF7"/>
<path d="M116.224 135.83C116.194 136.704 116.774 137.79 117.52 138.257C117.893 138.487 118.23 138.522 118.485 138.387H118.491L125.221 134.814C125.221 134.814 125.221 134.814 125.227 134.814C125.481 134.679 125.641 134.378 125.659 133.941C125.689 133.067 125.108 131.98 124.363 131.514C123.99 131.284 123.646 131.248 123.392 131.384L116.662 134.956C116.407 135.086 116.241 135.393 116.224 135.83Z" fill="#37474F"/>
<path d="M116.662 134.956C116.407 135.092 116.242 135.393 116.224 135.836C116.212 136.167 116.289 136.527 116.425 136.869L125.109 132.252C124.901 131.945 124.641 131.685 124.363 131.514C123.99 131.284 123.647 131.248 123.392 131.384L116.662 134.956Z" fill="#263238"/>
<path d="M124.858 141.793C124.858 137.489 122.005 133.184 116.305 129.902C104.904 123.336 86.4185 123.336 75.0181 129.902C69.3179 133.184 66.4648 137.489 66.4648 141.793V149.717C66.4648 154.021 69.3179 158.325 75.0181 161.608C86.4185 168.174 104.904 168.174 116.305 161.608C122.005 158.325 124.858 154.021 124.858 149.717V141.793ZM76.4328 132.34C81.5233 129.406 88.3541 127.794 95.6644 127.794C102.975 127.794 109.805 129.411 114.896 132.34C119.501 134.991 122.035 138.345 122.035 141.793C122.035 145.235 119.501 148.589 114.896 151.24C109.805 154.174 102.975 155.786 95.6644 155.786C88.3541 155.786 81.5233 154.169 76.4328 151.24C71.8277 148.589 69.2942 145.235 69.2942 141.793C69.2942 138.351 71.8277 134.991 76.4328 132.34Z" fill="#538DF7"/>
<path opacity="0.3" d="M75.0191 153.679C86.4195 160.244 104.905 160.244 116.306 153.679C127.706 147.113 127.706 136.467 116.306 129.902C104.905 123.336 86.4195 123.336 75.0191 129.902C63.6186 136.467 63.6186 147.113 75.0191 153.679ZM69.2893 141.793C69.2893 138.351 71.8227 134.991 76.4278 132.34C81.5184 129.406 88.3492 127.794 95.6594 127.794C102.97 127.794 109.8 129.411 114.891 132.34C119.496 134.991 122.03 138.345 122.03 141.793C122.03 145.235 119.496 148.589 114.891 151.24C109.8 154.174 102.97 155.786 95.6594 155.786C88.3492 155.786 81.5184 154.169 76.4278 151.24C71.8286 148.589 69.2893 145.235 69.2893 141.793Z" fill="white"/>
<path d="M69.2891 141.793C69.2891 143.145 69.6797 144.474 70.4315 145.761C71.5916 143.759 73.6278 141.887 76.4336 140.276C81.5241 137.341 88.3549 135.723 95.6651 135.723C102.969 135.723 109.806 137.341 114.891 140.276C117.696 141.887 119.733 143.765 120.899 145.761C121.645 144.474 122.035 143.145 122.035 141.793C122.035 138.351 119.502 134.997 114.891 132.34C109.8 129.412 102.969 127.794 95.6651 127.794C88.3549 127.794 81.5182 129.412 76.4336 132.34C71.8225 134.991 69.2891 138.351 69.2891 141.793Z" fill="#538DF7"/>
<path opacity="0.1" d="M69.2891 141.793C69.2891 143.145 69.6797 144.474 70.4315 145.761C71.5916 143.759 73.6278 141.887 76.4336 140.276C81.5241 137.341 88.3549 135.723 95.6651 135.723C102.969 135.723 109.806 137.341 114.891 140.276C117.696 141.887 119.733 143.765 120.899 145.761C121.645 144.474 122.035 143.145 122.035 141.793C122.035 138.351 119.502 134.997 114.891 132.34C109.8 129.412 102.969 127.794 95.6651 127.794C88.3549 127.794 81.5182 129.412 76.4336 132.34C71.8225 134.991 69.2891 138.351 69.2891 141.793Z" fill="black"/>
<path opacity="0.4" d="M76.4272 135.93C81.5177 132.995 88.3485 131.384 95.6588 131.384C102.969 131.384 109.8 133.001 114.89 135.93C118.69 138.12 121.076 140.783 121.792 143.588C121.07 146.387 118.685 149.055 114.89 151.246C109.8 154.18 102.969 155.792 95.6588 155.792C88.3485 155.792 81.5177 154.174 76.4272 151.246C72.6271 149.055 70.2416 146.393 69.5254 143.588C70.2475 140.789 72.633 138.12 76.4272 135.93Z" fill="white"/>
<path opacity="0.1" d="M88.7803 158.136V166.054C83.7371 165.357 78.9544 163.875 75.0181 161.602C69.312 158.319 66.4648 154.015 66.4648 149.711V141.787C66.4648 140.919 66.5832 140.051 66.8141 139.189H66.82C65.4349 144.308 68.1696 149.729 75.0181 153.679C78.9544 155.952 83.7371 157.434 88.7803 158.136Z" fill="black"/>
</g>
<defs>
<clipPath id="clip0">
<rect width="183" height="180" fill="white"/>
</clipPath>
</defs>
</svg>
