<svg width="186" height="180" viewBox="0 0 186 180" fill="none" xmlns="http://www.w3.org/2000/svg">
    <path opacity="0.1" d="M93 180C144.362 180 186 155.314 186 124.862C186 94.4097 144.362 69.7235 93 69.7235C41.6375 69.7235 0 94.4097 0 124.862C0 155.314 41.6375 180 93 180Z" fill="#2146D9"/>
    <path opacity="0.1" d="M117.033 152.714C123.382 152.714 128.528 149.66 128.528 145.892C128.528 142.125 123.382 139.071 117.033 139.071C110.685 139.071 105.539 142.125 105.539 145.892C105.539 149.66 110.685 152.714 117.033 152.714Z" fill="#2146D9"/>
    <path opacity="0.1" d="M80.045 162.234C79.5421 162.234 79.1093 162.128 78.7506 161.92L72.2395 158.122L66.1338 161.68C65.7751 161.888 65.3423 161.994 64.8433 161.994C64.3442 161.994 63.9115 161.888 63.5528 161.68L59.4472 159.287C58.917 158.976 58.8039 158.583 58.8039 158.307C58.8039 158.032 58.917 157.635 59.4472 157.328L65.163 153.999L59.0418 150.434C58.5154 150.127 58.4023 149.734 58.3984 149.454C58.3984 149.175 58.5115 148.781 59.0418 148.47L64.161 145.488C64.5158 145.279 64.9525 145.173 65.4515 145.173C65.9545 145.173 66.3911 145.279 66.7459 145.488L73.2571 149.281L79.3198 145.748C79.6785 145.539 80.1113 145.433 80.6143 145.433C81.1172 145.433 81.55 145.539 81.9048 145.744L86.0103 148.136C86.5406 148.447 86.6536 148.84 86.6536 149.116C86.6536 149.391 86.5406 149.785 86.0103 150.096L80.3374 153.401L86.4587 156.97C86.9889 157.28 87.102 157.674 87.102 157.949C87.102 158.225 86.9889 158.622 86.4587 158.929L81.3395 161.912C80.9808 162.128 80.548 162.234 80.045 162.234Z" fill="#2146D9"/>
    <path opacity="0.1" d="M95.473 143.804C94.9739 143.804 94.5411 143.698 94.1824 143.489L90.0769 141.097C89.5467 140.786 89.4336 140.392 89.4336 140.117C89.4336 139.842 89.5467 139.444 90.0769 139.137L109.949 127.557C110.304 127.349 110.741 127.242 111.244 127.242C111.747 127.242 112.18 127.349 112.534 127.553L116.64 129.946C117.17 130.256 117.283 130.65 117.283 130.925C117.283 131.201 117.17 131.594 116.64 131.905L96.7635 143.485C96.4087 143.698 95.972 143.804 95.473 143.804Z" fill="#2146D9"/>
    <path opacity="0.1" d="M35.4687 150.08L8.75356 134.514C7.82173 133.971 7.82173 133.089 8.75356 132.546L62.41 101.284C63.3418 100.741 64.8546 100.741 65.7864 101.284L92.4859 116.858C93.4178 117.401 93.4178 118.283 92.4859 118.826L38.8451 150.08C37.9133 150.623 36.4005 150.623 35.4687 150.08Z" fill="#2146D9"/>
    <path d="M93.6361 6.14507C93.6361 5.063 93.2618 4.30359 92.6575 3.94552C92.0454 3.58352 86.9144 0.565537 86.2906 0.215341C85.6824 -0.126986 84.848 -0.0679639 83.9279 0.467168L32.6147 30.3637C30.751 31.4497 29.2383 34.0939 29.2383 36.2659V142.97C29.2383 144.056 29.6165 144.819 30.2286 145.177C30.8407 145.531 35.9405 148.51 36.5409 148.872C37.153 149.242 38.0069 149.198 38.9504 148.647L90.2597 118.751C92.1233 117.665 93.6361 115.021 93.6361 112.849V6.14507Z" fill="#37474F"/>
    <path d="M35.5737 146.68V39.9766C35.5737 37.8046 37.0865 35.1604 38.9502 34.0744L90.2594 4.17785C92.1231 3.09184 93.6359 3.97324 93.6359 6.14524V112.849C93.6359 115.021 92.1231 117.665 90.2594 118.751L38.9502 148.648C37.0826 149.734 35.5737 148.852 35.5737 146.68Z" fill="#37474F"/>
    <path d="M49.0641 127.183C48.9432 127.112 48.7989 127.116 48.643 127.207L41.1064 131.602C40.6737 131.854 40.3228 132.684 40.3228 133.459V140.908C40.3228 141.4 40.4631 141.75 40.6776 141.876C40.8023 141.947 42.0461 142.671 42.2605 142.797C42.3814 142.867 42.5295 142.867 42.6855 142.777L50.222 138.382C50.6548 138.13 51.0057 137.3 51.0057 136.524V129.076C51.0057 128.576 50.8614 128.222 50.6392 128.1C50.5222 128.033 49.2824 127.305 49.0641 127.183Z" fill="#538DF7"/>
    <path opacity="0.25" d="M42.2839 142.808C42.2761 142.808 42.2722 142.804 42.2644 142.801C42.05 142.675 40.8023 141.951 40.6776 141.88C40.467 141.754 40.3228 141.404 40.3228 140.912V133.463C40.3228 133.054 40.4202 132.633 40.5762 132.287L42.1591 133.207C42.0032 133.554 41.9057 133.975 41.9057 134.384L41.9096 141.829C41.9096 142.336 42.0578 142.69 42.2839 142.808Z" fill="black"/>
    <path opacity="0.5" d="M50.6353 128.096C50.5144 128.033 50.3741 128.041 50.2259 128.128L42.6894 132.523C42.4827 132.641 42.2956 132.893 42.1591 133.207L40.5762 132.287C40.7165 131.976 40.8998 131.724 41.1064 131.606L48.643 127.211C48.7989 127.12 48.9432 127.116 49.064 127.183C49.2785 127.305 50.4793 128.01 50.6353 128.096Z" fill="white"/>
    <path d="M50.2299 138.382L42.6933 142.777C42.2606 143.029 41.9097 142.604 41.9097 141.829V134.38C41.9097 133.605 42.2606 132.775 42.6933 132.523L50.2299 128.128C50.6626 127.876 51.0135 128.301 51.0135 129.076V136.524C51.0096 137.296 50.6587 138.13 50.2299 138.382Z" fill="#538DF7"/>
    <path d="M75.9859 111.499C75.865 111.428 75.7208 111.432 75.5648 111.523L68.0283 115.918C67.5955 116.17 67.2446 117 67.2446 117.775V125.224C67.2446 125.716 67.385 126.066 67.5994 126.192C67.7203 126.262 68.9679 126.986 69.1824 127.112C69.3032 127.183 69.4514 127.183 69.6073 127.093L77.1439 122.698C77.5767 122.446 77.9276 121.615 77.9276 120.84V113.392C77.9276 112.892 77.7833 112.538 77.5611 112.416C77.4441 112.349 76.2042 111.621 75.9859 111.499Z" fill="#538DF7"/>
    <path opacity="0.25" d="M69.2058 127.12C69.198 127.12 69.1941 127.116 69.1863 127.112C68.9718 126.986 67.7242 126.262 67.5994 126.192C67.3889 126.066 67.2446 125.716 67.2446 125.224V117.775C67.2446 117.366 67.3421 116.945 67.4981 116.599L69.081 117.519C68.925 117.866 68.8276 118.287 68.8276 118.696L68.8315 126.141C68.8315 126.648 68.9796 127.002 69.2058 127.12Z" fill="black"/>
    <path opacity="0.5" d="M77.5572 112.408C77.4363 112.345 77.2959 112.353 77.1478 112.44L69.6112 116.835C69.4046 116.953 69.2175 117.205 69.081 117.519L67.498 116.599C67.6384 116.288 67.8217 116.036 68.0283 115.918L75.5648 111.523C75.7208 111.432 75.865 111.428 75.9859 111.495C76.2003 111.617 77.4012 112.321 77.5572 112.408Z" fill="white"/>
    <path d="M77.1478 122.694L69.6113 127.089C69.1785 127.341 68.8276 126.916 68.8276 126.14V118.692C68.8276 117.917 69.1785 117.086 69.6113 116.835L77.1478 112.439C77.5806 112.188 77.9315 112.613 77.9315 113.388V120.836C77.9315 121.611 77.5806 122.442 77.1478 122.694Z" fill="#538DF7"/>
    <path d="M89.4449 103.653C89.324 103.582 89.1798 103.586 89.0238 103.677L81.4873 108.076C81.0545 108.328 80.7036 109.158 80.7036 109.933V117.382C80.7036 117.873 80.844 118.224 81.0584 118.35C81.1832 118.42 82.4269 119.144 82.6414 119.27C82.7622 119.341 82.9104 119.341 83.0702 119.251L90.6068 114.855C91.0395 114.604 91.3904 113.773 91.3904 112.998V105.55C91.3904 105.05 91.2462 104.696 91.0239 104.574C90.9031 104.507 89.6632 103.779 89.4449 103.653Z" fill="#538DF7"/>
    <path opacity="0.25" d="M82.6647 119.278C82.6569 119.278 82.653 119.274 82.6452 119.27C82.4308 119.144 81.1832 118.42 81.0584 118.35C80.8479 118.224 80.7036 117.873 80.7036 117.382V109.933C80.7036 109.524 80.8011 109.103 80.957 108.757L82.54 109.677C82.384 110.024 82.2866 110.445 82.2866 110.854L82.2904 118.298C82.2904 118.806 82.4386 119.16 82.6647 119.278Z" fill="black"/>
    <path opacity="0.5" d="M91.0161 104.566C90.8953 104.503 90.7549 104.511 90.6068 104.597L83.0702 108.993C82.8636 109.111 82.6764 109.363 82.54 109.677L80.957 108.757C81.0974 108.446 81.2806 108.194 81.4873 108.076L89.0238 103.681C89.1798 103.59 89.324 103.586 89.4449 103.653C89.6593 103.775 90.8602 104.479 91.0161 104.566Z" fill="white"/>
    <path d="M90.6107 114.851L83.0742 119.247C82.6414 119.498 82.2905 119.074 82.2905 118.298V110.85C82.2905 110.075 82.6414 109.244 83.0703 108.993L90.6068 104.597C91.0396 104.346 91.3905 104.771 91.3905 105.546V112.994C91.3905 113.769 91.0396 114.6 90.6107 114.851Z" fill="#538DF7"/>
    <path d="M89.4449 87.9494C89.324 87.8786 89.1798 87.8825 89.0238 87.973L81.4873 92.3682C81.0545 92.62 80.7036 93.4502 80.7036 94.2254V101.674C80.7036 102.166 80.844 102.516 81.0584 102.642C81.1832 102.713 82.4269 103.437 82.6414 103.563C82.7622 103.633 82.9104 103.633 83.0663 103.543L90.6029 99.1478C91.0356 98.896 91.3865 98.0658 91.3865 97.2906V89.842C91.3865 89.3423 91.2423 88.9882 91.02 88.8662C90.9031 88.7993 89.6632 88.0753 89.4449 87.9494Z" fill="#538DF7"/>
    <path opacity="0.25" d="M82.6647 103.574C82.6569 103.574 82.653 103.571 82.6452 103.567C82.4308 103.441 81.1832 102.717 81.0584 102.646C80.8479 102.52 80.7036 102.17 80.7036 101.678V94.2294C80.7036 93.8201 80.8011 93.3991 80.957 93.0529L82.54 93.9736C82.384 94.3199 82.2866 94.7409 82.2866 95.1501L82.2904 102.595C82.2904 103.102 82.4386 103.456 82.6647 103.574Z" fill="black"/>
    <path opacity="0.5" d="M91.0161 88.8623C90.8953 88.7993 90.7549 88.8072 90.6068 88.8938L83.0702 93.2889C82.8636 93.407 82.6764 93.6588 82.54 93.9736L80.957 93.0528C81.0974 92.742 81.2806 92.4902 81.4873 92.3721L89.0238 87.977C89.1798 87.8865 89.324 87.8825 89.4449 87.9494C89.6593 88.0714 90.8602 88.7757 91.0161 88.8623Z" fill="white"/>
    <path d="M90.6107 99.1478L83.0742 103.543C82.6414 103.795 82.2905 103.37 82.2905 102.595V95.1461C82.2905 94.3709 82.6414 93.5407 83.0703 93.2889L90.6068 88.8937C91.0396 88.6419 91.3905 89.0668 91.3905 89.842V97.2905C91.3905 98.0657 91.0396 98.8959 90.6107 99.1478Z" fill="#538DF7"/>
    <path d="M89.4449 72.2457C89.324 72.1748 89.1798 72.1788 89.0238 72.2693L81.4873 76.6644C81.0545 76.9163 80.7036 77.7465 80.7036 78.5217V85.9702C80.7036 86.4621 80.844 86.8123 81.0584 86.9382C81.1832 87.009 82.4269 87.733 82.6414 87.8589C82.7622 87.9297 82.9104 87.9297 83.0663 87.8392L90.6029 83.4441C91.0356 83.1923 91.3865 82.362 91.3865 81.5869V74.1383C91.3865 73.6386 91.2423 73.2845 91.02 73.1625C90.9031 73.0956 89.6632 72.3716 89.4449 72.2457Z" fill="#538DF7"/>
    <path opacity="0.25" d="M82.6647 87.8708C82.6569 87.8708 82.653 87.8668 82.6452 87.8629C82.4308 87.737 81.1832 87.013 81.0584 86.9422C80.8479 86.8162 80.7036 86.466 80.7036 85.9742V78.5256C80.7036 78.1164 80.8011 77.6954 80.957 77.3491L82.54 78.2699C82.384 78.6161 82.2866 79.0371 82.2866 79.4464L82.2904 86.891C82.2904 87.3986 82.4386 87.7527 82.6647 87.8708Z" fill="black"/>
    <path opacity="0.5" d="M91.0161 73.1585C90.8953 73.0956 90.7549 73.1035 90.6068 73.19L83.0702 77.5852C82.8636 77.7032 82.6764 77.9551 82.54 78.2698L80.957 77.3491C81.0974 77.0382 81.2806 76.7864 81.4873 76.6684L89.0238 72.2732C89.1798 72.1827 89.324 72.1788 89.4449 72.2457C89.6593 72.3676 90.8602 73.072 91.0161 73.1585Z" fill="white"/>
    <path d="M90.6107 83.444L83.0742 87.8392C82.6414 88.091 82.2905 87.6661 82.2905 86.8909V79.4423C82.2905 78.6672 82.6414 77.837 83.0703 77.5851L90.6068 73.19C91.0396 72.9381 91.3905 73.3631 91.3905 74.1383V81.5868C91.3905 82.362 91.0396 83.1922 90.6107 83.444Z" fill="#538DF7"/>
    <path d="M89.4449 56.5419C89.324 56.4711 89.1798 56.475 89.0238 56.5655L81.4873 60.9607C81.0545 61.2125 80.7036 62.0428 80.7036 62.8179V70.2665C80.7036 70.7583 80.844 71.1085 81.0584 71.2344C81.1832 71.3053 82.4269 72.0293 82.6414 72.1552C82.7622 72.226 82.9104 72.226 83.0702 72.1355L90.6068 67.7403C91.0395 67.4885 91.3904 66.6583 91.3904 65.8831V58.4346C91.3904 57.9348 91.2462 57.5807 91.0239 57.4587C90.9031 57.3918 89.6632 56.6639 89.4449 56.5419Z" fill="#538DF7"/>
    <path opacity="0.25" d="M82.6647 72.167C82.6569 72.167 82.653 72.1631 82.6452 72.1591C82.4308 72.0332 81.1832 71.3092 81.0584 71.2384C80.8479 71.1125 80.7036 70.7623 80.7036 70.2704V62.8219C80.7036 62.4127 80.8011 61.9916 80.957 61.6454L82.54 62.5661C82.384 62.9124 82.2866 63.3334 82.2866 63.7426L82.2904 71.1873C82.2904 71.6948 82.4386 72.049 82.6647 72.167Z" fill="black"/>
    <path opacity="0.5" d="M91.0161 57.4548C90.8953 57.3919 90.7549 57.3997 90.6068 57.4863L83.0702 61.8815C82.8636 61.9995 82.6764 62.2513 82.54 62.5661L80.957 61.6454C81.0974 61.3345 81.2806 61.0827 81.4873 60.9646L89.0238 56.5695C89.1798 56.479 89.324 56.475 89.4449 56.5419C89.6593 56.6639 90.8602 57.3682 91.0161 57.4548Z" fill="white"/>
    <path d="M90.6107 67.7403L83.0742 72.1354C82.6414 72.3873 82.2905 71.9623 82.2905 71.1872V63.7386C82.2905 62.9635 82.6414 62.1332 83.0742 61.8814L90.6107 57.4862C91.0435 57.2344 91.3944 57.6594 91.3944 58.4345V65.8831C91.3905 66.6543 91.0396 67.4885 90.6107 67.7403Z" fill="#538DF7"/>
    <path d="M89.4449 40.8382C89.324 40.7674 89.1798 40.7713 89.0238 40.8618L81.4873 45.257C81.0545 45.5088 80.7036 46.339 80.7036 47.1142V54.5627C80.7036 55.0546 80.844 55.4048 81.0584 55.5307C81.1832 55.6015 82.4269 56.3255 82.6414 56.4514C82.7622 56.5223 82.9104 56.5223 83.0663 56.4318L90.6029 52.0366C91.0356 51.7848 91.3865 50.9545 91.3865 50.1794V42.7308C91.3865 42.2311 91.2423 41.877 91.02 41.755C90.9031 41.6881 89.6632 40.9602 89.4449 40.8382Z" fill="#538DF7"/>
    <path opacity="0.25" d="M82.6647 56.4633C82.6569 56.4633 82.653 56.4593 82.6452 56.4554C82.4308 56.3295 81.1832 55.6055 81.0584 55.5347C80.8479 55.4088 80.7036 55.0586 80.7036 54.5667V47.1182C80.7036 46.7089 80.8011 46.2879 80.957 45.9417L82.54 46.8624C82.384 47.2087 82.2866 47.6297 82.2866 48.0389L82.2904 55.4835C82.2904 55.9911 82.4386 56.3452 82.6647 56.4633Z" fill="black"/>
    <path opacity="0.5" d="M91.0161 41.7511C90.8953 41.6881 90.7549 41.696 90.6068 41.7826L83.0702 46.1777C82.8636 46.2958 82.6764 46.5476 82.54 46.8624L80.957 45.9416C81.0974 45.6308 81.2806 45.379 81.4873 45.2609L89.0238 40.8657C89.1798 40.7752 89.324 40.7713 89.4449 40.8382C89.6593 40.9602 90.8602 41.6645 91.0161 41.7511Z" fill="white"/>
    <path d="M90.6107 52.0366L83.0742 56.4317C82.6414 56.6836 82.2905 56.2586 82.2905 55.4834V48.0349C82.2905 47.2597 82.6414 46.4295 83.0703 46.1777L90.6068 41.7825C91.0396 41.5307 91.3905 41.9556 91.3905 42.7308V50.1793C91.3905 50.9506 91.0396 51.7847 90.6107 52.0366Z" fill="#538DF7"/>
    <path d="M75.9859 48.6802C75.865 48.6094 75.7208 48.6133 75.5648 48.7038L68.0283 53.099C67.5955 53.3508 67.2446 54.1811 67.2446 54.9562V62.4048C67.2446 62.8966 67.385 63.2468 67.5994 63.3728C67.7203 63.4436 68.9679 64.1676 69.1824 64.2935C69.3032 64.3643 69.4514 64.3643 69.6073 64.2738L77.1439 59.8787C77.5767 59.6268 77.9276 58.7966 77.9276 58.0214V50.5729C77.9276 50.0732 77.7833 49.719 77.5611 49.597C77.4441 49.5302 76.2042 48.8062 75.9859 48.6802Z" fill="#538DF7"/>
    <path opacity="0.25" d="M69.2058 64.3053C69.198 64.3053 69.1941 64.3014 69.1863 64.2975C68.9718 64.1715 67.7242 63.4475 67.5994 63.3767C67.3889 63.2508 67.2446 62.9006 67.2446 62.4088V54.9602C67.2446 54.551 67.3421 54.13 67.4981 53.7837L69.081 54.7044C68.925 55.0507 68.8276 55.4717 68.8276 55.8809L68.8315 63.3256C68.8315 63.8332 68.9796 64.1873 69.2058 64.3053Z" fill="black"/>
    <path opacity="0.5" d="M77.5572 49.5931C77.4363 49.5302 77.2959 49.538 77.1478 49.6246L69.6112 54.0197C69.4046 54.1378 69.2175 54.3896 69.081 54.7044L67.498 53.7837C67.6384 53.4728 67.8217 53.221 68.0283 53.1029L75.5648 48.7078C75.7208 48.6173 75.865 48.6134 75.9859 48.6802C76.2003 48.8022 77.4012 49.5065 77.5572 49.5931Z" fill="white"/>
    <path d="M77.1478 59.8786L69.6113 64.2737C69.1785 64.5256 68.8276 64.1006 68.8276 63.3255V55.8769C68.8276 55.1018 69.1785 54.2715 69.6113 54.0197L77.1478 49.6245C77.5806 49.3727 77.9315 49.7977 77.9315 50.5728V58.0214C77.9315 58.7965 77.5806 59.6268 77.1478 59.8786Z" fill="#538DF7"/>
    <path d="M62.5264 56.5223C62.4056 56.4515 62.2613 56.4554 62.1054 56.5459L54.5688 60.941C54.1361 61.1929 53.7852 62.0231 53.7852 62.7983V70.2468C53.7852 70.7387 53.9255 71.0889 54.14 71.2148C54.2647 71.2856 55.5085 72.0096 55.7229 72.1355C55.8438 72.2063 55.9919 72.2063 56.1518 72.1158L63.6883 67.7207C64.1211 67.4689 64.472 66.6386 64.472 65.8635V58.4149C64.472 57.9152 64.3277 57.5611 64.1055 57.4391C63.9846 57.3761 62.7409 56.6482 62.5264 56.5223Z" fill="#538DF7"/>
    <path opacity="0.25" d="M55.7429 72.1474C55.7351 72.1474 55.7312 72.1434 55.7234 72.1395C55.5089 72.0136 54.2613 71.2896 54.1365 71.2188C53.926 71.0929 53.7817 70.7427 53.7817 70.2508V62.8022C53.7817 62.393 53.8792 61.972 54.0352 61.6257L55.6181 62.5465C55.4622 62.8927 55.3647 63.3138 55.3647 63.723L55.3686 71.1676C55.3686 71.6752 55.5167 72.0293 55.7429 72.1474Z" fill="black"/>
    <path opacity="0.5" d="M64.0943 57.4352C63.9734 57.3722 63.8331 57.3801 63.6849 57.4666L56.1484 61.8618C55.9417 61.9798 55.7546 62.2317 55.6181 62.5465L54.0352 61.6257C54.1755 61.3149 54.3588 61.063 54.5654 60.945L62.1019 56.5498C62.2579 56.4593 62.4022 56.4554 62.523 56.5223C62.7375 56.6443 63.9383 57.3486 64.0943 57.4352Z" fill="white"/>
    <path d="M63.6889 67.7206L56.1523 72.1158C55.7196 72.3676 55.3687 71.9427 55.3687 71.1675V63.719C55.3687 62.9438 55.7196 62.1136 56.1523 61.8617L63.6889 57.4666C64.1216 57.2148 64.4725 57.6397 64.4725 58.4149V65.8634C64.4686 66.6386 64.1216 67.4688 63.6889 67.7206Z" fill="#538DF7"/>
    <path d="M49.0641 64.3682C48.9432 64.2974 48.7989 64.3013 48.643 64.3918L41.1064 68.787C40.6737 69.0388 40.3228 69.8691 40.3228 70.6442V78.0928C40.3228 78.5846 40.4631 78.9348 40.6776 79.0607C40.8023 79.1316 42.0461 79.8556 42.2605 79.9815C42.3814 80.0523 42.5295 80.0523 42.6855 79.9618L50.222 75.5666C50.6548 75.3148 51.0057 74.4846 51.0057 73.7094V66.2609C51.0057 65.7611 50.8614 65.407 50.6392 65.285C50.5222 65.2181 49.2824 64.4902 49.0641 64.3682Z" fill="#538DF7"/>
    <path opacity="0.25" d="M42.2839 79.9894C42.2761 79.9894 42.2722 79.9855 42.2644 79.9815C42.05 79.8556 40.8023 79.1316 40.6776 79.0608C40.467 78.9349 40.3228 78.5847 40.3228 78.0928V70.6443C40.3228 70.2351 40.4202 69.814 40.5762 69.4678L42.1591 70.3885C42.0032 70.7348 41.9057 71.1558 41.9057 71.565L41.9096 79.0096C41.9096 79.5172 42.0578 79.8714 42.2839 79.9894Z" fill="black"/>
    <path opacity="0.5" d="M50.6353 65.2772C50.5144 65.2142 50.3741 65.2221 50.2259 65.3087L42.6894 69.7038C42.4827 69.8219 42.2956 70.0737 42.1591 70.3885L40.5762 69.4678C40.7165 69.1569 40.8998 68.9051 41.1064 68.787L48.643 64.3919C48.7989 64.3014 48.9432 64.2974 49.064 64.3643C49.2785 64.4863 50.4793 65.1906 50.6353 65.2772Z" fill="white"/>
    <path d="M50.2299 75.5627L42.6933 79.9578C42.2606 80.2097 41.9097 79.7847 41.9097 79.0096V71.561C41.9097 70.7858 42.2606 69.9556 42.6894 69.7038L50.226 65.3086C50.6588 65.0568 51.0097 65.4817 51.0097 66.2569V73.7055C51.0097 74.4806 50.6588 75.3109 50.2299 75.5627Z" fill="#538DF7"/>
    <path d="M62.5264 119.341C62.4056 119.27 62.2613 119.274 62.1054 119.365L54.5688 123.76C54.1361 124.012 53.7852 124.842 53.7852 125.617V133.066C53.7852 133.557 53.9255 133.908 54.14 134.033C54.2647 134.104 55.5085 134.828 55.7229 134.954C55.8438 135.025 55.9919 135.025 56.1479 134.935L63.6844 130.539C64.1172 130.288 64.4681 129.457 64.4681 128.682V121.234C64.4681 120.734 64.3238 120.38 64.1016 120.258C63.9846 120.191 62.7409 119.463 62.5264 119.341Z" fill="#E0E0E0"/>
    <path d="M64.0943 120.25C63.9734 120.187 63.8331 120.195 63.6849 120.281L56.1484 124.677C55.9417 124.795 55.7546 125.047 55.6181 125.361L54.0352 124.441C54.1755 124.13 54.3588 123.878 54.5654 123.76L62.1019 119.365C62.2579 119.274 62.4022 119.27 62.523 119.337C62.7375 119.459 63.9383 120.163 64.0943 120.25Z" fill="#F0F0F0"/>
    <path opacity="0.2" d="M55.7429 134.962C55.7351 134.962 55.7312 134.958 55.7234 134.954C55.5089 134.828 54.2613 134.104 54.1365 134.034C53.926 133.908 53.7817 133.557 53.7817 133.066V125.617C53.7817 125.208 53.8792 124.787 54.0352 124.441L55.6181 125.361C55.4622 125.708 55.3647 126.129 55.3647 126.538L55.3686 133.982C55.3686 134.49 55.5167 134.844 55.7429 134.962Z" fill="black"/>
    <path d="M49.0641 111.479C48.9432 111.409 48.7989 111.413 48.643 111.503L41.1064 115.898C40.6737 116.15 40.3228 116.98 40.3228 117.755V125.204C40.3228 125.696 40.4631 126.046 40.6776 126.172C40.7984 126.243 42.0461 126.967 42.2605 127.093C42.3814 127.163 42.5295 127.163 42.6855 127.073L50.222 122.678C50.6548 122.426 51.0057 121.596 51.0057 120.821V113.372C51.0057 112.872 50.8614 112.518 50.6392 112.396C50.5222 112.329 49.2824 111.601 49.0641 111.479Z" fill="#E0E0E0"/>
    <path d="M50.6353 112.388C50.5144 112.325 50.3741 112.333 50.2259 112.42L42.6894 116.815C42.4827 116.933 42.2956 117.185 42.1591 117.5L40.5762 116.579C40.7165 116.268 40.8998 116.016 41.1064 115.898L48.643 111.503C48.7989 111.413 48.9432 111.409 49.064 111.476C49.2785 111.598 50.4793 112.302 50.6353 112.388Z" fill="#F0F0F0"/>
    <path opacity="0.2" d="M42.2839 127.101C42.2761 127.101 42.2722 127.097 42.2644 127.093C42.05 126.967 40.8023 126.243 40.6776 126.172C40.467 126.046 40.3228 125.696 40.3228 125.204V117.755C40.3228 117.346 40.4202 116.925 40.5762 116.579L42.1591 117.5C42.0032 117.846 41.9057 118.267 41.9057 118.676L41.9096 126.121C41.9096 126.628 42.0578 126.982 42.2839 127.101Z" fill="black"/>
    <path d="M75.9859 95.7954C75.865 95.7245 75.7208 95.7285 75.5648 95.819L68.0283 100.214C67.5955 100.466 67.2446 101.296 67.2446 102.071V109.52C67.2446 110.012 67.385 110.362 67.5994 110.488C67.7242 110.559 68.9679 111.283 69.1824 111.409C69.3032 111.479 69.4514 111.479 69.6112 111.389L77.1478 106.994C77.5805 106.742 77.9314 105.912 77.9314 105.137V97.688C77.9314 97.1883 77.7872 96.8341 77.565 96.7122C77.4441 96.6453 76.2003 95.9173 75.9859 95.7954Z" fill="#E0E0E0"/>
    <path d="M77.5572 96.7043C77.4363 96.6414 77.2959 96.6492 77.1478 96.7358L69.6112 101.131C69.4046 101.249 69.2175 101.501 69.081 101.816L67.498 100.895C67.6384 100.584 67.8217 100.332 68.0283 100.214L75.5648 95.819C75.7208 95.7285 75.865 95.7246 75.9859 95.7914C76.2003 95.9134 77.4012 96.6178 77.5572 96.7043Z" fill="#F0F0F0"/>
    <path opacity="0.2" d="M69.2058 111.417C69.198 111.417 69.1941 111.413 69.1863 111.409C68.9718 111.283 67.7242 110.559 67.5994 110.488C67.3889 110.362 67.2446 110.012 67.2446 109.52V102.071C67.2446 101.662 67.3421 101.241 67.4981 100.895L69.081 101.816C68.925 102.162 68.8276 102.583 68.8276 102.992L68.8315 110.437C68.8315 110.944 68.9796 111.299 69.2058 111.417Z" fill="black"/>
    <path d="M62.5264 103.637C62.4056 103.567 62.2613 103.57 62.1054 103.661L54.5688 108.056C54.1361 108.308 53.7852 109.138 53.7852 109.913V117.362C53.7852 117.854 53.9255 118.204 54.14 118.33C54.2647 118.401 55.5085 119.125 55.7229 119.251C55.8438 119.321 55.9919 119.321 56.1479 119.231L63.6844 114.836C64.1172 114.584 64.4681 113.754 64.4681 112.979V105.53C64.4681 105.03 64.3238 104.676 64.1016 104.554C63.9846 104.487 62.7409 103.759 62.5264 103.637Z" fill="#E0E0E0"/>
    <path d="M64.0943 104.546C63.9734 104.483 63.8331 104.491 63.6849 104.578L56.1484 108.973C55.9417 109.091 55.7546 109.343 55.6181 109.658L54.0352 108.737C54.1755 108.426 54.3588 108.174 54.5654 108.056L62.1019 103.661C62.2579 103.571 62.4022 103.567 62.523 103.633C62.7375 103.755 63.9383 104.46 64.0943 104.546Z" fill="#F0F0F0"/>
    <path opacity="0.2" d="M55.7429 119.258C55.7351 119.258 55.7312 119.255 55.7234 119.251C55.5089 119.125 54.2613 118.401 54.1365 118.33C53.926 118.204 53.7817 117.854 53.7817 117.362V109.913C53.7817 109.504 53.8792 109.083 54.0352 108.737L55.6181 109.658C55.4622 110.004 55.3647 110.425 55.3647 110.834L55.3686 118.279C55.3686 118.786 55.5167 119.14 55.7429 119.258Z" fill="black"/>
    <path d="M49.0641 95.7796C48.9432 95.7088 48.7989 95.7127 48.643 95.8032L41.1064 100.198C40.6737 100.45 40.3228 101.28 40.3228 102.056V109.504C40.3228 109.996 40.4631 110.346 40.6776 110.472C40.7984 110.543 42.0461 111.267 42.2605 111.393C42.3814 111.464 42.5295 111.464 42.6855 111.373L50.222 106.978C50.6548 106.726 51.0057 105.896 51.0057 105.121V97.6722C51.0057 97.1725 50.8614 96.8184 50.6392 96.6964C50.5222 96.6295 49.2824 95.9055 49.0641 95.7796Z" fill="#E0E0E0"/>
    <path d="M50.6353 96.6925C50.5144 96.6295 50.3741 96.6374 50.2259 96.724L42.6894 101.119C42.4827 101.237 42.2956 101.489 42.1591 101.804L40.5762 100.883C40.7165 100.572 40.8998 100.32 41.1064 100.202L48.643 95.8071C48.7989 95.7166 48.9432 95.7127 49.064 95.7796C49.2785 95.9016 50.4793 96.6059 50.6353 96.6925Z" fill="#F0F0F0"/>
    <path opacity="0.2" d="M42.2839 111.405C42.2761 111.405 42.2722 111.401 42.2644 111.397C42.05 111.271 40.8023 110.547 40.6776 110.476C40.467 110.35 40.3228 110 40.3228 109.508V102.06C40.3228 101.65 40.4202 101.229 40.5762 100.883L42.1591 101.804C42.0032 102.15 41.9057 102.571 41.9057 102.98L41.9096 110.425C41.9096 110.932 42.0578 111.287 42.2839 111.405Z" fill="black"/>
    <path d="M75.9859 80.0955C75.865 80.0247 75.7208 80.0286 75.5648 80.1191L68.0283 84.5143C67.5955 84.7661 67.2446 85.5964 67.2446 86.3715V93.8201C67.2446 94.3119 67.385 94.6621 67.5994 94.788C67.7242 94.8588 68.9679 95.5828 69.1824 95.7088C69.3032 95.7796 69.4514 95.7796 69.6112 95.6891L77.1478 91.2939C77.5805 91.0421 77.9314 90.2119 77.9314 89.4367V81.9882C77.9314 81.4884 77.7872 81.1343 77.565 81.0123C77.4441 80.9454 76.2003 80.2175 75.9859 80.0955Z" fill="#E0E0E0"/>
    <path d="M77.5572 81.0045C77.4363 80.9415 77.2959 80.9494 77.1478 81.036L69.6112 85.4311C69.4046 85.5492 69.2175 85.801 69.081 86.1158L67.498 85.195C67.6384 84.8842 67.8217 84.6324 68.0283 84.5143L75.5648 80.1192C75.7208 80.0287 75.865 80.0247 75.9859 80.0916C76.2003 80.2136 77.4012 80.9179 77.5572 81.0045Z" fill="#F0F0F0"/>
    <path opacity="0.2" d="M69.2058 95.7166C69.198 95.7166 69.1941 95.7126 69.1863 95.7087C68.9718 95.5828 67.7242 94.8588 67.5994 94.788C67.3889 94.6621 67.2446 94.3119 67.2446 93.82V86.3715C67.2446 85.9622 67.3421 85.5412 67.4981 85.1949L69.081 86.1157C68.925 86.4619 68.8276 86.883 68.8276 87.2922L68.8315 94.7368C68.8315 95.2444 68.9796 95.5985 69.2058 95.7166Z" fill="black"/>
    <path d="M62.5264 87.9376C62.4056 87.8667 62.2613 87.8707 62.1054 87.9612L54.5688 92.3563C54.1361 92.6082 53.7852 93.4384 53.7852 94.2136V101.662C53.7852 102.154 53.9255 102.504 54.14 102.63C54.2647 102.701 55.5085 103.425 55.7229 103.551C55.8438 103.622 55.9919 103.622 56.1479 103.531L63.6844 99.136C64.1172 98.8842 64.4681 98.0539 64.4681 97.2788V89.8302C64.4681 89.3305 64.3238 88.9763 64.1016 88.8544C63.9846 88.7875 62.7409 88.0595 62.5264 87.9376Z" fill="#E0E0E0"/>
    <path d="M64.0943 88.8504C63.9734 88.7875 63.8331 88.7953 63.6849 88.8819L56.1484 93.2771C55.9417 93.3951 55.7546 93.6469 55.6181 93.9617L54.0352 93.041C54.1755 92.7301 54.3588 92.4783 54.5654 92.3603L62.1019 87.9651C62.2579 87.8746 62.4022 87.8707 62.523 87.9376C62.7375 88.0595 63.9383 88.7639 64.0943 88.8504Z" fill="#F0F0F0"/>
    <path opacity="0.2" d="M55.7429 103.563C55.7351 103.563 55.7312 103.559 55.7234 103.555C55.5089 103.429 54.2613 102.705 54.1365 102.634C53.926 102.508 53.7817 102.158 53.7817 101.666V94.2175C53.7817 93.8083 53.8792 93.3873 54.0352 93.041L55.6181 93.9618C55.4622 94.308 55.3647 94.729 55.3647 95.1383L55.3686 102.583C55.3686 103.09 55.5167 103.445 55.7429 103.563Z" fill="black"/>
    <path d="M49.0641 80.0798C48.9432 80.0089 48.7989 80.0129 48.643 80.1034L41.1064 84.4985C40.6737 84.7504 40.3228 85.5806 40.3228 86.3558V93.8043C40.3228 94.2962 40.4631 94.6464 40.6776 94.7723C40.7984 94.8431 42.0461 95.5671 42.2605 95.693C42.3814 95.7639 42.5295 95.7639 42.6855 95.6734L50.222 91.2782C50.6548 91.0264 51.0057 90.1961 51.0057 89.421V81.9724C51.0057 81.4727 50.8614 81.1186 50.6392 80.9966C50.5222 80.9297 49.2824 80.2018 49.0641 80.0798Z" fill="#E0E0E0"/>
    <path d="M50.6353 80.9926C50.5144 80.9297 50.3741 80.9376 50.2259 81.0241L42.6894 85.4193C42.4827 85.5373 42.2956 85.7891 42.1591 86.1039L40.5762 85.1832C40.7165 84.8723 40.8998 84.6205 41.1064 84.5025L48.643 80.1073C48.7989 80.0168 48.9432 80.0129 49.064 80.0798C49.2785 80.2018 50.4793 80.9061 50.6353 80.9926Z" fill="#F0F0F0"/>
    <path opacity="0.2" d="M42.2839 95.7049C42.2761 95.7049 42.2722 95.7009 42.2644 95.697C42.05 95.5711 40.8023 94.8471 40.6776 94.7762C40.467 94.6503 40.3228 94.3001 40.3228 93.8083V86.3597C40.3228 85.9505 40.4202 85.5295 40.5762 85.1832L42.1591 86.104C42.0032 86.4502 41.9057 86.8713 41.9057 87.2805L41.9096 94.7251C41.9096 95.2327 42.0578 95.5868 42.2839 95.7049Z" fill="black"/>
    <path d="M75.9859 64.3957C75.865 64.3249 75.7208 64.3288 75.5648 64.4193L68.0283 68.8145C67.5955 69.0663 67.2446 69.8965 67.2446 70.6717V78.1203C67.2446 78.6121 67.385 78.9623 67.5994 79.0882C67.7242 79.159 68.9679 79.883 69.1824 80.009C69.3032 80.0798 69.4514 80.0798 69.6112 79.9893L77.1478 75.5941C77.5805 75.3423 77.9314 74.5121 77.9314 73.7369V66.2883C77.9314 65.7886 77.7872 65.4345 77.565 65.3125C77.4441 65.2456 76.2003 64.5177 75.9859 64.3957Z" fill="#E0E0E0"/>
    <path d="M77.5572 65.3047C77.4363 65.2417 77.2959 65.2496 77.1478 65.3361L69.6112 69.7313C69.4046 69.8493 69.2175 70.1012 69.081 70.4159L67.498 69.4952C67.6384 69.1844 67.8217 68.9325 68.0283 68.8145L75.5648 64.4193C75.7208 64.3288 75.865 64.3249 75.9859 64.3918C76.2003 64.5138 77.4012 65.2181 77.5572 65.3047Z" fill="#F0F0F0"/>
    <path opacity="0.2" d="M69.2058 80.0168C69.198 80.0168 69.1941 80.0128 69.1863 80.0089C68.9718 79.883 67.7242 79.159 67.5994 79.0881C67.3889 78.9622 67.2446 78.612 67.2446 78.1202V70.6716C67.2446 70.2624 67.3421 69.8414 67.4981 69.4951L69.081 70.4159C68.925 70.7621 68.8276 71.1831 68.8276 71.5924L68.8315 79.037C68.8315 79.5446 68.9796 79.8987 69.2058 80.0168Z" fill="black"/>
    <path d="M62.5264 72.2377C62.4056 72.1669 62.2613 72.1708 62.1054 72.2613L54.5688 76.6565C54.1361 76.9083 53.7852 77.7386 53.7852 78.5137V85.9623C53.7852 86.4541 53.9255 86.8043 54.14 86.9303C54.2647 87.0011 55.5085 87.7251 55.7229 87.851C55.8438 87.9218 55.9919 87.9218 56.1479 87.8313L63.6844 83.4362C64.1172 83.1843 64.4681 82.3541 64.4681 81.5789V74.1304C64.4681 73.6306 64.3238 73.2765 64.1016 73.1545C63.9846 73.0877 62.7409 72.3597 62.5264 72.2377Z" fill="#E0E0E0"/>
    <path d="M64.0943 73.1467C63.9734 73.0837 63.8331 73.0916 63.6849 73.1782L56.1484 77.5733C55.9417 77.6914 55.7546 77.9432 55.6181 78.258L54.0352 77.3373C54.1755 77.0264 54.3588 76.7746 54.5654 76.6565L62.1019 72.2614C62.2579 72.1709 62.4022 72.1669 62.523 72.2338C62.7375 72.3558 63.9383 73.0601 64.0943 73.1467Z" fill="#F0F0F0"/>
    <path opacity="0.2" d="M55.7429 87.8589C55.7351 87.8589 55.7312 87.855 55.7234 87.851C55.5089 87.7251 54.2613 87.0011 54.1365 86.9303C53.926 86.8044 53.7817 86.4542 53.7817 85.9623V78.5138C53.7817 78.1046 53.8792 77.6835 54.0352 77.3373L55.6181 78.258C55.4622 78.6043 55.3647 79.0253 55.3647 79.4345L55.3686 86.8792C55.3686 87.3867 55.5167 87.7409 55.7429 87.8589Z" fill="black"/>
    <path d="M45.7579 90.9714C45.7579 90.9517 45.7618 90.9241 45.7696 90.8809L46.717 86.8949L45.4109 87.6583C45.3797 87.678 45.3524 87.674 45.329 87.6504C45.3056 87.6268 45.2939 87.5914 45.2939 87.5402V86.8162C45.2939 86.7651 45.3056 86.7179 45.329 86.6667C45.3524 86.6156 45.3797 86.5841 45.4109 86.5644L47.5085 85.3446C47.5397 85.325 47.567 85.3289 47.5904 85.3525C47.6138 85.3761 47.6255 85.4115 47.6255 85.4627V86.0962C47.6255 86.167 47.6021 86.2968 47.5553 86.4857L46.604 90.4835C46.5923 90.5307 46.5767 90.5779 46.5572 90.6212C46.5377 90.6645 46.5104 90.6999 46.4753 90.7195L45.8593 91.0776C45.832 91.0933 45.8047 91.0933 45.7852 91.0737C45.7657 91.0461 45.7579 91.0147 45.7579 90.9714Z" fill="#455A64"/>
    <path d="M58.6864 80.2609C58.6864 80.0366 58.7215 79.8162 58.7839 79.592C58.8502 79.3677 58.9398 79.1591 59.0529 78.9624C59.166 78.7656 59.2946 78.5846 59.4467 78.4273C59.5948 78.2659 59.7547 78.14 59.9184 78.0416C60.0861 77.9433 60.2421 77.8882 60.3941 77.8764C60.5423 77.8606 60.6748 77.8882 60.7879 77.9551C60.901 78.022 60.9906 78.1282 61.0569 78.2738C61.1232 78.4194 61.1544 78.6043 61.1544 78.8247C61.1544 79.0057 61.1349 79.1867 61.092 79.3598C61.0491 79.5369 60.9906 79.7061 60.9166 79.8753C61.0101 79.9461 61.0842 80.0523 61.1388 80.1861C61.1934 80.3199 61.2207 80.4891 61.2207 80.6937C61.2207 80.918 61.1856 81.1383 61.1193 81.3626C61.053 81.5869 60.9595 81.7994 60.8425 81.9961C60.7255 82.1968 60.5891 82.3778 60.4292 82.5431C60.2732 82.7083 60.1017 82.8421 59.9184 82.9483C59.7352 83.0546 59.5675 83.1175 59.4116 83.1372C59.2556 83.1569 59.1153 83.1333 58.9983 83.0703C58.8813 83.0074 58.7878 82.9011 58.7215 82.7595C58.6552 82.6139 58.6201 82.4289 58.6201 82.2086C58.6201 82.004 58.6474 81.8033 58.6981 81.6066C58.7527 81.4098 58.8229 81.221 58.9164 81.04C58.8424 80.9613 58.7878 80.855 58.7449 80.7291C58.7059 80.5953 58.6864 80.4419 58.6864 80.2609ZM59.4311 81.7482C59.4311 81.8781 59.4701 81.9686 59.552 82.0079C59.6338 82.0512 59.7547 82.0237 59.9184 81.9292C60.0822 81.8348 60.2031 81.7167 60.2849 81.583C60.3668 81.4492 60.4058 81.3154 60.4058 81.1816C60.4058 81.0478 60.3668 80.9613 60.2849 80.9219C60.2031 80.8786 60.0822 80.9062 59.9184 81.0006C59.7547 81.095 59.6338 81.2131 59.552 81.3469C59.474 81.4807 59.4311 81.6144 59.4311 81.7482ZM59.4974 79.773C59.4974 79.9028 59.5364 79.9933 59.6104 80.0366C59.6845 80.0799 59.7898 80.0641 59.9184 79.9894C60.051 79.9146 60.1524 79.8084 60.2265 79.6746C60.3005 79.5408 60.3395 79.411 60.3395 79.2772C60.3395 79.1434 60.3005 79.0568 60.2265 79.0135C60.1524 78.9663 60.0471 78.986 59.9184 79.0608C59.7859 79.1355 59.6845 79.2418 59.6104 79.3755C59.5364 79.5093 59.4974 79.6431 59.4974 79.773Z" fill="#455A64"/>
    <path d="M72.0947 72.6786C72.0947 72.4149 72.1298 72.1552 72.2039 71.9034C72.2741 71.6516 72.3715 71.4155 72.4924 71.1991C72.6133 70.9827 72.7497 70.7938 72.9057 70.6246C73.0617 70.4554 73.2215 70.3256 73.3853 70.2311C73.549 70.1367 73.7089 70.0816 73.8648 70.0698C74.0208 70.058 74.1572 70.0895 74.2781 70.1642C74.399 70.239 74.4925 70.361 74.5666 70.5302C74.6368 70.6994 74.6758 70.9158 74.6758 71.1794C74.6758 71.3093 74.668 71.4391 74.6485 71.5611C74.629 71.6831 74.6056 71.8011 74.5744 71.9192C74.5432 72.0333 74.5081 72.1474 74.4731 72.2575C74.4341 72.3677 74.399 72.474 74.36 72.5802L73.5256 74.8585C73.51 74.8899 73.4944 74.9293 73.4788 74.9726C73.4593 75.0159 73.432 75.0513 73.3931 75.0749L72.6952 75.4802C72.6679 75.4959 72.6484 75.492 72.6328 75.4723C72.6172 75.4526 72.6094 75.4211 72.6094 75.3818C72.6094 75.3582 72.6133 75.3385 72.6172 75.3228C72.6211 75.307 72.625 75.2913 72.6328 75.2795L73.1942 73.7252C73.05 73.7764 72.9135 73.7961 72.7848 73.7843C72.6562 73.7724 72.5392 73.7213 72.4417 73.6387C72.3443 73.5521 72.2624 73.4341 72.2039 73.2767C72.122 73.1193 72.0947 72.9225 72.0947 72.6786ZM73.8531 71.6555C73.8531 71.565 73.8414 71.4903 73.8141 71.4312C73.7869 71.3722 73.7518 71.3289 73.7089 71.3014C73.666 71.2738 73.6153 71.262 73.5568 71.266C73.4983 71.2699 73.4398 71.2896 73.3775 71.325C73.3151 71.3604 73.2566 71.4116 73.1981 71.4745C73.1396 71.5375 73.0889 71.6083 73.0461 71.687C73.0032 71.7657 72.9681 71.8483 72.9408 71.9388C72.9135 72.0293 72.9018 72.1198 72.9018 72.2103C72.9018 72.3008 72.9135 72.3756 72.9408 72.4346C72.9681 72.4936 73.0032 72.5369 73.0461 72.5645C73.0889 72.592 73.1396 72.6038 73.1981 72.5999C73.2566 72.5959 73.3151 72.5763 73.3775 72.5409C73.4398 72.5054 73.4983 72.4543 73.5568 72.3913C73.6153 72.3284 73.666 72.2575 73.7089 72.1789C73.7518 72.1002 73.7869 72.0175 73.8141 71.927C73.8414 71.8365 73.8531 71.746 73.8531 71.6555Z" fill="#455A64"/>
    <path d="M46.6742 106.301C46.643 106.321 46.6157 106.317 46.5923 106.294C46.5689 106.27 46.5572 106.234 46.5572 106.183V105.487L45.177 106.294C45.1458 106.313 45.1185 106.309 45.0952 106.286C45.0718 106.262 45.0601 106.227 45.0601 106.175V105.451C45.0601 105.333 45.0796 105.223 45.1185 105.125L46.4286 101.792C46.4559 101.725 46.4793 101.678 46.5026 101.65C46.526 101.623 46.5533 101.595 46.5923 101.576L47.2551 101.19C47.2863 101.17 47.3136 101.174 47.337 101.198C47.3604 101.222 47.3721 101.257 47.3721 101.308V103.925L47.7503 103.704C47.7815 103.685 47.8088 103.689 47.8322 103.712C47.8556 103.736 47.8673 103.771 47.8673 103.822V104.546C47.8673 104.598 47.8556 104.645 47.8322 104.696C47.8088 104.747 47.7815 104.779 47.7503 104.798L47.3721 105.019V105.715C47.3721 105.766 47.3604 105.813 47.337 105.865C47.3136 105.916 47.2863 105.947 47.2551 105.967L46.6742 106.301ZM46.5767 104.389V103.134L45.9373 104.763L46.5767 104.389Z" fill="#455A64"/>
    <path d="M59.4545 97.4048C59.474 97.4324 59.4974 97.4639 59.5208 97.4953C59.5442 97.5268 59.5754 97.5504 59.6105 97.5701C59.6456 97.5898 59.6885 97.5976 59.7391 97.5937C59.7898 97.5937 59.8483 97.5701 59.9146 97.5308C59.977 97.4953 60.0355 97.4481 60.09 97.393C60.1446 97.334 60.1953 97.2711 60.2382 97.1924C60.2811 97.1176 60.3162 97.035 60.3396 96.9484C60.363 96.8618 60.3786 96.7674 60.3786 96.669C60.3786 96.5156 60.3396 96.4093 60.2616 96.3582C60.1836 96.307 60.0783 96.3188 59.9419 96.3975C59.899 96.4211 59.86 96.4526 59.8249 96.492C59.7898 96.5313 59.7547 96.5707 59.7235 96.61C59.6923 96.6494 59.6651 96.6848 59.6378 96.7163C59.6105 96.7477 59.591 96.7713 59.5715 96.7831L58.8892 97.1806C58.8541 97.2002 58.8268 97.2002 58.8034 97.1766C58.78 97.153 58.7683 97.1176 58.7722 97.0664L58.9048 94.5561C58.9087 94.5049 58.9204 94.4537 58.9438 94.4065C58.9672 94.3593 58.9945 94.3239 59.0256 94.3042L60.901 93.2104C60.9322 93.1907 60.9595 93.1946 60.9829 93.2182C61.0063 93.2418 61.018 93.2772 61.018 93.3284V94.0524C61.018 94.1036 61.0063 94.1508 60.9829 94.2019C60.9595 94.2531 60.9322 94.2846 60.901 94.3042L59.6261 95.0479L59.5949 95.6735C59.6456 95.5988 59.708 95.524 59.7781 95.4532C59.8483 95.3824 59.9224 95.3233 60.0043 95.2761C60.1758 95.1777 60.3318 95.1227 60.476 95.1109C60.6203 95.0991 60.7451 95.1305 60.8542 95.2053C60.9595 95.2801 61.0453 95.3981 61.1037 95.5634C61.1622 95.7286 61.1934 95.9411 61.1934 96.2008C61.1934 96.4723 61.1622 96.732 61.0959 96.9799C61.0297 97.2278 60.94 97.456 60.823 97.6645C60.7061 97.877 60.5735 98.062 60.4175 98.2233C60.2616 98.3846 60.0939 98.5184 59.9185 98.6246C59.7196 98.7387 59.5403 98.8056 59.3843 98.8174C59.2284 98.8292 59.0958 98.7978 58.9867 98.7269C58.8775 98.6561 58.7956 98.5499 58.7371 98.4082C58.6786 98.2666 58.6475 98.1052 58.6436 97.9203C58.6436 97.8809 58.6513 97.8377 58.6708 97.7983C58.6903 97.759 58.7137 97.7314 58.741 97.7157L59.2986 97.393C59.3454 97.3655 59.3804 97.3576 59.4077 97.3694C59.4311 97.3773 59.4467 97.3891 59.4545 97.4048Z" fill="#455A64"/>
    <path d="M74.6874 88.3036C74.6874 88.5712 74.6523 88.8309 74.5822 89.0827C74.512 89.3346 74.4184 89.5706 74.2975 89.7831C74.1767 89.9995 74.0402 90.1923 73.8804 90.3615C73.7205 90.5347 73.5568 90.6685 73.3813 90.7708C73.2059 90.8731 73.0382 90.9321 72.8822 90.9439C72.7263 90.9557 72.5859 90.9242 72.4651 90.8495C72.3442 90.7747 72.2467 90.6527 72.1766 90.4835C72.1064 90.3143 72.0713 90.094 72.0713 89.8264C72.0713 89.6848 72.083 89.551 72.1025 89.4211C72.1259 89.2913 72.1532 89.1693 72.1844 89.0513C72.2155 88.9332 72.2506 88.8191 72.2896 88.7089C72.3286 88.5988 72.3637 88.4964 72.3988 88.3981L73.237 86.1513C73.2526 86.1198 73.2682 86.0805 73.2838 86.0372C73.3033 85.9939 73.3306 85.9585 73.3735 85.9349L74.0714 85.5296C74.0987 85.5139 74.1182 85.5178 74.1338 85.5375C74.1494 85.5572 74.1572 85.5886 74.1572 85.628C74.1572 85.6516 74.1533 85.6713 74.1494 85.687C74.1455 85.7027 74.1416 85.7185 74.1338 85.7303L73.5646 87.2609C73.7205 87.198 73.8648 87.1704 74.0012 87.1783C74.1377 87.1862 74.2547 87.2334 74.3599 87.316C74.4613 87.3986 74.5432 87.5246 74.6017 87.6859C74.6601 87.859 74.6874 88.0636 74.6874 88.3036ZM72.8822 89.3582C72.8822 89.4565 72.8978 89.5392 72.9251 89.5982C72.9524 89.6572 72.9914 89.7005 73.0382 89.7241C73.085 89.7477 73.1396 89.7595 73.1981 89.7516C73.2565 89.7438 73.3189 89.7241 73.3813 89.6848C73.4437 89.6493 73.5022 89.5982 73.5646 89.5392C73.623 89.4762 73.6776 89.4054 73.7205 89.3267C73.7673 89.248 73.8024 89.1614 73.8336 89.067C73.8648 88.9726 73.8765 88.8742 73.8765 88.7758C73.8765 88.6774 73.8609 88.5948 73.8336 88.5358C73.8063 88.4768 73.7673 88.4335 73.7205 88.4059C73.6737 88.3784 73.623 88.3705 73.5646 88.3784C73.5061 88.3863 73.4437 88.4099 73.3813 88.4453C73.3189 88.4807 73.2604 88.5319 73.1981 88.5909C73.1396 88.6538 73.085 88.7247 73.0382 88.8034C72.9914 88.8821 72.9524 88.9686 72.9251 89.0631C72.8939 89.1614 72.8822 89.2559 72.8822 89.3582Z" fill="#455A64"/>
    <path d="M45.559 119.42C45.5395 119.392 45.5317 119.349 45.5356 119.298C45.5395 119.243 45.559 119.196 45.5824 119.148L46.526 117.476C46.5493 117.437 46.5766 117.386 46.6117 117.331C46.6468 117.275 46.6858 117.232 46.7287 117.209L47.2628 116.898C47.294 116.878 47.3213 116.882 47.3447 116.906C47.3681 116.929 47.3798 116.965 47.3798 117.016V121.419C47.3798 121.47 47.3681 121.517 47.3447 121.568C47.3213 121.619 47.294 121.651 47.2628 121.671L46.6897 122.005C46.6585 122.025 46.6312 122.021 46.6078 121.997C46.5844 121.974 46.5727 121.938 46.5727 121.887V118.908L46.0503 119.825C46.023 119.872 45.9957 119.9 45.9645 119.916C45.9333 119.928 45.906 119.92 45.8865 119.888L45.559 119.42Z" fill="#455A64"/>
    <path d="M61.1232 110.386C61.1232 110.516 61.1154 110.649 61.0959 110.783C61.0804 110.917 61.0492 111.055 61.0063 111.192C60.9634 111.33 60.9088 111.48 60.8386 111.633C60.7684 111.786 60.6866 111.948 60.5852 112.121L59.9731 113.203L61.0726 112.562C61.1037 112.542 61.131 112.546 61.1544 112.569C61.1778 112.593 61.1895 112.629 61.1895 112.68V113.404C61.1895 113.455 61.1778 113.502 61.1544 113.553C61.131 113.604 61.1037 113.636 61.0726 113.655L58.7566 115.005C58.7254 115.025 58.6981 115.021 58.6747 114.997C58.6513 114.974 58.6396 114.938 58.6396 114.887V114.301C58.6396 114.23 58.6474 114.151 58.6669 114.065C58.6864 113.982 58.7176 113.899 58.7644 113.825L60.0744 111.602C60.1758 111.424 60.2421 111.279 60.2694 111.165C60.2967 111.051 60.3084 110.948 60.3084 110.858C60.3084 110.826 60.3045 110.783 60.2967 110.732C60.2889 110.681 60.2733 110.634 60.246 110.59C60.2187 110.547 60.1836 110.523 60.1329 110.508C60.0861 110.496 60.0199 110.512 59.938 110.559C59.8561 110.606 59.7898 110.665 59.7391 110.74C59.6885 110.815 59.6495 110.885 59.6222 110.956C59.5949 111.027 59.5754 111.094 59.5598 111.161C59.5481 111.224 59.5364 111.271 59.5325 111.302C59.5169 111.373 59.4935 111.428 59.4662 111.468C59.435 111.507 59.3999 111.539 59.357 111.562L58.819 111.877C58.7917 111.893 58.7683 111.893 58.7527 111.873C58.7332 111.853 58.7254 111.826 58.7254 111.783C58.7293 111.59 58.7527 111.385 58.8034 111.169C58.8541 110.952 58.9282 110.736 59.0295 110.523C59.1309 110.311 59.2557 110.11 59.4077 109.929C59.5598 109.744 59.7352 109.595 59.9419 109.477C60.1368 109.363 60.3045 109.308 60.4526 109.311C60.6008 109.315 60.7256 109.359 60.823 109.449C60.9205 109.54 60.9985 109.666 61.0492 109.827C61.0998 109.988 61.1232 110.173 61.1232 110.386Z" fill="#455A64"/>
    <path d="M74.4145 101.037C74.4457 101.017 74.473 101.021 74.4964 101.045C74.5198 101.068 74.5315 101.104 74.5315 101.155V101.879C74.5315 101.93 74.5198 101.981 74.5003 102.032C74.4808 102.083 74.4613 102.131 74.4418 102.166L73.9116 103.307C74.1416 103.264 74.3249 103.311 74.4691 103.441C74.6134 103.575 74.6836 103.815 74.6836 104.173C74.6836 104.684 74.5705 105.141 74.3404 105.53C74.1143 105.924 73.7946 106.238 73.3852 106.475C73.1747 106.597 72.9875 106.667 72.8277 106.683C72.6639 106.699 72.5275 106.679 72.4183 106.616C72.3091 106.553 72.2233 106.459 72.161 106.333C72.1025 106.207 72.0713 106.061 72.0674 105.892C72.0674 105.853 72.0752 105.81 72.0947 105.77C72.1142 105.731 72.1376 105.703 72.1649 105.688L72.7185 105.365C72.7809 105.33 72.8277 105.322 72.8589 105.349C72.8901 105.373 72.9251 105.4 72.968 105.428C73.007 105.455 73.0577 105.471 73.1201 105.479C73.1825 105.487 73.2721 105.455 73.3891 105.389C73.5295 105.306 73.6464 105.204 73.7361 105.078C73.8297 104.952 73.8726 104.81 73.8726 104.649C73.8726 104.491 73.8258 104.401 73.7361 104.381C73.6425 104.362 73.5295 104.393 73.3891 104.476L73.0265 104.688C72.9953 104.708 72.968 104.704 72.9446 104.68C72.9212 104.657 72.9095 104.621 72.9095 104.57V103.984C72.9095 103.933 72.9212 103.882 72.9407 103.83C72.9602 103.779 72.9797 103.728 73.0031 103.685L73.4671 102.685L72.3208 103.354C72.2896 103.374 72.2623 103.37 72.2389 103.346C72.2155 103.323 72.2038 103.287 72.2038 103.236V102.512C72.2038 102.461 72.2155 102.414 72.2389 102.363C72.2623 102.312 72.2896 102.28 72.3208 102.26L74.4145 101.037Z" fill="#455A64"/>
    <path d="M59.9185 125.157C60.1368 125.031 60.3279 124.968 60.4838 124.976C60.6437 124.984 60.7723 125.043 60.8776 125.149C60.9829 125.255 61.0608 125.409 61.1115 125.602C61.1622 125.798 61.1934 126.015 61.2012 126.255C61.2051 126.447 61.209 126.648 61.209 126.865C61.209 127.077 61.2051 127.282 61.2012 127.471C61.1934 127.722 61.1622 127.974 61.1115 128.23C61.0608 128.486 60.9829 128.726 60.8776 128.954C60.7723 129.182 60.6437 129.395 60.4838 129.584C60.3279 129.776 60.1368 129.934 59.9185 130.064C59.7001 130.189 59.5091 130.252 59.3531 130.245C59.1933 130.237 59.0646 130.178 58.9593 130.071C58.8541 129.965 58.7761 129.812 58.7254 129.619C58.6747 129.422 58.6435 129.206 58.6357 128.966C58.6279 128.785 58.6279 128.584 58.6279 128.372C58.6279 128.159 58.6318 127.951 58.6357 127.754C58.6435 127.502 58.6747 127.25 58.7254 126.994C58.7761 126.739 58.8541 126.499 58.9593 126.27C59.0646 126.042 59.1933 125.83 59.3531 125.641C59.5091 125.444 59.7001 125.283 59.9185 125.157ZM60.3863 127.907C60.398 127.514 60.398 127.132 60.3863 126.762C60.3824 126.652 60.3707 126.554 60.3551 126.467C60.3395 126.381 60.3123 126.314 60.2772 126.263C60.2421 126.211 60.1953 126.184 60.1368 126.176C60.0783 126.168 60.0042 126.192 59.9185 126.243C59.8327 126.294 59.7586 126.357 59.7001 126.432C59.6416 126.507 59.5949 126.589 59.5598 126.68C59.5247 126.77 59.4974 126.869 59.4818 126.975C59.4623 127.081 59.4545 127.191 59.4506 127.305C59.435 127.691 59.435 128.073 59.4506 128.45C59.4545 128.564 59.4623 128.663 59.4779 128.745C59.4935 128.832 59.5208 128.899 59.5559 128.946C59.591 128.997 59.6416 129.025 59.7001 129.029C59.7586 129.037 59.8327 129.013 59.9185 128.962C60.0042 128.911 60.0783 128.848 60.1368 128.773C60.1953 128.698 60.2421 128.616 60.2811 128.521C60.3162 128.431 60.3434 128.332 60.359 128.226C60.3746 128.132 60.3863 128.021 60.3863 127.907Z" fill="#455A64"/>
    <path d="M44.5957 74.9018C44.5723 74.8782 44.5528 74.8506 44.5372 74.8231L44.124 73.9378V76.1924C44.124 76.2435 44.1123 76.2908 44.0889 76.3419C44.0655 76.3931 44.0382 76.4246 44.007 76.4442L43.4339 76.7787C43.4027 76.7984 43.3754 76.7944 43.352 76.7708C43.3286 76.7472 43.3169 76.7118 43.3169 76.6606V72.2576C43.3169 72.2065 43.3286 72.1592 43.352 72.1081C43.3754 72.0569 43.4027 72.0255 43.4339 72.0058L43.9446 71.7107C44.0031 71.6753 44.046 71.6753 44.0772 71.7107C44.1084 71.7422 44.124 71.7697 44.1357 71.7854L44.8453 73.261L45.5549 70.9591C45.5626 70.9316 45.5821 70.8844 45.6133 70.8175C45.6445 70.7506 45.6874 70.6994 45.7459 70.664L46.2567 70.3689C46.2878 70.3492 46.3151 70.3532 46.3385 70.3768C46.3619 70.4004 46.3736 70.4358 46.3736 70.487V74.89C46.3736 74.9411 46.3619 74.9884 46.3385 75.0395C46.3151 75.0907 46.2878 75.1221 46.2567 75.1418L45.6835 75.4763C45.6523 75.4959 45.625 75.492 45.6016 75.4684C45.5782 75.4448 45.5666 75.4094 45.5666 75.3582V73.1036L45.1533 74.469C45.1377 74.5122 45.1182 74.5634 45.0948 74.6145C45.0714 74.6657 45.0363 74.7051 44.9934 74.7326L44.7127 74.8979C44.6542 74.9254 44.6191 74.9293 44.5957 74.9018Z" fill="#FAFAFA"/>
    <path d="M47.6835 71.3486C47.6796 71.4076 47.6796 71.4942 47.6757 71.5965C47.6757 71.7027 47.6718 71.809 47.6718 71.9231C47.6718 72.0332 47.6718 72.1434 47.6757 72.2497C47.6757 72.3559 47.6796 72.4385 47.6835 72.4936C47.6913 72.5959 47.703 72.6864 47.7225 72.769C47.742 72.8517 47.7771 72.9186 47.82 72.9658C47.8628 73.013 47.9174 73.0366 47.9876 73.0406C48.0539 73.0445 48.1397 73.0169 48.2371 72.9579C48.3346 72.8989 48.4165 72.8359 48.4828 72.7612C48.5451 72.6864 48.5997 72.6117 48.6387 72.5369C48.6777 72.4621 48.7128 72.3834 48.7323 72.3087C48.7557 72.2339 48.7713 72.1631 48.783 72.1001C48.7986 72.0175 48.8142 71.9585 48.8298 71.9191C48.8493 71.8798 48.8804 71.8444 48.9311 71.8168L49.5043 71.4824C49.5316 71.4666 49.555 71.4706 49.5705 71.4863C49.59 71.506 49.5978 71.5335 49.5978 71.5768C49.5939 71.809 49.5589 72.049 49.4887 72.2969C49.4185 72.5408 49.321 72.7769 49.2002 72.9973C49.0754 73.2176 48.935 73.4222 48.7674 73.6072C48.6036 73.7921 48.4243 73.9416 48.2293 74.0518C48.0188 74.1738 47.8316 74.2367 47.664 74.2328C47.5002 74.2328 47.356 74.1816 47.239 74.0793C47.1221 73.981 47.0324 73.8354 46.97 73.6465C46.9076 73.4576 46.8725 73.2412 46.8608 72.9973C46.853 72.8163 46.853 72.6156 46.853 72.4031C46.853 72.1906 46.8569 71.9821 46.8608 71.7854C46.8647 71.5335 46.8998 71.2738 46.9661 71.0102C47.0285 70.7466 47.1221 70.4987 47.2351 70.2626C47.3521 70.0265 47.4924 69.814 47.6601 69.6173C47.8277 69.4205 48.0149 69.2632 48.2254 69.1412C48.4165 69.0271 48.5958 68.968 48.7635 68.9602C48.9272 68.9523 49.0715 68.9877 49.1963 69.0664C49.3171 69.1451 49.4146 69.2671 49.4848 69.4284C49.555 69.5937 49.59 69.7904 49.5939 70.0186C49.5939 70.058 49.5861 70.1013 49.5666 70.1406C49.5472 70.18 49.5238 70.2075 49.5004 70.2232L48.9272 70.5577C48.8765 70.5852 48.8454 70.5931 48.8259 70.5734C48.8103 70.5538 48.7908 70.5105 48.7791 70.4475C48.7674 70.4003 48.7518 70.3492 48.7284 70.298C48.705 70.2469 48.6738 70.2075 48.6348 70.18C48.5919 70.1524 48.5412 70.1367 48.4789 70.1406C48.4126 70.1406 48.3307 70.1721 48.2332 70.2272C48.1319 70.2862 48.05 70.357 47.9837 70.4397C47.9174 70.5223 47.8628 70.6128 47.8161 70.7112C47.7732 70.8095 47.742 70.9118 47.7186 71.0181C47.703 71.1322 47.6913 71.2384 47.6835 71.3486Z" fill="#FAFAFA"/>
    <path d="M58.0782 67.0479C58.0548 67.0243 58.0353 66.9968 58.0197 66.9692L57.6064 66.0839V68.3385C57.6064 68.3897 57.5947 68.4369 57.5713 68.4881C57.5479 68.5392 57.5206 68.5707 57.4894 68.5904L56.9163 68.9248C56.8851 68.9445 56.8578 68.9406 56.8344 68.9169C56.811 68.8933 56.7993 68.8579 56.7993 68.8068V64.4037C56.7993 64.3526 56.811 64.3054 56.8344 64.2542C56.8578 64.2031 56.8851 64.1716 56.9163 64.1519L57.427 63.8568C57.4855 63.8214 57.5284 63.8214 57.5596 63.8568C57.5908 63.8883 57.6064 63.9158 57.6181 63.9316L58.3277 65.4071L59.0373 63.1053C59.0451 63.0777 59.0646 63.0305 59.0958 62.9636C59.127 62.8967 59.1698 62.8456 59.2283 62.8101L59.7391 62.515C59.7703 62.4954 59.7976 62.4993 59.8209 62.5229C59.8443 62.5465 59.856 62.5819 59.856 62.6331V67.0361C59.856 67.0873 59.8443 67.1345 59.8209 67.1856C59.7976 67.2368 59.7703 67.2683 59.7391 67.2879L59.1659 67.6224C59.1347 67.6421 59.1075 67.6381 59.0841 67.6145C59.0607 67.5909 59.049 67.5555 59.049 67.5044V65.2497L58.6357 66.6151C58.6201 66.6584 58.6006 66.7095 58.5772 66.7607C58.5538 66.8118 58.5187 66.8512 58.4758 66.8787L58.1951 67.044C58.1366 67.0715 58.1054 67.0715 58.0782 67.0479Z" fill="#FAFAFA"/>
    <path d="M61.7705 61.3267C61.9655 61.2126 62.137 61.1457 62.2891 61.1221C62.4411 61.0985 62.5698 61.1181 62.679 61.1811C62.7842 61.248 62.8661 61.3621 62.9246 61.5274C62.9831 61.6926 63.0104 61.9051 63.0104 62.1687C63.0104 62.5111 62.9636 62.818 62.8739 63.0973C62.7842 63.3767 62.6556 63.6207 62.4879 63.8371L63.0338 65.1434C63.0415 65.167 63.0454 65.1867 63.0454 65.2103C63.0454 65.2497 63.0377 65.293 63.0182 65.3323C62.9987 65.3717 62.9753 65.3992 62.9519 65.4149L62.3553 65.7612C62.2969 65.7966 62.254 65.8005 62.2306 65.773C62.2072 65.7455 62.1877 65.7179 62.1721 65.6864L61.6847 64.5099L61.2831 64.746V66.2058C61.2831 66.257 61.2714 66.3042 61.2481 66.3554C61.2247 66.4065 61.1974 66.438 61.1662 66.4577L60.593 66.7921C60.5619 66.8118 60.5346 66.8079 60.5112 66.7842C60.4878 66.7606 60.4761 66.7252 60.4761 66.6741V62.271C60.4761 62.2199 60.4878 62.1727 60.5112 62.1215C60.5346 62.0704 60.5619 62.0389 60.593 62.0192L61.7705 61.3267ZM61.2754 63.6836L61.7705 63.3964C61.8953 63.3256 61.9966 63.2311 62.0746 63.1091C62.1565 62.9911 62.1955 62.8337 62.1955 62.6448C62.1955 62.456 62.1565 62.3458 62.0746 62.3183C61.9927 62.2907 61.8914 62.3143 61.7705 62.3851L61.2754 62.6724V63.6836Z" fill="#FAFAFA"/>
    <path d="M72.0518 58.9028C72.0284 58.8792 72.0089 58.8516 71.9933 58.8241L71.58 57.9387V60.1934C71.58 60.2445 71.5683 60.2917 71.5449 60.3429C71.5215 60.3941 71.4942 60.4255 71.463 60.4452L70.8899 60.7797C70.8587 60.7993 70.8314 60.7954 70.808 60.7718C70.7846 60.7482 70.7729 60.7128 70.7729 60.6616V56.2586C70.7729 56.2074 70.7846 56.1602 70.808 56.1091C70.8314 56.0579 70.8587 56.0264 70.8899 56.0068L71.4007 55.7117C71.4592 55.6762 71.502 55.6762 71.5332 55.7117C71.5644 55.7431 71.58 55.7707 71.5917 55.7864L72.3013 57.262L73.0109 54.9601C73.0187 54.9326 73.0382 54.8854 73.0694 54.8185C73.1006 54.7516 73.1435 54.7004 73.2019 54.665L73.7127 54.3699C73.7439 54.3502 73.7712 54.3542 73.7946 54.3778C73.818 54.4014 73.8297 54.4368 73.8297 54.4879V58.891C73.8297 58.9421 73.818 58.9893 73.7946 59.0405C73.7712 59.0916 73.7439 59.1231 73.7127 59.1428L73.1396 59.4772C73.1084 59.4969 73.0811 59.493 73.0577 59.4694C73.0343 59.4458 73.0226 59.4104 73.0226 59.3592V57.1046L72.6093 58.4699C72.5937 58.5132 72.5742 58.5644 72.5508 58.6155C72.5274 58.6667 72.4924 58.706 72.4495 58.7336L72.1687 58.8988C72.1103 58.9264 72.0752 58.9303 72.0518 58.9028Z" fill="#FAFAFA"/>
    <path d="M74.4885 57.1676C74.4574 57.1872 74.4301 57.1833 74.4067 57.1636C74.3833 57.14 74.3716 57.1046 74.3716 57.0535V56.3649C74.3716 56.3137 74.3833 56.2665 74.4067 56.2154C74.4301 56.1642 74.4574 56.1327 74.4885 56.113L75.8688 55.3064C75.8999 55.2867 75.9272 55.2907 75.9506 55.3143C75.974 55.3379 75.9857 55.3733 75.9857 55.4245V56.113C75.9857 56.1642 75.974 56.2114 75.9506 56.2626C75.9272 56.3137 75.8999 56.3452 75.8688 56.3649L74.4885 57.1676Z" fill="#FAFAFA"/>
    <path d="M85.1753 51.2567C85.1519 51.233 85.1324 51.2055 85.1168 51.178L84.7036 50.2926V52.5473C84.7036 52.5984 84.6919 52.6456 84.6685 52.6968C84.6451 52.7479 84.6178 52.7794 84.5866 52.7991L84.0135 53.1335C83.9823 53.1532 83.955 53.1493 83.9316 53.1257C83.9082 53.1021 83.8965 53.0667 83.8965 53.0155V48.6125C83.8965 48.5613 83.9082 48.5141 83.9316 48.463C83.955 48.4118 83.9823 48.3803 84.0135 48.3606L84.5242 48.0655C84.5827 48.0301 84.6256 48.0301 84.6568 48.0655C84.688 48.097 84.7036 48.1246 84.7153 48.1403L85.4249 49.6158L86.1345 47.314C86.1423 47.2865 86.1617 47.2392 86.1929 47.1723C86.2241 47.1055 86.267 47.0543 86.3255 47.0189L86.8363 46.7238C86.8674 46.7041 86.8947 46.708 86.9181 46.7316C86.9415 46.7553 86.9532 46.7907 86.9532 46.8418V51.2448C86.9532 51.296 86.9415 51.3432 86.9181 51.3944C86.8947 51.4455 86.8674 51.477 86.8363 51.4967L86.2631 51.8311C86.2319 51.8508 86.2046 51.8469 86.1812 51.8233C86.1578 51.7997 86.1461 51.7642 86.1461 51.7131V49.4624L85.7329 50.8278C85.7173 50.871 85.6978 50.9222 85.6744 50.9733C85.651 51.0245 85.6159 51.0638 85.573 51.0914L85.2923 51.2567C85.2338 51.2803 85.1987 51.2803 85.1753 51.2567Z" fill="#FAFAFA"/>
    <path d="M88.9921 48.7156V49.841C88.9921 49.8921 88.9804 49.9393 88.957 49.9905C88.9336 50.0417 88.9063 50.0731 88.8752 50.0928L88.3215 50.4155C88.2903 50.4351 88.263 50.4312 88.2396 50.4076C88.2162 50.384 88.2045 50.3486 88.2045 50.2974V49.1721L87.5261 49.5695C87.495 49.5892 87.4677 49.5852 87.4443 49.5655C87.4209 49.5419 87.4092 49.5065 87.4092 49.4554V48.7668C87.4092 48.7156 87.4209 48.6684 87.4443 48.6173C87.4677 48.5661 87.495 48.5346 87.5261 48.515L88.2045 48.1175V46.9922C88.2045 46.941 88.2162 46.8938 88.2396 46.8427C88.263 46.7915 88.2903 46.76 88.3215 46.7404L88.8752 46.4177C88.9063 46.398 88.9336 46.402 88.957 46.4217C88.9804 46.4453 88.9921 46.4807 88.9921 46.5318V47.6572L89.6666 47.2637C89.6978 47.244 89.7251 47.248 89.7485 47.2716C89.7719 47.2952 89.7836 47.3306 89.7836 47.3817V48.0703C89.7836 48.1215 89.7719 48.1687 89.7485 48.2198C89.7251 48.271 89.6978 48.3025 89.6666 48.3222L88.9921 48.7156Z" fill="#FAFAFA"/>
    <path d="M85.534 66.0563C85.5028 66.0759 85.4755 66.072 85.4521 66.0523C85.4287 66.0287 85.417 65.9933 85.417 65.9422V65.2536C85.417 65.2024 85.4287 65.1552 85.4521 65.1041C85.4755 65.0529 85.5028 65.0214 85.534 65.0018L88.1423 63.4829C88.1735 63.4633 88.2008 63.4672 88.2242 63.4908C88.2476 63.5144 88.2593 63.5498 88.2593 63.601V64.2896C88.2593 64.3407 88.2476 64.3879 88.2242 64.4391C88.2008 64.4902 88.1735 64.5217 88.1423 64.5414L85.534 66.0563Z" fill="#FAFAFA"/>
    <path d="M87.2728 62.6173C87.2728 62.9911 87.0778 63.4042 86.84 63.5459C86.6022 63.6836 86.4072 63.4986 86.4072 63.1248C86.4072 62.751 86.6022 62.3379 86.84 62.1962C87.0778 62.0585 87.2728 62.2435 87.2728 62.6173Z" fill="#FAFAFA"/>
    <path d="M87.2728 66.4969C87.2728 66.1231 87.0778 65.9342 86.84 66.0759C86.6022 66.2136 86.4072 66.6307 86.4072 67.0045C86.4072 67.3783 86.6022 67.5672 86.84 67.4255C87.0778 67.2839 87.2728 66.8707 87.2728 66.4969Z" fill="#FAFAFA"/>
    <path d="M86.2826 80.8432L85.7172 80.2884C85.6938 80.2648 85.6821 80.2294 85.6821 80.1782C85.6821 80.1271 85.6938 80.0799 85.7172 80.0287L86.1071 79.1945C86.1305 79.1434 86.1578 79.1119 86.189 79.0922C86.2202 79.0726 86.2475 79.0765 86.2709 79.1001L86.8362 79.6549L87.4015 78.4469C87.4249 78.3958 87.4522 78.3643 87.4834 78.3446C87.5146 78.325 87.5419 78.3289 87.5653 78.3525L87.9552 78.7302C87.9786 78.7539 87.9903 78.7893 87.9903 78.8404C87.9903 78.8916 87.9786 78.9388 87.9552 78.9899L87.3898 80.1979L87.9552 80.7409C87.9786 80.7645 87.9903 80.7999 87.9903 80.8511C87.9903 80.9023 87.9786 80.9495 87.9552 81.0006L87.5653 81.8348C87.5419 81.886 87.5146 81.9174 87.4834 81.9371C87.4522 81.9568 87.4249 81.9528 87.4015 81.9332L86.8362 81.3902L86.2709 82.5982C86.2475 82.6493 86.2202 82.6808 86.189 82.7005C86.1578 82.7201 86.1305 82.7162 86.1071 82.6926L85.7172 82.3148C85.6938 82.2912 85.6821 82.2558 85.6821 82.2047C85.6821 82.1535 85.6938 82.1063 85.7172 82.0551L86.2826 80.8432Z" fill="#FAFAFA"/>
    <path d="M85.534 97.507C85.5028 97.5266 85.4755 97.5227 85.4521 97.503C85.4287 97.4794 85.417 97.444 85.417 97.3928V96.7043C85.417 96.6531 85.4287 96.6059 85.4521 96.5547C85.4755 96.5036 85.5028 96.4721 85.534 96.4524L88.1423 94.9336C88.1735 94.9139 88.2008 94.9179 88.2242 94.9415C88.2476 94.9651 88.2593 95.0005 88.2593 95.0517V95.7402C88.2593 95.7914 88.2476 95.8386 88.2242 95.8898C88.2008 95.9409 88.1735 95.9724 88.1423 95.9921L85.534 97.507Z" fill="#FAFAFA"/>
    <path d="M45.3607 133.707C45.4192 133.672 45.4621 133.672 45.4933 133.703C45.5245 133.735 45.544 133.774 45.5557 133.817L46.5109 137.555C46.5226 137.595 46.5304 137.626 46.5304 137.646C46.5304 137.685 46.5226 137.728 46.5031 137.768C46.4836 137.807 46.4602 137.835 46.4368 137.85L45.8832 138.173C45.8247 138.209 45.7818 138.212 45.7584 138.189C45.735 138.165 45.7194 138.138 45.7116 138.102L45.5908 137.606L44.425 138.287L44.3041 138.925C44.3002 138.964 44.2846 139.011 44.2573 139.062C44.2339 139.114 44.1911 139.161 44.1326 139.192L43.5789 139.515C43.5516 139.531 43.5282 139.531 43.5126 139.511C43.4931 139.491 43.4854 139.464 43.4854 139.42C43.4854 139.397 43.4893 139.361 43.5009 139.306L44.4562 134.455C44.4679 134.4 44.4874 134.337 44.5186 134.266C44.5497 134.199 44.5926 134.148 44.6511 134.112L45.3607 133.707ZM44.6511 137.099L45.3607 136.686L45.0059 135.257L44.6511 137.099Z" fill="#FAFAFA"/>
    <path d="M47.516 134.262C47.5121 134.321 47.5121 134.407 47.5082 134.51C47.5082 134.616 47.5043 134.722 47.5043 134.836C47.5043 134.947 47.5043 135.057 47.5082 135.163C47.5082 135.269 47.5121 135.352 47.516 135.407C47.5238 135.509 47.5355 135.6 47.555 135.682C47.5745 135.765 47.6096 135.832 47.6525 135.879C47.6954 135.926 47.7499 135.954 47.8201 135.958C47.8864 135.962 47.9722 135.934 48.0697 135.875C48.1671 135.816 48.249 135.753 48.3153 135.678C48.3777 135.604 48.4323 135.529 48.4712 135.454C48.5102 135.379 48.5453 135.301 48.5648 135.226C48.5882 135.151 48.6038 135.08 48.6155 135.017C48.6311 134.935 48.6467 134.876 48.6623 134.836C48.6818 134.797 48.713 134.762 48.7637 134.734L49.3368 134.4C49.3641 134.384 49.3875 134.388 49.4031 134.404C49.4226 134.423 49.4304 134.451 49.4304 134.494C49.4265 134.726 49.3914 134.966 49.3212 135.214C49.251 135.458 49.1536 135.694 49.0327 135.914C48.9118 136.135 48.7676 136.339 48.5999 136.524C48.4362 136.709 48.2568 136.859 48.0619 136.969C47.8513 137.091 47.6642 137.154 47.4965 137.15C47.3328 137.15 47.1885 137.099 47.0715 136.997C46.9546 136.898 46.8649 136.753 46.8025 136.564C46.7401 136.375 46.705 136.158 46.6933 135.914C46.6855 135.733 46.6855 135.533 46.6855 135.32C46.6855 135.108 46.6894 134.899 46.6933 134.703C46.6972 134.451 46.7323 134.191 46.7986 133.927C46.861 133.664 46.9546 133.416 47.0676 133.18C47.1846 132.944 47.325 132.731 47.4926 132.535C47.6603 132.342 47.8474 132.18 48.058 132.058C48.249 131.944 48.4284 131.885 48.596 131.877C48.7598 131.87 48.904 131.905 49.0288 131.984C49.1536 132.062 49.2471 132.184 49.3173 132.346C49.3875 132.511 49.4226 132.708 49.4265 132.936C49.4265 132.975 49.4187 133.019 49.3992 133.058C49.3797 133.097 49.3563 133.125 49.3329 133.14L48.7598 133.475C48.7091 133.502 48.6779 133.51 48.6584 133.491C48.6428 133.471 48.6233 133.428 48.6116 133.365C48.5999 133.318 48.5843 133.266 48.5609 133.215C48.5375 133.164 48.5063 133.125 48.4673 133.097C48.4245 133.07 48.3738 133.054 48.3114 133.058C48.2451 133.058 48.1632 133.089 48.0658 133.144C47.9644 133.203 47.8825 133.274 47.8162 133.357C47.7499 133.44 47.6954 133.53 47.6486 133.628C47.6057 133.727 47.5745 133.829 47.5511 133.935C47.5355 134.045 47.5238 134.156 47.516 134.262Z" fill="#FAFAFA"/>
    <path d="M72.1336 120.183C72.1024 120.203 72.0751 120.199 72.0517 120.175C72.0283 120.152 72.0166 120.116 72.0166 120.065V119.377C72.0166 119.325 72.0283 119.278 72.0517 119.227C72.0751 119.176 72.1024 119.144 72.1336 119.125L74.6249 117.673C74.6561 117.653 74.6834 117.657 74.7068 117.681C74.7302 117.704 74.7419 117.74 74.7419 117.791V118.48C74.7419 118.531 74.7302 118.578 74.7068 118.629C74.6834 118.68 74.6561 118.712 74.6249 118.731L72.1336 120.183ZM72.1336 121.859C72.1024 121.879 72.0751 121.875 72.0517 121.852C72.0283 121.828 72.0166 121.793 72.0166 121.741V121.053C72.0166 121.002 72.0283 120.954 72.0517 120.903C72.0751 120.852 72.1024 120.821 72.1336 120.801L74.6249 119.349C74.6561 119.329 74.6834 119.333 74.7068 119.357C74.7302 119.381 74.7419 119.416 74.7419 119.467V120.156C74.7419 120.207 74.7302 120.254 74.7068 120.305C74.6834 120.356 74.6561 120.388 74.6249 120.408L72.1336 121.859Z" fill="#FAFAFA"/>
    <path d="M87.2377 112.219V113.345C87.2377 113.396 87.226 113.443 87.2026 113.494C87.1792 113.545 87.152 113.577 87.1208 113.596L86.5671 113.919C86.5359 113.939 86.5086 113.935 86.4852 113.911C86.4619 113.888 86.4502 113.852 86.4502 113.801V112.676L85.7718 113.073C85.7406 113.093 85.7133 113.089 85.6899 113.069C85.6665 113.045 85.6548 113.01 85.6548 112.959V112.27C85.6548 112.219 85.6665 112.172 85.6899 112.121C85.7133 112.07 85.7406 112.038 85.7718 112.019L86.4502 111.621V110.496C86.4502 110.445 86.4619 110.397 86.4852 110.346C86.5086 110.295 86.5359 110.264 86.5671 110.244L87.1208 109.921C87.152 109.902 87.1792 109.906 87.2026 109.925C87.226 109.949 87.2377 109.984 87.2377 110.035V111.161L87.9122 110.767C87.9434 110.748 87.9707 110.752 87.9941 110.775C88.0175 110.799 88.0292 110.834 88.0292 110.885V111.574C88.0292 111.625 88.0175 111.672 87.9941 111.723C87.9707 111.775 87.9434 111.806 87.9122 111.826L87.2377 112.219Z" fill="#FAFAFA"/>
    <path d="M36.5721 36.5965C35.9522 37.6707 35.5701 38.8826 35.5701 39.9765L35.574 146.676C35.574 147.735 35.9327 148.486 36.5136 148.856C35.8196 148.435 30.829 145.523 30.2247 145.173C29.6165 144.815 29.2383 144.052 29.2383 142.966V36.266C29.2383 35.176 29.6165 33.9681 30.2286 32.9017L36.5721 36.5965Z" fill="#263238"/>
    <path d="M92.6535 3.94567C92.6652 3.95354 92.6769 3.96141 92.6886 3.96928C92.0765 3.58367 91.2148 3.62302 90.2557 4.18176L38.9464 34.0744C38.0185 34.6134 37.1802 35.5381 36.572 36.5966L30.2285 32.9018C30.8406 31.8355 31.6828 30.9069 32.6146 30.3639L83.9239 0.467315C84.844 -0.0717512 85.6784 -0.126838 86.2866 0.211554C86.9104 0.565685 92.0414 3.58367 92.6535 3.94567Z" fill="#455A64"/>
    <path d="M88.6377 34.4522V34.4561C88.4778 34.7237 88.2712 34.9558 88.0373 35.0896L41.1688 62.4049C40.7009 62.6764 40.3228 62.4561 40.3228 61.9131V39.7799C40.3228 39.2369 40.7009 38.5758 41.1649 38.3043L68.1842 22.5691L88.6377 34.4522Z" fill="#455A64"/>
    <path d="M88.8833 11.4808V33.61C88.8833 33.8815 88.7897 34.1806 88.6376 34.4482L68.1841 22.5651L87.3003 11.4178L88.0372 10.9889C88.5051 10.7174 88.8833 10.9378 88.8833 11.4808Z" fill="#263238"/>
    <path d="M87.3004 11.4178V32.6893C87.3004 33.2323 86.9222 33.8934 86.4543 34.1649L40.3228 61.0434V39.7759C40.3228 39.2329 40.7009 38.5718 41.1649 38.3003L87.3004 11.4178Z" fill="#538DF7"/>
    <path opacity="0.25" d="M87.3004 11.4178V32.6893C87.3004 33.2323 86.9222 33.8934 86.4543 34.1649L40.3228 61.0434V39.7759C40.3228 39.2329 40.7009 38.5718 41.1649 38.3003L87.3004 11.4178Z" fill="black"/>
    <path opacity="0.5" d="M49.0055 49.9552L47.3602 50.9152C46.9079 51.1789 46.518 51.1553 46.1983 50.8444C45.8786 50.5336 45.7148 50.022 45.7148 49.3177C45.7148 49.1446 45.7538 48.9715 45.8357 48.7983C45.9176 48.6252 46.015 48.5032 46.1281 48.4363C46.2412 48.3694 46.3387 48.3773 46.4166 48.456C46.4946 48.5347 46.5336 48.6645 46.5336 48.8377C46.5336 49.1918 46.6155 49.4436 46.7753 49.601C46.9352 49.7584 47.1301 49.7702 47.3563 49.6364L49.0016 48.6763C49.2277 48.5426 49.4227 48.3065 49.5864 47.9602C49.7502 47.6179 49.8321 47.2677 49.8321 46.9136V45.2846C49.5747 45.6662 49.2979 45.9456 49.0016 46.1187L47.3563 47.0788C46.904 47.3425 46.5141 47.3188 46.1944 47.008C45.8747 46.6971 45.7109 46.1856 45.7109 45.4813V44.2025C45.7109 43.4982 45.8708 42.8017 46.1944 42.1131C46.5141 41.4285 46.904 40.9524 47.3563 40.6848L49.0016 39.7247C49.4617 39.4571 49.8515 39.4807 50.1713 39.7916C50.491 40.1024 50.6547 40.614 50.6547 41.3183V46.4296C50.6547 47.1339 50.4949 47.8304 50.1713 48.519C49.8554 49.2115 49.4656 49.6876 49.0055 49.9552ZM49.836 41.8062C49.836 41.4521 49.7541 41.2002 49.5942 41.0429C49.4344 40.8855 49.2355 40.8776 49.0055 41.0114L47.3602 41.9715C47.134 42.1053 46.9391 42.3413 46.7792 42.6837C46.6194 43.026 46.5375 43.3762 46.5375 43.7264V45.0052C46.5375 45.3593 46.6194 45.6111 46.7792 45.7685C46.9391 45.9259 47.134 45.9377 47.3602 45.804L49.0055 44.8439C49.2316 44.7101 49.4266 44.474 49.5903 44.1277C49.7541 43.7815 49.836 43.4352 49.836 43.0811V41.8062Z" fill="white"/>
    <path opacity="0.5" d="M53.119 40.85C53.119 40.9366 53.1385 40.9995 53.1814 41.0389C53.2243 41.0782 53.2711 41.0822 53.3257 41.0507L55.587 39.7325C56.0432 39.4689 56.4292 39.4925 56.7489 39.8034C57.0686 40.1142 57.2324 40.6257 57.2324 41.3301V42.6089C57.2324 43.3132 57.0725 44.0097 56.7489 44.6982C56.4253 45.3829 56.0393 45.859 55.587 46.1266L53.9417 47.0867C53.4855 47.3503 53.0995 47.3267 52.7798 47.0158C52.4601 46.705 52.2964 46.1935 52.2964 45.4891C52.2964 45.3081 52.3354 45.135 52.4172 44.9619C52.4991 44.7927 52.5966 44.6746 52.7097 44.6078C52.8227 44.5409 52.9202 44.5487 52.9982 44.6235C53.0762 44.7022 53.1151 44.8281 53.1151 45.0091C53.1151 45.3632 53.197 45.6151 53.3569 45.7724C53.5167 45.9298 53.7117 45.9416 53.9378 45.8079L55.5831 44.8478C55.8093 44.714 56.0042 44.4779 56.1641 44.1356C56.3239 43.7932 56.4058 43.4431 56.4058 43.0929V41.814C56.4058 41.4599 56.3239 41.2081 56.1641 41.0507C56.0042 40.8933 55.8093 40.8815 55.5831 41.0153L53.1151 42.4515C52.889 42.5853 52.6941 42.5735 52.5342 42.4161C52.3744 42.2587 52.2925 42.0069 52.2925 41.6527V38.4577C52.2925 38.2767 52.3315 38.1035 52.4094 37.9343C52.4874 37.7651 52.5849 37.6471 52.7019 37.5802L56.8152 35.1839C56.9283 35.117 57.0218 35.1249 57.1037 35.1997C57.1856 35.2744 57.2246 35.4003 57.2246 35.5774C57.2246 35.7545 57.1817 35.9276 57.1037 36.0968C57.0218 36.266 56.9244 36.384 56.8152 36.4509L53.3179 38.4891C53.2633 38.5206 53.2126 38.5796 53.1736 38.6701C53.1346 38.7567 53.1112 38.8472 53.1112 38.9417V40.85H53.119Z" fill="white"/>
    <path opacity="0.5" d="M62.1681 42.2862L60.5228 43.2463C60.0705 43.5099 59.6806 43.4863 59.3609 43.1754C59.0412 42.8646 58.8774 42.3531 58.8774 41.6487V36.5374C58.8774 35.8331 59.0373 35.1367 59.3609 34.4481C59.6806 33.7634 60.0705 33.2873 60.5228 33.0197L62.1681 32.0596C62.6204 31.796 63.0103 31.8196 63.33 32.1305C63.6497 32.4413 63.8134 32.9528 63.8134 33.6572V38.7685C63.8134 39.4728 63.6536 40.1692 63.33 40.8578C63.0103 41.5464 62.6204 42.0225 62.1681 42.2862ZM60.5228 41.9674L62.1681 41.0074C62.3007 40.9287 62.4293 40.7988 62.558 40.6178L59.7001 36.1636V41.1648C59.7001 41.5189 59.782 41.7707 59.9418 41.9281C60.1017 42.0894 60.2927 42.1012 60.5228 41.9674ZM62.1681 33.3424L60.5228 34.3025C60.3863 34.3812 60.2537 34.511 60.129 34.692L62.9908 39.1462V34.1411C62.9908 33.787 62.9089 33.5352 62.749 33.3778C62.5892 33.2204 62.3942 33.2086 62.1681 33.3424Z" fill="white"/>
    <path opacity="0.5" d="M68.3281 38.6977L65.8601 40.1339C65.747 40.2008 65.6534 40.193 65.5715 40.1182C65.4897 40.0434 65.4507 39.9175 65.4507 39.7405C65.4507 39.5634 65.4897 39.3903 65.5715 39.2171C65.6534 39.044 65.7509 38.922 65.8601 38.8591L66.6827 38.379V31.985C66.6827 31.6309 66.6047 31.379 66.4449 31.2256C66.285 31.0721 66.094 31.0564 65.8718 31.1784C65.8679 31.1823 65.864 31.1823 65.8601 31.1862C65.7431 31.2531 65.6456 31.2492 65.5676 31.1705C65.4897 31.0918 65.4468 30.9659 65.4468 30.7888C65.4468 30.6118 65.4858 30.4386 65.5676 30.2655C65.6456 30.0924 65.7431 29.9743 65.8601 29.9074V29.9192V29.9074C66.3162 29.6438 66.7022 29.6674 67.0219 29.9783C67.3455 30.2891 67.5054 30.8006 67.5054 31.5049V37.895L68.3281 37.415C68.445 37.3481 68.5425 37.356 68.6205 37.4347C68.6984 37.5134 68.7374 37.6432 68.7374 37.8203C68.7374 37.9974 68.6984 38.1705 68.6166 38.3397C68.5386 38.5128 68.4411 38.6309 68.3281 38.6977Z" fill="white"/>
    <path opacity="0.5" d="M73.6813 35.5775L72.036 36.5375C71.5837 36.8012 71.1938 36.7776 70.8741 36.4667C70.5544 36.1559 70.3906 35.6443 70.3906 34.94V29.8248C70.3906 29.1205 70.5505 28.424 70.8741 27.7354C71.1977 27.0508 71.5837 26.5747 72.036 26.3071L73.6813 25.347C74.1375 25.0834 74.5235 25.107 74.8432 25.4178C75.1629 25.7287 75.3266 26.2402 75.3266 26.9445V32.0558C75.3266 32.7601 75.1668 33.4566 74.8432 34.1452C74.5235 34.8377 74.1375 35.3138 73.6813 35.5775ZM72.036 35.2587L73.6813 34.2987C73.8139 34.22 73.9464 34.0901 74.0751 33.9091L71.2172 29.4549V34.456C71.2172 34.8102 71.2991 35.062 71.4589 35.2194C71.6149 35.3768 71.8098 35.3886 72.036 35.2587ZM73.6813 26.6297L72.036 27.5898C71.8995 27.6685 71.7669 27.7984 71.6422 27.9794L74.504 32.4336V27.4285C74.504 27.0744 74.4221 26.8225 74.2622 26.6652C74.1024 26.5117 73.9113 26.4999 73.6813 26.6297Z" fill="white"/>
    <path opacity="0.5" d="M81.7873 30.6668C81.7054 30.8399 81.608 30.9619 81.4949 31.0288C81.3818 31.0957 81.2843 31.0878 81.2064 31.0131C81.1284 30.9344 81.0894 30.8085 81.0894 30.6275V27.0822C80.8321 27.4639 80.5592 27.7393 80.2667 27.9125L78.6214 28.8726C78.1691 29.1362 77.7792 29.1126 77.4595 28.8017C77.1398 28.4909 76.9761 27.9794 76.9761 27.275V24.08C76.9761 23.9068 77.0151 23.7337 77.093 23.5606C77.171 23.3875 77.2685 23.2694 77.3816 23.2025C77.4946 23.1356 77.5921 23.1435 77.674 23.2222C77.7559 23.3009 77.7948 23.4268 77.7948 23.5999V26.795C77.7948 27.1491 77.8767 27.4009 78.0366 27.5583C78.1964 27.7157 78.3914 27.7275 78.6175 27.5937L80.2628 26.6337C80.489 26.4999 80.6839 26.2638 80.8438 25.9215C81.0036 25.5791 81.0855 25.2289 81.0855 24.8787V21.6837C81.0855 21.5106 81.1245 21.3374 81.2025 21.1643C81.2805 20.9912 81.3779 20.8731 81.491 20.8062C81.6041 20.7393 81.7015 20.7472 81.7834 20.8259C81.8653 20.9046 81.9043 21.0305 81.9043 21.2036V30.1514C81.9082 30.3206 81.8692 30.4937 81.7873 30.6668Z" fill="white"/>
    <path d="M86.7109 151.453C86.7109 151.201 86.5628 150.989 86.2625 150.812L84.0519 149.521L85.8142 148.494C86.1144 148.321 86.2625 148.109 86.2625 147.857V142.62C86.2625 142.368 86.1144 142.155 85.8142 141.978L81.7086 139.586C81.4123 139.413 81.0458 139.326 80.6131 139.326C80.1803 139.326 79.8138 139.413 79.5136 139.586L73.2559 143.233L66.5498 139.326C66.2535 139.153 65.887 139.066 65.4503 139.066C65.0175 139.066 64.651 139.153 64.3547 139.326L59.2355 142.309C58.9353 142.482 58.7871 142.694 58.7871 142.946V142.95V148.187C58.791 148.439 58.9353 148.652 59.2316 148.825L61.4422 150.111L59.6371 151.162C59.3408 151.335 59.1926 151.548 59.1926 151.799H59.1848V157.037H59.1926V157.041C59.1926 157.292 59.3447 157.505 59.641 157.678L63.7465 160.07C64.0467 160.243 64.4093 160.334 64.8421 160.334C65.2748 160.334 65.6413 160.243 65.9377 160.074L72.2383 156.403L78.9443 160.31C79.2445 160.483 79.6071 160.57 80.0438 160.57C80.4766 160.57 80.8431 160.483 81.1433 160.31L86.2625 157.328C86.555 157.159 86.6953 156.95 86.7031 156.706H86.707V151.469H86.7031C86.7031 151.465 86.7109 151.461 86.7109 151.453Z" fill="#538DF7"/>
    <path opacity="0.25" d="M86.7109 151.453C86.7109 151.201 86.5628 150.989 86.2625 150.812L84.0519 149.521L85.8142 148.494C86.1144 148.321 86.2625 148.109 86.2625 147.857V142.62C86.2625 142.368 86.1144 142.155 85.8142 141.978L81.7086 139.586C81.4123 139.413 81.0458 139.326 80.6131 139.326C80.1803 139.326 79.8138 139.413 79.5136 139.586L73.2559 143.233L66.5498 139.326C66.2535 139.153 65.887 139.066 65.4503 139.066C65.0175 139.066 64.651 139.153 64.3547 139.326L59.2355 142.309C58.9353 142.482 58.7871 142.694 58.7871 142.946V142.95V148.187C58.791 148.439 58.9353 148.652 59.2316 148.825L61.4422 150.111L59.6371 151.162C59.3408 151.335 59.1926 151.548 59.1926 151.799H59.1848V157.037H59.1926V157.041C59.1926 157.292 59.3447 157.505 59.641 157.678L63.7465 160.07C64.0467 160.243 64.4093 160.334 64.8421 160.334C65.2748 160.334 65.6413 160.243 65.9377 160.074L72.2383 156.403L78.9443 160.31C79.2445 160.483 79.6071 160.57 80.0438 160.57C80.4766 160.57 80.8431 160.483 81.1433 160.31L86.2625 157.328C86.555 157.159 86.6953 156.95 86.7031 156.706H86.707V151.469H86.7031C86.7031 151.465 86.7109 151.461 86.7109 151.453Z" fill="black"/>
    <path opacity="0.25" d="M78.5698 149.82H84.5585L84.0516 149.525L85.8139 148.498C86.1142 148.325 86.2623 148.112 86.2623 147.861V142.623C86.2623 142.372 86.1142 142.159 85.8139 141.982L84.8041 141.392H78.5737V149.82H78.5698Z" fill="black"/>
    <path opacity="0.25" d="M80.0557 160.574C80.4845 160.574 80.8471 160.487 81.1434 160.314L86.2627 157.332C86.5551 157.162 86.6954 156.954 86.7032 156.71H86.7071V151.473H86.7032C86.7032 151.465 86.7071 151.461 86.7071 151.457C86.7071 151.355 86.6643 151.26 86.6175 151.174H80.0518V160.574H80.0557Z" fill="black"/>
    <path opacity="0.25" d="M59.2355 142.313C58.9353 142.486 58.7871 142.698 58.7871 142.95V142.954V148.191C58.791 148.443 58.9353 148.656 59.2316 148.829L61.4423 150.115H67.5206V141.892H59.9568L59.2355 142.313Z" fill="black"/>
    <path opacity="0.25" d="M64.8691 160.334C65.2902 160.33 65.6489 160.247 65.9374 160.078L72.238 156.407V151.17H64.8691V160.334Z" fill="black"/>
    <path d="M79.5565 146.905L86.2625 150.812C86.5628 150.985 86.7109 151.197 86.7109 151.453C86.7109 151.705 86.5628 151.917 86.2625 152.094L81.1433 155.077C80.8431 155.25 80.4805 155.337 80.0438 155.337C79.611 155.337 79.2445 155.25 78.9443 155.077L72.2383 151.17L65.9377 154.841C65.6413 155.014 65.2748 155.101 64.8421 155.101C64.4093 155.101 64.0467 155.014 63.7465 154.837L59.641 152.445C59.3447 152.272 59.1926 152.059 59.1926 151.807C59.1926 151.555 59.3447 151.339 59.641 151.166L65.9416 147.495L59.2355 143.587C58.9392 143.414 58.791 143.202 58.7871 142.946C58.7871 142.694 58.9353 142.482 59.2355 142.309L64.3547 139.326C64.6549 139.153 65.0175 139.066 65.4503 139.066C65.887 139.066 66.2496 139.153 66.5498 139.326L73.2559 143.233L79.5136 139.586C79.8138 139.413 80.1764 139.326 80.6131 139.326C81.0458 139.326 81.4123 139.413 81.7086 139.586L85.8142 141.978C86.1144 142.151 86.2625 142.364 86.2625 142.62C86.2625 142.871 86.1144 143.084 85.8142 143.257L79.5565 146.905Z" fill="#538DF7"/>
    <path d="M114.682 131.342L116.444 130.315C116.744 130.142 116.892 129.93 116.892 129.678V124.441C116.892 124.189 116.744 123.976 116.444 123.799L112.338 121.407C112.042 121.234 111.675 121.147 111.243 121.147C110.81 121.147 110.443 121.234 110.143 121.407L103.886 125.055L92.0719 131.937L90.2667 132.987C89.9704 133.16 89.8223 133.373 89.8223 133.625H89.8145V138.862H89.8223V138.866C89.8223 139.118 89.9743 139.33 90.2706 139.503L94.3761 141.895C94.6764 142.069 95.0389 142.159 95.4717 142.159C95.9045 142.159 96.271 142.069 96.5673 141.899L102.868 138.228L114.682 131.342Z" fill="#538DF7"/>
    <path opacity="0.25" d="M114.682 131.342L116.444 130.315C116.744 130.142 116.892 129.93 116.892 129.678V124.441C116.892 124.189 116.744 123.976 116.444 123.799L112.338 121.407C112.042 121.234 111.675 121.147 111.243 121.147C110.81 121.147 110.443 121.234 110.143 121.407L103.886 125.055L92.0719 131.937L90.2667 132.987C89.9704 133.16 89.8223 133.373 89.8223 133.625H89.8145V138.862H89.8223V138.866C89.8223 139.118 89.9743 139.33 90.2706 139.503L94.3761 141.895C94.6764 142.069 95.0389 142.159 95.4717 142.159C95.9045 142.159 96.271 142.069 96.5673 141.899L102.868 138.228L114.682 131.342Z" fill="black"/>
    <path opacity="0.25" d="M95.5498 135.871V142.139C95.9436 142.128 96.2906 142.057 96.5674 141.895L102.868 138.224L114.682 131.342L116.444 130.315C116.744 130.142 116.892 129.93 116.892 129.678V124.441C116.892 124.189 116.744 123.976 116.444 123.799L114.549 122.694L95.5498 135.871Z" fill="black"/>
    <path d="M110.186 128.726L102.867 132.987L96.5668 136.658C96.2705 136.831 95.904 136.918 95.4712 136.918C95.0385 136.918 94.6759 136.831 94.3757 136.654L90.2701 134.262C89.9738 134.089 89.8218 133.876 89.8218 133.624C89.8218 133.373 89.9738 133.156 90.2701 132.983L96.5707 129.312L103.889 125.051L110.147 121.403C110.447 121.23 110.809 121.143 111.246 121.143C111.683 121.143 112.045 121.23 112.342 121.403L116.447 123.795C116.747 123.968 116.896 124.181 116.896 124.437C116.896 124.689 116.747 124.901 116.447 125.074L110.186 128.726Z" fill="#538DF7"/>
    <g clip-path="url(#clip0)">
        <path d="M130.742 126.761L117.928 145.816C117.558 146.372 116.692 146.133 116.647 145.467L115.178 122.387L130.742 126.761Z" fill="#EDC446"/>
        <path d="M116.651 145.473C116.695 146.139 117.556 146.376 117.932 145.823L120.433 142.102C119.017 142.433 117.536 141.941 116.591 140.836L116.335 140.535L116.651 145.473Z" fill="#263238"/>
        <path d="M140.433 28.832L139.88 30.8851L139.204 33.3589L115.178 122.387C116.325 124.712 118.514 126.327 120.925 127.244C124.596 128.65 128.795 128.46 130.732 126.759L154.738 37.7868L156.017 33.0517C155.021 36.0684 139.471 31.8735 140.433 28.832Z" fill="#538DF7"/>
        <path opacity="0.25" d="M140.433 28.832L139.88 30.8851L139.204 33.3589L115.178 122.387C116.325 124.712 118.514 126.327 120.925 127.244C124.596 128.65 128.795 128.46 130.732 126.759L154.738 37.7868L156.017 33.0517C155.021 36.0684 139.471 31.8735 140.433 28.832Z" fill="black"/>
        <path d="M138.297 36.642L137.068 41.2305C136.67 42.5467 139.275 44.1707 142.474 45.3512C146.718 46.9317 152.151 47.1355 152.688 45.3928L153.6 42.0132L153.903 40.8004C153.371 42.5444 147.93 42.3489 143.687 40.7636C140.627 39.6256 138.096 38.073 138.268 36.7889L138.272 36.7745C138.269 36.7273 138.28 36.6888 138.297 36.642Z" fill="#EBEBEB"/>
        <path d="M138.001 37.7895C137.066 40.8484 152.672 45.0069 153.612 41.9493L154.857 37.3598C153.922 40.4187 138.311 36.259 139.251 33.2014L138.001 37.7895Z" fill="#538DF7"/>
        <path d="M140.432 28.832L139.204 33.3588C138.265 36.3548 153.291 40.4966 154.744 37.7832C154.776 37.7403 154.798 37.679 154.819 37.6178L156.023 33.0481C155.021 36.0683 139.471 31.8735 140.432 28.832Z" fill="#EBEBEB"/>
        <path d="M161.277 13.6247C161.286 13.591 161.32 13.4659 161.329 13.4322C161.919 11.2191 158.908 8.48528 154.598 7.32545C150.293 6.16691 146.319 7.02088 145.728 9.234L145.171 11.322L140.432 28.8321C140.023 30.1348 142.593 31.7546 145.763 32.943C150.004 34.5379 155.453 34.7771 156.023 33.0483C156.029 33.0448 156.029 33.0448 156.033 33.0303L161.25 13.7463C161.252 13.7209 161.275 13.6343 161.277 13.6247Z" fill="#E35492"/>
        <path opacity="0.2" d="M152.459 15.3408C156.767 16.5001 160.738 15.6456 161.329 13.4322C161.919 11.2188 158.906 8.48474 154.598 7.32543C150.29 6.16612 146.319 7.02061 145.728 9.23399C145.138 11.4474 148.151 14.1815 152.459 15.3408Z" fill="white"/>
        <path opacity="0.1" d="M154.738 37.7868L161.277 13.6246C160.665 15.4917 156.958 16.4122 153.39 15.5911L123.151 127.926L117.925 145.826L130.739 126.771L130.729 126.769L154.738 37.7868Z" fill="black"/>
    </g>
    <defs>
        <clipPath id="clip0">
            <rect width="31.3574" height="143.736" fill="white" transform="matrix(0.965645 0.259864 -0.257777 0.966204 135.049 2.0647)"/>
        </clipPath>
    </defs>
</svg>
