<svg width="312" height="212" viewBox="0 0 312 212" fill="none" xmlns="http://www.w3.org/2000/svg">
<g opacity="0.2">
<path d="M7.71786 99.5862V104.98H13.1104V106.64H7.71786V112.034H6.05861V106.64H0.666016V104.98H6.05861V99.5862H7.71786Z" fill="#538DF7"/>
<path d="M7.71786 5.39425V0H6.05861V5.39425H0.666016V7.05402H6.05861V12.4483H7.71786V7.05402H13.1104V5.39425H7.71786Z" fill="#538DF7"/>
<path d="M107.273 99.5862V104.98H112.666V106.64H107.273V112.034H105.614V106.64H100.222V104.98H105.614V99.5862H107.273Z" fill="#538DF7"/>
<path d="M57.4956 5.39425V0H55.8364V5.39425H50.4438V7.05402H55.8364V12.4483H57.4956V7.05402H62.8882V5.39425H57.4956Z" fill="#538DF7"/>
<path d="M107.273 5.39425V0H105.614V5.39425H100.222V7.05402H105.614V12.4483H107.273V7.05402H112.666V5.39425H107.273Z" fill="#538DF7"/>
<path d="M206.829 204.567V199.172H205.17V204.567H199.777V206.226H205.17V211.621H206.829V206.226H212.222V204.567H206.829Z" fill="#538DF7"/>
<path d="M157.051 99.5862V104.98H162.444V106.64H157.051V112.034H155.392V106.64H149.999V104.98H155.392V99.5862H157.051Z" fill="#538DF7"/>
<path d="M206.829 99.5862V104.98H212.222V106.64H206.829V112.034H205.17V106.64H199.777V104.98H205.17V99.5862H206.829Z" fill="#538DF7"/>
<path d="M157.051 5.39425V0H155.392V5.39425H149.999V7.05402H155.392V12.4483H157.051V7.05402H162.444V5.39425H157.051Z" fill="#538DF7"/>
<path d="M206.829 5.39425V0H205.17V5.39425H199.777V7.05402H205.17V12.4483H206.829V7.05402H212.222V5.39425H206.829Z" fill="#538DF7"/>
<path d="M256.607 99.5862V104.98H261.999V106.64H256.607V112.034H254.947V106.64H249.555V104.98H254.947V99.5862H256.607Z" fill="#538DF7"/>
<path d="M306.384 99.5862V104.98H311.777V106.64H306.384V112.034H304.725V106.64H299.333V104.98H304.725V99.5862H306.384Z" fill="#538DF7"/>
<path d="M256.607 5.39425V0H254.947V5.39425H249.555V7.05402H254.947V12.4483H256.607V7.05402H261.999V5.39425H256.607Z" fill="#538DF7"/>
<path d="M306.384 5.39425V0H304.725V5.39425H299.333V7.05402H304.725V12.4483H306.384V7.05402H311.777V5.39425H306.384Z" fill="#538DF7"/>
<path d="M7.71786 55.1874V49.7931H6.05861V55.1874H0.666016V56.8471H6.05861V62.2414H7.71786V56.8471H13.1104V55.1874H7.71786Z" fill="#538DF7"/>
<path d="M57.4956 55.1874V49.7931H55.8364V55.1874H50.4438V56.8471H55.8364V62.2414H57.4956V56.8471H62.8882V55.1874H57.4956Z" fill="#538DF7"/>
<path d="M107.273 55.1874V49.7931H105.614V55.1874H100.222V56.8471H105.614V62.2414H107.273V56.8471H112.666V55.1874H107.273Z" fill="#538DF7"/>
<path d="M157.051 149.379V154.774H162.444V156.433H157.051V161.828H155.392V156.433H149.999V154.774H155.392V149.379H157.051Z" fill="#538DF7"/>
<path d="M206.829 149.379V154.774H212.222V156.433H206.829V161.828H205.17V156.433H199.777V154.774H205.17V149.379H206.829Z" fill="#538DF7"/>
<path d="M157.051 55.1874V49.7931H155.392V55.1874H149.999V56.8471H155.392V62.2414H157.051V56.8471H162.444V55.1874H157.051Z" fill="#538DF7"/>
<path d="M206.829 55.1874V49.7931H205.17V55.1874H199.777V56.8471H205.17V62.2414H206.829V56.8471H212.222V55.1874H206.829Z" fill="#538DF7"/>
<path d="M256.607 55.1874V49.7931H254.947V55.1874H249.555V56.8471H254.947V62.2414H256.607V56.8471H261.999V55.1874H256.607Z" fill="#538DF7"/>
<path d="M306.384 55.1874V49.7931H304.725V55.1874H299.333V56.8471H304.725V62.2414H306.384V56.8471H311.777V55.1874H306.384Z" fill="#538DF7"/>
</g>
</svg>
