<svg width="162" height="113" viewBox="0 0 162 113" fill="none" xmlns="http://www.w3.org/2000/svg">
<g opacity="0.2">
<path d="M7.05185 49.7931V55.1873H12.4445V56.8471H7.05185V62.2414H5.39261V56.8471H0V55.1873H5.39261V49.7931H7.05185Z" fill="#538DF7"/>
<path d="M56.8297 49.7931V55.1873H62.2222V56.8471H56.8297V62.2414H55.1704V56.8471H49.7778V55.1873H55.1704V49.7931H56.8297Z" fill="#538DF7"/>
<path d="M106.607 49.7931V55.1873H112V56.8471H106.607V62.2414H104.948V56.8471H99.5556V55.1873H104.948V49.7931H106.607Z" fill="#538DF7"/>
<path d="M156.385 49.7931V55.1873H161.778V56.8471H156.385V62.2414H154.726V56.8471H149.333V55.1873H154.726V49.7931H156.385Z" fill="#538DF7"/>
<path d="M56.8297 99.5862V104.98H62.2222V106.64H56.8297V112.034H55.1704V106.64H49.7778V104.98H55.1704V99.5862H56.8297Z" fill="#538DF7"/>
<path d="M7.05185 5.39426V0H5.39261V5.39426H0V7.05402H5.39261V12.4483H7.05185V7.05402H12.4445V5.39426H7.05185Z" fill="#538DF7"/>
<path d="M106.607 5.39426V0H104.948V5.39426H99.5556V7.05402H104.948V12.4483H106.607V7.05402H112V5.39426H106.607Z" fill="#538DF7"/>
<path d="M156.385 5.39426V0H154.726V5.39426H149.333V7.05402H154.726V12.4483H156.385V7.05402H161.778V5.39426H156.385Z" fill="#538DF7"/>
</g>
</svg>
