<svg width="461" height="318" viewBox="0 0 461 318" fill="none" xmlns="http://www.w3.org/2000/svg">
<g opacity="0.2">
<path d="M7.05185 -37.6057V-43H5.39259L5.39259 -37.6057H0V-35.946H5.39259L5.39259 -30.5517H7.05185V-35.946H12.4444V-37.6057H7.05185Z" fill="#538DF7"/>
<path d="M56.8296 -37.6057V-43H55.1704V-37.6057H49.7778V-35.946H55.1704V-30.5517H56.8296V-35.946H62.2222V-37.6057H56.8296Z" fill="#538DF7"/>
<path d="M156.385 56.5862V61.9805H161.778V63.6402H156.385V69.0345H154.726V63.6402H149.333V61.9805H154.726V56.5862H156.385Z" fill="#538DF7"/>
<path d="M106.607 -37.6057V-43H104.948V-37.6057H99.5555V-35.946H104.948V-30.5517H106.607V-35.946H112V-37.6057H106.607Z" fill="#538DF7"/>
<path d="M156.385 -37.6057V-43H154.726V-37.6057H149.333V-35.946H154.726V-30.5517H156.385V-35.946H161.778V-37.6057H156.385Z" fill="#538DF7"/>
<path d="M206.163 56.5862V61.9805H211.556V63.6402H206.163V69.0345H204.504V63.6402H199.111V61.9805H204.504V56.5862H206.163Z" fill="#538DF7"/>
<path d="M206.163 -37.6057V-43H204.504V-37.6057H199.111V-35.946H204.504V-30.5517H206.163V-35.946H211.556V-37.6057H206.163Z" fill="#538DF7"/>
<path d="M255.941 -37.6057V-43H254.281V-37.6057H248.889V-35.946H254.281V-30.5517H255.941V-35.946H261.333V-37.6057H255.941Z" fill="#538DF7"/>
<path d="M305.719 161.567V156.172H304.059V161.567H298.667V163.226H304.059V168.621H305.719V163.226H311.111V161.567H305.719Z" fill="#538DF7"/>
<path d="M355.496 161.567V156.172H353.837V161.567H348.444V163.226H353.837V168.621H355.496V163.226H360.889V161.567H355.496Z" fill="#538DF7"/>
<path d="M305.719 56.5862V61.9805H311.111V63.6402H305.719V69.0345H304.059V63.6402H298.667V61.9805H304.059V56.5862H305.719Z" fill="#538DF7"/>
<path d="M355.496 56.5862V61.9805H360.889V63.6402H355.496V69.0345H353.837V63.6402H348.444V61.9805H353.837V56.5862H355.496Z" fill="#538DF7"/>
<path d="M305.719 -37.6057V-43H304.059V-37.6057H298.667V-35.946H304.059V-30.5517H305.719V-35.946H311.111V-37.6057H305.719Z" fill="#538DF7"/>
<path d="M355.496 -37.6057V-43H353.837V-37.6057H348.444V-35.946H353.837V-30.5517H355.496V-35.946H360.889V-37.6057H355.496Z" fill="#538DF7"/>
<path d="M405.274 255.759V261.153H410.667V262.813H405.274V268.207H403.615V262.813H398.222V261.153H403.615V255.759H405.274Z" fill="#538DF7"/>
<path d="M455.052 255.759V261.153H460.444V262.813H455.052V268.207H453.393V262.813H448V261.153H453.393V255.759H455.052Z" fill="#538DF7"/>
<path d="M405.274 161.567V156.172H403.615V161.567H398.222V163.226H403.615V168.621H405.274V163.226H410.667V161.567H405.274Z" fill="#538DF7"/>
<path d="M405.274 56.5862V61.9805H410.667V63.6402H405.274V69.0345H403.615V63.6402H398.222V61.9805H403.615V56.5862H405.274Z" fill="#538DF7"/>
<path d="M405.274 -37.6057V-43H403.615V-37.6057H398.222V-35.946H403.615V-30.5517H405.274V-35.946H410.667V-37.6057H405.274Z" fill="#538DF7"/>
<path d="M7.05185 12.1874V6.7931H5.39259L5.39259 12.1874H0V13.8471H5.39259L5.39259 19.2414H7.05185V13.8471H12.4444V12.1874H7.05185Z" fill="#538DF7"/>
<path d="M56.8296 12.1874V6.7931H55.1704V12.1874H49.7778V13.8471H55.1704V19.2414H56.8296V13.8471H62.2222V12.1874H56.8296Z" fill="#538DF7"/>
<path d="M106.607 106.379V111.774H112V113.433H106.607V118.828H104.948V113.433H99.5555V111.774H104.948V106.379H106.607Z" fill="#538DF7"/>
<path d="M156.385 106.379V111.774H161.778V113.433H156.385V118.828H154.726V113.433H149.333V111.774H154.726V106.379H156.385Z" fill="#538DF7"/>
<path d="M106.607 12.1874V6.7931H104.948V12.1874H99.5555V13.8471H104.948V19.2414H106.607V13.8471H112V12.1874H106.607Z" fill="#538DF7"/>
<path d="M156.385 12.1874V6.7931H154.726V12.1874H149.333V13.8471H154.726V19.2414H156.385V13.8471H161.778V12.1874H156.385Z" fill="#538DF7"/>
<path d="M206.163 106.379V111.774H211.556V113.433H206.163V118.828H204.504V113.433H199.111V111.774H204.504V106.379H206.163Z" fill="#538DF7"/>
<path d="M206.163 12.1874V6.7931H204.504V12.1874H199.111V13.8471H204.504V19.2414H206.163V13.8471H211.556V12.1874H206.163Z" fill="#538DF7"/>
<path d="M255.941 12.1874V6.7931H254.281V12.1874H248.889V13.8471H254.281V19.2414H255.941V13.8471H261.333V12.1874H255.941Z" fill="#538DF7"/>
<path d="M355.496 305.552V310.946H360.889V312.606H355.496V318H353.837V312.606H348.444V310.946H353.837V305.552H355.496Z" fill="#538DF7"/>
<path d="M305.719 211.36V205.966H304.059V211.36H298.667V213.02H304.059V218.414H305.719V213.02H311.111V211.36H305.719Z" fill="#538DF7"/>
<path d="M305.719 106.379V111.774H311.111V113.433H305.719V118.828H304.059V113.433H298.667V111.774H304.059V106.379H305.719Z" fill="#538DF7"/>
<path d="M355.496 106.379V111.774H360.889V113.433H355.496V118.828H353.837V113.433H348.444V111.774H353.837V106.379H355.496Z" fill="#538DF7"/>
<path d="M305.719 12.1874V6.7931H304.059V12.1874H298.667V13.8471H304.059V19.2414H305.719V13.8471H311.111V12.1874H305.719Z" fill="#538DF7"/>
<path d="M355.496 12.1874V6.7931H353.837V12.1874H348.444V13.8471H353.837V19.2414H355.496V13.8471H360.889V12.1874H355.496Z" fill="#538DF7"/>
<path d="M405.274 211.36V205.966H403.615V211.36H398.222V213.02H403.615V218.414H405.274V213.02H410.667V211.36H405.274Z" fill="#538DF7"/>
<path d="M405.274 106.379V111.774H410.667V113.433H405.274V118.828H403.615V113.433H398.222V111.774H403.615V106.379H405.274Z" fill="#538DF7"/>
<path d="M405.274 12.1874V6.7931H403.615V12.1874H398.222V13.8471H403.615V19.2414H405.274V13.8471H410.667V12.1874H405.274Z" fill="#538DF7"/>
</g>
</svg>
