<svg width="163" height="212" viewBox="0 0 163 212" fill="none" xmlns="http://www.w3.org/2000/svg">
<g opacity="0.2">
<path d="M7.38388 49.7931V55.1874H12.7765V56.8471H7.38388V62.2414H5.72462V56.8471H0.332031V55.1874H5.72462V49.7931H7.38388Z" fill="white"/>
<path d="M106.939 154.774V149.379H105.28V154.774H99.8876V156.433H105.28V161.828H106.939V156.433H112.332V154.774H106.939Z" fill="white"/>
<path d="M57.1617 49.7931V55.1874H62.5542V56.8471H57.1617V62.2414H55.5024V56.8471H50.1098V55.1874H55.5024V49.7931H57.1617Z" fill="white"/>
<path d="M106.939 49.7931V55.1874H112.332V56.8471H106.939V62.2414H105.28V56.8471H99.8876V55.1874H105.28V49.7931H106.939Z" fill="white"/>
<path d="M156.717 154.774V149.379H155.058V154.774H149.665V156.433H155.058V161.828H156.717V156.433H162.11V154.774H156.717Z" fill="white"/>
<path d="M156.717 49.7931V55.1874H162.11V56.8471H156.717V62.2414H155.058V56.8471H149.665V55.1874H155.058V49.7931H156.717Z" fill="white"/>
<path d="M7.38388 99.5862V104.98H12.7765V106.64H7.38388V112.034H5.72462V106.64H0.332031V104.98H5.72462V99.5862H7.38388Z" fill="white"/>
<path d="M106.939 204.567V199.172H105.28V204.567H99.8876V206.226H105.28V211.621H106.939V206.226H112.332V204.567H106.939Z" fill="white"/>
<path d="M57.1617 99.5862V104.98H62.5542V106.64H57.1617V112.034H55.5024V106.64H50.1098V104.98H55.5024V99.5862H57.1617Z" fill="white"/>
<path d="M106.939 99.5862V104.98H112.332V106.64H106.939V112.034H105.28V106.64H99.8876V104.98H105.28V99.5862H106.939Z" fill="white"/>
<path d="M57.1617 5.39425V0H55.5024V5.39425H50.1098V7.05402H55.5024V12.4483H57.1617V7.05402H62.5542V5.39425H57.1617Z" fill="white"/>
<path d="M106.939 5.39425V0H105.28V5.39425H99.8876V7.05402H105.28V12.4483H106.939V7.05402H112.332V5.39425H106.939Z" fill="white"/>
<path d="M156.717 99.5862V104.98H162.11V106.64H156.717V112.034H155.058V106.64H149.665V104.98H155.058V99.5862H156.717Z" fill="white"/>
</g>
</svg>
