<svg width="113" height="212" viewBox="0 0 113 212" fill="none" xmlns="http://www.w3.org/2000/svg">
<g opacity="0.2">
<path d="M7.60654 154.774V149.379H5.94728V154.774H0.554688V156.433H5.94728V161.828H7.60654V156.433H12.9991V154.774H7.60654Z" fill="white"/>
<path d="M57.3843 154.774V149.379H55.7251V154.774H50.3325V156.433H55.7251V161.828H57.3843V156.433H62.7769V154.774H57.3843Z" fill="white"/>
<path d="M7.60654 49.7931V55.1874H12.9991V56.8471H7.60654V62.2414H5.94728V56.8471H0.554688V55.1874H5.94728V49.7931H7.60654Z" fill="white"/>
<path d="M57.3843 49.7931V55.1874H62.7769V56.8471H57.3843V62.2414H55.7251V56.8471H50.3325V55.1874H55.7251V49.7931H57.3843Z" fill="white"/>
<path d="M107.162 154.774V149.379H105.503V154.774H100.11V156.433H105.503V161.828H107.162V156.433H112.555V154.774H107.162Z" fill="white"/>
<path d="M107.162 49.7931V55.1874H112.555V56.8471H107.162V62.2414H105.503V56.8471H100.11V55.1874H105.503V49.7931H107.162Z" fill="white"/>
<path d="M57.3843 204.567V199.172H55.7251V204.567H50.3325V206.226H55.7251V211.621H57.3843V206.226H62.7769V204.567H57.3843Z" fill="white"/>
<path d="M7.60654 99.5862V104.98H12.9991V106.64H7.60654V112.034H5.94728V106.64H0.554688V104.98H5.94728V99.5862H7.60654Z" fill="white"/>
<path d="M57.3843 99.5862V104.98H62.7769V106.64H57.3843V112.034H55.7251V106.64H50.3325V104.98H55.7251V99.5862H57.3843Z" fill="white"/>
<path d="M7.60654 5.39425V0H5.94728V5.39425H0.554688V7.05402H5.94728V12.4483H7.60654V7.05402H12.9991V5.39425H7.60654Z" fill="white"/>
<path d="M57.3843 5.39425V0H55.7251V5.39425H50.3325V7.05402H55.7251V12.4483H57.3843V7.05402H62.7769V5.39425H57.3843Z" fill="white"/>
<path d="M107.162 99.5862V104.98H112.555V106.64H107.162V112.034H105.503V106.64H100.11V104.98H105.503V99.5862H107.162Z" fill="white"/>
<path d="M107.162 5.39425V0H105.503V5.39425H100.11V7.05402H105.503V12.4483H107.162V7.05402H112.555V5.39425H107.162Z" fill="white"/>
</g>
</svg>
